<?xml version="1.0" encoding="UTF-8"?>
<svg width="323px" height="4px" viewBox="0 0 323 4" version="1.1" xmlns="http://www.w3.org/2000/svg" xmlns:xlink="http://www.w3.org/1999/xlink">
    <title>E8EDFFFB-6B0E-4EDB-811B-B05003DE4581</title>
    <g id="UI-kit" stroke="none" stroke-width="1" fill="none" fill-rule="evenodd">
        <g id="Earth-Dashboard-UI-kit" transform="translate(-1042.000000, -4084.000000)" fill="#003E85" fill-rule="nonzero">
            <path d="M1365,4088 L1365,4084 L1350,4084 L1350,4088 L1365,4088 Z M1343,4088 L1343,4084 L1328,4084 L1328,4088 L1343,4088 Z M1321,4088 L1321,4084 L1306,4084 L1306,4088 L1321,4088 Z M1299,4088 L1299,4084 L1284,4084 L1284,4088 L1299,4088 Z M1277,4088 L1277,4084 L1262,4084 L1262,4088 L1277,4088 Z M1255,4088 L1255,4084 L1240,4084 L1240,4088 L1255,4088 Z M1233,4088 L1233,4084 L1218,4084 L1218,4088 L1233,4088 Z M1211,4088 L1211,4084 L1196,4084 L1196,4088 L1211,4088 Z M1189,4088 L1189,4084 L1174,4084 L1174,4088 L1189,4088 Z M1167,4088 L1167,4084 L1152,4084 L1152,4088 L1167,4088 Z M1145,4088 L1145,4084 L1130,4084 L1130,4088 L1145,4088 Z M1123,4088 L1123,4084 L1108,4084 L1108,4088 L1123,4088 Z M1101,4088 L1101,4084 L1086,4084 L1086,4088 L1101,4088 Z M1079,4088 L1079,4084 L1064,4084 L1064,4088 L1079,4088 Z M1057,4088 L1057,4084 L1042,4084 L1042,4088 L1057,4088 Z" id="divider"></path>
        </g>
    </g>
</svg>