<?xml version="1.0" encoding="UTF-8"?>
<svg width="24px" height="34px" viewBox="0 0 24 34" version="1.1" xmlns="http://www.w3.org/2000/svg" xmlns:xlink="http://www.w3.org/1999/xlink">
    <title>EBD73345-9664-4C44-8F8F-732961292771</title>
    <g id="UI-kit" stroke="none" stroke-width="1" fill="none" fill-rule="evenodd">
        <g id="Earth-Dashboard-UI-kit---Freshwater" transform="translate(-661.000000, -101.000000)" fill-rule="nonzero">
            <g id="drop-map-marker" transform="translate(663.000000, 105.000000)">
                <path d="M10.0005837,-1.53120826 C10.25184,-1.24248671 10.505193,-0.948480469 10.760638,-0.649176278 C17.6783422,7.45627804 21,13.4360029 21,17.239819 C21,20.2773851 19.7687831,23.0273851 17.7781746,25.0179936 C15.7875661,27.0086021 13.0375661,28.239819 10,28.239819 C6.96243388,28.239819 4.21243388,27.0086021 2.22182541,25.0179936 C0.231216938,23.0273851 -1,20.2773851 -1,17.239819 C-1,13.4360029 2.32165779,7.45627804 9.239362,-0.649176278 C9.49522924,-0.948975186 9.74899754,-1.24345862 10.0005837,-1.53120826 Z" id="Oval" stroke="#003E85" stroke-width="2" fill="#FFFFFF"></path>
                <path d="M19.3344136,20.8346218 C17.8905359,24.581409 14.2557204,27.239819 10,27.239819 C5.74427956,27.239819 2.10946406,24.581409 0.665586351,20.8346218 Z" id="Combined-Shape" fill="#F35600"></path>
            </g>
        </g>
    </g>
</svg>