<?xml version="1.0" encoding="UTF-8"?>
<svg width="105px" height="113px" viewBox="0 0 105 113" version="1.1" xmlns="http://www.w3.org/2000/svg" xmlns:xlink="http://www.w3.org/1999/xlink">
    <title>3230B6D1-9165-4FB5-808C-183530871D89</title>
    <g id="UI-kit" stroke="none" stroke-width="1" fill="none" fill-rule="evenodd">
        <g id="Earth-Dashboard-UI-kit---Ocean" transform="translate(-644.000000, -3487.000000)" fill="#F35600" fill-rule="nonzero">
            <path id="Path-Copy-3" d="M716.172238,3487.64141 L717.452673,3491.43093 L702.946,3496.332 L714.967596,3498.60128 C715.090995,3498.62457 715.211926,3498.65943 715.328787,3498.7054 C735.058046,3506.46618 748.30127,3525.55356 748.30127,3547.11352 C748.30127,3575.83233 725.020077,3599.11352 696.30127,3599.11352 C667.582463,3599.11352 644.30127,3575.83233 644.30127,3547.11352 C644.30127,3534.54422 648.779575,3522.66431 656.778912,3513.31882 L657.188688,3512.84582 L660.196297,3515.48291 C652.57401,3524.17613 648.30127,3535.31085 648.30127,3547.11352 C648.30127,3573.62319 669.791602,3595.11352 696.30127,3595.11352 C722.810938,3595.11352 744.30127,3573.62319 744.30127,3547.11352 C744.30127,3527.41032 732.319665,3509.94427 714.409097,3502.64581 L714.034,3502.495 L702.203,3500.262 L713.926297,3510.11476 L711.352687,3513.17687 L693.786152,3498.41274 C692.633409,3497.4439 692.932029,3495.6177 694.283885,3495.04355 L694.432739,3494.98693 L716.172238,3487.64141 Z"></path>
        </g>
    </g>
</svg>