<?xml version="1.0" encoding="UTF-8"?>
<svg width="534px" height="237px" viewBox="0 0 534 237" version="1.1" xmlns="http://www.w3.org/2000/svg" xmlns:xlink="http://www.w3.org/1999/xlink">
    <title>D09A774E-8C15-4DE3-B14A-9D1884F922EF</title>
    <g id="UI-kit" stroke="none" stroke-width="1" fill="none" fill-rule="evenodd">
        <g id="Earth-Dashboard-UI-kit---Ocean" transform="translate(-152.000000, -3709.000000)" fill="#F35600" fill-rule="nonzero">
            <path id="Path" d="M375.678063,3709.60858 L424.536417,3735.02238 C428.272167,3736.96554 428.509968,3742.18614 425.046567,3744.48017 L424.850347,3744.60457 L377.76018,3773.16181 L372.056269,3763.75621 L401.193,3746.086 L374.476,3746.961 L370.921476,3747.2072 C252.476512,3755.73112 165.276342,3795.01679 163.526807,3838.66257 L163.5,3840 C163.5,3890.75047 277.686279,3934.5 419,3934.5 C560.313721,3934.5 674.5,3890.75047 674.5,3840 C674.5,3811.59531 637.651178,3783.79175 575.275277,3765.62451 L573.377296,3765.07695 L576.399686,3754.50032 C644.183916,3773.87041 685.5,3804.72618 685.5,3840 C685.5,3899.70648 565.978918,3945.5 419,3945.5 C272.021082,3945.5 152.5,3899.70648 152.5,3840 C152.5,3787.4868 245.049859,3745.24431 370.032263,3736.24257 L373.829474,3735.97999 L374.013166,3735.9709 L400.831,3735.091 L370.602011,3719.36736 L375.678063,3709.60858 Z"></path>
        </g>
    </g>
</svg>