<?xml version="1.0" encoding="UTF-8"?>
<svg width="38px" height="38px" viewBox="0 0 38 38" version="1.1" xmlns="http://www.w3.org/2000/svg" xmlns:xlink="http://www.w3.org/1999/xlink">
    <title>DBA8052E-7BA4-4B6A-97F6-91B25468815C</title>
    <g id="UI-kit" stroke="none" stroke-width="1" fill="none" fill-rule="evenodd">
        <g id="Earth-Dashboard-UI-kit---Ocean" transform="translate(-1148.000000, -3591.000000)" stroke="#174F59">
            <g id="bottle-icon" transform="translate(1149.000000, 3592.000000)">
                <circle id="Oval" stroke-width="2" fill="#FFFFFF" fill-rule="nonzero" cx="18" cy="18" r="18"></circle>
                <g id="business-message-bottle" transform="translate(8.000000, 8.000000)" stroke-linecap="round" stroke-linejoin="round" stroke-width="1.5">
                    <path d="M12.68625,14.05275 L15.483,8.35275 C15.8731014,7.55805388 15.8661544,6.62604267 15.46425,5.83725 C15.0623456,5.04845733 15.0553986,4.11644612 15.4455,3.32175 L16.3125,1.55325 L14.29275,0.56175 L13.425,2.3295 C13.0350606,3.12428075 12.2937539,3.68915197 11.424,3.85425 C10.5541669,4.01908118 9.81261727,4.58364798 9.42225,5.37825 L6.15,12.051" id="Path"></path>
                    <path d="M0.5625,13.56225 C1.80404318,12.4656739 3.40605443,11.8649197 5.0625,11.87475 C7.875,11.87475 12.9375,16.62525 17.4375,12.12525" id="Path"></path>
                    <path d="M0.5625,16.93725 C1.80404318,15.8406739 3.40605443,15.2399197 5.0625,15.24975 C7.875,15.24975 12.9375,20.00025 17.4375,15.50025" id="Path"></path>
                </g>
            </g>
        </g>
    </g>
</svg>