<?xml version="1.0" encoding="UTF-8"?>
<svg width="974px" height="499px" viewBox="0 0 974 499" version="1.1" xmlns="http://www.w3.org/2000/svg" xmlns:xlink="http://www.w3.org/1999/xlink">
    <title>4D250DC5-F089-49B4-8602-3AC0B7730CB3</title>
    <g id="visuals" stroke="none" stroke-width="1" fill="none" fill-rule="evenodd">
        <g id="Earth-HQ---Indicator---Oceans" transform="translate(-137.000000, -3898.000000)">
            <g id="Group" transform="translate(137.000000, 3898.000000)">
                <g id="Group-5" transform="translate(41.000000, 7.000000)">
                    <polygon id="Path" fill="#B7C2CC" fill-rule="nonzero" points="0.185476523 279.125855 0.185476523 457.749599 73.5903391 457.749599 91.9415547 457.749599 128.643986 457.749599 165.346417 457.749599 202.048849 457.749599 238.75128 457.749599 275.453711 457.749599 293.804927 457.749599 330.507358 457.749599 385.561005 457.749599 422.263436 457.749599 477.317083 457.749599 550.721946 457.749599 587.424377 457.749599 624.126808 457.749599 642.478024 457.749599 679.180455 457.749599 715.882887 457.749599 752.585318 457.749599 789.287749 457.749599 789.287749 429.382892 789.287749 429.382892 752.585318 424.920713 715.882887 410.213735 679.180455 413.127813 642.478024 405.159637 624.126808 396.736135 587.424377 366.684728 550.721946 355.165021 477.317083 344.4649 422.263436 338.818877 385.561005 318.283749 330.507358 319.649722 293.804927 310.133444 275.453711 314.231362 238.75128 310.08791 202.048849 314.094766 165.346417 318.10162 128.643986 286.31998 91.9415547 288.004679 73.5903391 271.749599"></polygon>
                    <polygon id="Path" fill="#ED3E2E" fill-rule="nonzero" points="0.185476523 0.797022623 0.185476523 48.2209104 73.5903391 41.2970235 91.9415547 62.5429245 128.643986 65.1986621 165.346417 79.8052199 202.048849 87.0136505 238.75128 116.179342 275.453711 127.086837 293.804927 86.7765323 330.507358 110.915291 385.561005 122.581567 422.263436 110.061661 477.317083 129.837422 550.721946 112.764823 587.424377 131.829224 624.126808 157.201005 642.478024 145.155338 679.180455 137.994331 715.882887 152.553463 752.585318 158.908264 789.287749 162.749599 789.287749 0.797022623 752.585318 0.84444628 715.882887 0.797022623 679.180455 0.84444628 642.478024 0.749598966 624.126808 0.797022623 587.424377 0.797022623 550.721946 0.797022623 477.317083 0.797022623 422.263436 0.84444628 385.561005 0.797022623 330.507358 0.797022623 293.804927 0.797022623 275.453711 0.797022623 238.75128 0.84444628 202.048849 0.797022623 165.346417 0.749598966 128.643986 0.797022623 91.9415547 0.797022623 73.5903391 0.797022623"></polygon>
                    <polygon id="Path" fill="#D5DCE1" fill-rule="nonzero" points="0.185476523 47.3960842 0.185476523 278.520806 73.5903391 271.145937 91.9415547 287.397961 128.643986 285.713579 165.346417 317.489245 202.048849 313.483144 238.75128 309.477041 275.453711 313.619715 293.804927 309.522566 330.507358 319.037056 385.561005 317.671339 422.263436 338.202608 477.317083 343.847569 550.721946 354.545679 587.424377 366.06322 624.126808 396.108978 642.478024 404.530897 679.180455 412.497575 715.882887 409.584045 752.585318 424.288258 789.287749 428.749599 789.287749 157.336246 752.585318 153.648812 715.882887 147.548612 679.180455 133.572783 642.478024 140.446889 624.126808 152.009953 587.424377 127.654678 550.721946 109.354081 477.317083 125.742676 422.263436 106.75922 385.561005 118.777523 330.507358 107.57865 293.804927 84.4069969 275.453711 123.102292 238.75128 112.6318 202.048849 84.6346151 165.346417 77.7149862 128.643986 63.6936319 91.9415547 61.1442949 73.5903391 40.749599"></polygon>
                    <polyline id="Path" stroke="#FFFFFF" stroke-width="2" stroke-linecap="square" points="0.185476523 278.189808 73.5903391 270.749599 91.9415547 287.145613 128.643986 285.446307 165.346417 317.503499 202.048849 313.461905 238.75128 309.420309 275.453711 313.599686 293.804927 309.466238 330.507358 319.065024 385.561005 317.687207 422.263436 338.400379 477.317083 344.095354 550.721946 354.888247 587.424377 366.507831 624.126808 396.819789 642.478024 405.316324 679.180455 413.353585 715.882887 410.414242 752.585318 425.248731 789.287749 429.749599"></polyline>
                </g>
                <rect id="Rectangle" fill="#7C90A2" fill-rule="nonzero" x="32" y="473" width="799" height="1"></rect>
                <text id="1975" font-family="BarlowCondensed-Regular, Barlow Condensed" font-size="14" font-style="condensed" font-weight="normal" fill="#38444F">
                    <tspan x="60" y="495">1975</tspan>
                </text>
                <text id="1980" font-family="BarlowCondensed-Regular, Barlow Condensed" font-size="14" font-style="condensed" font-weight="normal" fill="#38444F">
                    <tspan x="150" y="495">1980</tspan>
                </text>
                <text id="1985" font-family="BarlowCondensed-Regular, Barlow Condensed" font-size="14" font-style="condensed" font-weight="normal" fill="#38444F">
                    <tspan x="240" y="495">1985</tspan>
                </text>
                <text id="1990" font-family="BarlowCondensed-Regular, Barlow Condensed" font-size="14" font-style="condensed" font-weight="normal" fill="#38444F">
                    <tspan x="330" y="495">1990</tspan>
                </text>
                <text id="1995" font-family="BarlowCondensed-Regular, Barlow Condensed" font-size="14" font-style="condensed" font-weight="normal" fill="#38444F">
                    <tspan x="421" y="496">1995</tspan>
                </text>
                <text id="2000" font-family="BarlowCondensed-Regular, Barlow Condensed" font-size="14" font-style="condensed" font-weight="normal" fill="#38444F">
                    <tspan x="511" y="496">2000</tspan>
                </text>
                <text id="2005" font-family="BarlowCondensed-Regular, Barlow Condensed" font-size="14" font-style="condensed" font-weight="normal" fill="#38444F">
                    <tspan x="604" y="496">2005</tspan>
                </text>
                <text id="2010" font-family="BarlowCondensed-Regular, Barlow Condensed" font-size="14" font-style="condensed" font-weight="normal" fill="#38444F">
                    <tspan x="697" y="495">2010</tspan>
                </text>
                <text id="2015" font-family="BarlowCondensed-Regular, Barlow Condensed" font-size="14" font-style="condensed" font-weight="normal" fill="#38444F">
                    <tspan x="788" y="495">2015</tspan>
                </text>
                <text id="0" font-family="BarlowCondensed-Regular, Barlow Condensed" font-size="14" font-style="condensed" font-weight="normal" fill="#38444F">
                    <tspan x="20.784" y="478">0</tspan>
                </text>
                <text id="25%" font-family="BarlowCondensed-Regular, Barlow Condensed" font-size="14" font-style="condensed" font-weight="normal" line-spacing="17.5" fill="#38444F">
                    <tspan x="4.712" y="361">25%</tspan>
                </text>
                <text id="50%" font-family="BarlowCondensed-Regular, Barlow Condensed" font-size="14" font-style="condensed" font-weight="normal" fill="#38444F">
                    <tspan x="4.124" y="245">50%</tspan>
                </text>
                <text id="100%" font-family="BarlowCondensed-Regular, Barlow Condensed" font-size="14" font-style="condensed" font-weight="normal" fill="#38444F">
                    <tspan x="0.05" y="14">100%</tspan>
                </text>
                <text id="75%-copy" font-family="BarlowCondensed-Regular, Barlow Condensed" font-size="14" font-style="condensed" font-weight="normal" fill="#38444F">
                    <tspan x="5.216" y="130">75%</tspan>
                </text>
                <rect id="Rectangle" fill="#7C90A2" fill-rule="nonzero" x="32" y="7" width="1" height="466"></rect>
                <text id="Biologically-unsusta" font-family="Barlow-Medium, Barlow" font-size="14" font-weight="400" fill="#1A2129">
                    <tspan x="858" y="14">Biologically </tspan>
                    <tspan x="858" y="31">unsustainable</tspan>
                </text>
                <line x1="834" y1="9.5" x2="851" y2="9.5" id="Path-13" stroke="#9EB3C8" fill-rule="nonzero"></line>
                <text id="Biologically-sustain" font-family="Barlow-Regular, Barlow" font-size="12" font-weight="normal" fill="#38444F">
                    <tspan x="858" y="168">Biologically </tspan>
                    <tspan x="858" y="182">sustainable</tspan>
                </text>
                <line x1="834" y1="164.5" x2="851" y2="164.5" id="Path-13" stroke="#9EB3C8" fill-rule="nonzero"></line>
                <text id="Underfished-stocks" font-family="Barlow-Regular, Barlow" font-size="12" font-weight="normal" fill="#38444F">
                    <tspan x="858" y="441">Underfished </tspan>
                    <tspan x="858" y="455">stocks</tspan>
                </text>
                <line x1="834" y1="437.5" x2="851" y2="437.5" id="Path-13" stroke="#9EB3C8" fill-rule="nonzero"></line>
            </g>
        </g>
    </g>
</svg>