<svg width="24" height="24" viewBox="0 0 36 36" fill="none" xmlns="http://www.w3.org/2000/svg">
<rect width="36" height="36" rx="16" fill="#002841"/>
<svg x="5.2" y="5" width="36" height="36" viewBox="0 0 32 32" fill="none" xmlns="http://www.w3.org/2000/svg">
<path d="M11 22C9.49474 22 8.0713 21.7105 6.72968 21.1316C5.38884 20.5526 4.2213 19.766 3.22705 18.7718C2.23358 17.7783 1.44737 16.6112 0.868421 15.2703C0.289474 13.9287 0 12.5053 0 11C0 9.47544 0.289474 8.04737 0.868421 6.71579C1.44737 5.38421 2.23358 4.2213 3.22705 3.22705C4.2213 2.23358 5.38884 1.44737 6.72968 0.868421C8.0713 0.289474 9.49474 0 11 0C12.5246 0 13.9526 0.289474 15.2842 0.868421C16.6158 1.44737 17.7783 2.23358 18.7718 3.22705C19.766 4.2213 20.5526 5.38421 21.1316 6.71579C21.7105 8.04737 22 9.47544 22 11C22 12.5053 21.7105 13.9287 21.1316 15.2703C20.5526 16.6112 19.766 17.7783 18.7718 18.7718C17.7783 19.766 16.6158 20.5526 15.2842 21.1316C13.9526 21.7105 12.5246 22 11 22ZM11 20.2342C11.5982 19.4623 12.0954 18.6761 12.4914 17.8756C12.8866 17.0743 13.2193 16.2009 13.4895 15.2553H8.51053C8.7807 16.2202 9.11379 17.1029 9.50979 17.9034C9.90502 18.7046 10.4018 19.4816 11 20.2342ZM8.77105 19.9158C8.32719 19.2789 7.92695 18.5553 7.57032 17.7447C7.21291 16.9342 6.93772 16.1044 6.74474 15.2553H2.80789C3.42544 16.4518 4.24561 17.4603 5.26842 18.2808C6.29123 19.1006 7.45877 19.6456 8.77105 19.9158ZM13.2289 19.9158C14.5412 19.6456 15.7088 19.1006 16.7316 18.2808C17.7544 17.4603 18.5746 16.4518 19.1921 15.2553H15.2553C15.0237 16.1044 14.7342 16.9388 14.3868 17.7586C14.0395 18.5792 13.6535 19.2982 13.2289 19.9158ZM2.08421 13.5184H6.39737C6.32017 13.0939 6.26228 12.6739 6.22368 12.2586C6.18509 11.8441 6.16579 11.4246 6.16579 11C6.16579 10.5754 6.18509 10.1555 6.22368 9.74021C6.26228 9.32568 6.32017 8.90614 6.39737 8.48158H2.08421C1.96842 8.86754 1.88158 9.27281 1.82368 9.69737C1.76579 10.1219 1.73684 10.5561 1.73684 11C1.73684 11.4439 1.76579 11.8781 1.82368 12.3026C1.88158 12.7272 1.96842 13.1325 2.08421 13.5184ZM8.13421 13.5184H13.8658C13.943 13.0939 14.0009 12.6789 14.0395 12.2737C14.0781 11.8684 14.0974 11.4439 14.0974 11C14.0974 10.5561 14.0781 10.1316 14.0395 9.72632C14.0009 9.32105 13.943 8.90614 13.8658 8.48158H8.13421C8.05702 8.90614 7.99912 9.32105 7.96053 9.72632C7.92193 10.1316 7.90263 10.5561 7.90263 11C7.90263 11.4439 7.92193 11.8684 7.96053 12.2737C7.99912 12.6789 8.05702 13.0939 8.13421 13.5184ZM15.6026 13.5184H19.9158C20.0316 13.1325 20.1184 12.7272 20.1763 12.3026C20.2342 11.8781 20.2632 11.4439 20.2632 11C20.2632 10.5561 20.2342 10.1219 20.1763 9.69737C20.1184 9.27281 20.0316 8.86754 19.9158 8.48158H15.6026C15.6798 8.90614 15.7377 9.32568 15.7763 9.74021C15.8149 10.1555 15.8342 10.5754 15.8342 11C15.8342 11.4246 15.8149 11.8441 15.7763 12.2586C15.7377 12.6739 15.6798 13.0939 15.6026 13.5184ZM15.2553 6.74474H19.1921C18.5746 5.52895 17.7594 4.52042 16.7466 3.71916C15.7331 2.91867 14.5605 2.36404 13.2289 2.05526C13.6728 2.7307 14.0684 3.46867 14.4158 4.26916C14.7632 5.07042 15.043 5.89561 15.2553 6.74474ZM8.51053 6.74474H13.4895C13.2193 5.77982 12.8769 4.88709 12.4624 4.06653C12.0471 3.24674 11.5596 2.47982 11 1.76579C10.4404 2.47982 9.95326 3.24674 9.53874 4.06653C9.12344 4.88709 8.7807 5.77982 8.51053 6.74474ZM2.80789 6.74474H6.74474C6.95702 5.89561 7.23684 5.07042 7.58421 4.26916C7.93158 3.46867 8.32719 2.7307 8.77105 2.05526C7.42018 2.36404 6.24298 2.91867 5.23947 3.71916C4.23596 4.52042 3.42544 5.52895 2.80789 6.74474Z" fill="white"/>
</svg></svg>
