<svg width="58" height="58" viewBox="0 0 58 58" fill="none" xmlns="http://www.w3.org/2000/svg">
<rect y="58" width="58" height="58" rx="29" transform="rotate(-90 0 58)" fill="#D63C00"/>
<g clip-path="url(#clip0)">
<path d="M13.8142 36.5926C13.8142 37.0894 14.1059 37.5392 14.5582 37.7443L28.4782 44.0716C28.8094 44.2211 29.19 44.2211 29.5212 44.0716L43.4412 37.7443C43.8935 37.538 44.1827 37.0881 44.1827 36.5926C44.1827 36.097 43.8935 35.6472 43.4412 35.4408L37.6267 32.7962L43.4412 30.1516C43.8935 29.9452 44.1827 29.4954 44.1827 28.9999C44.1827 28.5043 43.8935 28.0545 43.4412 27.8481L37.6267 25.2035L43.4412 22.5589C43.8935 22.3525 44.1827 21.9027 44.1827 21.4071C44.1827 20.9116 43.8935 20.4617 43.4412 20.2554L29.5212 13.9281C29.19 13.7786 28.8094 13.7786 28.4782 13.9281L14.5582 20.2554C14.1059 20.4617 13.8167 20.9116 13.8167 21.4071C13.8167 21.9027 14.1059 22.3525 14.5582 22.5589L20.3726 25.2035L14.5582 27.8481C14.1059 28.0545 13.8167 28.5043 13.8167 28.9999C13.8167 29.4954 14.1059 29.9452 14.5582 30.1516L20.3726 32.7962L14.5582 35.4408C14.1059 35.646 13.8142 36.0958 13.8142 36.5926ZM28.9997 16.469L39.8598 21.4071L28.9997 26.3452L18.1395 21.4071L28.9997 16.469ZM23.431 26.5926L28.4928 28.8863C28.8253 29.0358 29.2059 29.0358 29.5371 28.8863L34.5679 26.5926L39.8597 29L28.9996 33.9381L18.1395 29L23.431 26.5926ZM23.431 34.1854L28.4928 36.479C28.8253 36.6285 29.2059 36.6285 29.5371 36.479L34.5679 34.1854L39.8597 36.5927L28.9996 41.5308L18.1395 36.5927L23.431 34.1854Z" fill="white"/>
</g>
<defs>
<clipPath id="clip0">
<rect width="31.6364" height="31.6364" fill="white" transform="translate(13.1819 13.1818)"/>
</clipPath>
</defs>
</svg>
