<svg width="26" height="26" viewBox="0 0 26 26" fill="none" xmlns="http://www.w3.org/2000/svg">
<path d="M0.431641 19.2832C0.431641 19.6944 0.673006 20.0666 1.04733 20.2364L12.5673 25.4728C12.8414 25.5965 13.1564 25.5965 13.4305 25.4728L24.9505 20.2364C25.3248 20.0656 25.5642 19.6933 25.5642 19.2832C25.5642 18.8731 25.3248 18.5008 24.9505 18.33L20.1386 16.1414L24.9505 13.9528C25.3248 13.782 25.5642 13.4097 25.5642 12.9996C25.5642 12.5895 25.3248 12.2172 24.9505 12.0464L20.1386 9.85776L24.9505 7.66912C25.3248 7.49833 25.5642 7.12606 25.5642 6.71595C25.5642 6.30583 25.3248 5.93355 24.9505 5.76277L13.4305 0.526407C13.1564 0.402656 12.8414 0.402656 12.5673 0.526407L1.04733 5.76277C0.673011 5.93356 0.433683 6.30583 0.433683 6.71595C0.433683 7.12606 0.673 7.49834 1.04733 7.66912L5.85929 9.85776L1.04733 12.0464C0.673011 12.2172 0.433683 12.5895 0.433683 12.9996C0.433683 13.4097 0.673 13.782 1.04733 13.9528L5.85929 16.1414L1.04733 18.33C0.673011 18.4998 0.431641 18.8721 0.431641 19.2832ZM12.9989 2.62923L21.9866 6.71595L12.9989 10.8027L4.01122 6.71595L12.9989 2.62923ZM8.39039 11.0074L12.5795 12.9056C12.8546 13.0293 13.1696 13.0293 13.4437 12.9056L17.6071 11.0074L21.9866 12.9997L12.9989 17.0864L4.01117 12.9997L8.39039 11.0074ZM8.39039 17.291L12.5795 19.1892C12.8546 19.313 13.1696 19.313 13.4437 19.1892L17.6071 17.291L21.9866 19.2833L12.9989 23.37L4.01117 19.2833L8.39039 17.291Z" fill="white"/>
</svg>
