<svg width="96" height="96" viewBox="0 0 96 96" fill="none" xmlns="http://www.w3.org/2000/svg">
<rect width="96" height="96" rx="48" fill="#002841"/>
<path d="M46.5 76.5C42.35 76.5 38.45 75.712 34.8 74.136C31.15 72.562 27.975 70.425 25.275 67.725C22.575 65.025 20.438 61.85 18.864 58.2C17.288 54.55 16.5 50.65 16.5 46.5C16.5 42.35 17.288 38.45 18.864 34.8C20.438 31.15 22.575 27.975 25.275 25.275C27.975 22.575 31.15 20.437 34.8 18.861C38.45 17.287 42.35 16.5 46.5 16.5C53.8 16.5 60.187 18.787 65.661 23.361C71.137 27.937 74.55 33.675 75.9 40.575H69.75C68.8 36.925 67.088 33.662 64.614 30.786C62.138 27.912 59.1 25.75 55.5 24.3V25.5C55.5 27.15 54.913 28.562 53.739 29.736C52.563 30.912 51.15 31.5 49.5 31.5H43.5V37.5C43.5 38.35 43.213 39.062 42.639 39.636C42.063 40.212 41.35 40.5 40.5 40.5H34.5V46.5H40.5V55.5H37.5L23.1 41.1C22.95 42 22.812 42.9 22.686 43.8C22.562 44.7 22.5 45.6 22.5 46.5C22.5 53.05 24.8 58.675 29.4 63.375C34 68.075 39.7 70.45 46.5 70.5V76.5ZM73.8 75L64.2 65.4C63.15 66 62.025 66.5 60.825 66.9C59.625 67.3 58.35 67.5 57 67.5C53.25 67.5 50.062 66.188 47.436 63.564C44.812 60.938 43.5 57.75 43.5 54C43.5 50.25 44.812 47.062 47.436 44.436C50.062 41.812 53.25 40.5 57 40.5C60.75 40.5 63.938 41.812 66.564 44.436C69.188 47.062 70.5 50.25 70.5 54C70.5 55.35 70.3 56.625 69.9 57.825C69.5 59.025 69 60.15 68.4 61.2L78 70.8L73.8 75ZM57 61.5C59.1 61.5 60.875 60.775 62.325 59.325C63.775 57.875 64.5 56.1 64.5 54C64.5 51.9 63.775 50.125 62.325 48.675C60.875 47.225 59.1 46.5 57 46.5C54.9 46.5 53.125 47.225 51.675 48.675C50.225 50.125 49.5 51.9 49.5 54C49.5 56.1 50.225 57.875 51.675 59.325C53.125 60.775 54.9 61.5 57 61.5Z" fill="white"/>
</svg>
