<svg width="52" height="52" viewBox="0 0 48 48" fill="none" xmlns="http://www.w3.org/2000/svg">
<g filter="url(#filter0_d_1037_6373)">
<rect x="10" y="8" width="32" height="32" rx="16" fill="#002841"/>
<path d="M25.5 33.5C24.1167 33.5 22.8167 33.2373 21.6 32.712C20.3833 32.1873 19.325 31.475 18.425 30.575C17.525 29.675 16.8127 28.6167 16.288 27.4C15.7627 26.1833 15.5 24.8833 15.5 23.5C15.5 22.1167 15.7627 20.8167 16.288 19.6C16.8127 18.3833 17.525 17.325 18.425 16.425C19.325 15.525 20.3833 14.8123 21.6 14.287C22.8167 13.7623 24.1167 13.5 25.5 13.5C27.9333 13.5 30.0623 14.2623 31.887 15.787C33.7123 17.3123 34.85 19.225 35.3 21.525H33.25C32.9333 20.3083 32.3627 19.2207 31.538 18.262C30.7127 17.304 29.7 16.5833 28.5 16.1V16.5C28.5 17.05 28.3043 17.5207 27.913 17.912C27.521 18.304 27.05 18.5 26.5 18.5H24.5V20.5C24.5 20.7833 24.4043 21.0207 24.213 21.212C24.021 21.404 23.7833 21.5 23.5 21.5H21.5V23.5H23.5V26.5H22.5L17.7 21.7C17.65 22 17.604 22.3 17.562 22.6C17.5207 22.9 17.5 23.2 17.5 23.5C17.5 25.6833 18.2667 27.5583 19.8 29.125C21.3333 30.6917 23.2333 31.4833 25.5 31.5V33.5ZM34.6 33L31.4 29.8C31.05 30 30.675 30.1667 30.275 30.3C29.875 30.4333 29.45 30.5 29 30.5C27.75 30.5 26.6873 30.0627 25.812 29.188C24.9373 28.3127 24.5 27.25 24.5 26C24.5 24.75 24.9373 23.6873 25.812 22.812C26.6873 21.9373 27.75 21.5 29 21.5C30.25 21.5 31.3127 21.9373 32.188 22.812C33.0627 23.6873 33.5 24.75 33.5 26C33.5 26.45 33.4333 26.875 33.3 27.275C33.1667 27.675 33 28.05 32.8 28.4L36 31.6L34.6 33ZM29 28.5C29.7 28.5 30.2917 28.2583 30.775 27.775C31.2583 27.2917 31.5 26.7 31.5 26C31.5 25.3 31.2583 24.7083 30.775 24.225C30.2917 23.7417 29.7 23.5 29 23.5C28.3 23.5 27.7083 23.7417 27.225 24.225C26.7417 24.7083 26.5 25.3 26.5 26C26.5 26.7 26.7417 27.2917 27.225 27.775C27.7083 28.2583 28.3 28.5 29 28.5Z" fill="white"/>
</g>
<defs>
<filter id="filter0_d_1037_6373" x="0" y="0" width="48" height="48" filterUnits="userSpaceOnUse" color-interpolation-filters="sRGB">
<feFlood flood-opacity="0" result="BackgroundImageFix"/>
<feColorMatrix in="SourceAlpha" type="matrix" values="0 0 0 0 0 0 0 0 0 0 0 0 0 0 0 0 0 0 127 0" result="hardAlpha"/>
<feOffset dy="2"/>
<feGaussianBlur stdDeviation="5"/>
<feColorMatrix type="matrix" values="0 0 0 0 0.101961 0 0 0 0 0.101961 0 0 0 0 0.0980392 0 0 0 0.24 0"/>
<feBlend mode="normal" in2="BackgroundImageFix" result="effect1_dropShadow_1037_6373"/>
<feBlend mode="normal" in="SourceGraphic" in2="effect1_dropShadow_1037_6373" result="shape"/>
</filter>
</defs>
</svg>
