<?xml version="1.0" encoding="UTF-8"?>
<svg width="703px" height="1085px" viewBox="0 0 703 1085" version="1.1" xmlns="http://www.w3.org/2000/svg" xmlns:xlink="http://www.w3.org/1999/xlink">
    <title>2A47BB06-4D65-4593-8C13-19AC425F2FEB</title>
    <g id="UI-kit" stroke="none" stroke-width="1" fill="none" fill-rule="evenodd" stroke-linejoin="round">
        <g id="Earth-Dashboard-UI-kit---Forests" transform="translate(-104.000000, -183.000000)">
            <g id="amazon-map" transform="translate(105.000000, 183.000000)">
                <path d="M223.592928,1073.06131 C233.807397,1068.39041 240.135368,1067.49789 244.692394,1070.72586 L244.692394,1070.72586 L236.525726,1070.72586 C236.42059,1071.34143 236.316623,1071.957 236.211488,1072.57141 C239.308304,1073.19513 242.40512,1073.81885 245.501936,1074.44256 C245.587212,1074.81842 245.67132,1075.19428 245.756596,1075.57014 C244.163214,1075.98207 242.571,1076.39284 239.485866,1077.18994 C241.750464,1077.71626 243.490264,1078.12028 245.197064,1078.51708 L246.127729,1078.7335 C246.749932,1078.87822 247.379595,1079.02475 248.040367,1079.17862 C248.222601,1080.80773 248.443385,1082.79292 248.634965,1084.5 C245.660806,1083.08965 242.865378,1081.76542 240.06995,1080.44002 C239.83398,1080.93923 239.600346,1081.43727 239.364376,1081.93648 C237.779171,1079.88496 236.192797,1077.83461 234.02818,1075.03486 C234.788658,1082.0156 234.788658,1082.0156 225.6454,1078.28959 C226.424569,1077.07009 227.20257,1075.8564 228.375411,1074.02248 C226.346302,1074.13303 224.882586,1074.21216 223.36163,1074.29594 C223.456252,1073.73506 223.408357,1073.14509 223.592928,1073.06131 Z M246.585775,1069.14204 C256.607125,1067.79424 261.138589,1070.55046 259.075645,1076.99523 C257.737361,1075.50526 256.586087,1074.22578 255.437149,1072.94851 C250.059469,1076.62384 249.325458,1076.32959 246.585775,1069.14204 Z M226.403131,1012.86353 C229.901556,1013.38499 232.996725,1014.0834 236.119013,1014.24739 C239.531363,1014.42789 245.96106,1020.63693 245.013054,1023.71963 C244.643992,1024.9218 242.232709,1025.49634 240.906208,1026.26554 C253.220852,1044.65672 268.462053,1056.49437 287.569561,1063.64132 C285.987193,1064.96972 284.549855,1067.23721 279.755586,1067.82355 C273.505114,1068.58921 268.990295,1067.92147 263.102989,1065.58555 C255.54724,1062.58898 246.634333,1062.29994 238.359326,1065.72122 C236.901944,1066.32408 234.98117,1066.05156 233.312727,1065.85336 C228.049172,1065.22809 222.818631,1064.16395 217.543285,1063.88907 C215.814707,1063.79823 213.987083,1065.60325 211.870577,1066.71812 C212.045418,1059.33808 207.554734,1059.30926 203.144819,1059.13481 L202.738117,1059.11808 C202.53502,1059.10928 202.332405,1059.09969 202.13074,1059.08856 L201.728815,1059.06402 L201.728815,1059.06402 L201.330252,1059.03407 C199.876034,1058.91273 198.506351,1058.6558 197.405233,1057.9726 L197.405233,1057.9726 L197.68704,1055.90095 C203.110955,1055.90095 209.170411,1057.39452 213.766589,1055.44085 C216.784723,1054.1599 219.438365,1054.21638 222.102548,1054.30419 L222.864354,1054.329 C223.372848,1054.3446 223.88302,1054.35683 224.397462,1054.35666 C226.276966,1054.35666 228.096336,1056.30443 230.057199,1057.08543 C231.437939,1057.63637 233.010874,1057.70126 234.496555,1057.9844 L234.496555,1057.9844 L235.020081,1055.07395 C232.088809,1053.68656 229.031372,1052.5127 226.268713,1050.84807 C224.074385,1049.52438 221.814028,1047.9093 220.342496,1045.87305 C217.767316,1042.31255 217.963049,1039.22041 223.256082,1038.38751 C223.799652,1038.30257 224.465851,1037.97695 224.766524,1037.54634 C226.182638,1035.51835 227.491452,1033.41485 228.839177,1031.33848 C226.59061,1030.93854 224.209983,1029.86497 222.119418,1030.27198 C217.063386,1031.26062 215.196852,1030.20238 215.700333,1025.5742 C215.787587,1024.76607 216.424308,1024.01929 216.796907,1023.23947 C217.526777,1021.71759 218.249573,1020.19217 219.227056,1018.13585 C222.877587,1019.59875 225.677978,1017.17553 226.403131,1012.86353 Z M307.046098,1061.98568 C307.15647,1062.55482 307.266843,1063.12526 307.37839,1063.6931 C303.774835,1064.96683 300.191242,1066.32391 296.544242,1067.42442 C295.977114,1067.59503 295.121137,1066.58959 294.400192,1066.12855 C294.529938,1065.94785 294.653961,1065.7358 294.776791,1065.51719 L294.960708,1065.18743 C295.267635,1064.63993 295.581269,1064.12875 295.972417,1064.04084 C299.638203,1063.21513 303.349783,1062.64338 307.046098,1061.98568 Z M191.940728,1045.6119 C198.802023,1042.9636 202.504465,1048.76944 209.700368,1050.31604 C207.180969,1051.97571 205.901776,1052.81935 204.7218,1053.59684 L204.41548,1053.79866 C201.506678,1049.68475 192.932475,1052.94326 191.940728,1045.6119 Z M179.176417,1031.96659 L179.552347,1034.1029 C182.942903,1035.68906 186.333458,1037.27406 191.257665,1039.57623 C188.9518,1042.71119 186.521423,1046.01668 183.309255,1050.3874 C182.594509,1046.78406 182.238931,1044.98532 181.587638,1041.69034 C179.855247,1044.64075 178.958521,1046.16735 177.56734,1048.53492 C176.082775,1044.27166 174.078612,1041.06078 174.185165,1037.91881 C174.253407,1035.88295 177.405714,1033.94638 179.176417,1031.96659 L179.176417,1031.96659 Z M214.199718,1036.0601 C215.01996,1039.0266 215.83398,1041.97479 216.530999,1044.49054 C215.536502,1045.38976 214.468568,1046.35761 213.03221,1047.65839 C209.235942,1044.30749 209.430112,1041.53205 214.199718,1036.0601 Z M198.026622,0.500513086 C199.63945,0.457870863 201.936543,3.08223499 202.75363,4.99839977 C203.16751,5.9718778 201.113526,8.15095271 199.929996,9.58274704 C199.359577,10.2719979 198.190277,10.4425342 197.344728,10.9375632 C196.890485,11.2036878 196.345049,11.4245748 195.777185,11.6378236 L195.46563,11.7536096 C195.309154,11.8113498 195.15194,11.8690303 194.995383,11.927414 L194.683558,12.0453446 C192.719445,12.8010381 191.009934,13.751116 192.390028,16.4456487 C193.383814,18.3866834 197.810788,20.1027049 200.118554,19.553199 C204.896765,18.4146184 209.536705,16.6912577 214.163923,14.9291939 L216.477053,14.0474649 C217.633669,13.6075159 218.790798,13.1708363 219.950402,12.7459585 C220.178095,12.6618746 220.087966,11.7120822 220.076107,11.8234045 C217.701931,10.41648 215.68471,9.22154169 213.66749,8.02778761 C214.910316,6.37927007 216.154328,4.73075253 218.045842,2.22126355 C219.473669,5.14761903 220.393929,6.63625879 220.947746,8.25043222 C222.087398,11.5723372 224.020419,12.4498885 227.714505,13.1047953 C227.891261,13.1361129 228.068875,13.1676931 228.247169,13.1997309 L228.783912,13.2974124 C234.078429,14.275283 239.809355,15.8211573 241.398634,22.9426079 C241.724757,24.4040093 245.353619,25.9151503 247.516705,26.0051556 C251.211977,26.1602963 254.94164,25.0660217 258.677233,24.7545561 L258.677233,24.7545561 L259.385206,24.6962574 C264.672094,24.2700291 269.453933,24.1508505 274.426018,28.3405554 C278.919403,32.1266981 285.388501,35.5741367 291.922824,29.3744317 C293.795364,27.5991963 297.853522,28.1214637 301.840526,27.4274757 C299.21138,26.6813794 297.353071,26.1520063 295.493576,25.6238175 L295.493576,25.6238175 L295.573032,24.6870521 L329.054617,24.6870521 C329.107982,25.0908916 329.160162,25.4935467 329.213528,25.8962019 C324.535142,26.2763557 319.857943,26.6576938 313.985354,27.1337743 C317.09479,30.8464916 319.605346,33.8439039 321.350994,35.9258678 C324.028762,35.7316459 326.253515,35.058975 328.18535,35.5433454 C331.408633,36.3522086 334.962783,37.280684 337.412857,39.3176453 C339.791778,41.2953926 341.933518,44.6042705 342.316564,47.5685229 C342.584578,49.6327227 339.705207,52.1031305 338.049687,54.674202 C339.791091,54.674202 341.850817,54.6630481 344.060807,54.6609416 L345.403489,54.6609251 C346.98785,54.6625495 348.629373,54.6705868 350.270412,54.6919662 C352.352857,54.7192046 354.788701,54.2857582 356.44422,55.190548 C361.056195,57.7095112 365.59583,60.5044116 369.687194,63.7836825 C373.84141,67.1150617 375.334461,71.5655854 373.383652,77.0298526 C372.452718,79.638821 372.584353,82.6267591 372.183518,85.8480002 C373.318427,85.3956053 373.871058,85.3328385 373.931539,85.1279581 C376.506133,76.2340165 379.404479,75.2546171 386.459412,81.2908914 C389.596125,83.9732853 392.294053,87.1661037 394.97775,89.9088958 C403.592146,90.540117 412.825583,91.217525 422.195398,91.9032231 C422.190457,91.8767742 422.179059,91.8151258 422.161721,91.7210907 L422.131322,91.5560996 C422.027148,90.9903654 421.807904,89.7972774 421.52062,88.2331398 C426.328268,89.6104573 430.933128,90.929745 435.961354,92.3710136 C434.862023,94.7312833 434.006987,96.5704699 433.151951,98.407288 C433.409292,98.5659815 433.666633,98.7234907 433.922788,98.8798156 C435.281832,97.0512875 436.63969,95.2227595 438.136299,93.2071152 C450.511192,97.1566885 462.125921,102.420812 469.618453,113.966357 C469.978967,113.647785 470.338296,113.330398 470.697624,113.011827 C472.181188,114.136893 473.91142,115.048788 475.106809,116.423737 C480.457602,122.584361 480.571448,130.726285 482.963413,138.0025 C485.521405,145.786772 485.38977,145.83059 493.013937,148.013218 C492.238357,153.922774 490.487965,159.128868 485.737239,163.439647 C484.439862,164.615637 483.183991,165.836629 481.951839,167.087229 C480.897063,168.158494 479.573354,169.561359 478.220021,171.018996 L477.768142,171.506525 C474.677286,174.84664 471.570692,178.311355 471.276465,178.629231 L471.253812,178.652906 C470.484636,179.723258 469.703553,180.786646 468.919368,181.848244 L467.34947,183.970585 C464.734775,187.50895 462.150825,191.065737 459.9237,194.832537 C458.906196,196.55448 460.16681,199.62058 461.043192,202.012826 C461.265675,194.567085 466.390211,192.891045 471.308736,191.089401 L471.808015,190.90552 L471.808015,190.90552 L472.304681,190.719395 C474.44951,189.906004 476.48708,188.990604 477.980251,187.468685 C478.761761,186.671665 481.785812,188.069115 484.24656,188.542827 C484.474253,186.735616 484.730408,183.889791 485.21307,181.083048 C486.123844,175.802344 489.192959,173.215877 494.709778,173.584188 C500.63929,173.979737 506.580662,174.186986 512.736681,174.487794 C509.869169,190.416357 503.50443,194.741347 485.018582,194.992415 C483.391524,195.014916 481.776325,195.810752 480.155196,196.246567 L480.155196,196.246567 L480.579749,197.950746 C487.573016,196.960688 494.563912,195.97063 502.369522,194.865697 C500.859868,198.169838 499.703613,200.699459 498.547358,203.230265 C500.354104,202.158524 501.669237,200.506853 502.890215,198.777672 L503.206857,198.325154 C505.832094,194.54502 508.1757,190.605053 514.321047,191.666957 C514.759831,181.6065 523.751344,176.971228 533.692764,181.087785 C539.545193,183.512006 545.472334,185.772796 551.226333,188.410187 C553.136821,189.286554 554.614456,191.106793 556.915107,193.014667 C563.155326,190.155816 563.343884,190.21503 566.235114,197.235441 C565.231841,198.364059 564.174016,199.554261 562.474618,201.464504 L562.474618,201.464504 L567.957045,201.464504 C567.768486,204.485602 567.584672,207.410773 567.402043,210.337129 C567.957045,210.447267 568.513233,210.558589 569.06705,210.669911 C572.254756,208.12371 575.44009,205.579876 579.660717,202.209416 C587.380942,204.660875 596.186268,207.745924 605.169479,210.176067 C609.081771,211.234813 613.658169,212.075651 617.412736,211.072566 C629.055927,207.960279 637.807887,213.231509 646.189846,219.75689 C650.979706,223.486188 654.698697,228.824921 659.849071,231.795095 C661.375328,232.675378 662.853096,233.673747 664.328029,234.689995 L665.008732,235.159937 C665.235677,235.316764 665.46272,235.473649 665.69003,235.630228 L666.37292,236.09868 C671.275052,239.444094 676.376688,242.479095 683.32994,241.577247 C691.568405,240.509026 694.227198,243.795403 696.476855,252.090099 C696.62397,252.632437 696.773676,253.17422 696.924814,253.715585 L697.228656,254.797797 L697.228656,254.797797 L697.534254,255.879134 C700.082496,264.887307 702.598879,273.82955 699.713183,283.334954 C698.586576,287.044118 697.615322,291.084881 695.403614,294.12848 C695.009032,294.671612 694.616125,295.216633 694.224034,295.762707 L693.440684,296.856009 C692.918835,297.585483 692.397415,298.315837 691.874382,299.04509 L691.088371,300.137895 C685.311678,308.142111 679.216519,315.893175 670.086967,320.75346 C667.020793,322.38625 666.114236,325.199689 665.357762,328.106675 L665.117307,329.042948 C664.610156,331.020679 664.072971,332.987852 662.877866,334.604797 C659.614262,339.019792 656.498897,343.542557 652.864105,348.658645 C651.430349,345.957303 650.677301,344.538536 649.510373,342.339328 C645.204361,352.286095 643.597463,361.859813 644.215319,371.709468 C644.240196,372.107334 644.266924,372.505061 644.294996,372.902649 L644.382732,374.094993 C645.002861,382.239796 645.974196,390.325374 642.925057,398.339185 C642.126944,400.438913 642.621466,403.005247 642.375984,405.341832 C642.334314,405.739378 642.300779,406.137791 642.271924,406.536427 L642.23172,407.134467 L642.23172,407.134467 L642.195947,407.732357 C641.94926,412.015546 641.844351,416.249954 637.590867,419.634905 C635.718327,421.123545 635.131306,425.765922 635.772879,428.553716 C637.299135,435.184499 636.99673,440.236637 630.359234,444.160156 C628.880454,445.034155 627.975511,446.86491 627.114679,448.781048 L626.828642,449.421728 C626.399858,450.383904 625.967387,451.343222 625.465014,452.190758 C623.239075,455.948478 620.892174,459.636325 618.753992,463.442601 C617.725815,465.271129 616.864849,467.245323 616.270712,469.255046 C615.199842,472.876574 614.387499,476.57508 613.445893,480.320957 C605.03903,477.713173 604.10691,480.919018 604.344091,487.640991 C599.521026,488.22484 594.71812,488.94962 589.889126,489.233847 C589.17877,489.275297 588.347452,487.218203 587.935944,486.640274 C585.316286,487.293997 582.670537,488.26629 579.953634,488.552886 C576.546537,488.914091 572.974598,488.250895 569.696764,489.000544 C568.531022,489.267007 568.019898,492.376926 566.80079,495.103138 C562.321636,493.515019 558.522005,495.803047 555.967571,500.630172 C555.761224,501.018616 554.899073,501.345477 554.417596,501.262577 C550.274053,500.554378 547.197822,504.128534 544.437041,504.642512 C539.444154,505.572645 536.23496,508.544525 533.120628,511.553922 L532.498526,512.155708 C530.633013,513.959003 528.761118,515.727703 526.518054,517.028895 C524.178269,518.384895 522.885635,521.44389 520.839953,523.446507 C519.637448,524.624866 517.891799,525.254903 514.923486,526.98632 C514.004411,529.788326 512.440206,534.552684 510.31744,541.018852 C511.517574,544.603667 514.275983,550.043064 512.65011,556.499758 C512.235045,558.14788 512.295804,559.90639 512.392962,561.682078 L512.452109,562.748808 C512.508593,563.816107 512.546542,564.88288 512.471039,565.928994 C512.115268,570.828359 510.542762,574.973339 506.038704,577.961277 C500.064127,581.925062 495.531608,587.071942 492.864513,594.132618 C489.133664,604.007143 486.212786,614.506968 477.777462,621.882663 C475.195752,624.141085 472.481221,626.247919 469.131047,628.994264 C475.236073,620.643907 480.704269,613.165179 486.17128,605.687637 C485.692175,605.255374 485.21307,604.824297 484.73278,604.392034 C482.181904,604.948646 479.629842,605.505257 476.755214,606.132926 C475.989121,607.522459 475.48113,609.117158 474.951698,610.733971 L474.763494,611.305231 C473.655135,614.639461 472.316491,617.976141 468.308031,619.7178 C467.503989,620.067162 467.171936,621.669493 466.773473,622.747188 C464.605643,628.615294 462.494737,634.505902 460.339952,640.378746 C460.004341,641.295378 459.710237,642.304385 459.108985,643.035086 C451.905813,651.797572 444.867482,660.711646 437.318027,669.16622 C433.256311,673.715039 427.799973,675.174072 421.623793,673.216457 C419.898305,672.66932 417.690155,672.61958 415.988384,673.190403 C408.226653,675.791082 402.565154,672.858805 396.89654,667.657448 C394.878134,665.80405 390.619558,666.386715 387.348839,666.40448 C380.643747,663.242453 378.194858,657.374346 378.882681,650.073261 C378.225691,655.441601 377.138219,660.809942 377.135847,666.178282 C377.134661,668.152477 379.33451,670.59683 381.16673,672.001386 C382.447504,672.983302 383.840013,673.825492 385.252701,674.640244 L386.668724,675.450009 C388.556681,676.528592 390.426256,677.624939 392.06043,679.005217 C395.471086,681.88657 397.915231,685.360063 393.823867,690.120868 C391.359562,692.988009 393.724251,698.028304 398.285232,699.143896 C404.348752,700.62543 403.530479,704.431705 401.719606,708.102973 C400.053413,711.485276 397.127791,714.223331 395.09634,717.458784 C393.406429,720.149467 391.826807,723.027267 390.872156,726.036523 C388.471355,733.59584 381.84082,736.019513 375.692231,737.933576 L375.046995,738.133374 L375.046995,738.133374 L374.726093,738.232236 C364.386209,741.412028 353.637189,743.702425 342.89647,744.964867 C337.058272,745.650565 330.877349,743.441883 324.607482,742.501565 C325.834891,746.153884 328.584999,750.604408 328.447435,754.963742 C328.350927,758.021634 326.901277,761.037281 325.4024,764.148587 L324.952564,765.084986 C324.429075,766.181122 323.915529,767.290666 323.46783,768.419529 C328.307498,775.116632 328.052529,776.613562 320.28131,780.828414 C314.469202,783.982151 308.648792,784.877466 302.307772,781.463188 C298.240126,779.274639 293.511933,778.30945 288.965183,776.75686 C284.156348,779.743613 285.458469,783.733452 287.410465,788.170949 C288.452873,790.540693 288.991273,793.417308 288.77781,795.984827 C288.417296,800.318107 288.918933,803.322625 294.077609,803.983453 C296.234765,804.260575 298.253171,805.626049 300.034397,806.370961 C301.145587,804.116092 302.001809,802.37757 302.859216,800.636678 C304.668904,802.638111 307.470005,804.414531 307.992988,806.708481 C308.463792,808.770312 306.954138,811.926418 305.293874,813.56783 C304.408005,814.443013 300.585841,813.882848 299.416542,812.680804 C294.406104,807.535108 291.677342,807.735252 288.22518,814.506964 C290.814005,815.772959 293.413503,817.042507 296.055694,818.334556 C289.477493,822.734156 285.425264,827.991174 286.226934,836.638785 C286.628955,840.970881 286.631327,846.104734 282.276693,849.728631 C281.019636,850.775534 281.211752,853.556223 280.720789,855.615686 C277.096671,857.863449 272.662581,857.032084 268.572404,858.429535 C261.854187,860.724629 259.406014,865.512988 257.225216,870.379902 L256.94796,871.001451 C256.90189,871.105051 256.855864,871.208641 256.809843,871.312196 L256.533475,871.932932 C256.164248,872.759536 255.79043,873.580974 255.392283,874.385337 C252.977066,879.262032 256.086732,883.793186 258.835359,888.033591 L259.163085,888.541048 L259.163085,888.541048 L259.485084,889.045734 C259.591212,889.213504 259.696008,889.380815 259.799097,889.547672 C262.918021,894.595072 267.131532,897.117588 273.458322,896.643876 C275.50519,896.48992 279.649919,899.373641 279.564534,900.651479 C279.352257,903.879826 277.280486,906.986192 275.891794,910.289149 C276.086282,910.331783 277.657603,910.671671 281.553292,911.516063 C278.105874,914.997845 275.999711,917.584313 273.444091,919.605878 C269.120291,923.027263 264.092064,925.651627 260.141823,929.427111 C256.140588,933.251151 253.088075,938.065248 249.618124,942.444715 L249.618124,942.444715 L250.850277,943.608862 C251.782396,943.263052 252.71333,942.916058 254.562152,942.227992 C253.07503,947.291972 252.812946,952.447143 250.247838,955.892213 C247.932549,959.00017 245.894584,957.474534 243.677114,955.865286 L243.359063,955.635316 C242.294491,954.870128 241.184282,954.135111 239.979109,953.921571 C241.287159,955.950242 242.594024,957.980098 244.364576,960.73118 C237.200839,961.203708 235.338986,965.737233 233.972586,970.418995 L233.830377,970.91219 C233.079473,973.543683 232.431569,976.178627 231.036218,978.124698 L231.036218,978.124698 L232.256641,980.812477 C233.477547,983.501477 234.70629,986.208296 236.000406,989.060338 C233.474434,989.953285 231.943434,990.493317 231.517695,990.644905 C235.783386,995.672172 240.032474,1000.68049 244.280377,1005.68763 C243.874798,1006.13647 243.466848,1006.58531 243.060083,1007.03415 C241.558731,1007.03415 239.632825,1007.63814 238.624808,1006.93349 C233.450716,1003.31315 230.368555,1006.35319 226.219082,1009.31152 C221.961692,1012.34802 216.406925,1013.57375 210.157219,1016.10218 C209.544107,1021.43381 208.648751,1028.46607 207.956184,1035.51845 C207.499611,1040.16912 204.977197,1041.81527 200.785032,1040.01872 C198.459477,1039.02155 196.073441,1038.15466 193.683847,1037.31737 C189.248572,1035.76478 188.47655,1032.75316 190.045499,1027.62286 C190.995011,1028.69424 191.684152,1029.47244 192.335345,1030.20801 L192.917177,1030.86528 C193.046865,1031.01178 193.177704,1031.15959 193.311474,1031.31071 C194.162952,1030.40355 195.0085,1029.50231 196.240653,1028.18776 C196.749405,1029.70245 197.081458,1030.68659 197.310337,1031.36992 C200.199196,1027.66312 203.186484,1023.82961 206.13108,1020.04939 C202.65373,1012.53166 196.844089,1012.09952 190.340015,1012.11316 L189.718533,1012.11559 C189.095055,1012.11895 188.46575,1012.12444 187.832034,1012.12632 L187.196898,1012.12679 C185.181311,1012.12313 183.126209,1012.06415 181.076518,1011.76772 C182.282027,1013.71815 183.306394,1015.37585 184.312793,1017.00437 L185.066772,1018.22441 C185.696531,1019.24342 186.335205,1020.27677 187.022633,1021.38881 C190.911207,1016.54392 194.752346,1013.83547 201.747984,1017.90584 C197.240369,1020.24598 193.606764,1022.13254 189.974344,1024.01909 L189.974344,1024.01909 L189.043411,1022.62401 C187.792284,1025.57642 186.541157,1028.53002 185.134676,1031.84955 C183.791523,1030.83072 182.282178,1029.6848 180.749414,1028.52065 L179.433212,1027.52089 L179.433212,1027.52089 L178.777053,1027.02243 C179.082525,1026.74972 179.424801,1026.46778 179.773822,1026.18793 L180.123977,1025.9092 C181.349597,1024.93902 182.535096,1024.04066 182.391684,1023.69934 C181.543764,1021.68369 180.17879,1021.15551 177.642144,1022.44992 C176.932826,1022.81187 175.594888,1021.94466 174.224464,1020.97938 L173.812958,1020.68799 C173.127479,1020.20119 172.448781,1019.71816 171.851383,1019.38027 C175.042646,1014.78763 165.793793,998.660111 183.679574,1005.94935 C183.067648,1006.90862 182.364408,1008.00882 181.349276,1009.60049 C182.519761,1009.60049 183.36531,1009.85392 183.925056,1009.56141 C187.654311,1007.6108 187.63239,1004.51308 187.423692,1001.35016 L187.355736,1000.35044 C187.251474,998.76811 187.194317,997.197952 187.629815,995.775205 C188.66155,992.409482 180.076802,986.599405 175.412648,986.565061 C178.297949,989.035468 180.92828,991.287969 183.557426,993.541653 L183.557426,993.541653 L182.427261,994.946209 C180.335329,994.089975 178.243397,993.231372 176.152651,992.373953 L176.152651,992.373953 L174.938287,993.433884 C176.468101,995.359523 177.999101,997.283977 179.815904,999.568453 C176.656659,999.932027 173.257863,1000.32402 169.358616,1000.77405 C169.358616,998.551157 170.165029,995.586904 169.132108,993.558233 C168.088514,991.508245 165.221002,990.383179 163.662726,987.904481 L163.662726,987.904481 L163.896974,987.992027 C164.918203,988.373619 166.059435,988.79912 168.880697,989.852621 C166.485174,985.457759 164.852186,982.461531 163.505001,979.989939 C166.384372,977.410577 169.143967,974.936617 171.903562,972.46384 C171.501541,972.010261 171.100706,971.556682 170.698685,971.103103 C169.506853,972.173692 168.313835,973.243097 166.693893,974.697392 C165.719081,971.663267 160.35643,969.555249 167.420851,966.537704 C163.523975,965.045512 160.397936,963.849389 157.937189,962.907886 C159.606939,959.133587 161.74275,956.33158 161.924193,953.407594 C162.177976,949.299327 162.167303,946.976954 166.652386,950.47058 C167.152837,950.860208 168.006687,950.797441 168.465631,950.894552 C167.87268,947.321579 167.318863,943.9902 166.784021,940.761853 C165.860203,942.159304 164.684974,943.939276 163.509744,945.718065 C163.156346,945.635165 162.802947,945.55345 162.450734,945.471734 L162.450734,945.471734 L162.450734,933.748548 C162.232527,933.701177 162.015507,933.65499 161.797301,933.608803 C161.284991,935.577076 160.772682,937.546534 160.260372,939.514807 C160.037422,939.504148 159.815658,939.491121 159.593894,939.479278 L159.593894,939.479278 L159.593894,930.007408 C161.759352,928.401525 163.742181,926.931833 165.596933,925.556884 C162.033296,923.110162 158.966552,921.004513 155.900994,918.898863 C156.178495,918.170531 156.457182,917.442199 156.734684,916.712683 C161.971629,917.668396 167.208574,918.62411 172.44552,919.579824 C171.438623,918.700233 171.194878,917.097389 171.072348,915.445713 L171.048515,915.103512 L171.048515,915.103512 L171.026879,914.761244 C171.009413,914.476362 170.992917,914.192794 170.974103,913.913995 L170.950202,913.581949 C170.738245,910.83766 170.162789,908.708662 165.933729,910.651538 C163.704232,907.908746 161.732077,905.483341 160.018448,903.375323 C161.915892,900.880045 164.176222,897.911056 166.851618,894.39256 C162.546792,892.890894 160.650534,886.140499 154.869259,891.205663 C154.577142,891.460668 152.565974,889.758717 150.331838,888.063305 L149.897042,887.73577 L149.897042,887.73577 L149.459089,887.411562 C149.312846,887.304398 149.166478,887.198316 149.020388,887.093844 C147.854646,888.725781 146.476627,890.65142 145.24566,892.373363 C144.810434,891.752801 144.62069,890.985387 144.642036,890.126784 C144.650337,889.785712 144.702517,889.426875 144.776043,889.060933 C144.887518,888.50669 145.061845,887.933498 145.310885,887.344911 C145.5872,886.693557 145.942971,886.027992 146.369896,885.368348 C147.188168,884.102353 148.272083,882.857675 149.544557,881.748005 C150.927319,880.541223 152.534217,879.495504 154.291724,878.777831 C153.244573,877.616052 152.198607,876.453089 151.152641,875.291311 C152.66941,874.780886 154.15416,873.999262 155.710064,873.812145 L155.710064,873.812145 L156.114272,873.764729 L156.114272,873.764729 L156.516093,873.720159 C160.853668,873.256381 164.646423,873.471244 163.846541,880.132647 C163.685258,881.485094 166.162608,883.151376 167.877423,885.222682 C170.365447,882.261982 173.164177,878.930603 175.962906,875.601592 C175.576302,875.137355 175.189698,874.674301 174.803094,874.211248 C174.696814,874.246776 174.590546,874.282315 174.483159,874.31824 L173.98856,874.483762 C173.082309,874.787141 171.996119,875.151115 170.151984,875.767391 C172.835682,872.147048 174.867133,869.40544 177.186758,866.275388 C175.528866,866.428161 174.112899,866.558431 172.421802,866.713572 C173.393566,862.713815 175.212877,863.327324 177.199584,864.130429 L177.491438,864.248796 C177.540253,864.268579 177.589148,864.288345 177.638113,864.308032 L177.932663,864.424683 C179.212003,864.921574 180.525304,865.277764 181.699117,864.365145 C180.214367,863.424827 178.985772,862.534248 177.655189,861.836708 C176.297331,861.124955 174.838671,860.606241 172.055358,859.418408 C173.109175,858.815038 174.229797,858.296194 175.351269,857.802957 L175.799747,857.606888 L175.799747,857.606888 L176.247378,857.412713 C176.91772,857.122451 177.582036,856.835751 178.226082,856.539887 L178.652286,856.341148 C182.669727,854.437568 185.747093,852.052963 184.26541,845.954331 C177.690766,842.408597 177.830703,842.045023 180.39581,833.132133 C181.0528,830.852394 179.310709,827.88222 178.366731,823.968175 C179.240741,822.789817 181.325558,820.462707 182.777102,817.792156 C183.409188,816.629193 183.257393,814.47262 182.575499,813.267023 C180.150328,808.977561 182.230401,806.974944 185.686121,804.755604 C186.928947,803.958583 186.950293,801.263162 187.756707,798.716961 C185.644614,799.889398 184.544097,800.631941 183.329733,801.028675 C183.153033,801.086705 181.865143,799.266467 182.088093,798.725251 C182.536364,797.64045 183.546753,796.651577 184.557142,795.965879 C186.030033,794.965162 187.708085,794.265253 189.655337,793.253878 C185.435896,792.121706 182.382197,791.303369 180.327028,790.752679 C177.497464,792.828721 174.996396,794.664355 173.36578,795.861662 C171.219297,792.790824 169.362173,791.219285 168.968454,789.341017 C168.209476,785.728964 168.14188,781.946374 168.094443,778.230104 C168.081399,777.206886 169.849579,775.963392 169.61477,775.16874 C167.207388,767.005499 174.166264,760.891063 174.31806,753.595899 C174.479342,745.834129 172.898534,738.03683 172.092121,730.252559 C171.562022,725.138838 171.05327,720.022749 170.524358,714.787048 C177.066982,715.067723 177.482048,714.338206 176.641243,709.148692 C179.993789,701.166646 182.631236,695.441837 184.82397,689.551229 C185.670475,687.277641 186.557895,685.01053 187.456162,682.744392 L188.356931,680.478375 C191.815202,671.791657 195.285581,663.092278 197.074343,654.070205 C197.470654,652.072018 197.995379,650.059343 198.499125,648.018581 L198.713297,647.142209 C200.056064,641.580462 201.087041,635.797469 198.818805,629.521268 C196.734211,623.753455 196.543847,617.275103 196.293406,610.875675 L196.231146,609.341732 C196.176634,608.065382 196.113465,606.794716 196.026005,605.536049 C195.909786,603.880425 197.184632,601.876624 198.32547,600.434171 C201.642439,596.239452 202.148819,589.795785 199.671469,584.995899 C198.793901,583.296458 198.238899,580.919608 198.685984,579.139635 C200.948686,570.152136 203.978667,561.344646 205.975727,552.306223 C206.502557,549.92195 206.672781,547.379709 206.800002,544.836276 L206.852806,543.746617 C207.069475,539.209877 207.291876,534.740753 209.305741,531.231963 C213.384441,524.125649 212.364383,517.447646 211.758934,510.642646 L211.682767,509.754271 C211.585554,508.56869 211.508131,507.378537 211.4795,506.180891 C211.447481,504.856867 211.885079,503.503235 212.228991,502.19579 C212.526652,501.063618 213.659189,499.642482 213.292745,498.921256 C210.915686,494.245501 212.694816,490.149111 214.514305,486.018015 L214.99405,484.923258 C216.47193,481.512198 217.730885,478.040854 216.47215,474.166254 C215.051438,469.795078 215.462947,464.536875 216.143655,459.838837 C217.434279,450.942757 216.270021,442.232655 215.105763,433.53519 L214.865687,431.735838 C214.666966,430.236434 214.473278,428.737049 214.297204,427.236797 C213.963966,424.402816 212.042804,421.076173 209.807378,419.252383 L209.807378,419.252383 L208.345035,418.060287 C195.183586,407.339245 181.9709,396.884339 165.358566,391.145869 C157.649014,388.481239 150.942736,382.332458 144.430945,376.975961 C138.686434,372.250684 133.84558,366.428764 127.936227,360.40907 C134.357889,358.168413 133.394937,354.833481 131.395505,351.508023 C127.784432,345.496618 123.848422,339.677067 120.328663,333.614739 C115.151013,324.694743 110.118043,315.68711 105.211964,306.615527 C100.251334,297.438542 95.7567634,288.005753 90.6075748,278.940091 C86.9988735,272.588798 83.1150429,266.261191 78.4129395,260.717577 C75.9166148,257.774642 71.4576214,256.449433 67.8109713,254.533268 C67.5460332,254.394152 67.2774055,254.259179 67.0118606,254.1259 L66.7475943,253.993095 C64.2953819,252.757163 62.3083837,251.597734 66.2930161,248.524232 C67.1409364,247.87051 67.1504236,245.259173 66.6381137,243.892514 C65.3644544,240.499552 62.9594442,237.439373 62.1909794,233.98246 C61.6798554,231.687326 62.4423907,228.261204 63.9793203,226.535708 C67.2085328,222.911812 70.9144781,219.268967 75.1766116,217.117131 C80.669712,214.344732 82.6466114,210.051717 83.8526742,204.005969 C81.9696514,203.21139 79.9172884,203.711691 77.8558084,204.315427 L77.4292178,204.441423 C77.2870126,204.483654 77.1448166,204.525985 77.0026823,204.568026 L76.5765174,204.692892 C73.3114787,205.637536 70.1069078,206.222209 67.6022524,201.691886 C70.7496376,196.569875 71.4635509,190.684005 68.1608125,185.423434 C69.9349226,182.693669 71.8786168,180.450643 72.9791343,177.851148 C73.5793922,176.432763 74.5088239,175.135201 75.484654,173.852727 L75.8305307,173.400543 C75.8883445,173.325227 75.9462036,173.249919 76.0040507,173.174599 L76.3505271,172.722358 C78.6532606,169.704136 80.7524191,166.597281 78.9643842,162.024432 C78.7805693,161.554273 79.416213,160.373546 79.9724013,160.066818 C83.417448,158.168417 86.7972701,155.420888 90.4866128,154.863092 C96.2880477,153.986725 95.7816674,151.615797 92.9805657,147.6153 C95.3167936,147.177116 97.1252949,146.837228 99.2895669,146.43102 C98.9812323,145.061992 98.6906862,143.986666 98.5009418,142.892392 C97.5830533,137.631821 100.526463,134.128721 105.868954,134.513612 C109.016339,134.740993 110.799937,133.988976 112.271641,130.869583 C114.172643,126.843031 117.060316,123.279533 119.741641,119.180741 C115.927779,116.638092 115.38345,113.601598 116.482781,108.882243 C117.524004,104.413955 115.808003,99.3061564 115.858997,94.5169287 C116.048741,92.3686451 116.290665,90.2239143 116.417557,88.0720778 C117.100636,76.5206122 105.935364,71.0835835 102.485574,61.5394722 C103.267084,60.5387558 103.988113,59.6162018 104.710327,58.6936478 C105.764595,57.3459373 106.817676,55.9994111 107.871943,54.652885 C105.918762,54.8861881 103.964395,55.1206755 102.011213,55.3539786 C102.241278,55.08041 102.470157,54.8056571 102.699037,54.5320884 C98.1807481,52.2973523 93.7205689,49.9299769 89.0979209,47.936834 C88.1408976,47.5247046 85.8734521,48.097896 85.423995,48.8984692 C83.174338,52.8989665 79.9617282,55.5695175 75.9166148,57.5804247 C75.4327666,57.8208335 75.6592739,60.4309863 76.2308789,61.6200033 C77.057453,63.3395776 78.4995104,64.7642662 80.3518901,67.1979613 C76.3127062,69.0335951 72.8154798,70.6217143 69.1024191,72.3081288 C68.7344599,71.370574 68.3881873,70.4882124 68.0461138,69.6164965 L67.636522,68.5726964 C66.885195,66.6579772 66.1203355,64.7085393 65.1557356,62.2500401 C64.4548672,64.6576811 64.1441608,65.7259015 63.5950879,67.6089064 C57.1769836,59.5261965 49.4282968,55.4475367 38.3519675,56.9953905 C37.4290389,55.4842494 35.7776779,52.7809497 34.0656142,49.9783035 L33.5976844,49.2123034 C33.2419137,49.3354685 32.8873288,49.4586336 32.5315581,49.5817987 C32.6027123,50.9117449 32.6750523,52.2416912 32.7462065,53.5716375 L32.7462065,53.5716375 L30.9946285,54.0299538 C30.3945618,51.7739007 29.7921234,49.5190318 29.1908708,47.2629787 C29.6936934,46.9870415 30.1965161,46.7111043 30.6993388,46.4351671 C28.6916058,45.3266812 26.7490976,44.0737131 24.6630951,43.1405006 C24.2342643,42.9489011 23.7991031,42.7704207 23.3633074,42.596939 L22.9275112,42.4248227 C19.4428249,41.0564098 16.0390428,39.834668 15.6324476,34.601843 C15.5411331,33.4269297 13.9601095,32.3675963 12.2713371,31.3164158 L11.5450097,30.8660958 C10.8201435,30.4156486 10.1117481,29.9638801 9.52860751,29.502334 L9.52860751,29.502334 L8.60004586,30.712668 C9.71716601,31.952609 10.836658,33.1913657 12.2810872,34.7913277 L12.2810872,34.7913277 L11.4651033,35.6777077 C10.7862692,36.4152413 10.1190175,37.1404314 9.52860751,37.7816343 C5.96852824,34.860016 2.71441181,32.1882806 1.05177652,30.8251745 C0.59520406,26.3332011 0.291613022,23.5631706 0.0366439872,20.7884029 C-0.346402517,16.6256593 2.32662169,15.3797969 5.57243681,16.0962862 C11.4580709,17.3966254 17.1824222,19.4122697 23.0324792,20.9044623 C25.3366877,21.4930494 27.7962495,21.4776538 30.6127679,21.7843822 C32.876862,28.462871 38.3299941,33.1562302 43.9945683,37.8032029 L44.8246941,38.4831416 C45.2401661,38.8231704 45.6559925,39.1634572 46.0710068,39.5047615 C47.4869744,40.6689086 47.9554059,42.917856 49.2326229,44.3318861 C50.2608003,45.4711633 51.8510956,46.1035688 53.1911654,46.9609874 C53.5386348,45.8832927 53.8861042,44.8055981 54.3663947,43.3110369 C54.7266301,43.6395701 55.0743252,43.998788 55.4187491,44.3649327 L55.9340902,44.9163751 C56.8786327,45.9259883 57.8334853,46.8981509 58.9914144,47.3387727 C61.2446292,48.1961913 64.2663087,48.939919 66.3036892,48.1192131 C73.2091994,45.3349712 80.2854795,42.5602035 87.1233933,40.0128176 C95.1317928,37.0296166 103.905099,41.7845002 110.54141,47.8053789 C115.369219,52.1883986 119.745199,57.0688158 125.706731,63.1346972 C124.871855,58.9719535 124.293135,56.0894164 123.829447,53.781255 C129.078252,49.3982353 134.679269,44.7215142 140.927789,39.5035772 C140.619455,33.0089866 140.494935,25.0814173 148.042018,20.4153547 C150.525298,18.8805281 154.373552,19.5484619 157.598021,19.2097579 L157.598021,19.2097579 L158.358184,20.9530178 C159.210848,18.8817124 160.063512,16.8092226 160.906688,14.7604185 C171.622503,17.4333381 183.030885,12.5292353 189.415784,3.64832075 C190.93374,1.53793408 195.059494,0.595247324 198.026622,0.500513086 Z M157.10451,1016.95705 C162.34631,1020.02436 166.724938,1022.58762 171.448835,1025.35296 C164.76198,1028.34943 159.776114,1025.50743 157.10451,1016.95705 Z M150.273879,923.488515 C158.116263,930.569979 160.501437,951.380954 154.142189,956.236614 C152.85721,945.360125 151.579525,934.540015 150.273879,923.488515 Z M178.216179,846.398097 C178.372214,846.289784 179.896558,848.363864 181.694782,850.510536 C179.673962,852.068401 178.306745,853.937377 176.98863,853.8982 C176.194269,853.875923 175.424156,852.926199 174.654689,851.940115 L174.366124,851.57037 C174.077496,851.2024 173.788545,850.844982 173.498025,850.545104 C175.038736,849.110533 176.520524,847.58378 178.216179,846.398097 Z M164.994868,795.907381 C166.714346,796.33794 168.505536,796.785809 170.962403,797.401301 L171.85814,797.625738 C172.166577,797.703034 172.485196,797.782895 172.814961,797.865565 C172.447513,801.292086 172.036293,805.125612 171.626224,808.959138 L171.626224,808.959138 L171.360141,809.001159 C170.526182,814.109726 169.958306,819.299933 168.554168,824.232011 C168.359501,824.915154 164.043418,824.325658 162.569015,824.325658 C163.464024,813.849195 164.232326,804.841069 164.994868,795.907381 Z" id="south-america" stroke="#B7C2CC"></path>
                <path d="M352.05326,97.987223 L357.508403,99.5450171 L357.508403,103.583255 L360.239561,105.630548 L362.080883,108.943187 L363.556022,112.260509 L363.556022,121.699242 L362.133053,125.610353 L362.133053,128.15117 L367.469188,127.440059 L367.469188,131.269172 L366.019525,137.427004 L363.487287,142.488821 L360.555245,146.721769 L363.32436,148.566994 L367.209156,151.037839 L371.512078,153.022761 L373.777336,151.082131 L377.483913,148.488889 L381.0963,148.488889 L385.976078,146.398653 L390.553906,144.286919 L394.327081,141.647083 L399.111995,144.222222 L408.446779,144.222222 L408.446779,142.384787 L406.235272,139.069269 L408.747536,134.047378 L413.00548,136.755556 L416.957369,136.755556 L420.159049,134.266667 L423.720006,134.266667 L426.729755,136.898814 L429.802435,140.311111 L435.776163,140.311111 L439.540616,136.548634 L441.526358,138.533333 L443.665266,138.533333 L443.665266,134.648577 L445.571378,130.838355 L447.768495,129.740373 L445.443978,128.288312 L445.443978,125.434091 L446.866947,121.52298 L446.866947,117.137261 L449.843382,114.162388 L451.491597,112.185569 L451.491597,109.037044 L453.476181,105.466667 L456.722068,105.466667 L459.01563,102.410189 L465.595173,107.658636 L469.603958,113.186762 L470.945168,112.682846 L474.893618,115.36116 L478.312845,120.977918 L480.279229,125.977173 L482.018768,131.147371 L483.070115,136.516385 L484.443473,141.624513 L486.792406,144.866351 L493.626328,147.373481 L491.676117,155.106834 L489.23574,160.217225 L485.885244,163.931665 L482.972451,166.783197 L476.745971,172.499507 L473.14088,176.736005 L469.86381,181.176403 L466.781524,185.048918 L464.367974,188.864211 L461.811093,192.498287 L459.700276,196.023909 L460.65241,199.2328 L461.167855,196.826129 L464.53957,193.62184 L468.552891,191.651378 L472.870244,189.880904 L476.148833,188.257465 L478.65835,186.642445 L483.344969,187.35705 L484.214374,184.010069 L484.924228,180.126408 L486.127599,176.365459 L489.88474,173.664932 L493.351093,173.096357 L498.256078,172.905896 L513.56532,174.005684 L511.575777,179.868325 L510.065919,184.202143 L506.007744,190.190411 L499.294492,193.50318 L492.82076,194.821646 L483.875064,194.966356 L480.784971,196.434633 L481.07511,197.554585 L502.834417,193.883436 L500.132975,200.65644 L503.032722,198.000929 L505.637372,194.254203 L509.666987,191.364729 L513.666155,191.053433 L515.300527,184.588481 L521.13656,179.371863 L527.619812,178.796529 L539.486356,182.920313 L551.49513,188.019108 L556.917942,192.08859 L562.20134,190.199467 L565.335701,193.687024 L566.174107,197.135046 L563.254222,200.417869 L568.600958,200.762426 L567.868561,209.607071 L568.824521,209.933541 L579.857873,201.41958 L595.5,206.582955 L595.5,212.484961 L592.484557,215.498821 L588.179982,218.808295 L589.476939,221.076778 L588.019807,229.086796 L586.267387,237.143694 L588.053282,242.855556 L586.217921,248.725625 L583.682655,254.155488 L577.948171,260.603272 L575.664063,263.266667 L569.136869,263.266667 L562.787569,266.087096 L556.572229,267.548761 L551.07679,266.08408 L545.001263,263.385264 L543.091643,265.930087 L539.648459,269.715601 L539.648459,274.435279 L541.453761,281.291822 L539.549463,285.859737 L535.657939,288.334862 L534.0024,293.629807 L535.68469,296.320058 L537.442531,300.888046 L539.588955,303.033344 L541.294709,308.488889 L545.047366,308.488889 L548.542017,311.981705 L548.542017,314.589892 L545.235082,316.793358 L543.140069,321.330169 L539.913838,325.844521 L545.340336,328.217368 L545.340336,332.640591 L543.332132,334.982266 L545.39509,338.075078 L543.251602,344.145108 L545.476091,348.221197 L543.371278,349.974287 L545.431966,353.063696 L543.205882,356.771888 L543.205882,362.115039 L548.63848,367.544785 L547.083559,371.041521 L545.158714,376.428258 L539.386538,374.985972 L537.297024,378.466667 L533.956583,378.466667 L533.956583,382.55536 L529.65167,384.511111 L525.818045,384.511111 L522.868223,387.09085 L517.485235,384.580108 L513.68055,387 L506.920168,387 L506.920168,391.382628 L502.925323,394.177552 L496.815126,391.66291 L491.011106,394.051546 L488.681705,395.71453 L486.57701,400.622908 L483.850334,404.126794 L477.780639,402.69938 L475.046569,405.773594 L467.60983,408.375087 L463.163866,406.153272 L463.163866,408.333333 L457.078045,408.333333 L454.146835,409.635409 L452.428167,413.414495 L448.85998,418.565837 L443.665266,413.37385 L443.665266,405.540865 L439.104356,400.631694 L437.261905,395.475539 L437.261905,391.215107 L435.595962,386.88593 L429.486077,384.511111 L423.650191,384.511111 L418.051821,387.308827 L418.051821,382.066597 L421.364175,377.652443 L425.533435,372.844284 L421.660708,371.355556 L417.842193,371.355556 L419.620904,366.377778 L417.228803,366.377778 L413.014317,368.132892 L406.870326,369.577778 L404.183699,369.577778 L398.847565,366.377778 L390.87589,366.377778 L384.876049,368.14151 L377.761203,369.563733 L372.093838,371.22973 L372.093838,374.472695 L370.628737,380.330021 L367.385133,384.292345 L363.438484,391.464303 L357.167029,395.888889 L350.762585,395.888889 L347.708213,398.025827 L348.807156,399.947968 L354.527429,401.734615 L356.124312,405.325716 L354.619434,409.461961 L352.49924,413.346943 L351.08016,419.374864 L348.887133,424.123928 L344.489489,428.519264 L341.18093,429.988962 L333.61051,432.511111 L327.749307,432.511111 L326.464643,434.437096 L323.974447,437.637096 L320.33198,443.097927 L314.891487,444.910473 L311.066416,447.343332 L307.041968,451 L296.707003,451 L292.21868,447.261694 L289.984594,442.795867 L289.984594,437.474067 L288.411756,434.644444 L282.779897,434.644444 L280.858164,432.339576 L277.597303,428.754512 L275.84792,429.920155 L272.885272,432.511111 L267.140238,432.511111 L263.303922,428.293379 L263.303922,424.003465 L259.66863,419.280066 L261.098401,416.064769 L258.08928,411.720542 L254.361394,408.333333 L249.398911,408.333333 L243.738095,403.807058 L243.738095,397.990264 L240.641889,391.457259 L236.255644,388.422222 L231.792706,388.422222 L230.219888,384.099242 L230.219888,380.218089 L228.085434,375.951423 L228.085434,372.985755 L223.316452,371.283441 L220.437814,368.046673 L214.681902,364.66262 L210.798319,366.426958 L207.385154,364.876333 L207.385154,367.758234 L205.2507,372.736012 L205.2507,381.033987 L201.397698,378.466667 L198.680605,378.466667 L196.975242,382.55739 L194.054918,384.642241 L191.529693,382.538992 L189.767055,378.310879 L186.297913,376.230487 L183.199133,373.133333 L172.615915,373.133333 L169.188746,371.420648 L165.97479,373.205242 L162.55495,371.306328 L158.283253,369.527389 L155.718381,368.062517 L151.60084,364.321263 L151.60084,359.977778 L148.51917,359.977778 L146.620448,353.145966 L146.620448,350.135165 L144.285537,348.468247 L140.928571,344.367443 L140.928571,338.487909 L136.470673,336.774233 L133.91499,332.760266 L130.345185,328.835542 L127.766106,324.048339 L127.766106,319.460301 L124.2972,314.606382 L120.75348,309.293592 L118.161064,306.332386 L118.161064,301.403685 L114.348584,298.28602 L112.86186,295.314132 L111.046218,289.870068 L111.046218,285.640312 L109.10282,281.755556 L104.410011,281.755556 L102.886278,276.424891 L101.473177,271.834725 L99.3411706,267.217802 L97.9749655,263.121338 L93.0496111,260.659954 L90.8980908,257.075969 L86.5,254.145448 L86.5,248.337261 L88.5047339,246.333579 L86.5,242.99411 L86.5,238.450335 L88.7190452,234.753867 L90.7689076,232.022152 L90.7689076,229.09876 L88.563146,224.322118 L90.8697059,220.864095 L92.9033613,218.492742 L92.9033613,215.389892 L88.5194435,212.468814 L90.9304571,206.444444 L94.5588166,206.444444 L96.5723023,203.425801 L99.1365684,200.862881 L96.4607843,197.519907 L96.4607843,193.551423 L94.2492777,189.130731 L96.4607843,185.815213 L96.4607843,180.73881 L99.640126,178.355556 L102.994915,178.355556 L104.345795,173.9675 L106.860766,171.45385 L108.969164,166.888051 L111.122282,163.301567 L112.950427,160.37807 L115.829118,158.220185 L118.308507,155.388086 L120.730001,153.313608 L122.493015,148.732179 L124.307549,146.555881 L125.864139,144.222222 L128.450995,144.222222 L131.049594,146.448424 L134.261968,148.374837 L136.478624,146.475843 L138.939612,144.367532 L141.061529,141.893262 L144.231032,138.725423 L146.620448,134.631431 L146.620448,132.294751 L150.581627,130.711111 L155.091036,130.711111 L155.091036,140.460835 L158.717223,141.778756 L162.733025,144.120077 L165.803307,141.733333 L174.005541,141.733333 L175.97287,140.422469 L178.039354,138.357071 L180.471029,140.382403 L183.664881,141.801147 L186.89088,144.308941 L190.303696,146.355556 L196.707057,146.355556 L200.26448,148.488889 L202.844551,148.488889 L206.757716,146.355556 L210.670881,146.355556 L214.436593,144.302609 L217.645375,141.8082 L220.437367,140.412937 L223.364808,136.755556 L231.955064,136.755556 L234.671525,134.3799 L239.396683,130.747071 L245.961949,129.288889 L252.291231,129.288889 L254.705429,132.046524 L258.317716,130.733655 L263.803922,129.271434 L269.116968,130.687503 L273.10009,129.239856 L275.676139,130.711111 L280.150775,130.711111 L281.735294,134.670329 L281.735294,139.094918 L280.312325,144.783806 L280.312325,148.488889 L282.705061,148.488889 L284.757991,144.385184 L288.692662,141.63236 L292.63036,144.136852 L296.92804,141.631188 L300.105264,144.101066 L303.399973,141.79598 L306.348739,140.486105 L306.348739,139.533333 L301.383101,139.533333 L297.810924,137.549832 L297.810924,132.721464 L296.387955,128.810353 L296.387955,125.630579 L294.699911,121.918831 L292.288209,119.852743 L288.205882,116.143485 L288.205882,111.524607 L292.746486,114 L297.07798,114 L300.190819,116.765515 L303.657289,115.379655 L306.954796,116.844444 L310.981778,116.844444 L314.469468,120.647201 L315.674424,117.03423 L319.848682,114 L327.315196,114 L330.055154,111.94611 L333.340817,110.1217 L338.554351,108.732154 L340.732486,105.466667 L343.934167,105.466667 L345.068247,103.766439 L343.529186,99.5362411 L352.05326,97.987223 Z" id="amazonia" stroke="#004D33" fill="#009A67" fill-rule="nonzero"></path>
            </g>
        </g>
    </g>
</svg>