<svg xmlns="http://www.w3.org/2000/svg" width="803" height="154" viewBox="0 0 803 154">
  <defs>
    <linearGradient id="chart-1---line-a" x1="0%" x2="145.435%" y1="51.563%" y2="45.006%">
      <stop offset="0%" stop-color="#009A67"/>
      <stop offset="21.902%" stop-color="#139B5F"/>
      <stop offset="68.804%" stop-color="#F3A600"/>
      <stop offset="79.984%" stop-color="#F35600"/>
      <stop offset="91.211%" stop-color="#F33900"/>
      <stop offset="100%" stop-color="#BD0000"/>
    </linearGradient>
  </defs>
  <polyline fill="none" stroke="url(#chart-1---line-a)" stroke-linecap="round" stroke-linejoin="round" stroke-width="3" points="156 208.102 160.701 207.709 170.104 204.338 174.805 205.837 179.506 210.894 184.207 216.386 188.908 221.11 193.609 217.317 198.311 211.965 203.012 204.379 207.713 203.045 212.414 205.535 217.115 204.27 221.816 204.332 226.518 205.775 231.219 204.487 235.92 201.959 240.621 197.739 245.322 196.467 250.023 196.467 254.725 197.6 259.426 196.126 264.127 195.676 268.828 196.467 273.529 196.467 282.932 200.335 292.334 196.964 297.035 196.467 301.736 196.467 306.437 199.384 311.139 208.598 315.84 230.844 320.541 226.097 325.242 222.725 329.943 220.031 334.644 215.269 339.346 212.647 344.047 212.29 348.748 215.176 353.449 211.329 362.851 201.214 367.553 198.794 376.955 198.794 381.656 197.274 386.357 194.14 391.058 195.304 395.76 199.198 400.461 204.255 405.162 215.052 409.863 211.143 414.564 206.758 419.265 203.417 428.668 200.046 433.369 198.143 438.07 195.899 442.771 194.213 447.472 201.307 452.174 204.891 456.875 197.801 461.576 194.14 466.277 194.14 475.679 191.162 480.381 189.898 485.082 188.349 489.783 187.16 494.484 187.16 499.185 186.394 503.886 184.833 508.588 184.833 513.289 183.664 517.99 181.715 522.691 181.172 527.392 183.302 532.094 184.833 536.795 184.833 541.496 183.142 546.197 187.346 550.898 188.695 555.599 183.592 560.301 179.62 565.002 177.852 574.404 180.179 579.105 180.179 583.806 177.852 607.312 177.852 612.013 176.518 616.715 173.989 621.416 172.019 626.117 173.198 630.818 173.85 640.22 177.221 644.922 176.27 649.623 175.525 654.324 174.977 659.025 173.291 668.427 173.022 673.129 171.336 677.83 174.532 682.531 178.234 687.232 186.601 691.933 196.323 696.634 192.951 701.336 188.463 706.037 184.833 710.738 184.833 715.439 183.312 720.14 181.187 729.543 173.198 743.646 173.198 748.347 170.468 753.048 166.455 762.451 159.712 767.152 154.893 771.853 152.395 776.554 160.229 781.255 170.196 790.658 162.753 795.359 159.381 800.06 152.131 809.462 145.389 814.164 138.759 818.865 142.157 823.566 165.597 828.267 159.64 837.669 144.809 847.072 129.638 851.773 125.904 861.175 118.903 865.876 114.239 870.578 110.867 875.279 110.371 879.98 109.574 884.681 107.578 889.382 102.521 894.083 101.063 908.187 100.96 912.888 97.588 917.589 95.587 922.291 94.323 926.992 91.352 931.693 88.885 936.394 87.621 941.095 86.109 955.152 81" transform="translate(-154 -79)"/>
</svg>
