<svg xmlns="http://www.w3.org/2000/svg" width="803" height="154" viewBox="0 0 803 154">
  <defs>
    <linearGradient id="chart-2---line-present-a" x1="0%" x2="146.692%" y1="51.563%" y2="43.76%">
      <stop offset="0%" stop-color="#009A67"/>
      <stop offset="21.902%" stop-color="#139B5F"/>
      <stop offset="68.219%" stop-color="#F3A600"/>
      <stop offset="79.984%" stop-color="#F35600"/>
      <stop offset="91.211%" stop-color="#F33900"/>
      <stop offset="100%" stop-color="#BD0000"/>
    </linearGradient>
  </defs>
  <polyline fill="none" stroke="url(#chart-2---line-present-a)" stroke-linecap="round" stroke-linejoin="round" stroke-width="3" points="135 569.102 139.701 568.709 149.104 565.338 153.805 566.837 158.506 571.894 163.207 577.386 167.908 582.11 172.609 578.317 177.311 572.965 182.012 565.379 186.713 564.045 191.414 566.535 196.115 565.27 200.816 565.332 205.518 566.775 210.219 565.487 214.92 562.959 219.621 558.739 224.322 557.467 229.023 557.467 233.725 558.6 238.426 557.126 243.127 556.676 247.828 557.467 252.529 557.467 261.932 561.335 271.334 557.964 276.035 557.467 280.736 557.467 285.437 560.384 290.139 569.598 294.84 591.844 299.541 587.097 304.242 583.725 308.943 581.031 313.644 576.269 318.346 573.647 323.047 573.29 327.748 576.176 332.449 572.329 341.851 562.214 346.553 559.794 355.955 559.794 360.656 558.274 365.357 555.14 370.058 556.304 374.76 560.198 379.461 565.255 384.162 576.052 388.863 572.143 393.564 567.758 398.265 564.417 407.668 561.046 412.369 559.143 417.07 556.899 421.771 555.213 426.472 562.307 431.174 565.891 435.875 558.801 440.576 555.14 445.277 555.14 454.679 552.162 459.381 550.898 464.082 549.349 468.783 548.16 473.484 548.16 478.185 547.394 482.886 545.833 487.588 545.833 492.289 544.664 496.99 542.715 501.691 542.172 506.392 544.302 511.094 545.833 515.795 545.833 520.496 544.142 525.197 548.346 529.898 549.695 534.599 544.592 539.301 540.62 544.002 538.852 553.404 541.179 558.105 541.179 562.806 538.852 586.312 538.852 591.013 537.518 595.715 534.989 600.416 533.019 605.117 534.198 609.818 534.85 619.22 538.221 623.922 537.27 628.623 536.525 633.324 535.977 638.025 534.291 647.427 534.022 652.129 532.336 656.83 535.532 661.531 539.234 666.232 547.601 670.933 557.323 675.634 553.951 680.336 549.463 685.037 545.833 689.738 545.833 694.439 544.312 699.14 542.187 708.543 534.198 722.646 534.198 727.347 531.468 732.048 527.455 741.451 520.712 746.152 515.893 750.853 513.395 755.554 521.229 760.255 531.196 769.658 523.753 774.359 520.381 779.06 513.131 788.462 506.389 793.164 499.759 797.865 503.157 802.566 526.597 807.267 520.64 816.669 505.809 826.072 490.638 830.773 486.904 840.175 479.903 844.876 475.239 849.578 471.867 854.279 471.371 858.98 470.574 863.681 468.578 868.382 463.521 873.083 462.063 887.187 461.96 891.888 458.588 896.589 456.587 901.291 455.323 905.992 452.352 910.693 449.885 915.394 448.621 920.095 447.109 934.088 442.023" transform="translate(-133 -440)"/>
</svg>
