<svg xmlns="http://www.w3.org/2000/svg" width="371" height="188" viewBox="0 0 371 188">
  <defs>
    <linearGradient id="chart-2---line-future-a" x1="0%" x2="99.138%" y1="61.148%" y2="37.467%">
      <stop offset="0%" stop-color="#F3A600"/>
      <stop offset="18.676%" stop-color="#F35600"/>
      <stop offset="66.639%" stop-color="#F33900"/>
      <stop offset="100%" stop-color="#BD0000"/>
    </linearGradient>
  </defs>
  <path fill="none" stroke="url(#chart-2---line-future-a)" stroke-dasharray="0 6" stroke-linecap="round" stroke-width="3" d="M934.087962,442.023353 L943.601027,438.634768 L948.302196,435.330226 L953.003365,432.593337 L957.704534,430.74847 L962.405703,427.818983 L967.106869,423.632554 L971.808038,420.1861 L976.509207,419.882001 L981.210376,421.676184 L985.911545,416.050354 L990.612714,416.719371 L995.313883,418.087817 L1000.01505,409.466611 L1004.71622,411.488869 L1009.41739,411.488869 L1014.11856,404.372954 L1018.81973,399.385731 L1023.52089,397.910852 L1028.22206,399.476961 L1032.92323,395.189166 L1042.32557,391.884624 L1047.02674,389.502516 L1051.72791,386.29934 L1061.13024,382.994799 L1065.83141,380.845832 L1070.53258,377.54129 L1084.63609,372.320926 L1089.33726,370.040184 L1094.03843,368.387913 L1098.7396,363.897385 L1103.44076,365.843618 L1108.14193,364.191348 L1117.54427,356.65983 L1122.24544,353.912803 L1126.94661,352.260532 L1131.64778,347.688912 L1136.34895,349.341183 L1141.05012,347.739594 L1145.75128,343.294682 L1150.45245,337.329274 L1155.15362,334.024732 L1159.85479,332.331914 L1164.55596,330.925457 L1169.25713,329.686254 L1173.9583,321.901321 L1178.65947,318.880604 L1192.76297,313.923792 L1197.46414,311.698802 L1202.16531,307.304572 L1206.86648,303.75675 L1216.26881,295.627172 L1220.96998,292.606456 L1230.37232,289.301914 L1235.07349,284.253872 L1239.77466,282.588929 L1244.47583,281.304112 L1253.87816,277.99957 L1258.57933,275.191723 L1263.2805,270.23491 L1267.98167,266.540109 L1272.68284,271.724995 L1277.38401,267.28515 L1282.08518,264.568533 L1286.78635,261.263991 L1291.48751,260.959892 L1296.18868,259.735895 L1300.88985,258.314232 L1305.59102,256.023353" transform="translate(-932 -256)"/>
</svg>
