<?xml version="1.0" encoding="UTF-8"?>
<svg width="1172px" height="347px" viewBox="0 0 1172 347" version="1.1" xmlns="http://www.w3.org/2000/svg" xmlns:xlink="http://www.w3.org/1999/xlink">
    <title>6DA48F57-AD74-4595-BA2C-173B624FDC6B</title>
    <g id="UI-kit" stroke="none" stroke-width="1" fill="none" fill-rule="evenodd">
        <g id="Earth-Dashboard-UI-kit---Cimate" transform="translate(-155.000000, -1414.000000)">
            <g id="confidence" transform="translate(156.550633, 1415.081023)">
                <polygon id="Path-Copy-7" fill-opacity="0.503196023" fill="#D5DCE1" points="1169.87952 5.68434189e-14 1158.18073 5.68434189e-14 1146.48193 4.31258493 1134.78313 9.2456848 1123.08434 6.51541593 1111.38554 16.5781137 1099.68675 18.2638483 1087.98796 18.6154736 1076.28916 17.57611 1064.59037 20.0116343 1052.89157 28.7609069 1041.19277 35.2246129 1029.49398 36.9103475 1017.79518 39.9612172 1006.09639 46.2284264 994.397589 51.4407599 982.698801 47.5625358 971 47.5935615 959.301209 52.6507653 924.204821 74.8031792 912.506025 76.7888304 900.807229 76.7888304 889.108433 82.2183437 877.409645 88.4235015 865.710849 90.7814609 854.012053 95.259517 842.313257 93.5737824 830.614461 98.4293187 818.915665 106.356408 807.216869 111.413611 795.518073 112.79426 783.819277 117.401589 772.120481 124.258289 760.421692 123.823928 748.722896 127.981384 737.024101 130.122163 725.325305 136.451424 713.626509 136.668605 701.927713 136.079114 690.228917 138.716307 666.831325 148.923792 655.132536 148.923792 643.43374 151.964319 631.734944 153.577661 620.036148 160.511924 608.337352 168.09773 596.638557 172.968779 584.939761 174.721737 573.240965 177.250338 561.542169 179.476439 549.843373 180.740739 538.144584 181.500872 526.445788 181.562923 514.746992 184.934392 503.048196 185.079179 491.3494 183.827805 479.650604 183.827805 467.951808 190.808608 456.253013 190.808608 444.554217 191.987589 421.156632 205.700988 409.457836 205.033933 397.75904 211.564862 386.060244 216.684118 374.361448 218.731819 362.662652 219.817722 350.963856 223.882101 339.26506 225.567836 327.566265 221.08978 315.867476 228.411866 292.469884 238.526273 280.771088 241.628853 269.072292 244.157454 257.373496 247.472043 245.6747 255.846421 233.975904 254.58212 222.277108 252.363775 210.57832 253.977117 198.879524 258.041495 187.180728 267.597438 175.481932 268.155903 163.783136 273.694007 152.08434 279.687154 140.385544 281.372889 128.686748 279.309674 116.987952 284.258288 105.289156 290.866782 93.5903674 290.866782 81.8915715 293.390212 70.1927756 296.451423 58.4939797 298.30056 46.7951837 299.312001 35.0963878 300.670931 23.3975919 304.042401 11.6987959 313.360479 1.13686838e-12 315.56331 2.27373675e-13 344.013959 11.6987959 336.629822 23.3975919 332.162108 35.0963878 332.006979 46.7951837 334.189127 58.4939797 330.424664 70.1927756 330.424664 81.8915715 331.489882 93.5903674 331.479541 105.289156 326.422337 116.987952 328.345936 128.686748 323.54728 140.385544 326.918749 152.08434 323.164629 163.783136 315.578823 187.180728 325.615667 198.879524 320.124101 210.57832 312.802015 233.975904 316.173484 245.6747 312.274577 257.373496 307.217373 269.072292 311.467905 280.771088 307.403527 292.469884 309.089262 304.16868 307.930966 315.867476 300.919137 327.566265 297.051255 339.26506 296.901298 350.963856 304.176845 362.662652 304.776677 374.361448 299.212719 386.060244 296.389372 397.75904 293.886625 409.457836 290.866782 421.156632 290.866782 432.855428 288.426086 444.554217 284.475469 456.253013 283.699824 467.951808 285.509661 479.650604 283.265463 491.3494 275.136706 503.048196 268.672999 514.746992 266.682178 526.445788 264.153576 538.144584 265.580763 549.843373 266.077175 561.542169 263.548574 573.240965 262.943571 584.939761 261.661171 596.638557 258.289702 608.337352 256.603968 620.036148 256.589488 631.734944 257.600929 643.43374 255.86969 655.132536 249.292223 666.831325 253.77545 678.530121 260.285695 690.228917 256.914226 701.927713 250.517742 713.626509 248.175294 725.325305 247.163853 737.024101 249.168119 748.722896 250.336757 760.421692 247.989139 772.120481 242.931935 783.819277 241.175875 807.216869 239.301918 830.614461 237.857003 842.313257 236.602675 854.012053 234.074072 865.710849 231.162819 877.409645 227.853402 889.108433 225.971171 900.807229 227.656905 912.506025 224.130306 924.204821 219.073103 935.903617 216.435911 947.602413 218.886949 959.301209 220.572683 971 221.058754 982.698801 213.891796 994.397589 203.187899 1006.09639 204.770214 1017.79518 204.770214 1029.49398 205.866458 1041.19277 206.755864 1052.89157 205.491563 1064.59037 202.598409 1076.28916 200.760131 1087.98796 202.024432 1099.68675 201.316009 1111.38554 197.199921 1123.08434 195.462477 1134.78313 196.594918 1146.48193 199.12352 1158.18073 200.116345 1169.87952 198.968391"></polygon>
                <polyline id="Path-Copy-7" stroke="#B7C2CC" stroke-linecap="square" points="6.84150444e-13 315.56331 11.6987959 313.360479 23.3975919 304.042401 35.0963878 300.670931 46.7951837 299.312001 58.4939797 298.30056 70.1927756 296.451423 81.8915715 293.390212 93.5903674 290.866782 105.289156 290.866782 116.987952 284.258288 128.686748 279.309674 140.385544 281.372889 152.08434 279.687154 163.783136 273.694007 175.481932 268.155903 187.180728 267.597438 198.879524 258.041495 210.57832 253.977117 222.277108 252.363775 233.975904 254.58212 245.6747 255.846421 257.373496 247.472043 269.072292 244.157454 280.771088 241.628853 292.469884 238.526273 315.867476 228.411866 327.566265 221.08978 339.26506 225.567836 350.963856 223.882101 362.662652 219.817722 374.361448 218.731819 386.060244 216.684118 397.75904 211.564862 409.457836 205.033933 421.156632 205.700988 444.554217 191.987589 456.253013 190.808608 467.951808 190.808608 479.650604 183.827805 491.3494 183.827805 503.048196 185.079179 514.746992 184.934392 526.445788 181.562923 538.144584 181.500872 549.843373 180.740739 561.542169 179.476439 573.240965 177.250338 584.939761 174.721737 596.638557 172.968779 608.337352 168.09773 620.036148 160.511924 631.734944 153.577661 643.43374 151.964319 655.132536 148.923792 666.831325 148.923792 690.228917 138.716307 701.927713 136.079114 713.626509 136.668605 725.325305 136.451424 737.024101 130.122163 748.722896 127.981384 760.421692 123.823928 772.120481 124.258289 783.819277 117.401589 795.518073 112.79426 807.216869 111.413611 818.915665 106.356408 830.614461 98.4293187 842.313257 93.5737824 854.012053 95.259517 865.710849 90.7814609 877.409645 88.4235015 889.108433 82.2183437 900.807229 76.7888304 912.506025 76.7888304 924.204821 74.8031792 959.301209 52.6507653 971.000005 47.5935615 982.698801 47.5625358 994.397589 51.4407599 1006.09639 46.2284264 1017.79518 39.9612172 1029.49398 36.9103475 1041.19277 35.2246129 1052.89157 28.7609069 1064.59037 20.0116343 1076.28916 17.57611 1087.98796 18.6154736 1099.68675 18.2638483 1111.38554 16.5781137 1123.08434 6.51541593 1134.78313 9.2456848 1146.48193 4.31258493 1158.18073 2.27373675e-13 1169.87952 2.27373675e-13"></polyline>
                <polyline id="Path-Copy-8" stroke="#B7C2CC" stroke-linecap="square" points="-2.29403093e-13 344.013959 11.6987959 336.629822 23.3975919 332.162108 35.0963878 332.006979 46.7951837 334.189127 58.4939797 330.424664 70.1927756 330.424664 81.8915715 331.489882 93.5903674 331.479541 105.289156 326.422337 116.987952 328.345936 128.686748 323.54728 140.385544 326.918749 152.08434 323.164629 163.783136 315.578823 187.180728 325.615667 198.879524 320.124101 210.57832 312.802015 233.975904 316.173484 245.6747 312.274577 257.373496 307.217373 269.072292 311.467905 280.771088 307.403527 292.469884 309.089262 304.16868 307.930966 315.867476 300.919137 327.566265 297.051255 339.26506 296.901298 350.963856 304.176845 362.662652 304.776677 374.361448 299.212719 386.060244 296.389372 397.75904 293.886625 409.457836 290.866782 421.156632 290.866782 432.855428 288.426086 444.554217 284.475469 456.253013 283.699824 467.951808 285.509661 479.650604 283.265463 491.3494 275.136706 503.048196 268.672999 514.746992 266.682178 526.445788 264.153576 538.144584 265.580763 549.843373 266.077175 561.542169 263.548574 573.240965 262.943571 584.939761 261.661171 596.638557 258.289702 608.337352 256.603968 620.036148 256.589488 631.734944 257.600929 643.43374 255.86969 655.132536 249.292223 666.831325 253.77545 678.530121 260.285695 690.228917 256.914226 701.927713 250.517742 713.626509 248.175294 725.325305 247.163853 737.024101 249.168119 748.722896 250.336757 760.421692 247.989139 772.120481 242.931935 783.819277 241.175875 807.216869 239.301918 830.614461 237.857003 842.313257 236.602675 854.012053 234.074072 865.710849 231.162819 877.409645 227.853402 889.108433 225.971171 900.807229 227.656905 912.506025 224.130306 924.204821 219.073103 935.903617 216.435911 947.602413 218.886949 959.301209 220.572683 971.000005 221.058754 982.698801 213.891796 994.397589 203.187899 1006.09639 204.770214 1017.79518 204.770214 1029.49398 205.866458 1041.19277 206.755864 1052.89157 205.491563 1064.59037 202.598409 1076.28916 200.760131 1087.98796 202.024432 1099.68675 201.316009 1111.38554 197.199921 1123.08434 195.462477 1134.78313 196.594918 1146.48193 199.12352 1158.18073 200.116345 1169.87952 198.968391"></polyline>
            </g>
        </g>
    </g>
</svg>