<?xml version="1.0" encoding="UTF-8"?>
<svg width="1173px" height="484px" viewBox="0 0 1173 484" version="1.1" xmlns="http://www.w3.org/2000/svg" xmlns:xlink="http://www.w3.org/1999/xlink">
    <title>EF920B83-D20F-4134-893D-52F19F5EE743</title>
    <g id="UI-kit" stroke="none" stroke-width="1" fill="none" fill-rule="evenodd">
        <g id="Earth-Dashboard-UI-kit---Cimate" transform="translate(-155.000000, -721.000000)">
            <g id="confidence" transform="translate(155.839133, 722.081023)">
                <polygon id="Path-Copy-9" fill-opacity="0.503196023" fill="#D5DCE1" points="1170.59102 1.13686838e-13 1165.88985 1.13686838e-13 1161.18868 4.31258493 1156.48751 9.2456848 1151.78635 6.51541593 1147.08518 16.5781137 1142.38401 18.2638483 1137.68284 18.6154736 1132.98167 17.57611 1128.2805 20.0116343 1123.57933 28.7609069 1118.87816 35.2246129 1114.177 36.9103475 1109.47583 39.9612172 1104.77466 46.2284264 1100.07349 51.4407599 1095.37232 47.5625358 1090.67115 47.5935615 1085.96998 52.6507653 1071.86648 74.8031792 1067.16531 76.7888304 1062.46414 76.7888304 1057.76297 82.2183437 1053.0618 88.4235015 1048.36063 90.7814609 1043.65947 95.259517 1038.9583 93.5737824 1034.25713 98.4293187 1029.55596 106.356408 1024.85479 111.413611 1020.15362 112.79426 1015.45245 117.401589 1010.75128 124.258289 1006.05012 123.823928 1001.34895 127.981384 996.647778 130.122163 991.946609 136.451424 987.245439 136.668605 982.54427 136.079114 977.843101 138.716307 968.440763 148.923792 963.739597 148.923792 959.038428 151.964319 954.337259 153.577661 949.63609 160.511924 944.934921 168.09773 940.233752 172.968779 935.532583 174.721737 930.831414 177.250338 926.130245 179.476439 921.429075 180.740739 916.727909 181.500872 912.02674 181.562923 907.325571 184.934392 902.624402 185.079179 897.923233 183.827805 893.222064 183.827805 888.520895 190.808608 883.819726 190.808608 879.118557 191.987589 869.716222 205.700988 865.015052 205.033933 860.313883 211.564862 855.612714 216.684118 850.911545 218.731819 846.210376 219.817722 841.509207 223.882101 836.808038 225.567836 832.106869 221.08978 827.405703 228.411866 818.003365 238.526273 813.302196 241.628853 808.601027 244.157454 803.899858 247.472043 799.198689 255.846421 794.497519 254.58212 789.79635 252.363775 785.095184 253.977117 780.394015 258.041495 775.692846 267.597438 770.991677 268.155903 766.290508 273.694007 761.589339 279.687154 756.88817 281.372889 752.187001 279.309674 747.485832 284.258288 742.784663 290.866782 738.083496 290.866782 733.382327 293.390212 728.681158 296.451423 723.979989 298.30056 719.27882 299.312001 714.577651 300.670931 709.876482 304.042401 705.175313 313.360479 700.474144 315.56331 695.772978 318.821018 691.071809 316.897419 686.37064 322.373471 681.669471 331.820825 676.968302 339.049834 672.267133 344.107038 667.565963 344.262166 662.864794 337.622647 658.163625 325.538102 653.462456 333.641003 648.76129 337.012473 644.060121 339.639323 639.358952 348.822958 634.657783 345.006785 629.956614 350.063989 625.255445 351.367072 620.554276 347.209616 615.853107 339.825478 611.151938 337.405466 606.450771 340.445993 601.749602 347.271667 597.048433 350.560401 592.347264 351.367072 587.646095 358.347875 582.944926 360.271473 578.243757 355.21427 573.542588 355.462476 564.14025 361.683148 550.036746 369.268953 545.335577 365.654449 540.634407 366.918749 535.933238 368.710488 531.232069 362.443279 526.5309 357.479152 521.829731 356.687995 517.128565 347.17859 512.427396 347.137223 507.726227 350.141554 503.025058 350.063989 498.323889 349.381421 493.62272 352.452975 488.921551 354.531702 479.519213 352.928703 470.116877 349.557234 465.415708 347.287181 460.714539 351.367072 451.312201 351.367072 446.611032 349.970912 441.909863 350.105356 437.208694 351.367072 432.507525 351.367072 427.806359 352.835626 423.10519 356.176069 418.404021 356.424276 409.001682 350.001937 399.599344 353.694006 394.898175 360.84028 390.197006 364.211749 385.495837 360.938529 380.794671 362.202829 376.093502 361.140196 371.392333 360.674809 366.691164 358.347875 361.989995 358.099668 352.587657 354.728199 347.886487 358.099668 343.185318 358.347875 338.484152 358.347875 333.782983 360.023267 329.081814 364.785726 324.380645 366.652444 319.679476 366.631761 314.978307 366.14569 310.277138 368.18305 305.575969 371.068449 300.8748 374.977698 296.173631 378.318142 291.472465 375.008724 286.771295 367.438431 282.070126 368.276127 277.368957 371.657939 272.667788 372.30948 263.26545 372.30948 258.564281 373.628077 253.863112 377.676942 249.161946 379.290283 244.460777 379.290283 239.759608 375.03975 235.058439 367.655612 230.35727 367.655612 225.656101 368.058947 220.954931 370.385881 216.253762 372.071616 211.552593 367.965869 206.851424 374.682953 202.150258 377.128819 197.449089 378.814554 192.74792 381.105291 188.046751 381.617217 183.345582 381.617217 173.943244 386.467583 164.540906 389.839052 159.839739 390.025206 155.13857 381.989526 150.437401 368.400231 145.736232 372.650763 141.035063 374.093463 136.333894 370.820242 131.632725 369.548185 126.931556 372.293967 122.230387 372.123326 117.529218 369.982546 112.828052 368.803566 108.126883 365.700987 103.425714 366.766205 98.7245445 367.655612 89.3222064 365.763038 84.6210373 368.291641 79.9198683 371.657939 75.2186992 373.250595 70.517533 369.982546 61.1151949 369.982546 56.4140259 368.751856 51.7128568 368.539846 47.0116877 374.326157 42.3105187 379.414386 37.6093496 381.291447 32.9081805 379.641909 28.2070115 381.327643 23.5058453 381.617217 18.8046762 377.0254 14.1035072 374.636415 9.40233812 373.100638 4.70116906 370.572036 3.41060513e-13 369.982546 3.41060513e-13 456.079114 4.70116906 456.079114 9.40233812 452.914483 14.1035072 449.09831 18.8046762 449.09831 23.5058453 450.029084 32.9081805 470.459567 37.6093496 462.873761 42.3105187 457.366684 47.0116877 451.425245 51.7128568 451.425245 56.4140259 454.713979 61.1151949 450.742677 65.816364 449.982545 70.517533 451.425245 75.2186992 450.928832 79.9198683 444.444443 84.6210373 444.444443 89.3222064 443.958371 94.0233755 442.272637 103.425714 441.946866 108.126883 439.418264 112.828052 436.315685 117.529218 439.014929 122.230387 437.835948 131.632725 441.683147 136.333894 436.625943 141.035063 433.947383 145.736232 436.098504 150.437401 441.838275 155.13857 454.124488 159.839739 481.67539 164.540906 478.883069 169.242075 471.033544 173.943244 464.228554 178.644413 460.857085 183.345582 459.109299 188.046751 463.370174 192.74792 463.339149 197.449089 454.651927 202.150258 449.594723 206.851424 445.654448 211.552593 444.444443 216.253762 444.087645 220.954931 442.862127 225.656101 446.233596 230.35727 440.395577 235.058439 438.239284 239.759608 439.387239 244.460777 444.53752 249.161946 464.176844 253.863112 457.5063 263.26545 449.005233 267.966619 445.359703 272.667788 441.21776 277.368957 437.463639 282.070126 439.170058 286.771295 441.062631 291.472465 441.047118 296.173631 440.659296 300.8748 434.640292 305.575969 432.80977 310.277138 432.80977 314.978307 431.299849 319.679476 427.87667 324.380645 425.828968 329.081814 426.91487 333.782983 428.993599 338.484152 425.19811 343.185318 423.512376 347.886487 423.874344 352.587657 426.604612 357.288826 419.996119 361.989995 418.848165 366.691164 419.840991 371.392333 422.369592 376.093502 425.130888 380.794671 419.282526 385.495837 422.023138 390.197006 425.394607 394.898175 428.031799 399.599344 421.019971 404.300513 416.800463 409.001682 418.848165 423.10519 418.848165 427.806359 413.798718 432.507525 417.591621 437.208694 416.593625 441.909863 415.166438 446.611032 418.537907 451.312201 417.317559 456.01337 414.742419 460.714539 411.495054 465.415708 411.262359 470.116877 415.745586 474.818043 414.194297 484.220382 414.194297 493.62272 409.954106 498.323889 411.63984 503.025058 409.680044 507.726227 407.94777 512.427396 408.164951 517.128565 409.23017 521.829731 407.544435 526.5309 403.149116 531.232069 416.148921 535.933238 427.318206 540.634407 427.535387 554.737915 412.363775 559.439084 416.428153 564.14025 413.573781 568.841419 404.529763 573.542588 402.559626 578.243757 402.559626 582.944926 398.867557 587.646095 402.559626 592.347264 402.15629 601.749602 392.041883 606.450771 392.895092 611.151938 384.564667 615.853107 381.710294 620.554276 386.767498 625.255445 398.883069 629.956614 390.645722 634.657783 384.564667 639.358952 375.484452 644.060121 373.37987 648.76129 369.393055 653.462456 364.335852 658.163625 361.140196 662.864794 364.801239 667.565963 392.631372 672.267133 381.337985 676.968302 375.939497 681.669471 366.724838 686.37064 359.185571 691.071809 347.581925 695.772978 346.713204 700.474144 344.013959 705.175313 336.629822 709.876482 332.162108 714.577651 332.006979 719.27882 334.189127 723.979989 330.424664 728.681158 330.424664 733.382327 331.489882 738.083496 331.479541 742.784663 326.422337 747.485832 328.345936 752.187001 323.54728 756.88817 326.918749 761.589339 323.164629 766.290508 315.578823 775.692846 325.615667 780.394015 320.124101 785.095184 312.802015 794.497519 316.173484 799.198689 312.274577 803.899858 307.217373 808.601027 311.467905 813.302196 307.403527 818.003365 309.089262 822.704534 307.930966 827.405703 300.919137 832.106869 297.051255 836.808038 296.901298 841.509207 304.176845 846.210376 304.776677 850.911545 299.212719 855.612714 296.389372 860.313883 293.886625 865.015052 290.866782 869.716222 290.866782 874.417391 288.426086 879.118557 284.475469 883.819726 283.699824 888.520895 285.509661 893.222064 283.265463 897.923233 275.136706 902.624402 268.672999 907.325571 266.682178 912.02674 264.153576 916.727909 265.580763 921.429075 266.077175 926.130245 263.548574 930.831414 262.943571 935.532583 261.661171 940.233752 258.289702 944.934921 256.603968 949.63609 256.589488 954.337259 257.600929 959.038428 255.86969 963.739597 249.292223 968.440763 253.77545 973.141932 260.285695 977.843101 256.914226 982.54427 250.517742 987.245439 248.175294 991.946609 247.163853 996.647778 249.168119 1001.34895 250.336757 1006.05012 247.989139 1010.75128 242.931935 1015.45245 241.175875 1024.85479 239.301918 1034.25713 237.857003 1038.9583 236.602675 1043.65947 234.074072 1048.36063 231.162819 1053.0618 227.853402 1057.76297 225.971171 1062.46414 227.656905 1067.16531 224.130306 1071.86648 219.073103 1076.56765 216.435911 1081.26881 218.886949 1085.96998 220.572683 1090.67115 221.058754 1095.37232 213.891796 1100.07349 203.187899 1104.77466 204.770214 1109.47583 204.770214 1114.177 205.866458 1118.87816 206.755864 1123.57933 205.491563 1128.2805 202.598409 1132.98167 200.760131 1137.68284 202.024432 1142.38401 201.316009 1147.08518 197.199921 1151.78635 195.462477 1156.48751 196.594918 1161.18868 199.12352 1165.88985 200.116345 1170.59102 198.968391"></polygon>
                <polyline id="Path-Copy-11" stroke="#B7C2CC" stroke-linecap="square" points="3.41060513e-13 369.982546 4.70116906 370.572036 9.40233812 373.100638 14.1035072 374.636415 18.8046762 377.0254 23.5058453 381.617217 28.2070115 381.327643 32.9081805 379.641909 37.6093496 381.291447 42.3105187 379.414386 47.0116877 374.326157 51.7128568 368.539846 56.4140259 368.751856 61.1151949 369.982546 70.517533 369.982546 75.2186992 373.250595 79.9198683 371.657939 84.6210373 368.291641 89.3222064 365.763038 98.7245445 367.655612 103.425714 366.766205 108.126883 365.700987 112.828052 368.803566 117.529218 369.982546 122.230387 372.123326 126.931556 372.293967 131.632725 369.548185 136.333894 370.820242 141.035063 374.093463 145.736232 372.650763 150.437401 368.400231 155.13857 381.989526 159.839739 390.025206 164.540906 389.839052 173.943244 386.467583 183.345582 381.617217 188.046751 381.617217 192.74792 381.105291 197.449089 378.814554 202.150258 377.128819 206.851424 374.682953 211.552593 367.965869 216.253762 372.071616 220.954931 370.385881 225.656101 368.058947 230.35727 367.655612 235.058439 367.655612 239.759608 375.03975 244.460777 379.290283 249.161946 379.290283 253.863112 377.676942 258.564281 373.628077 263.26545 372.30948 272.667788 372.30948 277.368957 371.657939 282.070126 368.276127 286.771295 367.438431 291.472465 375.008724 296.173631 378.318142 300.8748 374.977698 305.575969 371.068449 310.277138 368.18305 314.978307 366.14569 319.679476 366.631761 324.380645 366.652444 329.081814 364.785726 333.782983 360.023267 338.484152 358.347875 343.185318 358.347875 347.886487 358.099668 352.587657 354.728199 361.989995 358.099668 366.691164 358.347875 371.392333 360.674809 376.093502 361.140196 380.794671 362.202829 385.495837 360.938529 390.197006 364.211749 394.898175 360.84028 399.599344 353.694006 409.001682 350.001937 418.404021 356.424276 423.10519 356.176069 427.806359 352.835626 432.507525 351.367072 437.208694 351.367072 441.909863 350.105356 446.611032 349.970912 451.312201 351.367072 460.714539 351.367072 465.415708 347.287181 470.116877 349.557234 479.519213 352.928703 488.921551 354.531702 493.62272 352.452975 498.323889 349.381421 503.025058 350.063989 507.726227 350.141554 512.427396 347.137223 517.128565 347.17859 521.829731 356.687995 526.5309 357.479152 531.232069 362.443279 535.933238 368.710488 540.634407 366.918749 545.335577 365.654449 550.036746 369.268953 564.14025 361.683148 573.542588 355.462476 578.243757 355.21427 582.944926 360.271473 587.646095 358.347875 592.347264 351.367072 597.048433 350.560401 601.749602 347.271667 606.450771 340.445993 611.151938 337.405466 615.853107 339.825478 620.554276 347.209616 625.255445 351.367072 629.956614 350.063989 634.657783 345.006785 639.358952 348.822958 644.060121 339.639323 648.76129 337.012473 653.462456 333.641003 658.163625 325.538102 662.864794 337.622647 667.565963 344.262166 672.267133 344.107038 676.968302 339.049834 681.669471 331.820825 686.37064 322.373471 691.071809 316.897419 695.772978 318.821018 700.474144 315.56331 705.175313 313.360479 709.876482 304.042401 714.577651 300.670931 719.27882 299.312001 723.979989 298.30056 728.681158 296.451423 733.382327 293.390212 738.083496 290.866782 742.784663 290.866782 747.485832 284.258288 752.187001 279.309674 756.88817 281.372889 761.589339 279.687154 766.290508 273.694007 770.991677 268.155903 775.692846 267.597438 780.394015 258.041495 785.095184 253.977117 789.79635 252.363775 794.497519 254.58212 799.198689 255.846421 803.899858 247.472043 808.601027 244.157454 813.302196 241.628853 818.003365 238.526273 827.405703 228.411866 832.106869 221.08978 836.808038 225.567836 841.509207 223.882101 846.210376 219.817722 850.911545 218.731819 855.612714 216.684118 860.313883 211.564862 865.015052 205.033933 869.716222 205.700988 879.118557 191.987589 883.819726 190.808608 888.520895 190.808608 893.222064 183.827805 897.923233 183.827805 902.624402 185.079179 907.325571 184.934392 912.02674 181.562923 916.727909 181.500872 921.429075 180.740739 926.130245 179.476439 930.831414 177.250338 935.532583 174.721737 940.233752 172.968779 944.934921 168.09773 949.63609 160.511924 954.337259 153.577661 959.038428 151.964319 963.739597 148.923792 968.440763 148.923792 977.843101 138.716307 982.54427 136.079114 987.245439 136.668605 991.946609 136.451424 996.647778 130.122163 1001.34895 127.981384 1006.05012 123.823928 1010.75128 124.258289 1015.45245 117.401589 1020.15362 112.79426 1024.85479 111.413611 1029.55596 106.356408 1034.25713 98.4293187 1038.9583 93.5737824 1043.65947 95.259517 1048.36063 90.7814609 1053.0618 88.4235015 1057.76297 82.2183437 1062.46414 76.7888304 1067.16531 76.7888304 1071.86648 74.8031792 1085.96998 52.6507653 1090.67115 47.5935615 1095.37232 47.5625358 1100.07349 51.4407599 1104.77466 46.2284264 1109.47583 39.9612172 1114.177 36.9103475 1118.87816 35.2246129 1123.57933 28.7609069 1128.2805 20.0116343 1132.98167 17.57611 1137.68284 18.6154736 1142.38401 18.2638483 1147.08518 16.5781137 1151.78635 6.51541593 1156.48751 9.2456848 1161.18868 4.31258493 1165.88985 -2.84217094e-14 1170.59102 -2.84217094e-14 1170.59102 -2.84217094e-14"></polyline>
                <polyline id="Path-Copy-12" stroke="#B7C2CC" stroke-linecap="square" points="3.41060513e-13 456.079114 4.70116906 456.079114 9.40233812 452.914483 14.1035072 449.09831 18.8046762 449.09831 23.5058453 450.029084 32.9081805 470.459567 37.6093496 462.873761 42.3105187 457.366684 47.0116877 451.425245 51.7128568 451.425245 56.4140259 454.713979 61.1151949 450.742677 65.816364 449.982545 70.517533 451.425245 75.2186992 450.928832 79.9198683 444.444443 84.6210373 444.444443 89.3222064 443.958371 94.0233755 442.272637 103.425714 441.946866 108.126883 439.418264 112.828052 436.315685 117.529218 439.014929 122.230387 437.835948 131.632725 441.683147 136.333894 436.625943 141.035063 433.947383 145.736232 436.098504 150.437401 441.838275 155.13857 454.124488 159.839739 481.67539 164.540906 478.883069 169.242075 471.033544 173.943244 464.228554 178.644413 460.857085 183.345582 459.109299 188.046751 463.370174 192.74792 463.339149 197.449089 454.651927 202.150258 449.594723 206.851424 445.654448 211.552593 444.444443 216.253762 444.087645 220.954931 442.862127 225.656101 446.233596 230.35727 440.395577 235.058439 438.239284 239.759608 439.387239 244.460777 444.53752 249.161946 464.176844 253.863112 457.5063 263.26545 449.005233 267.966619 445.359703 272.667788 441.21776 277.368957 437.463639 282.070126 439.170058 286.771295 441.062631 291.472465 441.047118 296.173631 440.659296 300.8748 434.640292 305.575969 432.80977 310.277138 432.80977 314.978307 431.299849 319.679476 427.87667 324.380645 425.828968 329.081814 426.91487 333.782983 428.993599 338.484152 425.19811 343.185318 423.512376 347.886487 423.874344 352.587657 426.604612 357.288826 419.996119 361.989995 418.848165 366.691164 419.840991 371.392333 422.369592 376.093502 425.130888 380.794671 419.282526 385.495837 422.023138 390.197006 425.394607 394.898175 428.031799 399.599344 421.019971 404.300513 416.800463 409.001682 418.848165 423.10519 418.848165 427.806359 413.798718 432.507525 417.591621 437.208694 416.593625 441.909863 415.166438 446.611032 418.537907 451.312201 417.317559 456.01337 414.742419 460.714539 411.495054 465.415708 411.262359 470.116877 415.745586 474.818043 414.194297 484.220382 414.194297 493.62272 409.954106 498.323889 411.63984 503.025058 409.680044 507.726227 407.94777 512.427396 408.164951 517.128565 409.23017 521.829731 407.544435 526.5309 403.149116 531.232069 416.148921 535.933238 427.318206 540.634407 427.535387 554.737915 412.363775 559.439084 416.428153 564.14025 413.573781 568.841419 404.529763 573.542588 402.559626 578.243757 402.559626 582.944926 398.867557 587.646095 402.559626 592.347264 402.15629 601.749602 392.041883 606.450771 392.895092 611.151938 384.564667 615.853107 381.710294 620.554276 386.767498 625.255445 398.883069 629.956614 390.645722 634.657783 384.564667 639.358952 375.484452 644.060121 373.37987 648.76129 369.393055 653.462456 364.335852 658.163625 361.140196 662.864794 364.801239 667.565963 392.631372 672.267133 381.337985 676.968302 375.939497 681.669471 366.724838 686.37064 359.185571 691.071809 347.581925 695.772978 346.713204 700.474144 344.013959 705.175313 336.629822 709.876482 332.162108 714.577651 332.006979 719.27882 334.189127 723.979989 330.424664 728.681158 330.424664 733.382327 331.489882 738.083496 331.479541 742.784663 326.422337 747.485832 328.345936 752.187001 323.54728 756.88817 326.918749 761.589339 323.164629 766.290508 315.578823 775.692846 325.615667 780.394015 320.124101 785.095184 312.802015 794.497519 316.173484 799.198689 312.274577 803.899858 307.217373 808.601027 311.467905 813.302196 307.403527 818.003365 309.089262 822.704534 307.930966 827.405703 300.919137 832.106869 297.051255 836.808038 296.901298 841.509207 304.176845 846.210376 304.776677 850.911545 299.212719 855.612714 296.389372 860.313883 293.886625 865.015052 290.866782 869.716222 290.866782 874.417391 288.426086 879.118557 284.475469 883.819726 283.699824 888.520895 285.509661 893.222064 283.265463 897.923233 275.136706 902.624402 268.672999 907.325571 266.682178 912.02674 264.153576 916.727909 265.580763 921.429075 266.077175 926.130245 263.548574 930.831414 262.943571 935.532583 261.661171 940.233752 258.289702 944.934921 256.603968 949.63609 256.589488 954.337259 257.600929 959.038428 255.86969 963.739597 249.292223 968.440763 253.77545 973.141932 260.285695 977.843101 256.914226 982.54427 250.517742 987.245439 248.175294 991.946609 247.163853 996.647778 249.168119 1001.34895 250.336757 1006.05012 247.989139 1010.75128 242.931935 1015.45245 241.175875 1024.85479 239.301918 1034.25713 237.857003 1038.9583 236.602675 1043.65947 234.074072 1048.36063 231.162819 1053.0618 227.853402 1057.76297 225.971171 1062.46414 227.656905 1067.16531 224.130306 1071.86648 219.073103 1076.56765 216.435911 1081.26881 218.886949 1085.96998 220.572683 1090.67115 221.058754 1095.37232 213.891796 1100.07349 203.187899 1104.77466 204.770214 1109.47583 204.770214 1114.177 205.866458 1118.87816 206.755864 1123.57933 205.491563 1128.2805 202.598409 1132.98167 200.760131 1137.68284 202.024432 1142.38401 201.316009 1147.08518 197.199921 1151.78635 195.462477 1156.48751 196.594918 1161.18868 199.12352 1165.88985 200.116345 1170.59102 198.968391 1170.59102 198.968391"></polyline>
            </g>
        </g>
    </g>
</svg>