<?xml version="1.0" encoding="UTF-8"?>
<svg width="801px" height="232px" viewBox="0 0 801 232" version="1.1" xmlns="http://www.w3.org/2000/svg" xmlns:xlink="http://www.w3.org/1999/xlink">
    <title>CE45E99F-C3C7-4B1B-A9CF-43F75A01ED31</title>
    <g id="UI-kit" stroke="none" stroke-width="1" fill="none" fill-rule="evenodd">
        <g id="Earth-Dashboard-UI-kit---Cimate" transform="translate(-155.000000, -281.000000)">
            <g id="confidence" transform="translate(155.839133, 281.444799)">
                <polygon id="Path-Copy-5" fill-opacity="0.503196023" fill="#D5DCE1" points="1.13686838e-12 117.61877 4.70116906 118.208261 9.40233812 120.736862 14.1035072 122.272639 18.8046762 124.661624 23.5058453 129.253442 28.2070115 128.963868 32.9081805 127.278133 37.6093496 128.927671 42.3105187 127.050611 47.0116877 121.962381 51.7128568 116.176071 56.4140259 116.388081 61.1151949 117.61877 70.517533 117.61877 75.2186992 120.88682 79.9198683 119.294164 84.6210373 115.927865 89.3222064 113.399263 98.7245445 115.291837 103.425714 114.40243 108.126883 113.337211 112.828052 116.439791 117.529218 117.61877 122.230387 119.75955 126.931556 119.930192 131.632725 117.18441 136.333894 118.456466 141.035063 121.729688 145.736232 120.286988 150.437401 116.036456 155.13857 129.625751 159.839739 137.66143 164.540906 137.475276 173.943244 134.103807 183.345582 129.253442 188.046751 129.253442 192.74792 128.741516 197.449089 126.450779 202.150258 124.765044 206.851424 122.319177 211.552593 115.602094 216.253762 119.70784 220.954931 118.022106 225.656101 115.695172 230.35727 115.291837 235.058439 115.291837 239.759608 122.675974 244.460777 126.926508 249.161946 126.926508 253.863112 125.313166 258.564281 121.264301 263.26545 119.945704 272.667788 119.945704 277.368957 119.294164 282.070126 115.912352 286.771295 115.074656 291.472465 122.644949 296.173631 125.954366 300.8748 122.613923 305.575969 118.704673 310.277138 115.819275 314.978307 113.781915 319.679476 114.267985 324.380645 114.288668 329.081814 112.42195 333.782983 107.659491 338.484152 105.984099 343.185318 105.984099 347.886487 105.735893 352.587657 102.364423 361.989995 105.735893 366.691164 105.984099 371.392333 108.311033 376.093502 108.776421 380.794671 109.839054 385.495837 108.574753 390.197006 111.847973 394.898175 108.476504 399.599344 101.330231 409.001682 97.6381619 418.404021 104.060501 423.10519 103.812294 427.806359 100.47185 432.507525 99.0032969 437.208694 99.0032969 441.909863 97.7415804 446.611032 97.6071362 451.312201 99.0032969 460.714539 99.0032969 465.415708 94.9234052 470.116877 97.1934583 479.519213 100.564928 488.921551 102.167927 493.62272 100.0892 498.323889 97.0176457 503.025058 97.7002132 507.726227 97.7777781 512.427396 94.7734475 517.128565 94.8148147 521.829731 104.32422 526.5309 105.115376 531.232069 110.079503 535.933238 116.346712 540.634407 114.554974 545.335577 113.290673 550.036746 116.905177 564.14025 109.319372 573.542588 103.098701 578.243757 102.850494 582.944926 107.907698 587.646095 105.984099 592.347264 99.0032969 597.048433 98.1966254 601.749602 94.9078918 606.450771 88.0822178 611.151938 85.0416908 615.853107 87.4617028 620.554276 94.8458404 625.255445 99.0032969 629.956614 97.7002132 634.657783 92.6430094 639.358952 96.4591821 644.060121 87.2755475 648.76129 84.6486972 653.462456 81.277228 658.163625 73.1743264 662.864794 85.2588718 667.565963 91.8983905 672.267133 91.7432621 676.968302 86.6860583 681.669471 79.4570491 686.37064 70.0096955 691.071809 64.5336431 695.772978 66.4572429 700.474144 63.199535 705.175313 60.996704 709.876482 51.6786251 714.577651 48.3071559 719.27882 46.948226 723.979989 45.936785 728.681158 44.087648 733.382327 41.0264369 738.083496 38.5030063 742.784663 38.5030063 747.485832 31.8945121 752.187001 26.9458988 756.88817 29.0091136 761.589339 27.323379 766.290508 21.3302314 770.991677 15.7921276 775.692846 15.2336628 780.394015 5.67771998 785.095184 1.61334175 789.79635 -1.42108547e-14 794.497519 2.21834445 799.198689 3.4826451 799.198689 59.9108013 794.497519 63.8097084 785.095184 60.4382392 780.394015 67.7603254 775.692846 73.2518913 766.290508 63.2150472 761.589339 70.8008536 756.88817 74.5549737 752.187001 71.1835045 747.485832 75.9821601 742.784663 74.0585615 738.083496 79.1157654 733.382327 79.1261068 728.681158 78.0608884 723.979989 78.0608884 719.27882 81.8253512 714.577651 79.6432032 709.876482 79.7983329 705.175313 84.2660462 700.474144 91.6501838 695.772978 94.3494282 691.071809 95.2181498 686.37064 106.821795 681.669471 114.361062 676.968302 123.575722 672.267133 128.974209 667.565963 140.267597 662.864794 112.437464 658.163625 108.776421 653.462456 111.972076 648.76129 117.02928 644.060121 121.016095 639.358952 123.120677 634.657783 132.200891 629.956614 138.281947 625.255445 146.519294 620.554276 134.403722 615.853107 129.346519 611.151938 132.200891 606.450771 140.531317 601.749602 139.678107 592.347264 149.792515 587.646095 150.19585 582.944926 146.503781 578.243757 150.19585 573.542588 150.19585 568.841419 152.165988 564.14025 161.210005 559.439084 164.064378 554.737915 160 540.634407 175.171611 535.933238 174.95443 531.232069 163.785146 526.5309 150.785341 521.829731 155.18066 517.128565 156.866394 512.427396 155.801176 507.726227 155.583995 503.025058 157.316269 498.323889 159.276065 493.62272 157.59033 484.220382 161.830521 474.818043 161.830521 470.116877 163.38181 465.415708 158.898584 460.714539 159.131278 456.01337 162.378643 451.312201 164.953784 446.611032 166.174132 441.909863 162.802663 437.208694 164.229849 432.507525 165.227845 427.806359 161.434942 423.10519 166.48439 409.001682 166.48439 404.300513 164.436687 399.599344 168.656195 394.898175 175.668023 390.197006 173.030832 385.495837 169.659362 380.794671 166.918751 376.093502 172.767113 371.392333 170.005817 366.691164 167.477216 361.989995 166.48439 357.288826 167.632344 352.587657 174.240837 347.886487 171.510568 343.185318 171.1486 338.484152 172.834335 333.782983 176.629823 329.081814 174.551095 324.380645 173.465192 319.679476 175.512895 314.978307 178.936074 310.277138 180.445995 305.575969 180.445995 300.8748 182.276516 296.173631 188.29552 291.472465 188.683343 286.771295 188.698855 282.070126 186.806282 277.368957 185.099863 272.667788 188.853985 267.966619 192.995928 263.26545 196.641458 253.863112 205.142525 249.161946 211.813069 244.460777 192.173744 239.759608 187.023463 235.058439 185.875508 230.35727 188.031801 225.656101 193.86982 220.954931 190.498351 216.253762 191.72387 211.552593 192.080667 206.851424 193.290673 202.150258 197.230948 197.449089 202.288152 192.74792 210.975373 188.046751 211.006399 183.345582 206.745524 178.644413 208.49331 173.943244 211.864779 169.242075 218.669769 164.540906 226.519294 159.839739 229.311614 155.13857 201.760713 150.437401 189.4745 145.736232 183.734728 141.035063 181.583607 136.333894 184.262168 131.632725 189.319371 122.230387 185.472173 117.529218 186.651154 112.828052 183.951909 108.126883 187.054489 103.425714 189.58309 94.0233755 189.908862 89.3222064 191.594595 84.6210373 192.080667 79.9198683 192.080667 75.2186992 198.565056 70.517533 199.06147 65.816364 197.61877 61.1151949 198.378902 56.4140259 202.350203 51.7128568 199.06147 47.0116877 199.06147 42.3105187 205.002908 37.6093496 210.509985 32.9081805 218.095792 23.5058453 197.665309 18.8046762 196.734535 14.1035072 196.734535 9.40233812 200.550707 4.70116906 203.715338 9.09494702e-13 203.715338"></polygon>
                <polyline id="Path-Copy-2" stroke="#B7C2CC" stroke-linecap="square" points="1.08002496e-12 118.61877 4.70116906 119.208261 9.40233812 121.736862 14.1035072 123.272639 18.8046762 125.661624 23.5058453 130.253442 28.2070115 129.963868 32.9081805 128.278133 37.6093496 129.927671 42.3105187 128.050611 47.0116877 122.962381 51.7128568 117.176071 56.4140259 117.388081 61.1151949 118.61877 70.517533 118.61877 75.2186992 121.88682 79.9198683 120.294164 84.6210373 116.927865 89.3222064 114.399263 98.7245445 116.291837 103.425714 115.40243 108.126883 114.337211 112.828052 117.439791 117.529218 118.61877 122.230387 120.75955 126.931556 120.930192 131.632725 118.18441 136.333894 119.456466 141.035063 122.729688 145.736232 121.286988 150.437401 117.036456 155.13857 130.625751 159.839739 138.66143 164.540906 138.475276 173.943244 135.103807 183.345582 130.253442 188.046751 130.253442 192.74792 129.741516 197.449089 127.450779 202.150258 125.765044 206.851424 123.319177 211.552593 116.602094 216.253762 120.70784 220.954931 119.022106 225.656101 116.695172 230.35727 116.291837 235.058439 116.291837 239.759608 123.675974 244.460777 127.926508 249.161946 127.926508 253.863112 126.313166 258.564281 122.264301 263.26545 120.945704 272.667788 120.945704 277.368957 120.294164 282.070126 116.912352 286.771295 116.074656 291.472465 123.644949 296.173631 126.954366 300.8748 123.613923 305.575969 119.704673 310.277138 116.819275 314.978307 114.781915 319.679476 115.267985 324.380645 115.288668 329.081814 113.42195 333.782983 108.659491 338.484152 106.984099 343.185318 106.984099 347.886487 106.735893 352.587657 103.364423 361.989995 106.735893 366.691164 106.984099 371.392333 109.311033 376.093502 109.776421 380.794671 110.839054 385.495837 109.574753 390.197006 112.847973 394.898175 109.476504 399.599344 102.330231 409.001682 98.6381619 418.404021 105.060501 423.10519 104.812294 427.806359 101.47185 432.507525 100.003297 437.208694 100.003297 441.909863 98.7415804 446.611032 98.6071362 451.312201 100.003297 460.714539 100.003297 465.415708 95.9234052 470.116877 98.1934583 479.519213 101.564928 488.921551 103.167927 493.62272 101.0892 498.323889 98.0176457 503.025058 98.7002132 507.726227 98.7777781 512.427396 95.7734475 517.128565 95.8148147 521.829731 105.32422 526.5309 106.115376 531.232069 111.079503 535.933238 117.346712 540.634407 115.554974 545.335577 114.290673 550.036746 117.905177 564.14025 110.319372 573.542588 104.098701 578.243757 103.850494 582.944926 108.907698 587.646095 106.984099 592.347264 100.003297 597.048433 99.1966254 601.749602 95.9078918 606.450771 89.0822178 611.151938 86.0416908 615.853107 88.4617028 620.554276 95.8458404 625.255445 100.003297 629.956614 98.7002132 634.657783 93.6430094 639.358952 97.4591821 644.060121 88.2755475 648.76129 85.6486972 653.462456 82.277228 658.163625 74.1743264 662.864794 86.2588718 667.565963 92.8983905 672.267133 92.7432621 676.968302 87.6860583 681.669471 80.4570491 686.37064 71.0096955 691.071809 65.5336431 695.772978 67.4572429 700.474144 64.199535 705.175313 61.996704 709.876482 52.6786251 714.577651 49.3071559 719.27882 47.948226 723.979989 46.936785 728.681158 45.087648 733.382327 42.0264369 738.083496 39.5030063 742.784663 39.5030063 747.485832 32.8945121 752.187001 27.9458988 756.88817 30.0091136 761.589339 28.323379 766.290508 22.3302314 770.991677 16.7921276 775.692846 16.2336628 780.394015 6.67771998 785.095184 2.61334175 789.79635 1 794.497519 3.21834445 799.198689 4.4826451"></polyline>
                <polyline id="Path-Copy-3" stroke="#B7C2CC" stroke-linecap="square" points="8.52651283e-13 204.715338 4.70116906 204.715338 9.40233812 201.550707 14.1035072 197.734535 18.8046762 197.734535 23.5058453 198.665309 32.9081805 219.095792 37.6093496 211.509985 42.3105187 206.002908 47.0116877 200.06147 51.7128568 200.06147 56.4140259 203.350203 61.1151949 199.378902 65.816364 198.61877 70.517533 200.06147 75.2186992 199.565056 79.9198683 193.080667 84.6210373 193.080667 89.3222064 192.594595 94.0233755 190.908862 103.425714 190.58309 108.126883 188.054489 112.828052 184.951909 117.529218 187.651154 122.230387 186.472173 131.632725 190.319371 136.333894 185.262168 141.035063 182.583607 145.736232 184.734728 150.437401 190.4745 155.13857 202.760713 159.839739 230.311614 164.540906 227.519294 169.242075 219.669769 173.943244 212.864779 178.644413 209.49331 183.345582 207.745524 188.046751 212.006399 192.74792 211.975373 197.449089 203.288152 202.150258 198.230948 206.851424 194.290673 211.552593 193.080667 216.253762 192.72387 220.954931 191.498351 225.656101 194.86982 230.35727 189.031801 235.058439 186.875508 239.759608 188.023463 244.460777 193.173744 249.161946 212.813069 253.863112 206.142525 263.26545 197.641458 267.966619 193.995928 272.667788 189.853985 277.368957 186.099863 282.070126 187.806282 286.771295 189.698855 291.472465 189.683343 296.173631 189.29552 300.8748 183.276516 305.575969 181.445995 310.277138 181.445995 314.978307 179.936074 319.679476 176.512895 324.380645 174.465192 329.081814 175.551095 333.782983 177.629823 338.484152 173.834335 343.185318 172.1486 347.886487 172.510568 352.587657 175.240837 357.288826 168.632344 361.989995 167.48439 366.691164 168.477216 371.392333 171.005817 376.093502 173.767113 380.794671 167.918751 385.495837 170.659362 390.197006 174.030832 394.898175 176.668023 399.599344 169.656195 404.300513 165.436687 409.001682 167.48439 423.10519 167.48439 427.806359 162.434942 432.507525 166.227845 437.208694 165.229849 441.909863 163.802663 446.611032 167.174132 451.312201 165.953784 456.01337 163.378643 460.714539 160.131278 465.415708 159.898584 470.116877 164.38181 474.818043 162.830521 484.220382 162.830521 493.62272 158.59033 498.323889 160.276065 503.025058 158.316269 507.726227 156.583995 512.427396 156.801176 517.128565 157.866394 521.829731 156.18066 526.5309 151.785341 531.232069 164.785146 535.933238 175.95443 540.634407 176.171611 554.737915 161 559.439084 165.064378 564.14025 162.210005 568.841419 153.165988 573.542588 151.19585 578.243757 151.19585 582.944926 147.503781 587.646095 151.19585 592.347264 150.792515 601.749602 140.678107 606.450771 141.531317 611.151938 133.200891 615.853107 130.346519 620.554276 135.403722 625.255445 147.519294 629.956614 139.281947 634.657783 133.200891 639.358952 124.120677 644.060121 122.016095 648.76129 118.02928 653.462456 112.972076 658.163625 109.776421 662.864794 113.437464 667.565963 141.267597 672.267133 129.974209 676.968302 124.575722 681.669471 115.361062 686.37064 107.821795 691.071809 96.2181498 695.772978 95.3494282 700.474144 92.6501838 705.175313 85.2660462 709.876482 80.7983329 714.577651 80.6432032 719.27882 82.8253512 723.979989 79.0608884 728.681158 79.0608884 733.382327 80.1261068 738.083496 80.1157654 742.784663 75.0585615 747.485832 76.9821601 752.187001 72.1835045 756.88817 75.5549737 761.589339 71.8008536 766.290508 64.2150472 775.692846 74.2518913 780.394015 68.7603254 785.095184 61.4382392 794.497519 64.8097084 799.198689 60.9108013"></polyline>
            </g>
        </g>
    </g>
</svg>