<svg width="24" height="24" viewBox="0 0 17 15" fill="none" xmlns="http://www.w3.org/2000/svg">
<path d="M3.14211 13.24C3.12878 13.2667 3.12878 13.2933 3.14211 13.32C3.15544 13.3333 3.17544 13.34 3.20211 13.34H7.78211C7.91544 13.34 7.98211 13.4067 7.98211 13.54V14.8C7.98211 14.9333 7.91544 15 7.78211 15H1.06211C0.928776 15 0.862109 14.9333 0.862109 14.8V13.48C0.862109 13.3733 0.888776 13.2867 0.942109 13.22L1.56211 12.3C2.82878 10.4733 3.80878 8.99333 4.50211 7.86C5.30211 6.5 5.70211 5.36667 5.70211 4.46C5.70211 3.86 5.56211 3.38667 5.28211 3.04C5.01544 2.68 4.66211 2.5 4.22211 2.5C3.78211 2.5 3.42878 2.67333 3.16211 3.02C2.89544 3.36667 2.76878 3.82667 2.78211 4.4V5.2C2.78211 5.33333 2.71544 5.4 2.58211 5.4H1.02211C0.888776 5.4 0.822109 5.33333 0.822109 5.2V4.34C0.862109 3.28667 1.20211 2.44 1.84211 1.8C2.48211 1.16 3.30211 0.84 4.30211 0.84C5.30211 0.84 6.10878 1.17333 6.72211 1.84C7.33544 2.50667 7.64211 3.38667 7.64211 4.48C7.64211 5.13333 7.52211 5.8 7.28211 6.48C7.05544 7.14667 6.70211 7.86667 6.22211 8.64C5.88878 9.17333 5.18878 10.2333 4.12211 11.82L3.14211 13.24ZM9.90289 15C9.76956 15 9.70289 14.9333 9.70289 14.8V1.2C9.70289 1.06667 9.76956 0.999999 9.90289 0.999999H13.1829C14.2896 0.999999 15.1696 1.34 15.8229 2.02C16.4762 2.7 16.8029 3.62 16.8029 4.78V11.22C16.8029 12.38 16.4762 13.3 15.8229 13.98C15.1696 14.66 14.2896 15 13.1829 15H9.90289ZM11.6229 13.26C11.6229 13.3133 11.6496 13.34 11.7029 13.34L13.1629 13.32C13.6696 13.32 14.0762 13.1267 14.3829 12.74C14.6896 12.34 14.8496 11.8 14.8629 11.12V4.88C14.8629 4.2 14.7096 3.66 14.4029 3.26C14.0962 2.86 13.6829 2.66 13.1629 2.66H11.7029C11.6496 2.66 11.6229 2.68667 11.6229 2.74V13.26Z" fill="currentColor"/>
</svg>
