<svg width="25" height="22" viewBox="0 0 25 22" fill="none" xmlns="http://www.w3.org/2000/svg">
<path d="M4.21316 19.36C4.19316 19.4 4.19316 19.44 4.21316 19.48C4.23316 19.5 4.26316 19.51 4.30316 19.51H11.1732C11.3732 19.51 11.4732 19.61 11.4732 19.81V21.7C11.4732 21.9 11.3732 22 11.1732 22H1.09316C0.893164 22 0.793164 21.9 0.793164 21.7V19.72C0.793164 19.56 0.833164 19.43 0.913164 19.33L1.84316 17.95C3.74316 15.21 5.21316 12.99 6.25316 11.29C7.45316 9.25 8.05316 7.55 8.05316 6.19C8.05316 5.29 7.84316 4.58 7.42316 4.06C7.02316 3.52 6.49316 3.25 5.83316 3.25C5.17316 3.25 4.64316 3.51 4.24316 4.03C3.84316 4.55 3.65316 5.24 3.67316 6.1V7.3C3.67316 7.5 3.57316 7.6 3.37316 7.6H1.03316C0.833164 7.6 0.733164 7.5 0.733164 7.3V6.01C0.793164 4.43 1.30316 3.16 2.26316 2.2C3.22316 1.24 4.45316 0.76 5.95316 0.76C7.45316 0.76 8.66316 1.26 9.58316 2.26C10.5032 3.26 10.9632 4.58 10.9632 6.22C10.9632 7.2 10.7832 8.2 10.4232 9.22C10.0832 10.22 9.55316 11.3 8.83316 12.46C8.33316 13.26 7.28316 14.85 5.68316 17.23L4.21316 19.36ZM14.3543 22C14.1543 22 14.0543 21.9 14.0543 21.7V1.3C14.0543 1.1 14.1543 0.999999 14.3543 0.999999H19.2743C20.9343 0.999999 22.2543 1.51 23.2343 2.53C24.2143 3.55 24.7043 4.93 24.7043 6.67V16.33C24.7043 18.07 24.2143 19.45 23.2343 20.47C22.2543 21.49 20.9343 22 19.2743 22H14.3543ZM16.9343 19.39C16.9343 19.47 16.9743 19.51 17.0543 19.51L19.2443 19.48C20.0043 19.48 20.6143 19.19 21.0743 18.61C21.5343 18.01 21.7743 17.2 21.7943 16.18V6.82C21.7943 5.8 21.5643 4.99 21.1043 4.39C20.6443 3.79 20.0243 3.49 19.2443 3.49H17.0543C16.9743 3.49 16.9343 3.53 16.9343 3.61V19.39Z" fill="white"/>
</svg>
