<svg width="17" height="21" viewBox="0 0 17 13" fill="none" xmlns="http://www.w3.org/2000/svg">
<path d="M7.37281 7.68C7.51948 8.33333 7.59281 9.00667 7.59281 9.7C7.59281 10.3667 7.53281 10.9733 7.41281 11.52C7.22615 12.3733 6.87281 13.0267 6.35281 13.48C5.83281 13.9333 5.11948 14.16 4.21281 14.16C3.27948 14.16 2.51281 13.9067 1.91281 13.4C1.32615 12.8933 0.979479 12.2 0.872813 11.32C0.806146 10.8267 0.772813 10.3533 0.772813 9.9C0.772813 9.76667 0.839479 9.7 0.972813 9.7H2.49281C2.62615 9.7 2.69281 9.76667 2.69281 9.9C2.71948 10.4467 2.75281 10.8333 2.79281 11.06C2.87281 11.5133 3.03281 11.8667 3.27281 12.12C3.52615 12.36 3.83948 12.48 4.21281 12.48C4.95948 12.48 5.43281 12.0467 5.63281 11.18C5.71281 10.6733 5.75281 10.1133 5.75281 9.5C5.75281 8.78 5.69281 8.15333 5.57281 7.62C5.46615 7.24667 5.29281 6.96 5.05281 6.76C4.82615 6.54667 4.54615 6.44 4.21281 6.44C4.03948 6.44 3.85948 6.5 3.67281 6.62C3.63281 6.66 3.58615 6.68 3.53281 6.68C3.47948 6.68 3.43281 6.65333 3.39281 6.6L2.63281 5.82C2.56615 5.72667 2.55948 5.63333 2.61281 5.54L5.21281 1.76C5.22615 1.74667 5.22615 1.72667 5.21281 1.7C5.19948 1.67333 5.17948 1.66 5.15281 1.66H1.11281C0.979479 1.66 0.912813 1.59333 0.912813 1.46V0.199999C0.912813 0.0666656 0.979479 -9.53674e-07 1.11281 -9.53674e-07H7.35281C7.48615 -9.53674e-07 7.55281 0.0666656 7.55281 0.199999V1.52C7.55281 1.62667 7.52615 1.71333 7.47281 1.78L5.13281 5.22C5.09281 5.26 5.10615 5.29333 5.17281 5.32C5.70615 5.4 6.15948 5.65333 6.53281 6.08C6.91948 6.49333 7.19948 7.02667 7.37281 7.68ZM9.93219 14C9.79885 14 9.73219 13.9333 9.73219 13.8V0.199999C9.73219 0.0666656 9.79885 -9.53674e-07 9.93219 -9.53674e-07H13.2122C14.3189 -9.53674e-07 15.1989 0.339999 15.8522 1.02C16.5055 1.7 16.8322 2.62 16.8322 3.78V10.22C16.8322 11.38 16.5055 12.3 15.8522 12.98C15.1989 13.66 14.3189 14 13.2122 14H9.93219ZM11.6522 12.26C11.6522 12.3133 11.6789 12.34 11.7322 12.34L13.1922 12.32C13.6989 12.32 14.1055 12.1267 14.4122 11.74C14.7189 11.34 14.8789 10.8 14.8922 10.12V3.88C14.8922 3.2 14.7389 2.66 14.4322 2.26C14.1255 1.86 13.7122 1.66 13.1922 1.66H11.7322C11.6789 1.66 11.6522 1.68667 11.6522 1.74V12.26Z" fill="white"/>
</svg>
