<svg width="31" height="32" viewBox="0 0 31 32" fill="none" xmlns="http://www.w3.org/2000/svg">
<path d="M11.5285 10.6475L11.8959 10.9867L11.5285 10.6475ZM4.2865 31.6935C4.08347 31.8807 3.76715 31.8678 3.57998 31.6648L0.529872 28.3562C0.342702 28.1531 0.355561 27.8368 0.558595 27.6496C0.761627 27.4625 1.07795 27.4753 1.26512 27.6784L3.97632 30.6193L6.9173 27.9081C7.12034 27.721 7.43666 27.7338 7.62383 27.9369C7.811 28.1399 7.79814 28.4562 7.5951 28.6434L4.2865 31.6935ZM30.2523 1.19176C30.3377 1.6844 30.3378 1.68439 30.3378 1.68438C30.3378 1.68439 30.3378 1.68439 30.3377 1.68441C30.3375 1.68445 30.3371 1.68451 30.3365 1.68461C30.3354 1.68481 30.3336 1.68513 30.331 1.68558C30.326 1.68648 30.318 1.6879 30.3074 1.68984C30.286 1.69373 30.2535 1.69972 30.2105 1.70791C30.1245 1.7243 29.9963 1.7495 29.83 1.78431C29.4973 1.85392 29.0126 1.96191 28.4087 2.11458C27.2005 2.42005 25.518 2.9038 23.625 3.61593C19.8293 5.04377 15.2313 7.37339 11.8959 10.9867L11.1611 10.3084C14.6485 6.53049 19.4123 4.13221 23.2729 2.67996C25.2079 1.95205 26.9271 1.45771 28.1636 1.14509C28.782 0.988726 29.2803 0.877675 29.6252 0.805509C29.7976 0.769423 29.9317 0.743049 30.0234 0.725587C30.0692 0.716855 30.1044 0.71035 30.1285 0.705972C30.1405 0.703783 30.1498 0.702126 30.1562 0.700988C30.1594 0.700419 30.1619 0.699979 30.1637 0.699668C30.1645 0.699512 30.1652 0.699389 30.1658 0.699297C30.166 0.699251 30.1663 0.699206 30.1664 0.699184C30.1666 0.699146 30.1668 0.699117 30.2523 1.19176ZM11.8959 10.9867C8.45498 14.7142 6.58584 19.7871 5.58014 23.9679C5.07873 26.0523 4.79518 27.9012 4.63709 29.2281C4.55808 29.8913 4.51049 30.4235 4.48271 30.7886C4.46882 30.9711 4.45989 31.1118 4.45445 31.2063C4.45173 31.2535 4.44989 31.2892 4.44874 31.3127C4.44816 31.3244 4.44776 31.3331 4.44751 31.3387C4.44739 31.3415 4.4473 31.3436 4.44725 31.3448C4.44722 31.3454 4.4472 31.3459 4.44719 31.3461C4.44719 31.3462 4.44719 31.3462 4.44718 31.3463C4.44719 31.3463 4.44719 31.3462 3.9476 31.3259C3.44801 31.3056 3.44802 31.3054 3.44803 31.3052C3.44804 31.305 3.44805 31.3047 3.44806 31.3045C3.44808 31.3039 3.44811 31.3031 3.44816 31.3022C3.44824 31.3002 3.44836 31.2975 3.44851 31.294C3.44882 31.2871 3.44929 31.277 3.44994 31.2638C3.45122 31.2375 3.45321 31.199 3.4561 31.1488C3.46187 31.0485 3.47121 30.9016 3.48559 30.7127C3.51434 30.3348 3.56326 29.7885 3.64411 29.1098C3.80576 27.7531 4.0954 25.8645 4.60787 23.7341C5.62991 19.4853 7.5512 14.219 11.1611 10.3084L11.8959 10.9867Z" fill="white"/>
</svg>
