<svg width="26" height="37" viewBox="0 0 26 37" fill="none" xmlns="http://www.w3.org/2000/svg">
<path d="M8.28816 22.752L8.71406 22.4901L8.28816 22.752ZM5.24054 0.704589C5.07741 0.481778 4.76455 0.433398 4.54174 0.596527L0.910861 3.25486C0.688053 3.41799 0.639672 3.73085 0.802802 3.95366C0.96593 4.17647 1.27879 4.22485 1.5016 4.06172L4.72905 1.69876L7.09201 4.9262C7.25514 5.14901 7.568 5.19739 7.79081 5.03427C8.01362 4.87114 8.062 4.55827 7.89887 4.33546L5.24054 0.704589ZM24.8371 35.641C25.016 35.1741 25.016 35.1741 25.0161 35.1741C25.016 35.1741 25.016 35.1741 25.0159 35.174C25.0157 35.174 25.0154 35.1738 25.0148 35.1736C25.0138 35.1732 25.012 35.1725 25.0096 35.1716C25.0048 35.1697 24.9973 35.1668 24.9872 35.1629C24.967 35.1549 24.9363 35.1428 24.8957 35.1265C24.8145 35.0938 24.6935 35.0443 24.537 34.9781C24.224 34.8457 23.7692 34.6462 23.2061 34.38C22.0795 33.8472 20.5219 33.0481 18.8017 31.9843C15.3526 29.8513 11.2901 26.6788 8.71406 22.4901L7.86226 23.014C10.5557 27.3935 14.7677 30.6654 18.2757 32.8348C20.034 33.9222 21.6256 34.7388 22.7786 35.284C23.3553 35.5567 23.8228 35.7617 24.1473 35.899C24.3095 35.9677 24.436 36.0194 24.5226 36.0543C24.5659 36.0717 24.5992 36.0848 24.622 36.0938C24.6334 36.0982 24.6421 36.1017 24.6482 36.104C24.6512 36.1052 24.6536 36.1061 24.6553 36.1067C24.6561 36.1071 24.6568 36.1073 24.6573 36.1075C24.6575 36.1076 24.6578 36.1077 24.6579 36.1077C24.6581 36.1078 24.6582 36.1079 24.8371 35.641ZM8.71406 22.4901C6.05656 18.169 5.20074 12.8309 5.02013 8.53459C4.93009 6.39262 5.00838 4.52378 5.10914 3.19127C5.1595 2.52528 5.21541 1.99398 5.25856 1.63036C5.28013 1.44858 5.29851 1.30876 5.31139 1.21504C5.31782 1.16818 5.32289 1.13285 5.32629 1.10956C5.328 1.09792 5.32928 1.08929 5.33012 1.08373C5.33054 1.08096 5.33084 1.07895 5.33103 1.07772C5.33112 1.07711 5.33119 1.07668 5.33122 1.07646C5.33124 1.07634 5.33124 1.07632 5.33125 1.07627C5.33125 1.07629 5.33124 1.07637 4.83711 0.999957C4.34298 0.923547 4.34296 0.923721 4.34292 0.923944C4.3429 0.924084 4.34286 0.924355 4.34281 0.924636C4.34273 0.925196 4.34261 0.92595 4.34247 0.926902C4.34218 0.928805 4.34177 0.931488 4.34125 0.934943C4.34021 0.941856 4.33872 0.95186 4.33681 0.96489C4.333 0.990954 4.32753 1.02913 4.3207 1.0789C4.30702 1.17843 4.28786 1.32435 4.26553 1.51253C4.22088 1.88884 4.16352 2.43435 4.11198 3.11587C4.00896 4.47836 3.92898 6.38733 4.02101 8.57659C4.20455 12.9427 5.07425 18.4806 7.86226 23.014L8.71406 22.4901Z" fill="white"/>
</svg>
