<svg width="30" height="41" viewBox="0 0 30 41" fill="none" xmlns="http://www.w3.org/2000/svg">
<path d="M18.5489 22.752L18.1231 22.4899L18.5489 22.752ZM21.5036 0.65461C21.6653 0.430752 21.9778 0.380347 22.2017 0.54203L25.8497 3.17681C26.0736 3.33849 26.124 3.65103 25.9623 3.87489C25.8006 4.09875 25.4881 4.14916 25.2642 3.98748L22.0215 1.64545L19.6795 4.88812C19.5178 5.11198 19.2053 5.16239 18.9814 5.0007C18.7576 4.83902 18.7072 4.52648 18.8688 4.30262L21.5036 0.65461ZM1.90896 35.5884C1.73313 35.1203 1.73306 35.1203 1.73303 35.1204C1.73307 35.1203 1.73309 35.1203 1.73318 35.1203C1.73337 35.1202 1.73373 35.1201 1.73427 35.1199C1.73534 35.1195 1.73709 35.1188 1.73951 35.1179C1.74436 35.116 1.75192 35.1132 1.76211 35.1092C1.78249 35.1014 1.81342 35.0894 1.85435 35.0732C1.93622 35.0409 2.0581 34.992 2.21576 34.9265C2.53111 34.7954 2.98937 34.5979 3.55655 34.334C4.69134 33.806 6.25985 33.0132 7.99105 31.9558C11.4623 29.8356 15.5462 26.6764 18.1231 22.4899L18.9747 23.0141C16.2789 27.3939 12.0428 30.6528 8.5123 32.8093C6.74259 33.8902 5.13974 34.7003 3.9784 35.2407C3.39752 35.5109 2.92652 35.714 2.59962 35.8499C2.43615 35.9178 2.30868 35.969 2.22146 36.0034C2.17785 36.0206 2.14429 36.0337 2.12134 36.0425C2.10986 36.0469 2.10103 36.0503 2.09492 36.0526C2.09186 36.0538 2.08948 36.0547 2.08779 36.0553C2.08694 36.0556 2.08627 36.0559 2.08577 36.0561C2.08552 36.0562 2.08527 36.0563 2.08514 36.0563C2.08494 36.0564 2.08478 36.0564 1.90896 35.5884ZM18.1231 22.4899C20.7814 18.1711 21.615 12.8213 21.7726 8.51171C21.8512 6.36323 21.7613 4.48777 21.6519 3.15023C21.5972 2.48174 21.5376 1.94834 21.4919 1.58326C21.4691 1.40074 21.4497 1.26035 21.4362 1.16623C21.4294 1.11918 21.4241 1.0837 21.4205 1.06031C21.4187 1.04862 21.4174 1.03995 21.4165 1.03437C21.4161 1.03158 21.4157 1.02957 21.4155 1.02833C21.4155 1.02771 21.4154 1.02729 21.4153 1.02706C21.4153 1.02695 21.4153 1.02692 21.4153 1.02687C21.4153 1.02689 21.4153 1.02697 21.909 0.947364C22.4026 0.867756 22.4026 0.86793 22.4026 0.868154C22.4027 0.868294 22.4027 0.868567 22.4028 0.868848C22.4028 0.86941 22.403 0.870168 22.4031 0.871123C22.4034 0.873034 22.4038 0.875726 22.4044 0.879198C22.4055 0.886135 22.407 0.896182 22.409 0.909265C22.413 0.935434 22.4188 0.973764 22.426 1.02373C22.4404 1.12367 22.4606 1.27019 22.4842 1.45912C22.5315 1.83693 22.5925 2.38459 22.6485 3.06867C22.7604 4.4363 22.8522 6.35215 22.7719 8.54826C22.6117 12.9278 21.7653 18.4803 18.9747 23.0141L18.1231 22.4899Z" fill="white"/>
</svg>
