<svg width="24" height="24" viewBox="0 0 24 24" fill="none" xmlns="http://www.w3.org/2000/svg">
<path d="M22.8367 9.53428L21.2941 9.10435L20.6365 7.4858L21.4205 6.09486C21.7746 5.46261 21.6734 4.67862 21.1676 4.17283L19.8525 2.85775C19.3467 2.35196 18.5375 2.2508 17.9305 2.60486L16.5396 3.38884L14.921 2.73131L14.4911 1.18862C14.2888 0.505797 13.6565 0 12.9484 0H11.1022C10.3941 0 9.7366 0.480507 9.55957 1.18862L9.12964 2.73131L7.51109 3.38884L6.12015 2.60486C5.4879 2.2508 4.70391 2.35196 4.19812 2.85775L2.85775 4.17283C2.35196 4.67862 2.2508 5.4879 2.60486 6.09486L3.38884 7.4858L2.7313 9.10435L1.18862 9.53428C0.505797 9.7366 0 10.3688 0 11.077V12.9231C0 13.6565 0.480507 14.2888 1.18862 14.4658L2.7313 14.8957L3.38884 16.5143L2.60486 17.9052C2.2508 18.5375 2.35196 19.3215 2.85775 19.8273L4.17283 21.1423C4.67862 21.6481 5.4879 21.7493 6.09486 21.3952L7.4858 20.6112L9.10435 21.2688L9.53428 22.8115C9.7366 23.4943 10.3688 24.0001 11.077 24.0001H12.9231C13.6312 24.0001 14.2888 23.5196 14.4658 22.8115L14.8957 21.2688L16.5143 20.6112L17.9052 21.3952C18.5375 21.7493 19.3215 21.6481 19.8273 21.1423L21.1423 19.8273C21.6481 19.3215 21.7493 18.5375 21.3952 17.9052L20.6112 16.5143L21.2688 14.8957L22.8115 14.4658C23.4943 14.2635 24.0001 13.6312 24.0001 12.9231V11.077C24.0254 10.3688 23.5449 9.7366 22.8367 9.53428ZM22.6597 12.9484C22.6597 13.0496 22.5838 13.176 22.4827 13.2013L20.3078 13.783L19.1444 16.6154L20.2572 18.588C20.3078 18.6892 20.3078 18.8157 20.2066 18.8915L18.8915 20.2066C18.8157 20.2825 18.6892 20.3078 18.588 20.2572L16.6154 19.1444L13.783 20.3078L13.176 22.4827C13.1507 22.5838 13.0496 22.6597 12.9231 22.6597H11.077C10.9758 22.6597 10.8746 22.5838 10.8241 22.4827L10.2424 20.3078L7.40993 19.1444L5.43732 20.2572C5.33616 20.3078 5.20971 20.3078 5.13384 20.2066L3.81877 18.8915C3.7429 18.8157 3.71761 18.6892 3.76819 18.588L4.88094 16.6154L3.71761 13.783L1.54268 13.176C1.44152 13.1507 1.36565 13.0496 1.36565 12.9231V11.077C1.36565 10.9505 1.44152 10.8746 1.54268 10.8241L3.71761 10.2171L4.88094 7.38464L3.76819 5.43732C3.71761 5.33616 3.71761 5.20971 3.81877 5.13384L5.13384 3.81877C5.20971 3.7429 5.33616 3.71761 5.43732 3.76819L7.40993 4.88094L10.2424 3.71761L10.8494 1.54268C10.8746 1.44152 10.9758 1.36565 11.1022 1.36565H12.9484C13.0496 1.36565 13.1507 1.44152 13.2013 1.54268L13.8083 3.71761L16.6407 4.90623L18.6133 3.79348C18.7145 3.7429 18.8409 3.7429 18.9168 3.84406L20.2319 5.15913C20.3078 5.235 20.333 5.36145 20.2825 5.46261L19.1697 7.43522L20.3078 10.2424L22.4827 10.8494C22.5838 10.8746 22.6597 10.9758 22.6597 11.1023V12.9484Z" fill="white"/>
<path d="M12.0125 7.45996C9.50884 7.45996 7.46036 9.50844 7.46036 12.0121C7.46036 14.5158 9.50884 16.5643 12.0125 16.5643C14.5162 16.5643 16.5647 14.5158 16.5647 12.0121C16.5647 9.50844 14.5162 7.45996 12.0125 7.45996ZM12.0125 15.1987C10.2422 15.1987 8.82601 13.7571 8.82601 12.0121C8.82601 10.2418 10.2675 8.82561 12.0125 8.82561C13.7575 8.82561 15.1991 10.2418 15.1991 12.0121C15.1991 13.7824 13.7828 15.1987 12.0125 15.1987Z" fill="white"/>
</svg>
