<svg fill="none" xmlns="http://www.w3.org/2000/svg" viewBox="10 8 32 32" height="24" width="24">     <g filter="url(#filter0_d_1010_4144)">         <rect x="10" y="8" width="32" height="32" rx="16" fill="currentColor"></rect>         <path d="M24.5 22.0281C24.9167 22.0281 25.2707 21.8824 25.562 21.5911C25.854 21.3005 26 20.9473 26 20.5316C26 20.1159 25.854 19.7627 25.562 19.4721C25.2707 19.1808 24.9167 19.0351 24.5 19.0351C24.0833 19.0351 23.7293 19.1808 23.438 19.4721C23.146 19.7627 23 20.1159 23 20.5316C23 20.9473 23.146 21.3005 23.438 21.5911C23.7293 21.8824 24.0833 22.0281 24.5 22.0281ZM22.5 27.0164C22.9167 27.0164 23.2707 26.8707 23.562 26.5794C23.854 26.2888 24 25.9356 24 25.5199C24 25.1042 23.854 24.751 23.562 24.4604C23.2707 24.1691 22.9167 24.0234 22.5 24.0234C22.0833 24.0234 21.7293 24.1691 21.438 24.4604C21.146 24.751 21 25.1042 21 25.5199C21 25.9356 21.146 26.2888 21.438 26.5794C21.7293 26.8707 22.0833 27.0164 22.5 27.0164ZM29 28.014C29.2833 28.014 29.521 27.9183 29.713 27.7267C29.9043 27.5358 30 27.2991 30 27.0164C30 26.7337 29.9043 26.4966 29.713 26.3051C29.521 26.1142 29.2833 26.0187 29 26.0187C28.7167 26.0187 28.4793 26.1142 28.288 26.3051C28.096 26.4966 28 26.7337 28 27.0164C28 27.2991 28.096 27.5358 28.288 27.7267C28.4793 27.9183 28.7167 28.014 29 28.014ZM26 34C24.6167 34 23.3167 33.7379 22.1 33.2138C20.8833 32.6904 19.825 31.9797 18.925 31.0818C18.025 30.184 17.3127 29.1281 16.788 27.9143C16.2627 26.7005 16 25.4035 16 24.0234C16 22.6267 16.3 21.2632 16.9 19.933C17.5 18.6028 18.3377 17.4555 19.413 16.4911C20.4877 15.5267 21.7627 14.82 23.238 14.3711C24.7127 13.9221 26.325 13.8806 28.075 14.2464C27.925 14.9946 27.975 15.697 28.225 16.3534C28.475 17.0105 28.85 17.5636 29.35 18.0125C29.85 18.4615 30.4417 18.7691 31.125 18.9354C31.8083 19.1016 32.525 19.0601 33.275 18.8106C32.7583 19.958 32.85 20.939 33.55 21.7537C34.25 22.5685 35.05 22.9925 35.95 23.0258C36.1 24.5056 35.9417 25.9107 35.475 27.2409C35.0083 28.5711 34.321 29.735 33.413 30.7327C32.5043 31.7303 31.4127 32.5245 30.138 33.1151C28.8627 33.705 27.4833 34 26 34Z" fill="white"></path>     </g>     <defs>         <filter id="filter0_d_1010_4144" x="0" y="0" width="52" height="52" filterUnits="userSpaceOnUse" color-interpolation-filters="sRGB">             <feFlood flood-opacity="0" result="BackgroundImageFix"></feFlood>             <feColorMatrix in="SourceAlpha" type="matrix" values="0 0 0 0 0 0 0 0 0 0 0 0 0 0 0 0 0 0 127 0" result="hardAlpha"></feColorMatrix>             <feOffset dy="2"></feOffset>             <feGaussianBlur stdDeviation="5"></feGaussianBlur>             <feColorMatrix type="matrix" values="0 0 0 0 0.101961 0 0 0 0 0.101961 0 0 0 0 0.0980392 0 0 0 0.24 0"></feColorMatrix>             <feBlend mode="normal" in2="BackgroundImageFix" result="effect1_dropShadow_1010_4144"></feBlend>             <feBlend mode="normal" in="SourceGraphic" in2="effect1_dropShadow_1010_4144" result="shape"></feBlend>         </filter>     </defs> </svg>