<svg width="24" height="24" viewBox="0 0 18 18" fill="none" xmlns="http://www.w3.org/2000/svg">
<path d="M11.8286 13.2426L9.00016 16.0711C8.02199 17.0492 6.84348 17.5381 5.46462 17.5376C4.08576 17.5381 2.90725 17.0492 1.92909 16.0711C0.950924 15.0929 0.461842 13.9141 0.461842 12.5348C0.461842 11.1564 0.950924 9.97815 1.92909 8.99999L4.75752 6.17156L6.17173 7.58578L3.3433 10.4142C2.75405 11.0035 2.45942 11.7106 2.45942 12.5355C2.45942 13.3605 2.75405 14.0676 3.3433 14.6568C3.93256 15.2461 4.63966 15.5407 5.46462 15.5407C6.28958 15.5407 6.99669 15.2461 7.58594 14.6568L10.4144 11.8284L11.8286 13.2426ZM6.87884 12.5355L5.46462 11.1213L11.1215 5.46445L12.5357 6.87867L6.87884 12.5355ZM13.2428 11.8284L11.8286 10.4142L14.657 7.58578C15.2463 6.99652 15.5409 6.28941 15.5409 5.46445C15.5409 4.6395 15.2463 3.93239 14.657 3.34313C14.0678 2.75388 13.3606 2.45925 12.5357 2.45925C11.7107 2.45925 11.0036 2.75388 10.4144 3.34313L7.58594 6.17156L6.17173 4.75735L9.00016 1.92892C9.97832 0.950757 11.1568 0.461439 12.5357 0.460967C13.9145 0.461439 15.0931 0.950757 16.0712 1.92892C17.0494 2.90709 17.5385 4.08536 17.5385 5.46375C17.5385 6.84308 17.0494 8.02182 16.0712 8.99999L13.2428 11.8284Z" fill="currentColor"/>
</svg>
