<svg width="50" height="49" viewBox="0 0 50 49" fill="none" xmlns="http://www.w3.org/2000/svg">
<circle cx="25" cy="24.5" r="24.5" fill="#003C61"/>
<path d="M25 35.5C23.4947 35.5 22.0713 35.2105 20.7297 34.6316C19.3888 34.0526 18.2213 33.266 17.2271 32.2718C16.2336 31.2783 15.4474 30.1112 14.8684 28.7703C14.2895 27.4287 14 26.0053 14 24.5C14 22.9754 14.2895 21.5474 14.8684 20.2158C15.4474 18.8842 16.2336 17.7213 17.2271 16.7271C18.2213 15.7336 19.3888 14.9474 20.7297 14.3684C22.0713 13.7895 23.4947 13.5 25 13.5C26.5246 13.5 27.9526 13.7895 29.2842 14.3684C30.6158 14.9474 31.7783 15.7336 32.7718 16.7271C33.766 17.7213 34.5526 18.8842 35.1316 20.2158C35.7105 21.5474 36 22.9754 36 24.5C36 26.0053 35.7105 27.4287 35.1316 28.7703C34.5526 30.1112 33.766 31.2783 32.7718 32.2718C31.7783 33.266 30.6158 34.0526 29.2842 34.6316C27.9526 35.2105 26.5246 35.5 25 35.5ZM25 33.7342C25.5982 32.9623 26.0954 32.1761 26.4914 31.3756C26.8866 30.5743 27.2193 29.7009 27.4895 28.7553H22.5105C22.7807 29.7202 23.1138 30.6029 23.5098 31.4034C23.905 32.2046 24.4018 32.9816 25 33.7342ZM22.7711 33.4158C22.3272 32.7789 21.9269 32.0553 21.5703 31.2447C21.2129 30.4342 20.9377 29.6044 20.7447 28.7553H16.8079C17.4254 29.9518 18.2456 30.9603 19.2684 31.7808C20.2912 32.6006 21.4588 33.1456 22.7711 33.4158ZM27.2289 33.4158C28.5412 33.1456 29.7088 32.6006 30.7316 31.7808C31.7544 30.9603 32.5746 29.9518 33.1921 28.7553H29.2553C29.0237 29.6044 28.7342 30.4388 28.3868 31.2586C28.0395 32.0792 27.6535 32.7982 27.2289 33.4158ZM16.0842 27.0184H20.3974C20.3202 26.5939 20.2623 26.1739 20.2237 25.7586C20.1851 25.3441 20.1658 24.9246 20.1658 24.5C20.1658 24.0754 20.1851 23.6555 20.2237 23.2402C20.2623 22.8257 20.3202 22.4061 20.3974 21.9816H16.0842C15.9684 22.3675 15.8816 22.7728 15.8237 23.1974C15.7658 23.6219 15.7368 24.0561 15.7368 24.5C15.7368 24.9439 15.7658 25.3781 15.8237 25.8026C15.8816 26.2272 15.9684 26.6325 16.0842 27.0184ZM22.1342 27.0184H27.8658C27.943 26.5939 28.0009 26.1789 28.0395 25.7737C28.0781 25.3684 28.0974 24.9439 28.0974 24.5C28.0974 24.0561 28.0781 23.6316 28.0395 23.2263C28.0009 22.8211 27.943 22.4061 27.8658 21.9816H22.1342C22.057 22.4061 21.9991 22.8211 21.9605 23.2263C21.9219 23.6316 21.9026 24.0561 21.9026 24.5C21.9026 24.9439 21.9219 25.3684 21.9605 25.7737C21.9991 26.1789 22.057 26.5939 22.1342 27.0184ZM29.6026 27.0184H33.9158C34.0316 26.6325 34.1184 26.2272 34.1763 25.8026C34.2342 25.3781 34.2632 24.9439 34.2632 24.5C34.2632 24.0561 34.2342 23.6219 34.1763 23.1974C34.1184 22.7728 34.0316 22.3675 33.9158 21.9816H29.6026C29.6798 22.4061 29.7377 22.8257 29.7763 23.2402C29.8149 23.6555 29.8342 24.0754 29.8342 24.5C29.8342 24.9246 29.8149 25.3441 29.7763 25.7586C29.7377 26.1739 29.6798 26.5939 29.6026 27.0184ZM29.2553 20.2447H33.1921C32.5746 19.0289 31.7594 18.0204 30.7466 17.2192C29.7331 16.4187 28.5605 15.864 27.2289 15.5553C27.6728 16.2307 28.0684 16.9687 28.4158 17.7692C28.7632 18.5704 29.043 19.3956 29.2553 20.2447ZM22.5105 20.2447H27.4895C27.2193 19.2798 26.8769 18.3871 26.4624 17.5665C26.0471 16.7467 25.5596 15.9798 25 15.2658C24.4404 15.9798 23.9533 16.7467 23.5387 17.5665C23.1234 18.3871 22.7807 19.2798 22.5105 20.2447ZM16.8079 20.2447H20.7447C20.957 19.3956 21.2368 18.5704 21.5842 17.7692C21.9316 16.9687 22.3272 16.2307 22.7711 15.5553C21.4202 15.864 20.243 16.4187 19.2395 17.2192C18.236 18.0204 17.4254 19.0289 16.8079 20.2447Z" fill="currentColor"/>
</svg>
