<svg xmlns="http://www.w3.org/2000/svg" fill="none" viewBox="10 8 32 32">    <g filter="url(#filter0_d_1147_8396)">        <rect x="10" y="8" width="32" height="32" rx="16" fill="#002841"></rect>        <path opacity="0.795201" fill-rule="evenodd" clip-rule="evenodd" d="M25.999 17.1873C22.2428 17.1873 19.1867 20.2436 19.1867 24.0001C19.1867 27.7565 22.2428 30.8125 25.999 30.8125C29.7553 30.8125 32.8116 27.7565 32.8116 24.0001C32.8116 20.2436 29.7553 17.1873 25.999 17.1873ZM25.999 31.0707C22.1005 31.0707 18.9287 27.8991 18.9287 24.0001C18.9287 20.1011 22.1005 16.9293 25.999 16.9293C29.8979 16.9293 33.0696 20.1011 33.0696 24.0001C33.0696 27.8991 29.8979 31.0707 25.999 31.0707Z" fill="white"></path>        <path fill-rule="evenodd" clip-rule="evenodd" d="M25.9983 16.5078C21.87 16.5078 18.5078 19.8698 18.5078 23.9986C18.5078 28.1313 21.87 31.4933 25.9983 31.4933C27.7806 31.4933 29.4208 30.8693 30.7038 29.8231L30.5271 29.6382C29.2872 30.6367 27.7117 31.2353 25.9983 31.2353C22.0119 31.2353 18.766 27.9894 18.766 23.9986C18.766 20.0119 22.0119 16.766 25.9983 16.766C29.0679 16.766 31.6981 18.6858 32.7443 21.3895L33.0025 21.3379C31.9305 18.5181 29.1925 16.5078 25.9983 16.5078Z" fill="white"></path>        <path fill-rule="evenodd" clip-rule="evenodd" d="M25.9984 16.2752C28.1121 16.2752 30.028 17.1233 31.4227 18.5009L31.5863 18.2985C30.1441 16.8821 28.1725 16.0126 25.9984 16.0126C21.5946 16.0126 18.0127 19.5946 18.0127 23.9986C18.0127 28.4027 21.5946 31.9886 25.9984 31.9886C26.6829 31.9886 27.3458 31.9025 27.9788 31.7431L27.8797 31.4934C27.277 31.6442 26.6486 31.726 25.9984 31.726C21.7409 31.726 18.2753 28.2606 18.2753 23.9986C18.2753 19.7406 21.7409 16.2752 25.9984 16.2752Z" fill="white"></path>        <path opacity="0.70266" fill-rule="evenodd" clip-rule="evenodd" d="M17.7925 23.9985H17.5127C17.5127 27.8514 20.0957 31.119 23.6214 32.1481L23.6902 31.8766C20.2852 30.878 17.7925 27.7263 17.7925 23.9985ZM27.186 15.5992L27.1515 15.8747C31.1379 16.4344 34.2073 19.8656 34.2073 23.9985C34.2073 26.0262 33.4714 27.8816 32.2485 29.3152L32.4812 29.47C33.7337 27.9894 34.4871 26.0819 34.4871 23.9985C34.4871 19.7235 31.3101 16.1762 27.186 15.5992Z" fill="white"></path>        <path opacity="0.695801" fill-rule="evenodd" clip-rule="evenodd" d="M17.697 21.4756L17.4128 21.3982C17.1588 22.2205 17.0254 23.0942 17.0254 23.9985C17.0254 26.4737 18.0326 28.7209 19.6602 30.3397L19.8668 30.1331C18.2954 28.5617 17.3225 26.3919 17.3225 23.9985C17.3225 23.12 17.4517 22.2765 17.697 21.4756ZM25.9969 15.0264C24.4643 15.0264 23.018 15.414 21.7523 16.0944L21.8771 16.3655C23.1041 15.7026 24.5075 15.3237 25.9969 15.3237C30.7841 15.3237 34.6759 19.2155 34.6759 23.9985C34.6759 27.9117 32.0756 31.2265 28.5112 32.3029L28.5842 32.5869C32.2781 31.4764 34.9728 28.0492 34.9728 23.9985C34.9728 19.0517 30.9477 15.0264 25.9969 15.0264Z" fill="white"></path>        <path opacity="0.398879" fill-rule="evenodd" clip-rule="evenodd" d="M16.8237 23.9984C16.8237 22.1772 17.3574 20.4812 18.2787 19.0561L18.0118 18.8882C17.0646 20.3649 16.5137 22.1171 16.5137 23.9984C16.5137 27.1926 18.0979 30.0253 20.5259 31.7429L20.711 31.4932C18.3605 29.8315 16.8237 27.0937 16.8237 23.9984ZM25.9974 14.5143C25.5239 14.5143 25.059 14.5486 24.6028 14.6177L24.6415 14.9231L24.6371 14.9277C25.0805 14.8586 25.537 14.8243 25.9974 14.8243C31.0602 14.8243 35.1758 18.9398 35.1758 23.9984C35.1758 26.0388 34.5085 27.9246 33.3762 29.4483L33.6302 29.6293C34.7969 28.0538 35.4858 26.1079 35.4858 23.9984C35.4858 18.7677 31.2322 14.5143 25.9974 14.5143Z" fill="white"></path>        <path opacity="0.399391" fill-rule="evenodd" clip-rule="evenodd" d="M25.9976 14.0279C20.5002 14.0279 16.0273 18.5008 16.0273 23.9985C16.0273 28.5832 19.1313 32.4492 23.3457 33.6117L23.4275 33.2929C19.3552 32.1693 16.3546 28.4284 16.3546 23.9985C16.3546 18.6816 20.681 14.3552 25.9976 14.3552C31.3187 14.3552 35.6451 18.6816 35.6451 23.9985C35.6451 25.1433 35.4426 26.2455 35.0769 27.2659L35.3825 27.3693C35.7656 26.3144 35.9724 25.1822 35.9724 23.9985C35.9724 18.5008 31.4995 14.0279 25.9976 14.0279Z" fill="white"></path>        <path opacity="0.303897" fill-rule="evenodd" clip-rule="evenodd" d="M25.9981 13.5154C20.2167 13.5154 15.5156 18.2164 15.5156 23.9984C15.5156 29.7801 20.2167 34.4854 25.9981 34.4854C26.6009 34.4854 27.1949 34.4336 27.7719 34.3304L27.6987 33.999V33.9944C27.1477 34.0934 26.5795 34.1411 25.9981 34.1411C20.4102 34.1411 15.86 29.5905 15.86 23.9984C15.86 18.4101 20.4102 13.8598 25.9981 13.8598C31.0392 13.8598 35.2322 17.5579 36.0114 22.3793L36.3516 22.3365C35.5553 17.3427 31.2159 13.5154 25.9981 13.5154Z" fill="white"></path>        <path opacity="0.302711" fill-rule="evenodd" clip-rule="evenodd" d="M25.9998 13.3612C20.1336 13.3612 15.3612 18.1337 15.3612 24.0002C15.3612 29.8663 20.1336 34.639 25.9998 34.639C31.8662 34.639 36.6388 29.8663 36.6388 24.0002C36.6388 18.1337 31.8662 13.3612 25.9998 13.3612ZM25.9998 35C19.9344 35 15 30.0657 15 24.0002C15 17.9345 19.9344 13 25.9998 13C32.0654 13 37 17.9345 37 24.0002C37 30.0657 32.0654 35 25.9998 35Z" fill="white"></path>    </g>    <defs>        <filter id="filter0_d_1147_8396" x="0" y="0" width="52" height="52" filterUnits="userSpaceOnUse" color-interpolation-filters="sRGB">            <feFlood flood-opacity="0" result="BackgroundImageFix"></feFlood>            <feColorMatrix in="SourceAlpha" type="matrix" values="0 0 0 0 0 0 0 0 0 0 0 0 0 0 0 0 0 0 127 0" result="hardAlpha"></feColorMatrix>            <feOffset dy="2"></feOffset>            <feGaussianBlur stdDeviation="5"></feGaussianBlur>            <feColorMatrix type="matrix" values="0 0 0 0 0.101961 0 0 0 0 0.101961 0 0 0 0 0.0980392 0 0 0 0.24 0"></feColorMatrix>            <feBlend mode="normal" in2="BackgroundImageFix" result="effect1_dropShadow_1147_8396"></feBlend>            <feBlend mode="normal" in="SourceGraphic" in2="effect1_dropShadow_1147_8396" result="shape"></feBlend>        </filter>    </defs></svg>