<svg width="24" height="24" viewBox="0 0 21 20" fill="currentColor" xmlns="http://www.w3.org/2000/svg">
<path d="M10 20C8.61667 20 7.31667 19.7373 6.1 19.212C4.88333 18.6873 3.825 17.975 2.925 17.075C2.025 16.175 1.31267 15.1167 0.788 13.9C0.262667 12.6833 0 11.3833 0 10C0 8.61667 0.262667 7.31667 0.788 6.1C1.31267 4.88333 2.025 3.825 2.925 2.925C3.825 2.025 4.88333 1.31233 6.1 0.787C7.31667 0.262333 8.61667 0 10 0C12.4333 0 14.5623 0.762334 16.387 2.287C18.2123 3.81233 19.35 5.725 19.8 8.025H17.75C17.4333 6.80833 16.8627 5.72067 16.038 4.762C15.2127 3.804 14.2 3.08333 13 2.6V3C13 3.55 12.8043 4.02067 12.413 4.412C12.021 4.804 11.55 5 11 5H9V7C9 7.28333 8.90433 7.52067 8.713 7.712C8.521 7.904 8.28333 8 8 8H6V10H8V13H7L2.2 8.2C2.15 8.5 2.104 8.8 2.062 9.1C2.02067 9.4 2 9.7 2 10C2 12.1833 2.76667 14.0583 4.3 15.625C5.83333 17.1917 7.73333 17.9833 10 18V20ZM19.1 19.5L15.9 16.3C15.55 16.5 15.175 16.6667 14.775 16.8C14.375 16.9333 13.95 17 13.5 17C12.25 17 11.1873 16.5627 10.312 15.688C9.43733 14.8127 9 13.75 9 12.5C9 11.25 9.43733 10.1873 10.312 9.312C11.1873 8.43733 12.25 8 13.5 8C14.75 8 15.8127 8.43733 16.688 9.312C17.5627 10.1873 18 11.25 18 12.5C18 12.95 17.9333 13.375 17.8 13.775C17.6667 14.175 17.5 14.55 17.3 14.9L20.5 18.1L19.1 19.5ZM13.5 15C14.2 15 14.7917 14.7583 15.275 14.275C15.7583 13.7917 16 13.2 16 12.5C16 11.8 15.7583 11.2083 15.275 10.725C14.7917 10.2417 14.2 10 13.5 10C12.8 10 12.2083 10.2417 11.725 10.725C11.2417 11.2083 11 11.8 11 12.5C11 13.2 11.2417 13.7917 11.725 14.275C12.2083 14.7583 12.8 15 13.5 15Z" fill="currentColor"/>
</svg>
