<svg width="29" height="28" viewBox="0 0 29 28" fill="none" xmlns="http://www.w3.org/2000/svg">
<path d="M14 24C12.6167 24 11.3167 23.7373 10.1 23.212C8.88333 22.6873 7.825 21.975 6.925 21.075C6.025 20.175 5.31267 19.1167 4.788 17.9C4.26267 16.6833 4 15.3833 4 14C4 12.6167 4.26267 11.3167 4.788 10.1C5.31267 8.88333 6.025 7.825 6.925 6.925C7.825 6.025 8.88333 5.31233 10.1 4.787C11.3167 4.26233 12.6167 4 14 4C16.4333 4 18.5623 4.76233 20.387 6.287C22.2123 7.81233 23.35 9.725 23.8 12.025H21.75C21.4333 10.8083 20.8627 9.72067 20.038 8.762C19.2127 7.804 18.2 7.08333 17 6.6V7C17 7.55 16.8043 8.02067 16.413 8.412C16.021 8.804 15.55 9 15 9H13V11C13 11.2833 12.9043 11.5207 12.713 11.712C12.521 11.904 12.2833 12 12 12H10V14H12V17H11L6.2 12.2C6.15 12.5 6.104 12.8 6.062 13.1C6.02067 13.4 6 13.7 6 14C6 16.1833 6.76667 18.0583 8.3 19.625C9.83333 21.1917 11.7333 21.9833 14 22V24ZM23.1 23.5L19.9 20.3C19.55 20.5 19.175 20.6667 18.775 20.8C18.375 20.9333 17.95 21 17.5 21C16.25 21 15.1873 20.5627 14.312 19.688C13.4373 18.8127 13 17.75 13 16.5C13 15.25 13.4373 14.1873 14.312 13.312C15.1873 12.4373 16.25 12 17.5 12C18.75 12 19.8127 12.4373 20.688 13.312C21.5627 14.1873 22 15.25 22 16.5C22 16.95 21.9333 17.375 21.8 17.775C21.6667 18.175 21.5 18.55 21.3 18.9L24.5 22.1L23.1 23.5ZM17.5 19C18.2 19 18.7917 18.7583 19.275 18.275C19.7583 17.7917 20 17.2 20 16.5C20 15.8 19.7583 15.2083 19.275 14.725C18.7917 14.2417 18.2 14 17.5 14C16.8 14 16.2083 14.2417 15.725 14.725C15.2417 15.2083 15 15.8 15 16.5C15 17.2 15.2417 17.7917 15.725 18.275C16.2083 18.7583 16.8 19 17.5 19Z" fill="white"/>
</svg>
