<svg width="40" height="40" viewBox="0 0 40 40" fill="none" xmlns="http://www.w3.org/2000/svg">
<rect width="40" height="40" rx="12" fill="#D63C00"/>
<path d="M19.5 29.5C18.1167 29.5 16.8167 29.2373 15.6 28.712C14.3833 28.1873 13.325 27.475 12.425 26.575C11.525 25.675 10.8127 24.6167 10.288 23.4C9.76267 22.1833 9.5 20.8833 9.5 19.5C9.5 18.1167 9.76267 16.8167 10.288 15.6C10.8127 14.3833 11.525 13.325 12.425 12.425C13.325 11.525 14.3833 10.8123 15.6 10.287C16.8167 9.76233 18.1167 9.5 19.5 9.5C21.9333 9.5 24.0623 10.2623 25.887 11.787C27.7123 13.3123 28.85 15.225 29.3 17.525H27.25C26.9333 16.3083 26.3627 15.2207 25.538 14.262C24.7127 13.304 23.7 12.5833 22.5 12.1V12.5C22.5 13.05 22.3043 13.5207 21.913 13.912C21.521 14.304 21.05 14.5 20.5 14.5H18.5V16.5C18.5 16.7833 18.4043 17.0207 18.213 17.212C18.021 17.404 17.7833 17.5 17.5 17.5H15.5V19.5H17.5V22.5H16.5L11.7 17.7C11.65 18 11.604 18.3 11.562 18.6C11.5207 18.9 11.5 19.2 11.5 19.5C11.5 21.6833 12.2667 23.5583 13.8 25.125C15.3333 26.6917 17.2333 27.4833 19.5 27.5V29.5ZM28.6 29L25.4 25.8C25.05 26 24.675 26.1667 24.275 26.3C23.875 26.4333 23.45 26.5 23 26.5C21.75 26.5 20.6873 26.0627 19.812 25.188C18.9373 24.3127 18.5 23.25 18.5 22C18.5 20.75 18.9373 19.6873 19.812 18.812C20.6873 17.9373 21.75 17.5 23 17.5C24.25 17.5 25.3127 17.9373 26.188 18.812C27.0627 19.6873 27.5 20.75 27.5 22C27.5 22.45 27.4333 22.875 27.3 23.275C27.1667 23.675 27 24.05 26.8 24.4L30 27.6L28.6 29ZM23 24.5C23.7 24.5 24.2917 24.2583 24.775 23.775C25.2583 23.2917 25.5 22.7 25.5 22C25.5 21.3 25.2583 20.7083 24.775 20.225C24.2917 19.7417 23.7 19.5 23 19.5C22.3 19.5 21.7083 19.7417 21.225 20.225C20.7417 20.7083 20.5 21.3 20.5 22C20.5 22.7 20.7417 23.2917 21.225 23.775C21.7083 24.2583 22.3 24.5 23 24.5Z" fill="white"/>
</svg>
