<svg width="24" height="24" viewBox="0 0 70 70" fill="none" xmlns="http://www.w3.org/2000/svg">
<g clip-path="url(#clip0_1312_182)">
<path d="M70 35C70 15.67 54.33 0 35 0C15.67 0 0 15.67 0 35C0 52.4692 12.7989 66.9491 29.5312 69.5748V45.1172H20.6445V35H29.5312V27.2891C29.5312 18.5172 34.7566 13.6719 42.7513 13.6719C46.5794 13.6719 50.5859 14.3555 50.5859 14.3555V22.9688H46.1727C41.825 22.9688 40.4688 25.6669 40.4688 28.4375V35H50.1758L48.624 45.1172H40.4688V69.5748C57.2011 66.9491 70 52.4692 70 35Z" fill="currentColor"/>
</g>
<defs>
<clipPath id="clip0_1312_182">
<rect width="70" height="70" fill="white"/>
</clipPath>
</defs>
</svg>
