<svg width="21" height="21" viewBox="0 0 21 21" fill="none" xmlns="http://www.w3.org/2000/svg">
<path d="M10.5 20.5C9.11667 20.5 7.81667 20.2373 6.6 19.712C5.38333 19.1873 4.325 18.475 3.425 17.575C2.525 16.675 1.81267 15.6167 1.288 14.4C0.762667 13.1833 0.5 11.8833 0.5 10.5C0.5 9.11667 0.762667 7.81667 1.288 6.6C1.81267 5.38333 2.525 4.325 3.425 3.425C4.325 2.525 5.38333 1.81233 6.6 1.287C7.81667 0.762333 9.11667 0.5 10.5 0.5C12.9333 0.5 15.0623 1.26233 16.887 2.787C18.7123 4.31233 19.85 6.225 20.3 8.525H18.25C17.9333 7.30833 17.3627 6.22067 16.538 5.262C15.7127 4.304 14.7 3.58333 13.5 3.1V3.5C13.5 4.05 13.3043 4.52067 12.913 4.912C12.521 5.304 12.05 5.5 11.5 5.5H9.5V7.5C9.5 7.78333 9.40433 8.02067 9.213 8.212C9.021 8.404 8.78333 8.5 8.5 8.5H6.5V10.5H8.5V13.5H7.5L2.7 8.7C2.65 9 2.604 9.3 2.562 9.6C2.52067 9.9 2.5 10.2 2.5 10.5C2.5 12.6833 3.26667 14.5583 4.8 16.125C6.33333 17.6917 8.23333 18.4833 10.5 18.5V20.5ZM19.6 20L16.4 16.8C16.05 17 15.675 17.1667 15.275 17.3C14.875 17.4333 14.45 17.5 14 17.5C12.75 17.5 11.6873 17.0627 10.812 16.188C9.93733 15.3127 9.5 14.25 9.5 13C9.5 11.75 9.93733 10.6873 10.812 9.812C11.6873 8.93733 12.75 8.5 14 8.5C15.25 8.5 16.3127 8.93733 17.188 9.812C18.0627 10.6873 18.5 11.75 18.5 13C18.5 13.45 18.4333 13.875 18.3 14.275C18.1667 14.675 18 15.05 17.8 15.4L21 18.6L19.6 20ZM14 15.5C14.7 15.5 15.2917 15.2583 15.775 14.775C16.2583 14.2917 16.5 13.7 16.5 13C16.5 12.3 16.2583 11.7083 15.775 11.225C15.2917 10.7417 14.7 10.5 14 10.5C13.3 10.5 12.7083 10.7417 12.225 11.225C11.7417 11.7083 11.5 12.3 11.5 13C11.5 13.7 11.7417 14.2917 12.225 14.775C12.7083 15.2583 13.3 15.5 14 15.5Z" fill="white"/>
</svg>
