<svg width="29" height="28" viewBox="0 0 29 28" fill="none" xmlns="http://www.w3.org/2000/svg">
<path d="M13.5 19H15.5V13H13.5V19ZM14.5 11C14.7833 11 15.021 10.904 15.213 10.712C15.4043 10.5207 15.5 10.2833 15.5 10C15.5 9.71667 15.4043 9.479 15.213 9.287C15.021 9.09567 14.7833 9 14.5 9C14.2167 9 13.9793 9.09567 13.788 9.287C13.596 9.479 13.5 9.71667 13.5 10C13.5 10.2833 13.596 10.5207 13.788 10.712C13.9793 10.904 14.2167 11 14.5 11ZM14.5 24C13.1167 24 11.8167 23.7373 10.6 23.212C9.38333 22.6873 8.325 21.975 7.425 21.075C6.525 20.175 5.81267 19.1167 5.288 17.9C4.76267 16.6833 4.5 15.3833 4.5 14C4.5 12.6167 4.76267 11.3167 5.288 10.1C5.81267 8.88333 6.525 7.825 7.425 6.925C8.325 6.025 9.38333 5.31233 10.6 4.787C11.8167 4.26233 13.1167 4 14.5 4C15.8833 4 17.1833 4.26233 18.4 4.787C19.6167 5.31233 20.675 6.025 21.575 6.925C22.475 7.825 23.1873 8.88333 23.712 10.1C24.2373 11.3167 24.5 12.6167 24.5 14C24.5 15.3833 24.2373 16.6833 23.712 17.9C23.1873 19.1167 22.475 20.175 21.575 21.075C20.675 21.975 19.6167 22.6873 18.4 23.212C17.1833 23.7373 15.8833 24 14.5 24Z" fill="white"/>
</svg>
