<svg width="20" height="14" viewBox="0 0 20 14" fill="none" xmlns="http://www.w3.org/2000/svg">
<path d="M16.2452 0.255456C15.9046 -0.085152 15.3636 -0.085152 15.023 0.255456C14.6824 0.596064 14.6824 1.13703 15.023 1.47764C18.0685 4.52308 18.0685 9.47191 15.023 12.5174C14.6824 12.858 14.6824 13.3989 15.023 13.7395C15.1833 13.8998 15.4037 14 15.6241 14C15.8445 14 16.0649 13.9199 16.2252 13.7395C19.9518 10.0129 19.9518 3.96208 16.2452 0.255456Z" fill="white"/>
<path d="M13.378 3.10018C13.0374 2.75957 12.4965 2.75957 12.1558 3.10018C11.8152 3.44079 11.8152 3.98176 12.1558 4.32237C13.6185 5.78498 13.6385 8.18927 12.1558 9.65188C11.8152 9.99249 11.8152 10.5335 12.1558 10.8741C12.3161 11.0344 12.5365 11.1345 12.7569 11.1345C12.9773 11.1345 13.1977 11.0544 13.358 10.8741C15.5419 8.73024 15.5219 5.24401 13.378 3.10018Z" fill="white"/>
<path d="M4.00215 1.47764C4.34276 1.13703 4.34276 0.596064 4.00215 0.255456C3.66154 -0.085152 3.12057 -0.085152 2.77996 0.255456C-0.926655 3.96208 -0.926655 10.0129 2.77996 13.7195C2.94025 13.8798 3.16064 13.98 3.38104 13.98C3.60143 13.98 3.82183 13.8998 3.98211 13.7195C4.32272 13.3789 4.32272 12.8379 3.98211 12.4973C0.956708 9.47191 0.956709 4.52308 4.00215 1.47764Z" fill="white"/>
<path d="M6.84763 4.32237C7.18824 3.98176 7.18824 3.44079 6.84763 3.10018C6.50702 2.75957 5.96606 2.75957 5.62545 3.10018C3.48162 5.24401 3.48162 8.73024 5.62545 10.8741C5.78574 11.0344 6.00613 11.1345 6.22652 11.1345C6.44692 11.1345 6.66731 11.0544 6.8276 10.8741C7.1682 10.5335 7.1682 9.99249 6.8276 9.65188C5.38502 8.18927 5.38502 5.78498 6.84763 4.32237Z" fill="white"/>
<path d="M9.51144 8.44964C10.3192 8.44964 10.9741 7.7948 10.9741 6.98703C10.9741 6.17925 10.3192 5.52441 9.51144 5.52441C8.70366 5.52441 8.04883 6.17925 8.04883 6.98703C8.04883 7.7948 8.70366 8.44964 9.51144 8.44964Z" fill="white"/>
</svg>
