<svg width="24" height="24" viewBox="0 0 30 30" fill="none" xmlns="http://www.w3.org/2000/svg">
<path d="M13.6301 30V27.2603C10.7763 26.9406 8.32785 25.7594 6.28493 23.7164C4.2411 21.6726 3.05936 19.2237 2.73973 16.3699H0V13.6301H2.73973C3.05936 10.7763 4.2411 8.3274 6.28493 6.28356C8.32785 4.24064 10.7763 3.05936 13.6301 2.73973V0H16.3699V2.73973C19.2237 3.05936 21.6726 4.24064 23.7164 6.28356C25.7594 8.3274 26.9406 10.7763 27.2603 13.6301H30V16.3699H27.2603C26.9406 19.2237 25.7594 21.6726 23.7164 23.7164C21.6726 25.7594 19.2237 26.9406 16.3699 27.2603V30H13.6301ZM15 24.589C17.6484 24.589 19.9087 23.653 21.7808 21.7808C23.653 19.9087 24.589 17.6484 24.589 15C24.589 12.3516 23.653 10.0913 21.7808 8.21918C19.9087 6.34703 17.6484 5.41096 15 5.41096C12.3516 5.41096 10.0913 6.34703 8.21918 8.21918C6.34703 10.0913 5.41096 12.3516 5.41096 15C5.41096 17.6484 6.34703 19.9087 8.21918 21.7808C10.0913 23.653 12.3516 24.589 15 24.589ZM15 20.4795C13.4931 20.4795 12.2032 19.9429 11.1301 18.8699C10.0571 17.7968 9.52055 16.5068 9.52055 15C9.52055 13.4931 10.0571 12.2032 11.1301 11.1301C12.2032 10.0571 13.4931 9.52055 15 9.52055C16.5068 9.52055 17.7968 10.0571 18.8699 11.1301C19.9429 12.2032 20.4795 13.4931 20.4795 15C20.4795 16.5068 19.9429 17.7968 18.8699 18.8699C17.7968 19.9429 16.5068 20.4795 15 20.4795Z" fill="currentColor"/>
</svg>
