<svg width="24" height="24" viewBox="0 0 20 20" fill="none" xmlns="http://www.w3.org/2000/svg">
<path d="M19.714 0.284905C19.4268 0.00658712 19.0017 -0.0769103 18.6311 0.0723727L0.606347 7.84499C0.186334 8.02843 -0.0578234 8.47121 0.011774 8.92409C0.0800888 9.37698 0.444417 9.72743 0.89986 9.77801L9.30012 10.7091L10.2312 19.1094C10.2818 19.5673 10.6348 19.9342 11.0915 20H11.2433C11.6468 20.0012 12.0124 19.7621 12.1744 19.3927L19.9269 1.36804C20.0762 0.997379 19.9927 0.572314 19.7144 0.285116L19.714 0.284905ZM11.8099 15.0914L11.2127 9.68686C11.1596 9.21879 10.7902 8.8494 10.3221 8.79625L4.91756 8.19912L17.0623 2.95648L11.8099 15.0914Z" fill="currentColor"/>
</svg>
