<svg width="24" height="24" viewBox="0 0 24 6" fill="none" xmlns="http://www.w3.org/2000/svg">
<path d="M3 6C2.175 6 1.469 5.706 0.882 5.118C0.294 4.531 0 3.825 0 3C0 2.175 0.294 1.4685 0.882 0.8805C1.469 0.2935 2.175 0 3 0C3.825 0 4.531 0.2935 5.118 0.8805C5.706 1.4685 6 2.175 6 3C6 3.825 5.706 4.531 5.118 5.118C4.531 5.706 3.825 6 3 6ZM12 6C11.175 6 10.469 5.706 9.882 5.118C9.294 4.531 9 3.825 9 3C9 2.175 9.294 1.4685 9.882 0.8805C10.469 0.2935 11.175 0 12 0C12.825 0 13.5315 0.2935 14.1195 0.8805C14.7065 1.4685 15 2.175 15 3C15 3.825 14.7065 4.531 14.1195 5.118C13.5315 5.706 12.825 6 12 6ZM21 6C20.175 6 19.4685 5.706 18.8805 5.118C18.2935 4.531 18 3.825 18 3C18 2.175 18.2935 1.4685 18.8805 0.8805C19.4685 0.2935 20.175 0 21 0C21.825 0 22.5315 0.2935 23.1195 0.8805C23.7065 1.4685 24 2.175 24 3C24 3.825 23.7065 4.531 23.1195 5.118C22.5315 5.706 21.825 6 21 6Z" fill="currentColor"/>
</svg>
