<svg width="40" height="40" viewBox="0 0 40 40" fill="none" xmlns="http://www.w3.org/2000/svg">
<rect width="40" height="40" rx="12" fill="#D63C00"/>
<path fill-rule="evenodd" clip-rule="evenodd" d="M11 12.0227C11 11.4579 11.4579 11 12.0227 11H27.9772C28.542 11 28.9999 11.4579 28.9999 12.0227C28.9999 12.5876 28.542 13.0454 27.9772 13.0454H12.0227C11.4579 13.0454 11 12.5876 11 12.0227ZM21.2852 17.3408C21.2852 16.776 21.743 16.3181 22.3079 16.3181H27.9767C28.5415 16.3181 28.9994 16.776 28.9994 17.3408C28.9994 17.9057 28.5415 18.3636 27.9767 18.3636H22.3079C21.743 18.3636 21.2852 17.9057 21.2852 17.3408ZM21.2852 22.6594C21.2852 22.0946 21.743 21.6367 22.3079 21.6367H27.9767C28.5415 21.6367 28.9994 22.0946 28.9994 22.6594C28.9994 23.2243 28.5415 23.6822 27.9767 23.6822H22.3079C21.743 23.6822 21.2852 23.2243 21.2852 22.6594ZM12.0227 26.9543C11.4579 26.9543 11 27.4122 11 27.9771C11 28.5419 11.4579 28.9998 12.0227 28.9998H27.9772C28.542 28.9998 28.9999 28.5419 28.9999 27.9771C28.9999 27.4122 28.542 26.9543 27.9772 26.9543H12.0227ZM11.3767 23.5486C11.1356 23.3062 11 22.978 11 22.6346V17.4637C11 16.7492 11.5751 16.171 12.2857 16.171H17.4285C17.7701 16.171 18.0965 16.3073 18.3376 16.5497C18.5786 16.7921 18.7142 17.1203 18.7142 17.4637V22.6346C18.7142 22.978 18.5786 23.3062 18.3376 23.5486C18.0965 23.791 17.7701 23.9273 17.4285 23.9273H12.2857C11.9442 23.9273 11.6178 23.791 11.3767 23.5486ZM13.591 17.9382C13.1308 17.9382 12.7577 18.3113 12.7577 18.7716V20.4582V21.3267C12.7577 21.787 13.1308 22.1601 13.591 22.1601H16.1232C16.5835 22.1601 16.9566 21.787 16.9566 21.3267V20.4582V18.7716C16.9566 18.3113 16.5835 17.9382 16.1232 17.9382H13.591Z" fill="white"/>
</svg>
