<svg width="40" height="40" viewBox="0 0 40 40" fill="none" xmlns="http://www.w3.org/2000/svg">
<rect width="40" height="40" rx="12" fill="#D63C00"/>
<path d="M18.4587 23.8684C18.4587 22.3763 18.5919 21.3031 18.8583 20.6488C19.124 19.9952 19.6881 19.2816 20.5505 18.5079C21.3028 17.8447 21.876 17.2689 22.2701 16.7804C22.665 16.2926 22.8624 15.7355 22.8624 15.1092C22.8624 14.3539 22.6103 13.7276 22.1061 13.2303C21.6011 12.7329 20.8991 12.4842 20 12.4842C19.0642 12.4842 18.353 12.7697 17.8664 13.3408C17.3806 13.9118 17.0367 14.4921 16.8349 15.0816L14 13.8658C14.3853 12.6868 15.0917 11.6645 16.1193 10.7987C17.1468 9.93289 18.4404 9.5 20 9.5C21.9266 9.5 23.4084 10.039 24.4455 11.117C25.4818 12.1943 26 13.4882 26 14.9987C26 15.9197 25.8029 16.7074 25.4088 17.3617C25.0139 18.0153 24.3945 18.7566 23.5505 19.5855C22.6514 20.4513 22.1057 21.1097 21.9134 21.5606C21.7204 22.0123 21.6239 22.7816 21.6239 23.8684H18.4587ZM20 30.5C19.3945 30.5 18.8763 30.2837 18.4455 29.8512C18.0139 29.4179 17.7982 28.8974 17.7982 28.2895C17.7982 27.6816 18.0139 27.161 18.4455 26.7277C18.8763 26.2952 19.3945 26.0789 20 26.0789C20.6055 26.0789 21.124 26.2952 21.5556 26.7277C21.9864 27.161 22.2018 27.6816 22.2018 28.2895C22.2018 28.8974 21.9864 29.4179 21.5556 29.8512C21.124 30.2837 20.6055 30.5 20 30.5Z" fill="white"/>
</svg>
