<svg width="24" height="24" viewBox="0 0 24 24" fill="none" xmlns="http://www.w3.org/2000/svg">
<path d="M21.5 23.25L13.625 15.375C13 15.875 12.2812 16.2708 11.4688 16.5625C10.6562 16.8542 9.79167 17 8.875 17C6.60417 17 4.6825 16.2137 3.11 14.6412C1.53667 13.0679 0.75 11.1458 0.75 8.875C0.75 6.60417 1.53667 4.68208 3.11 3.10875C4.6825 1.53625 6.60417 0.75 8.875 0.75C11.1458 0.75 13.0679 1.53625 14.6412 3.10875C16.2137 4.68208 17 6.60417 17 8.875C17 9.79167 16.8542 10.6562 16.5625 11.4688C16.2708 12.2812 15.875 13 15.375 13.625L23.25 21.5L21.5 23.25ZM8.875 14.5C10.4375 14.5 11.7658 13.9533 12.86 12.86C13.9533 11.7658 14.5 10.4375 14.5 8.875C14.5 7.3125 13.9533 5.98417 12.86 4.89C11.7658 3.79667 10.4375 3.25 8.875 3.25C7.3125 3.25 5.98417 3.79667 4.89 4.89C3.79667 5.98417 3.25 7.3125 3.25 8.875C3.25 10.4375 3.79667 11.7658 4.89 12.86C5.98417 13.9533 7.3125 14.5 8.875 14.5Z" fill="currentColor"/>
</svg>

