<svg width="24" height="24" viewBox="0 0 23 24" fill="none" xmlns="http://www.w3.org/2000/svg">
<path d="M19 24C17.9583 24 17.0729 23.65 16.3438 22.95C15.6146 22.25 15.25 21.4 15.25 20.4C15.25 20.26 15.2604 20.1148 15.2812 19.9644C15.3021 19.8148 15.3333 19.68 15.375 19.56L6.5625 14.64C6.20833 14.94 5.8125 15.1748 5.375 15.3444C4.9375 15.5148 4.47917 15.6 4 15.6C2.95833 15.6 2.07292 15.25 1.34375 14.55C0.614583 13.85 0.25 13 0.25 12C0.25 11 0.614583 10.15 1.34375 9.45C2.07292 8.75 2.95833 8.4 4 8.4C4.47917 8.4 4.9375 8.4848 5.375 8.6544C5.8125 8.8248 6.20833 9.06 6.5625 9.36L15.375 4.44C15.3333 4.32 15.3021 4.1852 15.2812 4.0356C15.2604 3.8852 15.25 3.74 15.25 3.6C15.25 2.6 15.6146 1.75 16.3438 1.05C17.0729 0.35 17.9583 0 19 0C20.0417 0 20.9271 0.35 21.6562 1.05C22.3854 1.75 22.75 2.6 22.75 3.6C22.75 4.6 22.3854 5.45 21.6562 6.15C20.9271 6.85 20.0417 7.2 19 7.2C18.5208 7.2 18.0625 7.1148 17.625 6.9444C17.1875 6.7748 16.7917 6.54 16.4375 6.24L7.625 11.16C7.66667 11.28 7.69792 11.4148 7.71875 11.5644C7.73958 11.7148 7.75 11.86 7.75 12C7.75 12.14 7.73958 12.2848 7.71875 12.4344C7.69792 12.5848 7.66667 12.72 7.625 12.84L16.4375 17.76C16.7917 17.46 17.1875 17.2248 17.625 17.0544C18.0625 16.8848 18.5208 16.8 19 16.8C20.0417 16.8 20.9271 17.15 21.6562 17.85C22.3854 18.55 22.75 19.4 22.75 20.4C22.75 21.4 22.3854 22.25 21.6562 22.95C20.9271 23.65 20.0417 24 19 24Z" fill="currentColor"/>
</svg>

