<svg width="40" height="40" viewBox="0 0 40 40" fill="none" xmlns="http://www.w3.org/2000/svg">
<rect width="40" height="40" rx="12" fill="#D63C00"/>
<path fill-rule="evenodd" clip-rule="evenodd" d="M14.0009 14.2855C14.0009 15.5482 12.994 16.571 11.7509 16.571C10.5092 16.571 9.50098 15.5482 9.50098 14.2855C9.50098 13.0228 10.5092 12 11.7509 12C12.994 12 14.0009 13.0228 14.0009 14.2855ZM30.5009 14.2855C30.5009 15.5482 29.4926 16.571 28.2509 16.571C27.0078 16.571 26.001 15.5482 26.001 14.2855C26.001 13.0228 27.0078 12 28.2509 12C29.4926 12 30.5009 13.0228 30.5009 14.2855ZM26.3765 18.6279C26.9755 18.3237 27.5759 18.0951 28.2509 18.0951H28.251C30.3505 18.0951 32 19.7707 32 21.9033V27.9985H24.5006L24.502 23.2761L20.7516 25.5616C20.7119 25.582 20.6774 25.6023 20.6454 25.6211C20.5565 25.6735 20.4869 25.7144 20.3762 25.7144C20.2257 25.7901 20.1512 25.7902 20.0007 25.7902C19.9255 25.7902 19.8692 25.7712 19.813 25.7523C19.7567 25.7334 19.7005 25.7144 19.6252 25.7144C19.516 25.7144 19.4468 25.6738 19.3596 25.6226C19.3266 25.6032 19.291 25.5824 19.2498 25.5616L15.4994 23.2761V28H8V21.9048C8 19.7707 9.65092 18.0951 11.7504 18.0951C12.4254 18.0951 13.0258 18.3237 13.6277 18.6279L20.0021 22.4376L26.3765 18.6279Z" fill="white"/>
</svg>
