<?xml version="1.0" encoding="UTF-8"?>
<svg width="24px" height="24px" viewBox="0 0 24 24" version="1.1" xmlns="http://www.w3.org/2000/svg" xmlns:xlink="http://www.w3.org/1999/xlink">
    <title>4BA82082-9B56-4941-ABF5-A9B0FE51C8D7</title>
    <g id="UI-kit" stroke="none" stroke-width="1" fill="none" fill-rule="evenodd">
        <g id="Earth-Dashboard-UI-kit" transform="translate(-780.000000, -2397.000000)" fill="#FFFFFF" fill-rule="nonzero">
            <g id="Group-2" transform="translate(767.000000, 2349.000000)">
                <g id="arrow-right" transform="translate(13.000000, 48.000000)">
                    <path d="M13.1962117,0.897051761 L13.2803301,0.969669914 L23.7803301,11.4696699 C23.8057782,11.495118 23.8294061,11.5223864 23.8510016,11.551263 L23.7803301,11.4696699 C23.8173834,11.5067232 23.8497491,11.5466889 23.8774273,11.5888302 C23.8905922,11.6089851 23.9029723,11.6299725 23.914329,11.6515818 C23.9191626,11.6607036 23.9235192,11.6694344 23.9276949,11.6782296 C23.940442,11.7050181 23.9519466,11.7334779 23.9616971,11.7627395 C23.9639554,11.7696832 23.9658799,11.7757544 23.9677252,11.7818445 C23.9886468,11.8503231 24,11.9238357 24,12 C24,12.0383922 23.9971153,12.0761107 23.9915508,12.1129505 C23.9897462,12.1245181 23.9876905,12.1362278 23.9853557,12.1478927 C23.980412,12.1728958 23.9742388,12.1971921 23.9669138,12.2209837 C23.9632873,12.2326435 23.9592554,12.2446929 23.9549093,12.256654 C23.946425,12.2799516 23.9371231,12.3020202 23.9268269,12.3235218 C23.9213347,12.3351229 23.9150317,12.3474599 23.908365,12.359651 C23.8951298,12.3836668 23.8810246,12.4063902 23.8657838,12.4282634 C23.8618625,12.4340051 23.8574572,12.4401347 23.8529482,12.4462117 C23.8471451,12.4538569 23.8454427,12.4560847 23.8437281,12.4583026 L23.7803301,12.5303301 L13.2803301,23.0303301 C12.9874369,23.3232233 12.5125631,23.3232233 12.2196699,23.0303301 C11.9534034,22.7640635 11.9291973,22.3473998 12.1470518,22.0537883 L12.2196699,21.9696699 L21.439,12.75 L0.75,12.75 C0.335786438,12.75 0,12.4142136 0,12 C0,11.6203042 0.282153882,11.306509 0.648229443,11.2568466 L0.75,11.25 L21.439,11.25 L12.2196699,2.03033009 C11.9534034,1.76406352 11.9291973,1.34739984 12.1470518,1.05378835 L12.2196699,0.969669914 C12.4859365,0.703403352 12.9026002,0.6791973 13.1962117,0.897051761 Z" id="Combined-Shape"></path>
                </g>
            </g>
        </g>
    </g>
</svg>