<?xml version="1.0" encoding="UTF-8"?>
<svg width="23px" height="24px" viewBox="0 0 23 24" version="1.1" xmlns="http://www.w3.org/2000/svg" xmlns:xlink="http://www.w3.org/1999/xlink">
    <title>1F74D107-4792-41AB-A13C-A4A7F5554A19</title>
    <g id="UI-kit" stroke="none" stroke-width="1" fill="none" fill-rule="evenodd">
        <g id="Earth-Dashboard-UI-kit" transform="translate(-1083.000000, -2374.000000)" fill="#004D33" fill-rule="nonzero">
            <path d="M1094.25,2374 C1094.6297,2374 1094.94349,2374.28215 1094.99315,2374.64823 L1095,2374.75 L1095,2395.438 L1104.21967,2386.21967 C1104.48594,2385.9534 1104.9026,2385.9292 1105.19621,2386.14705 L1105.28033,2386.21967 C1105.5466,2386.48594 1105.5708,2386.9026 1105.35295,2387.19621 L1105.28033,2387.28033 L1094.78033,2397.78033 C1094.75488,2397.80578 1094.72761,2397.82941 1094.69874,2397.851 L1094.78033,2397.78033 C1094.74328,2397.81738 1094.70331,2397.84975 1094.66117,2397.87743 C1094.64101,2397.89059 1094.62003,2397.90297 1094.59842,2397.91433 C1094.5893,2397.91916 1094.58057,2397.92352 1094.57177,2397.92769 C1094.54498,2397.94044 1094.51652,2397.95195 1094.48726,2397.9617 C1094.48032,2397.96396 1094.47425,2397.96588 1094.46816,2397.96773 C1094.39968,2397.98865 1094.32616,2398 1094.25,2398 C1094.21161,2398 1094.17389,2397.99712 1094.13705,2397.99155 C1094.12548,2397.98975 1094.11377,2397.98769 1094.10211,2397.98536 C1094.0771,2397.98041 1094.05281,2397.97424 1094.02902,2397.96691 C1094.01736,2397.96329 1094.00531,2397.95926 1093.99335,2397.95491 C1093.97005,2397.94643 1093.94798,2397.93712 1093.92648,2397.92683 C1093.91488,2397.92133 1093.90254,2397.91503 1093.89035,2397.90836 C1093.86421,2397.89397 1093.83951,2397.87847 1093.81583,2397.86163 C1093.81213,2397.85907 1093.80795,2397.85603 1093.80379,2397.85295 C1093.77057,2397.82783 1093.74427,2397.80493 1093.71967,2397.78033 L1083.21967,2387.28033 C1082.92678,2386.98744 1082.92678,2386.51256 1083.21967,2386.21967 C1083.48594,2385.9534 1083.9026,2385.9292 1084.19621,2386.14705 L1084.28033,2386.21967 L1093.5,2395.44 L1093.5,2374.75 C1093.5,2374.33579 1093.83579,2374 1094.25,2374 Z" id="arrow-down"></path>
        </g>
    </g>
</svg>