<?xml version="1.0" encoding="UTF-8"?>
<svg width="23px" height="24px" viewBox="0 0 23 24" version="1.1" xmlns="http://www.w3.org/2000/svg" xmlns:xlink="http://www.w3.org/1999/xlink">
    <title>C30DBD13-5534-4910-8944-2A01D7C79DE0</title>
    <g id="UI-kit" stroke="none" stroke-width="1" fill="none" fill-rule="evenodd">
        <g id="Earth-Dashboard-UI-kit" transform="translate(-1152.000000, -2374.000000)" fill="#003E85" fill-rule="nonzero">
            <path d="M1163.25,2374 C1163.6297,2374 1163.94349,2374.28215 1163.99315,2374.64823 L1164,2374.75 L1164,2395.438 L1173.21967,2386.21967 C1173.48594,2385.9534 1173.9026,2385.9292 1174.19621,2386.14705 L1174.28033,2386.21967 C1174.5466,2386.48594 1174.5708,2386.9026 1174.35295,2387.19621 L1174.28033,2387.28033 L1163.78033,2397.78033 C1163.75488,2397.80578 1163.72761,2397.82941 1163.69874,2397.851 L1163.78033,2397.78033 C1163.74328,2397.81738 1163.70331,2397.84975 1163.66117,2397.87743 C1163.64101,2397.89059 1163.62003,2397.90297 1163.59842,2397.91433 C1163.5893,2397.91916 1163.58057,2397.92352 1163.57177,2397.92769 C1163.54498,2397.94044 1163.51652,2397.95195 1163.48726,2397.9617 C1163.48032,2397.96396 1163.47425,2397.96588 1163.46816,2397.96773 C1163.39968,2397.98865 1163.32616,2398 1163.25,2398 C1163.21161,2398 1163.17389,2397.99712 1163.13705,2397.99155 C1163.12548,2397.98975 1163.11377,2397.98769 1163.10211,2397.98536 C1163.0771,2397.98041 1163.05281,2397.97424 1163.02902,2397.96691 C1163.01736,2397.96329 1163.00531,2397.95926 1162.99335,2397.95491 C1162.97005,2397.94643 1162.94798,2397.93712 1162.92648,2397.92683 C1162.91488,2397.92133 1162.90254,2397.91503 1162.89035,2397.90836 C1162.86421,2397.89397 1162.83951,2397.87847 1162.81583,2397.86163 C1162.81213,2397.85907 1162.80795,2397.85603 1162.80379,2397.85295 C1162.77057,2397.82783 1162.74427,2397.80493 1162.71967,2397.78033 L1152.21967,2387.28033 C1151.92678,2386.98744 1151.92678,2386.51256 1152.21967,2386.21967 C1152.48594,2385.9534 1152.9026,2385.9292 1153.19621,2386.14705 L1153.28033,2386.21967 L1162.5,2395.44 L1162.5,2374.75 C1162.5,2374.33579 1162.83579,2374 1163.25,2374 Z" id="arrow-down"></path>
        </g>
    </g>
</svg>