<?xml version="1.0" encoding="UTF-8"?>
<svg width="24px" height="24px" viewBox="0 0 24 24" version="1.1" xmlns="http://www.w3.org/2000/svg" xmlns:xlink="http://www.w3.org/1999/xlink">
    <title>43AFA0DD-FBB5-43A3-8746-383E11A82C75</title>
    <g id="UI-kit" stroke="none" stroke-width="1" fill="none" fill-rule="evenodd">
        <g id="Earth-Dashboard-UI-kit" transform="translate(-1220.000000, -2374.000000)" fill="#174F59" fill-rule="nonzero">
            <path d="M1232,2374 C1232.3797,2374 1232.69349,2374.28215 1232.74315,2374.64823 L1232.75,2374.75 L1232.75,2395.438 L1241.96967,2386.21967 C1242.23594,2385.9534 1242.6526,2385.9292 1242.94621,2386.14705 L1243.03033,2386.21967 C1243.2966,2386.48594 1243.3208,2386.9026 1243.10295,2387.19621 L1243.03033,2387.28033 L1232.53033,2397.78033 C1232.50488,2397.80578 1232.47761,2397.82941 1232.44874,2397.851 L1232.53033,2397.78033 C1232.49328,2397.81738 1232.45331,2397.84975 1232.41117,2397.87743 C1232.39101,2397.89059 1232.37003,2397.90297 1232.34842,2397.91433 C1232.3393,2397.91916 1232.33057,2397.92352 1232.32177,2397.92769 C1232.29498,2397.94044 1232.26652,2397.95195 1232.23726,2397.9617 C1232.23032,2397.96396 1232.22425,2397.96588 1232.21816,2397.96773 C1232.14968,2397.98865 1232.07616,2398 1232,2398 C1231.96161,2398 1231.92389,2397.99712 1231.88705,2397.99155 C1231.87548,2397.98975 1231.86377,2397.98769 1231.85211,2397.98536 C1231.8271,2397.98041 1231.80281,2397.97424 1231.77902,2397.96691 C1231.76736,2397.96329 1231.75531,2397.95926 1231.74335,2397.95491 C1231.72005,2397.94643 1231.69798,2397.93712 1231.67648,2397.92683 C1231.66488,2397.92133 1231.65254,2397.91503 1231.64035,2397.90836 C1231.61421,2397.89397 1231.58951,2397.87847 1231.56583,2397.86163 C1231.56213,2397.85907 1231.55795,2397.85603 1231.55379,2397.85295 C1231.52057,2397.82783 1231.49427,2397.80493 1231.46967,2397.78033 L1220.96967,2387.28033 C1220.67678,2386.98744 1220.67678,2386.51256 1220.96967,2386.21967 C1221.23594,2385.9534 1221.6526,2385.9292 1221.94621,2386.14705 L1222.03033,2386.21967 L1231.25,2395.44 L1231.25,2374.75 C1231.25,2374.33579 1231.58579,2374 1232,2374 Z" id="arrow-down"></path>
        </g>
    </g>
</svg>