<?xml version="1.0" encoding="UTF-8"?>
<svg width="23px" height="24px" viewBox="0 0 23 24" version="1.1" xmlns="http://www.w3.org/2000/svg" xmlns:xlink="http://www.w3.org/1999/xlink">
    <title>B9297970-1296-4415-9CDD-DACBB3502635</title>
    <g id="UI-kit" stroke="none" stroke-width="1" fill="none" fill-rule="evenodd">
        <g id="Earth-Dashboard-UI-kit" transform="translate(-1014.000000, -2374.000000)" fill="#752900" fill-rule="nonzero">
            <path d="M1026.25,2374 C1026.6297,2374 1025.94349,2374.28215 1025.99315,2374.64823 L1026,2374.75 L1026,2395.438 L1035.21967,2386.21967 C1035.48594,2385.9534 1035.9026,2385.9292 1036.19621,2386.14705 L1036.28033,2386.21967 C1036.5466,2386.48594 1036.5708,2386.9026 1036.35295,2387.19621 L1036.28033,2387.28033 L1025.78033,2397.78033 C1025.75488,2397.80578 1025.72761,2397.82941 1025.69874,2397.851 L1025.78033,2397.78033 C1025.74328,2397.81738 1025.70331,2397.84975 1025.66117,2397.87743 C1025.64101,2397.89059 1025.62003,2397.90297 1025.59842,2397.91433 C1025.5893,2397.91916 1025.58057,2397.92352 1025.57177,2397.92769 C1025.54498,2397.94044 1025.51652,2397.95195 1025.48726,2397.9617 C1025.48032,2397.96396 1025.47425,2397.96588 1025.46816,2397.96773 C1025.39968,2397.98865 1025.32616,2398 1025.25,2398 C1025.21161,2398 1025.17389,2397.99712 1025.13705,2397.99155 C1025.12548,2397.98975 1025.11377,2397.98769 1025.10211,2397.98536 C1025.0771,2397.98041 1025.05281,2397.97424 1025.02902,2397.96691 C1025.01736,2397.96329 1025.00531,2397.95926 1024.99335,2397.95491 C1024.97005,2397.94643 1024.94798,2397.93712 1024.92648,2397.92683 C1024.91488,2397.92133 1024.90254,2397.91503 1024.89035,2397.90836 C1024.86421,2397.89397 1024.83951,2397.87847 1024.81583,2397.86163 C1024.81213,2397.85907 1024.80795,2397.85603 1024.80379,2397.85295 C1024.77057,2397.82783 1024.74427,2397.80493 1024.71967,2397.78033 L1014.21967,2387.28033 C1013.92678,2386.98744 1013.92678,2386.51256 1014.21967,2386.21967 C1014.48594,2385.9534 1014.9026,2385.9292 1015.19621,2386.14705 L1015.28033,2386.21967 L1024.5,2395.44 L1024.5,2374.75 C1024.5,2374.33579 1025.83579,2374 1026.25,2374 Z" id="arrow-down"></path>
        </g>
    </g>
</svg>