<?xml version="1.0" encoding="UTF-8"?>
<svg width="18px" height="18px" viewBox="0 0 18 18" version="1.1" xmlns="http://www.w3.org/2000/svg" xmlns:xlink="http://www.w3.org/1999/xlink">
    <title>210DE4D7-6F2F-4A25-B752-4C914F3AEF1B</title>
    <g id="UI-kit" stroke="none" stroke-width="1" fill="none" fill-rule="evenodd">
        <g id="Earth-Dashboard-UI-kit" transform="translate(-1049.000000, -2627.000000)" fill="#1A2129" fill-rule="nonzero">
            <path d="M1059.18519,2635.38069 L1059.18519,2634.76138 L1055.471,2634.76138 L1055.471,2635.99944 L1056.70906,2635.99944 L1056.70906,2639.71362 L1055.471,2639.71362 L1055.471,2640.95169 L1060.42325,2640.95169 L1060.42325,2639.71362 L1059.18519,2639.71362 L1059.18519,2635.38069 Z M1057.94713,2644.66644 C1053.16081,2644.66644 1049.28069,2640.78631 1049.28069,2636 C1049.28069,2631.21369 1053.16081,2627.33356 1057.94713,2627.33356 C1062.73344,2627.33356 1066.61356,2631.21369 1066.61356,2636 C1066.61356,2640.78631 1062.73344,2644.66644 1057.94713,2644.66644 Z M1056.70906,2631.04775 L1056.70906,2633.52387 L1059.18519,2633.52387 L1059.18519,2631.04775 L1056.70906,2631.04775 L1056.70906,2631.04775 Z" id="info-hover"></path>
        </g>
    </g>
</svg>