<?xml version="1.0" encoding="UTF-8"?>
<svg width="18px" height="18px" viewBox="0 0 18 18" version="1.1" xmlns="http://www.w3.org/2000/svg" xmlns:xlink="http://www.w3.org/1999/xlink">
    <title>923E2FE9-0534-4E76-B38E-78E1547F987E</title>
    <g id="UI-kit" stroke="none" stroke-width="1" fill="none" fill-rule="evenodd">
        <g id="Earth-Dashboard-UI-kit" transform="translate(-941.000000, -2626.000000)" fill="#7C90A2" fill-rule="nonzero">
            <path d="M951.185187,2634.38069 L951.185187,2633.76138 L947.471,2633.76138 L947.471,2634.99944 L948.709062,2634.99944 L948.709062,2638.71362 L947.471,2638.71362 L947.471,2639.95169 L952.42325,2639.95169 L952.42325,2638.71362 L951.185187,2638.71362 L951.185187,2634.38069 Z M949.947125,2643.66644 C945.160812,2643.66644 941.280687,2639.78631 941.280687,2635 C941.280687,2630.21369 945.160812,2626.33356 949.947125,2626.33356 C954.733437,2626.33356 958.613562,2630.21369 958.613562,2635 C958.613562,2639.78631 954.733437,2643.66644 949.947125,2643.66644 Z M948.709062,2630.04775 L948.709062,2632.52387 L951.185187,2632.52387 L951.185187,2630.04775 L948.709062,2630.04775 L948.709062,2630.04775 Z" id="info"></path>
        </g>
    </g>
</svg>