<svg width="180" height="58" viewBox="0 0 180 58" fill="none" xmlns="http://www.w3.org/2000/svg">
<g clip-path="url(#clip0)">
<path opacity="0.795201" fill-rule="evenodd" clip-rule="evenodd" d="M28.3887 11.0744C18.6947 11.0744 10.8074 19.001 10.8074 28.7432C10.8074 38.4854 18.6947 46.4109 28.3887 46.4109C38.0834 46.4109 45.9712 38.4854 45.9712 28.7432C45.9712 19.001 38.0834 11.0744 28.3887 11.0744ZM28.3887 47.0805C18.3274 47.0805 10.1416 38.8551 10.1416 28.7432C10.1416 18.6313 18.3274 10.4053 28.3887 10.4053C38.4513 10.4053 46.637 18.6313 46.637 28.7432C46.637 38.8551 38.4513 47.0805 28.3887 47.0805Z" fill="white"/>
<path fill-rule="evenodd" clip-rule="evenodd" d="M28.3837 9.31152C17.7292 9.31152 9.052 18.0308 9.052 28.7387C9.052 39.4568 17.7292 48.1761 28.3837 48.1761C32.9835 48.1761 37.2166 46.5578 40.5277 43.8445L40.0718 43.3648C36.8719 45.9545 32.8058 47.507 28.3837 47.507C18.0955 47.507 9.7184 39.0888 9.7184 28.7387C9.7184 18.3994 18.0955 9.98119 28.3837 9.98119C36.3059 9.98119 43.094 14.9603 45.794 21.9723L46.4604 21.8385C43.6938 14.5254 36.6276 9.31152 28.3837 9.31152Z" fill="white"/>
<path fill-rule="evenodd" clip-rule="evenodd" d="M28.3836 8.70786C33.8389 8.70786 38.7836 10.9074 42.383 14.4803L42.8051 13.9552C39.0832 10.282 33.9947 8.02686 28.3836 8.02686C17.0183 8.02686 7.77393 17.3166 7.77393 28.7384C7.77393 40.1602 17.0183 49.4601 28.3836 49.4601C30.1504 49.4601 31.8612 49.2367 33.4947 48.8233L33.2391 48.1758C31.6835 48.567 30.0618 48.7791 28.3836 48.7791C17.3957 48.7791 8.45161 39.7916 8.45161 28.7384C8.45161 17.6954 17.3957 8.70786 28.3836 8.70786Z" fill="white"/>
<path opacity="0.70266" fill-rule="evenodd" clip-rule="evenodd" d="M7.20736 28.7383H6.48511C6.48511 38.7306 13.1513 47.2049 22.2506 49.874L22.4284 49.1697C13.6405 46.5801 7.20736 38.4063 7.20736 28.7383ZM31.4504 6.95508L31.3612 7.66954C41.6494 9.12115 49.5711 18.0196 49.5711 28.7383C49.5711 33.997 47.6718 38.8089 44.5159 42.5269L45.1163 42.9284C48.3489 39.0884 50.2934 34.1416 50.2934 28.7383C50.2934 17.6511 42.0941 8.45148 31.4504 6.95508Z" fill="white"/>
<path opacity="0.695801" fill-rule="evenodd" clip-rule="evenodd" d="M6.96291 22.1956L6.22937 21.9948C5.57369 24.1275 5.22949 26.3933 5.22949 28.7386C5.22949 35.158 7.82905 40.986 12.0294 45.1843L12.5627 44.6485C8.5073 40.5732 5.99633 34.9459 5.99633 28.7386C5.99633 26.4602 6.32981 24.2726 6.96291 22.1956ZM28.3835 5.46973C24.428 5.46973 20.6954 6.47508 17.4289 8.23969L17.7511 8.94282C20.9177 7.22357 24.5397 6.24089 28.3835 6.24089C40.7386 6.24089 50.7825 16.3341 50.7825 28.7386C50.7825 38.8874 44.0717 47.4842 34.8725 50.2757L35.061 51.0123C44.5942 48.1323 51.5487 39.244 51.5487 28.7386C51.5487 15.9094 41.1607 5.46973 28.3835 5.46973Z" fill="white"/>
<path opacity="0.398879" fill-rule="evenodd" clip-rule="evenodd" d="M4.7076 28.7385C4.7076 24.015 6.08496 19.6166 8.46277 15.9206L7.7738 15.4851C5.32941 19.3149 3.90747 23.8591 3.90747 28.7385C3.90747 37.0223 7.99612 44.3688 14.2623 48.8234L14.7402 48.1758C8.6738 43.8664 4.7076 36.766 4.7076 28.7385ZM28.3835 4.1416C27.1613 4.1416 25.9617 4.23063 24.7841 4.40981L24.884 5.20196L24.8727 5.21387C26.017 5.03468 27.1952 4.94566 28.3835 4.94566C41.4496 4.94566 52.0713 15.619 52.0713 28.7385C52.0713 34.03 50.3492 38.9207 47.4268 42.8724L48.0825 43.3419C51.0934 39.2558 52.8714 34.2092 52.8714 28.7385C52.8714 15.1727 41.8937 4.1416 28.3835 4.1416Z" fill="white"/>
<path opacity="0.399391" fill-rule="evenodd" clip-rule="evenodd" d="M28.3836 2.87988C14.1958 2.87988 2.6521 14.4803 2.6521 28.7384C2.6521 40.6285 10.6629 50.6549 21.5397 53.6698L21.7507 52.843C11.2408 49.9291 3.4968 40.2271 3.4968 28.7384C3.4968 14.9492 14.6624 3.72873 28.3836 3.72873C42.1167 3.72873 53.2823 14.9492 53.2823 28.7384C53.2823 31.7074 52.7598 34.5658 51.8158 37.2122L52.6046 37.4804C53.5932 34.7444 54.127 31.8083 54.127 28.7384C54.127 14.4803 42.5833 2.87988 28.3836 2.87988Z" fill="white"/>
<path opacity="0.303897" fill-rule="evenodd" clip-rule="evenodd" d="M28.3837 1.55127C13.4629 1.55127 1.33008 13.7431 1.33008 28.7383C1.33008 43.733 13.4629 55.9362 28.3837 55.9362C29.9394 55.9362 31.4725 55.8018 32.9615 55.5342L32.7725 54.6745V54.6626C31.3506 54.9195 29.8841 55.0431 28.3837 55.0431C13.9622 55.0431 2.21879 43.2414 2.21879 28.7383C2.21879 14.2455 13.9622 2.44435 28.3837 2.44435C41.3939 2.44435 52.2153 12.0352 54.2264 24.5394L55.1044 24.4283C53.0493 11.4772 41.8498 1.55127 28.3837 1.55127Z" fill="white"/>
<path opacity="0.302711" fill-rule="evenodd" clip-rule="evenodd" d="M28.3887 1.1511C13.2489 1.1511 0.932163 13.5283 0.932163 28.743C0.932163 43.9566 13.2489 56.3344 28.3887 56.3344C43.529 56.3344 55.8463 43.9566 55.8463 28.743C55.8463 13.5283 43.529 1.1511 28.3887 1.1511ZM28.3887 57.2706C12.7349 57.2706 0 44.4737 0 28.743C0 13.0118 12.7349 0.214355 28.3887 0.214355C44.043 0.214355 56.7784 13.0118 56.7784 28.743C56.7784 44.4737 44.043 57.2706 28.3887 57.2706Z" fill="white"/>
<path fill-rule="evenodd" clip-rule="evenodd" d="M69.427 16.6924H65.1775C65.1267 16.6924 65.1019 16.7179 65.1019 16.7684V20.8868C65.1019 20.9378 65.1267 20.9633 65.1775 20.9633H67.7838C67.9096 20.9633 67.9728 21.0263 67.9728 21.1527V22.3492C67.9728 22.475 67.9096 22.5385 67.7838 22.5385H65.1775C65.1267 22.5385 65.1019 22.5641 65.1019 22.6145V26.7522C65.1019 26.8032 65.1267 26.8282 65.1775 26.8282H69.427C69.5528 26.8282 69.616 26.8917 69.616 27.0181V28.2134C69.616 28.3404 69.5528 28.4034 69.427 28.4034H63.4774C63.3515 28.4034 63.2883 28.3404 63.2883 28.2134V15.3071C63.2883 15.1807 63.3515 15.1172 63.4774 15.1172H69.427C69.5528 15.1172 69.616 15.1807 69.616 15.3071V16.503C69.616 16.6295 69.5528 16.6924 69.427 16.6924Z" fill="#F3F5F7"/>
<path fill-rule="evenodd" clip-rule="evenodd" d="M73.7335 24.5317H76.2456C76.2834 24.5317 76.302 24.5062 76.302 24.4551L75.0177 17.7176C75.0053 17.6927 74.9923 17.6796 74.9799 17.6796C74.9669 17.6796 74.9545 17.6927 74.9421 17.7176L73.6765 24.4551C73.6765 24.5062 73.6957 24.5317 73.7335 24.5317ZM77.0389 28.2327L76.6231 26.0502C76.6231 26.0247 76.6135 26.006 76.5948 25.9929C76.5757 25.9804 76.5537 25.9742 76.5288 25.9742H73.4502C73.4248 25.9742 73.4028 25.9804 73.3842 25.9929C73.365 26.006 73.3554 26.0247 73.3554 26.0502L72.9587 28.2327C72.9463 28.3467 72.8769 28.4034 72.7511 28.4034H71.3156C71.2524 28.4034 71.2056 28.3847 71.174 28.3467C71.1424 28.3087 71.1328 28.2582 71.1457 28.1947L73.9603 15.2879C73.9851 15.1739 74.0545 15.1172 74.1679 15.1172H75.8489C75.9742 15.1172 76.0436 15.1739 76.0565 15.2879L78.8897 28.1947V28.2327C78.8897 28.3467 78.8327 28.4034 78.7199 28.4034H77.2466C77.1332 28.4034 77.0638 28.3467 77.0389 28.2327Z" fill="#F3F5F7"/>
<path fill-rule="evenodd" clip-rule="evenodd" d="M82.3452 16.7684V21.02C82.3452 21.0711 82.3706 21.096 82.4214 21.096H83.8191C84.3348 21.096 84.7507 20.897 85.0655 20.4984C85.3798 20.0997 85.5378 19.5712 85.5378 18.9135C85.5378 18.2302 85.3798 17.6893 85.0655 17.2906C84.7507 16.8914 84.3348 16.6924 83.8191 16.6924H82.4214C82.3706 16.6924 82.3452 16.7179 82.3452 16.7684ZM85.5564 28.252L83.8191 22.5952C83.8061 22.5578 83.7807 22.5385 83.7429 22.5385H82.4214C82.3706 22.5385 82.3452 22.5641 82.3452 22.6145V28.2134C82.3452 28.3404 82.2826 28.4034 82.1567 28.4034H80.7213C80.5949 28.4034 80.5322 28.3404 80.5322 28.2134V15.3071C80.5322 15.1807 80.5949 15.1172 80.7213 15.1172H84.1023C84.7445 15.1172 85.311 15.2754 85.8019 15.5918C86.2928 15.9082 86.6737 16.3539 86.9445 16.93C87.2154 17.5055 87.3508 18.1605 87.3508 18.8942C87.3508 19.6915 87.1871 20.3844 86.8599 20.973C86.532 21.561 86.0851 21.988 85.5186 22.2539C85.4808 22.2919 85.4684 22.3293 85.4808 22.3679L87.4078 28.1947L87.4264 28.2707C87.4264 28.3592 87.37 28.4034 87.2566 28.4034H85.7833C85.6698 28.4034 85.5942 28.3529 85.5564 28.252Z" fill="#F3F5F7"/>
<path fill-rule="evenodd" clip-rule="evenodd" d="M95.8689 15.3071V16.503C95.8689 16.6295 95.8057 16.6924 95.6805 16.6924H93.2056C93.1554 16.6924 93.13 16.7179 93.13 16.7684V28.2134C93.13 28.3404 93.0674 28.4034 92.9415 28.4034H91.5055C91.3802 28.4034 91.317 28.3404 91.317 28.2134V16.7684C91.317 16.7179 91.2916 16.6924 91.242 16.6924H88.8997C88.7733 16.6924 88.7107 16.6295 88.7107 16.503V15.3071C88.7107 15.1807 88.7733 15.1172 88.8997 15.1172H95.6805C95.8057 15.1172 95.8689 15.1807 95.8689 15.3071Z" fill="#F3F5F7"/>
<path fill-rule="evenodd" clip-rule="evenodd" d="M102.839 15.1172H104.274C104.4 15.1172 104.463 15.1807 104.463 15.3071V28.2134C104.463 28.3404 104.4 28.4034 104.274 28.4034H102.839C102.713 28.4034 102.65 28.3404 102.65 28.2134V22.6145C102.65 22.5641 102.624 22.5385 102.574 22.5385H99.7222C99.6714 22.5385 99.6466 22.5641 99.6466 22.6145V28.2134C99.6466 28.3404 99.5834 28.4034 99.4575 28.4034H98.022C97.8956 28.4034 97.833 28.3404 97.833 28.2134V15.3071C97.833 15.1807 97.8956 15.1172 98.022 15.1172H99.4575C99.5834 15.1172 99.6466 15.1807 99.6466 15.3071V20.8868C99.6466 20.9378 99.6714 20.9633 99.7222 20.9633H102.574C102.624 20.9633 102.65 20.9378 102.65 20.8868V15.3071C102.65 15.1807 102.713 15.1172 102.839 15.1172Z" fill="#F3F5F7"/>
<path fill-rule="evenodd" clip-rule="evenodd" d="M116.041 15.1172H117.476C117.601 15.1172 117.665 15.1807 117.665 15.3071V28.2134C117.665 28.3404 117.601 28.4034 117.476 28.4034H116.041C115.915 28.4034 115.852 28.3404 115.852 28.2134V22.6145C115.852 22.5641 115.826 22.5385 115.776 22.5385H112.924C112.873 22.5385 112.848 22.5641 112.848 22.6145V28.2134C112.848 28.3404 112.785 28.4034 112.66 28.4034H111.225C111.098 28.4034 111.036 28.3404 111.036 28.2134V15.3071C111.036 15.1807 111.098 15.1172 111.225 15.1172H112.66C112.785 15.1172 112.848 15.1807 112.848 15.3071V20.8868C112.848 20.9378 112.873 20.9633 112.924 20.9633H115.776C115.826 20.9633 115.852 20.9378 115.852 20.8868V15.3071C115.852 15.1807 115.915 15.1172 116.041 15.1172Z" fill="#F3F5F7"/>
<path fill-rule="evenodd" clip-rule="evenodd" d="M124.842 18.3437C124.842 17.813 124.7 17.3792 124.417 17.0435C124.133 16.7084 123.766 16.5406 123.312 16.5406C122.859 16.5406 122.49 16.7084 122.207 17.0435C121.924 17.3792 121.783 17.813 121.783 18.3437V25.1771C121.783 25.7084 121.924 26.1422 122.207 26.4773C122.49 26.813 122.859 26.9802 123.312 26.9802C123.766 26.9802 124.133 26.813 124.417 26.4773C124.7 26.1422 124.842 25.7084 124.842 25.1771V18.3437ZM125.73 15.9525C126.347 16.6103 126.655 17.4711 126.655 18.5337V24.9871C126.655 25.8603 126.441 26.6037 126.014 27.2173C125.585 27.8308 125.005 28.2328 124.275 28.4222C124.238 28.4477 124.219 28.4795 124.219 28.5175V30.2827C124.219 30.4091 124.156 30.4726 124.03 30.4726H122.576C122.45 30.4726 122.387 30.4091 122.387 30.2827V28.5175C122.387 28.4795 122.368 28.4477 122.33 28.4222C121.599 28.2203 121.024 27.8149 120.602 27.2082C120.18 26.6009 119.969 25.8603 119.969 24.9871V18.5337C119.969 17.4711 120.278 16.6103 120.895 15.9525C121.511 15.2948 122.318 14.9653 123.312 14.9653C124.307 14.9653 125.113 15.2948 125.73 15.9525Z" fill="#F3F5F7"/>
<path fill-rule="evenodd" clip-rule="evenodd" d="M64.4203 43.1493C64.0169 42.7563 63.8154 42.2363 63.8154 41.5893V37.0945C63.8154 36.448 64.0169 35.9281 64.4203 35.5345C64.8238 35.1416 65.3553 34.9448 66.0155 34.9448C66.6751 34.9448 67.2089 35.1416 67.6163 35.5345C68.0237 35.9281 68.2274 36.452 68.2274 37.1069V37.6224C68.2274 37.7046 68.1868 37.7454 68.1055 37.7454H67.1767C67.0949 37.7454 67.0543 37.7046 67.0543 37.6224V37.082C67.0543 36.7463 66.9584 36.4764 66.7671 36.2717C66.5752 36.067 66.3247 35.9644 66.0155 35.9644C65.7057 35.9644 65.4552 36.067 65.2639 36.2717C65.072 36.4764 64.9767 36.7463 64.9767 37.082V41.6018C64.9767 41.9375 65.072 42.208 65.2639 42.4121C65.4552 42.6174 65.7057 42.7195 66.0155 42.7195C66.3247 42.7195 66.5752 42.6174 66.7671 42.4121C66.9584 42.208 67.0543 41.9375 67.0543 41.6018V40.2511C67.0543 40.2183 67.0374 40.2018 67.0052 40.2018H66.0764C65.9946 40.2018 65.9545 40.161 65.9545 40.0788V39.3172C65.9545 39.2356 65.9946 39.1948 66.0764 39.1948H68.1055C68.1868 39.1948 68.2274 39.2356 68.2274 39.3172V41.5893C68.2274 42.2363 68.0237 42.7563 67.6163 43.1493C67.2089 43.5422 66.6751 43.7384 66.0155 43.7384C65.3553 43.7384 64.8238 43.5422 64.4203 43.1493Z" fill="#F3F5F7"/>
<path fill-rule="evenodd" clip-rule="evenodd" d="M145.249 21.6972V22.3089C145.249 22.3735 145.217 22.4057 145.152 22.4057H143.887C143.861 22.4057 143.848 22.4188 143.848 22.4446V28.2979C143.848 28.3629 143.816 28.3951 143.752 28.3951H143.017C142.953 28.3951 142.921 28.3629 142.921 28.2979V22.4446C142.921 22.4188 142.908 22.4057 142.882 22.4057H141.685C141.62 22.4057 141.588 22.3735 141.588 22.3089V21.6972C141.588 21.6326 141.62 21.6001 141.685 21.6001H145.152C145.217 21.6001 145.249 21.6326 145.249 21.6972Z" fill="#B7C2CC"/>
<path fill-rule="evenodd" clip-rule="evenodd" d="M135.533 27.2787C135.703 27.0783 135.789 26.7933 135.789 26.4249C135.789 26.0493 135.705 25.7566 135.538 25.546C135.37 25.3358 135.138 25.2309 134.842 25.2309H134.166C134.14 25.2309 134.127 25.2434 134.127 25.2694V27.5408C134.127 27.5673 134.14 27.5798 134.166 27.5798H134.832C135.129 27.5798 135.362 27.4794 135.533 27.2787ZM134.127 22.4445V24.5026C134.127 24.5281 134.14 24.5416 134.166 24.5416H134.784C135.087 24.5416 135.322 24.4492 135.489 24.265C135.657 24.0799 135.74 23.8231 135.74 23.4932C135.74 23.1499 135.657 22.8833 135.489 22.6923C135.322 22.5014 135.087 22.4059 134.784 22.4059H134.166C134.14 22.4059 134.127 22.4185 134.127 22.4445ZM136.218 27.9097C135.887 28.2337 135.451 28.3951 134.91 28.3951H133.297C133.232 28.3951 133.2 28.3628 133.2 28.2983V21.6969C133.2 21.6324 133.232 21.6001 133.297 21.6001H134.775C135.36 21.6001 135.819 21.7538 136.151 22.0613C136.482 22.3687 136.648 22.8169 136.648 23.4059C136.648 24.1046 136.4 24.5868 135.904 24.8522C135.872 24.8714 135.869 24.8876 135.895 24.9006C136.152 25.0556 136.354 25.273 136.499 25.5513C136.643 25.8292 136.716 26.1595 136.716 26.5414C136.716 27.1299 136.55 27.5866 136.218 27.9097Z" fill="#B7C2CC"/>
<path fill-rule="evenodd" clip-rule="evenodd" d="M146.856 26.4145H148.141C148.16 26.4145 148.17 26.402 148.17 26.376L147.513 22.9299C147.506 22.9173 147.5 22.9106 147.494 22.9106C147.487 22.9106 147.481 22.9173 147.474 22.9299L146.827 26.376C146.827 26.402 146.837 26.4145 146.856 26.4145ZM148.547 28.3077L148.334 27.1917C148.334 27.1783 148.329 27.1689 148.32 27.1621C148.31 27.1563 148.299 27.1527 148.286 27.1527H146.711C146.698 27.1527 146.687 27.1563 146.677 27.1621C146.668 27.1689 146.663 27.1783 146.663 27.1917L146.46 28.3077C146.453 28.366 146.418 28.3951 146.354 28.3951H145.62C145.588 28.3951 145.563 28.3857 145.547 28.366C145.531 28.3467 145.526 28.3207 145.533 28.2884L146.972 21.6875C146.985 21.6292 147.021 21.6001 147.078 21.6001H147.938C148.002 21.6001 148.038 21.6292 148.044 21.6875L149.493 28.2884V28.3077C149.493 28.366 149.464 28.3951 149.406 28.3951H148.653C148.595 28.3951 148.559 28.366 148.547 28.3077Z" fill="#B7C2CC"/>
<path fill-rule="evenodd" clip-rule="evenodd" d="M140.768 22.4059H138.594C138.569 22.4059 138.556 22.4185 138.556 22.4445V24.551C138.556 24.577 138.569 24.59 138.594 24.59H139.927C139.992 24.59 140.024 24.6222 140.024 24.6872V25.2986C140.024 25.3635 139.992 25.3958 139.927 25.3958H138.594C138.569 25.3958 138.556 25.4084 138.556 25.4344V27.5507C138.556 27.5767 138.569 27.5893 138.594 27.5893H140.768C140.832 27.5893 140.864 27.622 140.864 27.6865V28.2983C140.864 28.3628 140.832 28.3951 140.768 28.3951H137.725C137.66 28.3951 137.628 28.3628 137.628 28.2983V21.6969C137.628 21.6324 137.66 21.6001 137.725 21.6001H140.768C140.832 21.6001 140.864 21.6324 140.864 21.6969V22.3087C140.864 22.3737 140.832 22.4059 140.768 22.4059Z" fill="#B7C2CC"/>
<path fill-rule="evenodd" clip-rule="evenodd" d="M69.5105 43.5178V35.1659C69.5105 35.0843 69.5511 35.0435 69.6329 35.0435H70.5617C70.643 35.0435 70.6836 35.0843 70.6836 35.1659V42.572C70.6836 42.6049 70.7 42.6208 70.7327 42.6208H73.4699C73.5512 42.6208 73.5924 42.6621 73.5924 42.7438V43.5178C73.5924 43.5995 73.5512 43.6403 73.4699 43.6403H69.6329C69.5511 43.6403 69.5105 43.5995 69.5105 43.5178Z" fill="#F3F5F7"/>
<path fill-rule="evenodd" clip-rule="evenodd" d="M77.2342 42.394C77.43 42.1768 77.5276 41.8921 77.5276 41.54V37.1432C77.5276 36.7917 77.43 36.507 77.2342 36.2898C77.0389 36.0732 76.7783 35.9644 76.4521 35.9644C76.1344 35.9644 75.8794 36.0732 75.6887 36.2898C75.4968 36.507 75.4015 36.7917 75.4015 37.1432V41.54C75.4015 41.8921 75.4968 42.1768 75.6887 42.394C75.8794 42.6111 76.1344 42.7195 76.4521 42.7195C76.7783 42.7195 77.0389 42.6111 77.2342 42.394ZM74.8389 43.1243C74.4315 42.7155 74.2278 42.1711 74.2278 41.4913V37.205C74.2278 36.5252 74.4315 35.9791 74.8389 35.5652C75.2463 35.1524 75.784 34.9448 76.4521 34.9448C77.1287 34.9448 77.6726 35.1524 78.084 35.5652C78.4953 35.9791 78.7007 36.5252 78.7007 37.205V41.4913C78.7007 42.1711 78.4953 42.7155 78.084 43.1243C77.6726 43.5343 77.1287 43.7384 76.4521 43.7384C75.784 43.7384 75.2463 43.5343 74.8389 43.1243Z" fill="#F3F5F7"/>
<path fill-rule="evenodd" clip-rule="evenodd" d="M82.936 42.2278C83.1516 41.9743 83.2599 41.6137 83.2599 41.1476C83.2599 40.6724 83.1538 40.3021 82.9422 40.0356C82.7301 39.7697 82.4367 39.637 82.062 39.637H81.2066C81.1738 39.637 81.1575 39.6529 81.1575 39.6858V42.5595C81.1575 42.593 81.1738 42.6088 81.2066 42.6088H82.0496C82.4248 42.6088 82.7199 42.4818 82.936 42.2278ZM81.1575 36.1118V38.7156C81.1575 38.7479 81.1738 38.7649 81.2066 38.7649H81.9886C82.3718 38.7649 82.6691 38.6481 82.8807 38.4151C83.0929 38.1809 83.1984 37.856 83.1984 37.4386C83.1984 37.0043 83.0929 36.6669 82.8807 36.4253C82.6691 36.1838 82.3718 36.063 81.9886 36.063H81.2066C81.1738 36.063 81.1575 36.0789 81.1575 36.1118ZM83.8033 43.0262C83.3841 43.4362 82.8322 43.6403 82.1478 43.6403H80.1068C80.025 43.6403 79.9844 43.5995 79.9844 43.5178V35.1659C79.9844 35.0843 80.025 35.0435 80.1068 35.0435H81.9768C82.7177 35.0435 83.2983 35.238 83.7181 35.6269C84.1373 36.0159 84.3473 36.583 84.3473 37.328C84.3473 38.2121 84.0335 38.8222 83.4061 39.1579C83.3654 39.1823 83.3615 39.2027 83.3942 39.2191C83.7198 39.4153 83.9748 39.6903 84.1577 40.0424C84.341 40.394 84.433 40.8119 84.433 41.295C84.433 42.0395 84.2231 42.6174 83.8033 43.0262Z" fill="#F3F5F7"/>
<path fill-rule="evenodd" clip-rule="evenodd" d="M86.3154 41.1346H87.9405C87.9647 41.1346 87.9771 41.1187 87.9771 41.0858L87.146 36.7259C87.1381 36.71 87.1296 36.7015 87.1217 36.7015C87.1138 36.7015 87.1053 36.71 87.0974 36.7259L86.2787 41.0858C86.2787 41.1187 86.2905 41.1346 86.3154 41.1346ZM88.4539 43.5297L88.1848 42.1178C88.1848 42.1008 88.1786 42.0889 88.1667 42.0804C88.1543 42.073 88.1402 42.0685 88.1238 42.0685H86.1314C86.1156 42.0685 86.101 42.073 86.0891 42.0804C86.0767 42.0889 86.0705 42.1008 86.0705 42.1178L85.8137 43.5297C85.8058 43.6034 85.7607 43.6403 85.6794 43.6403H84.7507C84.71 43.6403 84.6796 43.6284 84.6587 43.6034C84.6384 43.579 84.6327 43.5462 84.6406 43.5053L86.4615 35.154C86.4779 35.0803 86.523 35.0435 86.5964 35.0435H87.6837C87.765 35.0435 87.8101 35.0803 87.8186 35.154L89.6513 43.5053V43.5297C89.6513 43.6034 89.6146 43.6403 89.5413 43.6403H88.5882C88.5149 43.6403 88.4697 43.6034 88.4539 43.5297Z" fill="#F3F5F7"/>
<path fill-rule="evenodd" clip-rule="evenodd" d="M90.5066 43.5178V35.1659C90.5066 35.0843 90.5478 35.0435 90.629 35.0435H91.5578C91.6391 35.0435 91.6803 35.0843 91.6803 35.1659V42.572C91.6803 42.6049 91.6961 42.6208 91.7288 42.6208H94.466C94.5478 42.6208 94.5885 42.6621 94.5885 42.7438V43.5178C94.5885 43.5995 94.5478 43.6403 94.466 43.6403H90.629C90.5478 43.6403 90.5066 43.5995 90.5066 43.5178Z" fill="#F3F5F7"/>
<path fill-rule="evenodd" clip-rule="evenodd" d="M98.2365 43.1311C97.833 42.7257 97.6316 42.1876 97.6316 41.5156V37.1557C97.6316 36.4843 97.833 35.9485 98.2365 35.547C98.6399 35.1461 99.1715 34.9448 99.8317 34.9448C100.5 34.9448 101.035 35.1461 101.439 35.547C101.842 35.9485 102.044 36.4843 102.044 37.1557V37.3519C102.044 37.4341 102.003 37.4749 101.921 37.4749L100.993 37.5243C100.911 37.5243 100.87 37.4834 100.87 37.4012V37.082C100.87 36.7463 100.775 36.4764 100.583 36.2717C100.391 36.067 100.141 35.9644 99.8317 35.9644C99.5213 35.9644 99.2736 36.067 99.0863 36.2717C98.8984 36.4764 98.8053 36.7463 98.8053 37.082V41.6018C98.8053 41.9375 98.8984 42.208 99.0863 42.4121C99.2736 42.6174 99.5213 42.7195 99.8317 42.7195C100.141 42.7195 100.391 42.6174 100.583 42.4121C100.775 42.208 100.87 41.9375 100.87 41.6018V41.2826C100.87 41.2009 100.911 41.1595 100.993 41.1595L101.921 41.2089C102.003 41.2089 102.044 41.2503 102.044 41.3313V41.5156C102.044 42.1876 101.842 42.7257 101.439 43.1311C101.035 43.536 100.5 43.7384 99.8317 43.7384C99.1715 43.7384 98.6399 43.536 98.2365 43.1311Z" fill="#F3F5F7"/>
<path fill-rule="evenodd" clip-rule="evenodd" d="M106.101 42.394C106.297 42.1768 106.395 41.8921 106.395 41.54V37.1432C106.395 36.7917 106.297 36.507 106.101 36.2898C105.906 36.0732 105.645 35.9644 105.319 35.9644C105.002 35.9644 104.747 36.0732 104.555 36.2898C104.364 36.507 104.268 36.7917 104.268 37.1432V41.54C104.268 41.8921 104.364 42.1768 104.555 42.394C104.747 42.6111 105.002 42.7195 105.319 42.7195C105.645 42.7195 105.906 42.6111 106.101 42.394ZM103.706 43.1243C103.299 42.7155 103.095 42.1711 103.095 41.4913V37.205C103.095 36.5252 103.299 35.9791 103.706 35.5652C104.113 35.1524 104.651 34.9448 105.319 34.9448C105.996 34.9448 106.54 35.1524 106.951 35.5652C107.362 35.9791 107.568 36.5252 107.568 37.205V41.4913C107.568 42.1711 107.362 42.7155 106.951 43.1243C106.54 43.5343 105.996 43.7384 105.319 43.7384C104.651 43.7384 104.113 43.5343 103.706 43.1243Z" fill="#F3F5F7"/>
<path fill-rule="evenodd" clip-rule="evenodd" d="M112.799 35.0435H113.727C113.809 35.0435 113.85 35.0843 113.85 35.1659V43.5178C113.85 43.5995 113.809 43.6403 113.727 43.6403H112.799C112.717 43.6403 112.677 43.5995 112.677 43.5178V37.4256C112.677 37.4012 112.67 37.3893 112.659 37.3893C112.646 37.3893 112.631 37.3978 112.615 37.4137L111.442 39.6121C111.417 39.6693 111.381 39.6983 111.332 39.6983C111.283 39.6983 111.247 39.6693 111.223 39.6121L110.061 37.4256C110.045 37.4097 110.03 37.4012 110.018 37.4012C110.006 37.4012 110 37.4137 110 37.4386V43.5178C110 43.5995 109.959 43.6403 109.878 43.6403H108.949C108.867 43.6403 108.827 43.5995 108.827 43.5178V35.1659C108.827 35.0843 108.867 35.0435 108.949 35.0435H109.878C109.934 35.0435 109.983 35.0724 110.025 35.1296L111.308 37.4386C111.316 37.4466 111.328 37.4505 111.344 37.4505C111.361 37.4505 111.373 37.4466 111.381 37.4386L112.652 35.1296C112.684 35.0724 112.733 35.0435 112.799 35.0435Z" fill="#F3F5F7"/>
<path fill-rule="evenodd" clip-rule="evenodd" d="M119.215 35.0435H120.144C120.225 35.0435 120.266 35.0843 120.266 35.1659V43.5178C120.266 43.5995 120.225 43.6403 120.144 43.6403H119.215C119.134 43.6403 119.093 43.5995 119.093 43.5178V37.4256C119.093 37.4012 119.087 37.3893 119.075 37.3893C119.062 37.3893 119.048 37.3978 119.032 37.4137L117.858 39.6121C117.833 39.6693 117.797 39.6983 117.748 39.6983C117.699 39.6983 117.663 39.6693 117.639 39.6121L116.478 37.4256C116.461 37.4097 116.446 37.4012 116.435 37.4012C116.422 37.4012 116.417 37.4137 116.417 37.4386V43.5178C116.417 43.5995 116.375 43.6403 116.294 43.6403H115.365C115.284 43.6403 115.243 43.5995 115.243 43.5178V35.1659C115.243 35.0843 115.284 35.0435 115.365 35.0435H116.294C116.351 35.0435 116.4 35.0724 116.441 35.1296L117.724 37.4386C117.732 37.4466 117.744 37.4505 117.761 37.4505C117.777 37.4505 117.789 37.4466 117.797 37.4386L119.069 35.1296C119.101 35.0724 119.149 35.0435 119.215 35.0435Z" fill="#F3F5F7"/>
<path fill-rule="evenodd" clip-rule="evenodd" d="M124.519 42.394C124.715 42.1768 124.813 41.8921 124.813 41.54V37.1432C124.813 36.7917 124.715 36.507 124.519 36.2898C124.324 36.0732 124.063 35.9644 123.737 35.9644C123.419 35.9644 123.165 36.0732 122.973 36.2898C122.781 36.507 122.686 36.7917 122.686 37.1432V41.54C122.686 41.8921 122.781 42.1768 122.973 42.394C123.165 42.6111 123.419 42.7195 123.737 42.7195C124.063 42.7195 124.324 42.6111 124.519 42.394ZM122.124 43.1243C121.716 42.7155 121.512 42.1711 121.512 41.4913V37.205C121.512 36.5252 121.716 35.9791 122.124 35.5652C122.531 35.1524 123.069 34.9448 123.737 34.9448C124.413 34.9448 124.957 35.1524 125.369 35.5652C125.779 35.9791 125.986 36.5252 125.986 37.205V41.4913C125.986 42.1711 125.779 42.7155 125.369 43.1243C124.957 43.5343 124.413 43.7384 123.737 43.7384C123.069 43.7384 122.531 43.5343 122.124 43.1243Z" fill="#F3F5F7"/>
<path fill-rule="evenodd" clip-rule="evenodd" d="M130.837 35.0435H131.754C131.836 35.0435 131.876 35.0843 131.876 35.1659V43.5178C131.876 43.5995 131.836 43.6403 131.754 43.6403H130.703C130.638 43.6403 130.594 43.608 130.569 43.5422L128.491 37.9297C128.483 37.9132 128.471 37.907 128.455 37.9115C128.438 37.9155 128.43 37.9251 128.43 37.9421L128.442 43.5178C128.442 43.5995 128.402 43.6403 128.32 43.6403H127.391C127.31 43.6403 127.269 43.5995 127.269 43.5178V35.1659C127.269 35.0843 127.31 35.0435 127.391 35.0435H128.43C128.495 35.0435 128.54 35.0763 128.565 35.1416L130.654 40.7541C130.663 40.7785 130.674 40.7892 130.691 40.7847C130.707 40.7807 130.716 40.7665 130.716 40.7422V35.1659C130.716 35.0843 130.756 35.0435 130.837 35.0435Z" fill="#F3F5F7"/>
<path fill-rule="evenodd" clip-rule="evenodd" d="M133.63 43.1311C133.234 42.7257 133.037 42.1955 133.037 41.54V41.2213C133.037 41.1391 133.078 41.0983 133.16 41.0983H134.064C134.146 41.0983 134.186 41.1391 134.186 41.2213V41.4788C134.186 41.8559 134.28 42.1564 134.467 42.3821C134.655 42.6066 134.895 42.7195 135.188 42.7195C135.482 42.7195 135.724 42.6111 135.915 42.394C136.106 42.1768 136.202 41.8921 136.202 41.54C136.202 41.303 136.152 41.0943 136.05 40.914C135.948 40.7337 135.814 40.5721 135.647 40.4286C135.48 40.2857 135.208 40.0748 134.833 39.7964C134.418 39.4851 134.093 39.2191 133.856 38.998C133.62 38.7769 133.421 38.5109 133.257 38.2002C133.094 37.8889 133.013 37.5243 133.013 37.1069C133.013 36.4435 133.209 35.9173 133.599 35.5289C133.99 35.1399 134.5 34.9448 135.127 34.9448C135.779 34.9448 136.302 35.1541 136.698 35.5714C137.093 35.9887 137.29 36.5376 137.29 37.2169V37.5243C137.29 37.6065 137.25 37.6473 137.168 37.6473H136.264C136.182 37.6473 136.142 37.6065 136.142 37.5243V37.1926C136.142 36.8245 136.048 36.5274 135.86 36.3023C135.673 36.0772 135.429 35.9644 135.127 35.9644C134.842 35.9644 134.61 36.0647 134.431 36.2655C134.251 36.4662 134.162 36.7463 134.162 37.1069C134.162 37.4341 134.251 37.7103 134.431 37.9359C134.61 38.1611 134.956 38.4621 135.469 38.8387C135.959 39.2067 136.327 39.5055 136.575 39.7351C136.824 39.9642 137.015 40.216 137.15 40.4904C137.284 40.7649 137.351 41.0898 137.351 41.4663C137.351 42.1541 137.152 42.7053 136.753 43.1181C136.354 43.532 135.832 43.7384 135.188 43.7384C134.545 43.7384 134.025 43.536 133.63 43.1311Z" fill="#F3F5F7"/>
<path fill-rule="evenodd" clip-rule="evenodd" d="M141.934 41.1346H143.559C143.584 41.1346 143.597 41.1187 143.597 41.0858L142.765 36.7259C142.757 36.71 142.749 36.7015 142.741 36.7015C142.733 36.7015 142.725 36.71 142.716 36.7259L141.898 41.0858C141.898 41.1187 141.909 41.1346 141.934 41.1346ZM144.073 43.5297L143.804 42.1178C143.804 42.1008 143.798 42.0889 143.786 42.0804C143.774 42.073 143.76 42.0685 143.743 42.0685H141.751C141.734 42.0685 141.72 42.073 141.708 42.0804C141.696 42.0889 141.69 42.1008 141.69 42.1178L141.433 43.5297C141.425 43.6034 141.38 43.6403 141.298 43.6403H140.37C140.329 43.6403 140.298 43.6284 140.278 43.6034C140.258 43.579 140.252 43.5462 140.26 43.5053L142.081 35.154C142.097 35.0803 142.142 35.0435 142.215 35.0435H143.303C143.384 35.0435 143.429 35.0803 143.437 35.154L145.27 43.5053V43.5297C145.27 43.6034 145.234 43.6403 145.161 43.6403H144.208C144.134 43.6403 144.089 43.6034 144.073 43.5297Z" fill="#F3F5F7"/>
<path fill-rule="evenodd" clip-rule="evenodd" d="M146.126 43.5178V35.1659C146.126 35.0843 146.167 35.0435 146.249 35.0435H147.177C147.259 35.0435 147.299 35.0843 147.299 35.1659V42.572C147.299 42.6049 147.316 42.6208 147.348 42.6208H150.086C150.167 42.6208 150.208 42.6621 150.208 42.7438V43.5178C150.208 43.5995 150.167 43.6403 150.086 43.6403H146.249C146.167 43.6403 146.126 43.5995 146.126 43.5178Z" fill="#F3F5F7"/>
<path fill-rule="evenodd" clip-rule="evenodd" d="M151.039 43.5178V35.1659C151.039 35.0843 151.08 35.0435 151.162 35.0435H152.09C152.172 35.0435 152.213 35.0843 152.213 35.1659V42.572C152.213 42.6049 152.229 42.6208 152.261 42.6208H154.999C155.08 42.6208 155.121 42.6621 155.121 42.7438V43.5178C155.121 43.5995 155.08 43.6403 154.999 43.6403H151.162C151.08 43.6403 151.039 43.5995 151.039 43.5178Z" fill="#F3F5F7"/>
<path fill-rule="evenodd" clip-rule="evenodd" d="M155.952 43.5178V35.1659C155.952 35.0843 155.993 35.0435 156.075 35.0435H157.003C157.085 35.0435 157.126 35.0843 157.126 35.1659V43.5178C157.126 43.5995 157.085 43.6403 157.003 43.6403H156.075C155.993 43.6403 155.952 43.5995 155.952 43.5178Z" fill="#F3F5F7"/>
<path fill-rule="evenodd" clip-rule="evenodd" d="M159.655 41.1346H161.281C161.305 41.1346 161.317 41.1187 161.317 41.0858L160.486 36.7259C160.478 36.71 160.47 36.7015 160.462 36.7015C160.454 36.7015 160.445 36.71 160.437 36.7259L159.619 41.0858C159.619 41.1187 159.631 41.1346 159.655 41.1346ZM161.794 43.5297L161.525 42.1178C161.525 42.1008 161.519 42.0889 161.507 42.0804C161.494 42.073 161.48 42.0685 161.464 42.0685H159.471C159.456 42.0685 159.442 42.073 159.429 42.0804C159.417 42.0889 159.411 42.1008 159.411 42.1178L159.154 43.5297C159.146 43.6034 159.101 43.6403 159.02 43.6403H158.091C158.05 43.6403 158.02 43.6284 157.999 43.6034C157.979 43.579 157.973 43.5462 157.981 43.5053L159.802 35.154C159.818 35.0803 159.863 35.0435 159.936 35.0435H161.024C161.106 35.0435 161.15 35.0803 161.159 35.154L162.992 43.5053V43.5297C162.992 43.6034 162.955 43.6403 162.881 43.6403H161.928C161.855 43.6403 161.81 43.6034 161.794 43.5297Z" fill="#F3F5F7"/>
<path fill-rule="evenodd" clip-rule="evenodd" d="M167.416 35.0435H168.333C168.414 35.0435 168.455 35.0843 168.455 35.1659V43.5178C168.455 43.5995 168.414 43.6403 168.333 43.6403H167.282C167.216 43.6403 167.172 43.608 167.147 43.5422L165.069 37.9297C165.061 37.9132 165.049 37.907 165.033 37.9115C165.017 37.9155 165.008 37.9251 165.008 37.9421L165.021 43.5178C165.021 43.5995 164.979 43.6403 164.899 43.6403H163.969C163.888 43.6403 163.847 43.5995 163.847 43.5178V35.1659C163.847 35.0843 163.888 35.0435 163.969 35.0435H165.008C165.074 35.0435 165.118 35.0763 165.142 35.1416L167.232 40.7541C167.24 40.7785 167.253 40.7892 167.269 40.7847C167.286 40.7807 167.294 40.7665 167.294 40.7422V35.1659C167.294 35.0843 167.335 35.0435 167.416 35.0435Z" fill="#F3F5F7"/>
<path fill-rule="evenodd" clip-rule="evenodd" d="M170.343 43.1311C169.939 42.7257 169.738 42.1876 169.738 41.5156V37.1557C169.738 36.4843 169.939 35.9485 170.343 35.547C170.746 35.1461 171.278 34.9448 171.938 34.9448C172.606 34.9448 173.141 35.1461 173.545 35.547C173.948 35.9485 174.15 36.4843 174.15 37.1557V37.3519C174.15 37.4341 174.109 37.4749 174.027 37.4749L173.099 37.5243C173.017 37.5243 172.977 37.4834 172.977 37.4012V37.082C172.977 36.7463 172.881 36.4764 172.689 36.2717C172.498 36.067 172.247 35.9644 171.938 35.9644C171.628 35.9644 171.38 36.067 171.192 36.2717C171.005 36.4764 170.911 36.7463 170.911 37.082V41.6018C170.911 41.9375 171.005 42.208 171.192 42.4121C171.38 42.6174 171.628 42.7195 171.938 42.7195C172.247 42.7195 172.498 42.6174 172.689 42.4121C172.881 42.208 172.977 41.9375 172.977 41.6018V41.2826C172.977 41.2009 173.017 41.1595 173.099 41.1595L174.027 41.2089C174.109 41.2089 174.15 41.2503 174.15 41.3313V41.5156C174.15 42.1876 173.948 42.7257 173.545 43.1311C173.141 43.536 172.606 43.7384 171.938 43.7384C171.278 43.7384 170.746 43.536 170.343 43.1311Z" fill="#F3F5F7"/>
<path fill-rule="evenodd" clip-rule="evenodd" d="M179.344 36.063H176.594C176.562 36.063 176.545 36.0789 176.545 36.1118V38.7768C176.545 38.8097 176.562 38.8262 176.594 38.8262H178.281C178.362 38.8262 178.403 38.867 178.403 38.9492V39.7226C178.403 39.8049 178.362 39.8457 178.281 39.8457H176.594C176.562 39.8457 176.545 39.8616 176.545 39.8944V42.572C176.545 42.6049 176.562 42.6208 176.594 42.6208H179.344C179.425 42.6208 179.466 42.6621 179.466 42.7438V43.5178C179.466 43.5995 179.425 43.6403 179.344 43.6403H175.494C175.412 43.6403 175.372 43.5995 175.372 43.5178V35.1659C175.372 35.0843 175.412 35.0435 175.494 35.0435H179.344C179.425 35.0435 179.466 35.0843 179.466 35.1659V35.9399C179.466 36.0222 179.425 36.063 179.344 36.063Z" fill="#F3F5F7"/>
</g>
<defs>
<clipPath id="clip0">
<rect width="180" height="57.6" fill="white"/>
</clipPath>
</defs>
</svg>
