<svg width="188" height="60" viewBox="0 0 188 60" fill="none" xmlns="http://www.w3.org/2000/svg">
<path opacity="0.795201" fill-rule="evenodd" clip-rule="evenodd" d="M29.6378 11.4204C19.5167 11.4204 11.2821 19.756 11.2821 30.0009C11.2821 40.2457 19.5167 48.5801 29.6378 48.5801C39.7594 48.5801 47.9947 40.2457 47.9947 30.0009C47.9947 19.756 39.7594 11.4204 29.6378 11.4204ZM29.6378 49.2843C19.1332 49.2843 10.5869 40.6345 10.5869 30.0009C10.5869 19.3672 19.1332 10.7168 29.6378 10.7168C40.1435 10.7168 48.6898 19.3672 48.6898 30.0009C48.6898 40.6345 40.1435 49.2843 29.6378 49.2843Z" fill="white"/>
<path fill-rule="evenodd" clip-rule="evenodd" d="M29.6348 9.56641C18.5111 9.56641 9.45166 18.7356 9.45166 29.9959C9.45166 41.267 18.5111 50.4362 29.6348 50.4362C34.4373 50.4362 38.8568 48.7344 42.3138 45.8811L41.8378 45.3767C38.4969 48.0999 34.2517 49.7326 29.6348 49.7326C18.8934 49.7326 10.1474 40.88 10.1474 29.9959C10.1474 19.1232 18.8934 10.2706 29.6348 10.2706C37.906 10.2706 44.9931 15.5067 47.812 22.8804L48.5077 22.7397C45.6193 15.0493 38.2418 9.56641 29.6348 9.56641Z" fill="white"/>
<path fill-rule="evenodd" clip-rule="evenodd" d="M29.6347 8.93197C35.3303 8.93197 40.4927 11.245 44.2507 15.0022L44.6913 14.45C40.8055 10.5873 35.4929 8.21582 29.6347 8.21582C17.7687 8.21582 8.11719 17.9849 8.11719 29.9959C8.11719 42.007 17.7687 51.7868 29.6347 51.7868C31.4792 51.7868 33.2654 51.5519 34.9709 51.1172L34.704 50.4362C33.0798 50.8476 31.3867 51.0707 29.6347 51.0707C18.1628 51.0707 8.82472 41.6194 8.82472 29.9959C8.82472 18.3832 18.1628 8.93197 29.6347 8.93197Z" fill="white"/>
<path opacity="0.70266" fill-rule="evenodd" clip-rule="evenodd" d="M7.52507 29.996H6.771C6.771 40.5038 13.7308 49.4154 23.2309 52.2221L23.4165 51.4816C14.2416 48.7583 7.52507 40.1628 7.52507 29.996ZM32.8359 7.08887L32.7428 7.84019C43.4842 9.3667 51.7548 18.7243 51.7548 29.996C51.7548 35.526 49.7718 40.5861 46.4769 44.496L47.1037 44.9182C50.4787 40.8801 52.5088 35.678 52.5088 29.996C52.5088 18.3367 43.9484 8.66248 32.8359 7.08887Z" fill="white"/>
<path opacity="0.695801" fill-rule="evenodd" clip-rule="evenodd" d="M7.26973 23.1152L6.50388 22.9041C5.81932 25.1467 5.45996 27.5295 5.45996 29.9958C5.45996 36.7464 8.17402 42.875 12.5594 47.29L13.1161 46.7265C8.88214 42.4409 6.26057 36.5234 6.26057 29.9958C6.26057 27.5999 6.60874 25.2994 7.26973 23.1152ZM29.6338 5.52637C25.5041 5.52637 21.6071 6.58359 18.1967 8.43925L18.5331 9.17865C21.8392 7.37069 25.6207 6.33732 29.6338 6.33732C42.5331 6.33732 53.0194 16.9513 53.0194 29.9958C53.0194 40.6682 46.013 49.7085 36.4086 52.6441L36.6054 53.4187C46.5585 50.3901 53.8194 41.0432 53.8194 29.9958C53.8194 16.5047 42.9737 5.52637 29.6338 5.52637Z" fill="white"/>
<path opacity="0.398879" fill-rule="evenodd" clip-rule="evenodd" d="M4.91496 29.9958C4.91496 25.0287 6.35299 20.4033 8.83553 16.5166L8.11622 16.0587C5.56416 20.086 4.07959 24.8647 4.07959 29.9958C4.07959 38.707 8.34833 46.4325 14.8905 51.117L15.3895 50.436C9.05586 45.9042 4.91496 38.4375 4.91496 29.9958ZM29.6337 4.12988C28.3577 4.12988 27.1052 4.2235 25.8757 4.41193L25.98 5.24495L25.9682 5.25747C27.1629 5.06904 28.393 4.97542 29.6337 4.97542C43.2753 4.97542 54.3648 16.1994 54.3648 29.9958C54.3648 35.5604 52.5668 40.7034 49.5158 44.8589L50.2004 45.3527C53.3439 41.0558 55.2002 35.7488 55.2002 29.9958C55.2002 15.7301 43.7389 4.12988 29.6337 4.12988Z" fill="white"/>
<path opacity="0.399391" fill-rule="evenodd" clip-rule="evenodd" d="M29.633 2.80273C14.8202 2.80273 2.76807 15.0017 2.76807 29.9954C2.76807 42.499 11.1318 53.0426 22.4876 56.2131L22.7079 55.3437C11.735 52.2794 3.64997 42.0768 3.64997 29.9954C3.64997 15.4948 15.3074 3.69538 29.633 3.69538C43.9709 3.69538 55.6283 15.4948 55.6283 29.9954C55.6283 33.1176 55.0828 36.1235 54.0972 38.9064L54.9208 39.1884C55.9529 36.3113 56.5102 33.2237 56.5102 29.9954C56.5102 15.0017 44.4581 2.80273 29.633 2.80273Z" fill="white"/>
<path opacity="0.303897" fill-rule="evenodd" clip-rule="evenodd" d="M29.6329 1.40625C14.0549 1.40625 1.3877 14.2271 1.3877 29.996C1.3877 45.7643 14.0549 58.5971 29.6329 58.5971C31.2571 58.5971 32.8577 58.4558 34.4124 58.1743L34.215 57.2704V57.2578C32.7305 57.528 31.1994 57.658 29.6329 57.658C14.5763 57.658 2.31555 45.2473 2.31555 29.996C2.31555 14.7554 14.5763 2.34541 29.6329 2.34541C43.2162 2.34541 54.5142 12.4311 56.6139 25.5805L57.5305 25.4636C55.385 11.8443 43.6922 1.40625 29.6329 1.40625Z" fill="white"/>
<path opacity="0.302711" fill-rule="evenodd" clip-rule="evenodd" d="M29.639 0.985073C13.8325 0.985073 0.973221 14.0009 0.973221 30.0006C0.973221 45.9991 13.8325 59.0155 29.639 59.0155C45.4462 59.0155 58.3061 45.9991 58.3061 30.0006C58.3061 14.0009 45.4462 0.985073 29.639 0.985073ZM29.639 60C13.2958 60 0 46.5429 0 30.0006C0 13.4577 13.2958 0 29.639 0C45.9829 0 59.2793 13.4577 59.2793 30.0006C59.2793 46.5429 45.9829 60 29.639 60Z" fill="white"/>
<path fill-rule="evenodd" clip-rule="evenodd" d="M72.4976 16.4237H68.0372C67.9839 16.4237 67.9578 16.4511 67.9578 16.5052V20.9219C67.9578 20.9766 67.9839 21.004 68.0372 21.004H70.7729C70.905 21.004 70.9713 21.0715 70.9713 21.2071V22.4902C70.9713 22.6252 70.905 22.6933 70.7729 22.6933H68.0372C67.9839 22.6933 67.9578 22.7207 67.9578 22.7748V27.2122C67.9578 27.2669 67.9839 27.2937 68.0372 27.2937H72.4976C72.6297 27.2937 72.6961 27.3618 72.6961 27.4974V28.7793C72.6961 28.9155 72.6297 28.983 72.4976 28.983H66.2526C66.1205 28.983 66.0542 28.9155 66.0542 28.7793V14.9381C66.0542 14.8025 66.1205 14.7344 66.2526 14.7344H72.4976C72.6297 14.7344 72.6961 14.8025 72.6961 14.9381V16.2206C72.6961 16.3562 72.6297 16.4237 72.4976 16.4237Z" fill="#F3F5F7"/>
<path fill-rule="evenodd" clip-rule="evenodd" d="M77.018 24.8308H79.6548C79.6945 24.8308 79.7141 24.8035 79.7141 24.7487L78.366 17.5232C78.353 17.4964 78.3394 17.4824 78.3264 17.4824C78.3127 17.4824 78.2997 17.4964 78.2867 17.5232L76.9582 24.7487C76.9582 24.8035 76.9783 24.8308 77.018 24.8308ZM80.4876 28.8L80.0511 26.4593C80.0511 26.432 80.041 26.4119 80.0215 26.3979C80.0013 26.3845 79.9782 26.3779 79.9522 26.3779H76.7207C76.694 26.3779 76.6709 26.3845 76.6514 26.3979C76.6312 26.4119 76.6212 26.432 76.6212 26.4593L76.2048 28.8C76.1918 28.9222 76.1189 28.983 75.9868 28.983H74.4801C74.4137 28.983 74.3646 28.9629 74.3314 28.9222C74.2982 28.8815 74.2882 28.8273 74.3018 28.7592L77.2561 14.9174C77.2822 14.7952 77.355 14.7344 77.4741 14.7344H79.2385C79.37 14.7344 79.4428 14.7952 79.4564 14.9174L82.4303 28.7592V28.8C82.4303 28.9222 82.3705 28.983 82.252 28.983H80.7056C80.5865 28.983 80.5137 28.9222 80.4876 28.8Z" fill="#F3F5F7"/>
<path fill-rule="evenodd" clip-rule="evenodd" d="M86.0583 16.5052V21.0648C86.0583 21.1195 86.0849 21.1463 86.1382 21.1463H87.6053C88.1467 21.1463 88.5832 20.9328 88.9137 20.5053C89.2436 20.0778 89.4094 19.5111 89.4094 18.8057C89.4094 18.0729 89.2436 17.4928 88.9137 17.0653C88.5832 16.6372 88.1467 16.4237 87.6053 16.4237H86.1382C86.0849 16.4237 86.0583 16.4511 86.0583 16.5052ZM89.429 28.8206L87.6053 22.7541C87.5917 22.714 87.565 22.6933 87.5254 22.6933H86.1382C86.0849 22.6933 86.0583 22.7207 86.0583 22.7748V28.7793C86.0583 28.9155 85.9925 28.983 85.8605 28.983H84.3537C84.221 28.983 84.1553 28.9155 84.1553 28.7793V14.9381C84.1553 14.8025 84.221 14.7344 84.3537 14.7344H87.9027C88.5767 14.7344 89.1713 14.904 89.6866 15.2434C90.2019 15.5827 90.6017 16.0607 90.886 16.6785C91.1703 17.2957 91.3124 17.9981 91.3124 18.785C91.3124 19.64 91.1407 20.3831 90.7971 21.0143C90.453 21.6449 89.9839 22.1028 89.3893 22.3881C89.3496 22.4288 89.3366 22.4689 89.3496 22.5103L91.3722 28.7592L91.3918 28.8407C91.3918 28.9356 91.3326 28.983 91.2135 28.983H89.6671C89.548 28.983 89.4686 28.9289 89.429 28.8206Z" fill="#F3F5F7"/>
<path fill-rule="evenodd" clip-rule="evenodd" d="M100.252 14.9381V16.2206C100.252 16.3562 100.186 16.4237 100.055 16.4237H97.4569C97.4042 16.4237 97.3775 16.4511 97.3775 16.5052V28.7793C97.3775 28.9155 97.3118 28.983 97.1797 28.983H95.6724C95.5409 28.983 95.4745 28.9155 95.4745 28.7793V16.5052C95.4745 16.4511 95.4479 16.4237 95.3958 16.4237H92.9372C92.8045 16.4237 92.7388 16.3562 92.7388 16.2206V14.9381C92.7388 14.8025 92.8045 14.7344 92.9372 14.7344H100.055C100.186 14.7344 100.252 14.8025 100.252 14.9381Z" fill="#F3F5F7"/>
<path fill-rule="evenodd" clip-rule="evenodd" d="M107.569 14.7344H109.075C109.207 14.7344 109.273 14.8025 109.273 14.9381V28.7793C109.273 28.9155 109.207 28.983 109.075 28.983H107.569C107.437 28.983 107.37 28.9155 107.37 28.7793V22.7748C107.37 22.7207 107.344 22.6933 107.291 22.6933H104.297C104.244 22.6933 104.218 22.7207 104.218 22.7748V28.7793C104.218 28.9155 104.152 28.983 104.02 28.983H102.513C102.38 28.983 102.314 28.9155 102.314 28.7793V14.9381C102.314 14.8025 102.38 14.7344 102.513 14.7344H104.02C104.152 14.7344 104.218 14.8025 104.218 14.9381V20.9219C104.218 20.9766 104.244 21.004 104.297 21.004H107.291C107.344 21.004 107.37 20.9766 107.37 20.9219V14.9381C107.37 14.8025 107.437 14.7344 107.569 14.7344Z" fill="#F3F5F7"/>
<path fill-rule="evenodd" clip-rule="evenodd" d="M121.425 14.7344H122.932C123.064 14.7344 123.131 14.8025 123.131 14.9381V28.7793C123.131 28.9155 123.064 28.983 122.932 28.983H121.425C121.293 28.983 121.227 28.9155 121.227 28.7793V22.7748C121.227 22.7207 121.2 22.6933 121.148 22.6933H118.154C118.101 22.6933 118.074 22.7207 118.074 22.7748V28.7793C118.074 28.9155 118.009 28.983 117.877 28.983H116.37C116.238 28.983 116.172 28.9155 116.172 28.7793V14.9381C116.172 14.8025 116.238 14.7344 116.37 14.7344H117.877C118.009 14.7344 118.074 14.8025 118.074 14.9381V20.9219C118.074 20.9766 118.101 21.004 118.154 21.004H121.148C121.2 21.004 121.227 20.9766 121.227 20.9219V14.9381C121.227 14.8025 121.293 14.7344 121.425 14.7344Z" fill="#F3F5F7"/>
<path fill-rule="evenodd" clip-rule="evenodd" d="M130.662 18.1944C130.662 17.6252 130.513 17.16 130.216 16.8C129.918 16.4406 129.532 16.2606 129.056 16.2606C128.58 16.2606 128.194 16.4406 127.896 16.8C127.599 17.16 127.451 17.6252 127.451 18.1944V25.5227C127.451 26.0925 127.599 26.5577 127.896 26.9171C128.194 27.2771 128.58 27.4565 129.056 27.4565C129.532 27.4565 129.918 27.2771 130.216 26.9171C130.513 26.5577 130.662 26.0925 130.662 25.5227V18.1944ZM131.594 15.63C132.241 16.3354 132.565 17.2585 132.565 18.3981V25.319C132.565 26.2555 132.34 27.0527 131.892 27.7107C131.442 28.3687 130.833 28.7999 130.067 29.003C130.028 29.0303 130.008 29.0644 130.008 29.1051V30.9982C130.008 31.1338 129.942 31.2019 129.81 31.2019H128.283C128.151 31.2019 128.085 31.1338 128.085 30.9982V29.1051C128.085 29.0644 128.065 29.0303 128.025 29.003C127.258 28.7865 126.654 28.3517 126.211 27.701C125.768 27.0497 125.547 26.2555 125.547 25.319V18.3981C125.547 17.2585 125.871 16.3354 126.519 15.63C127.166 14.9246 128.012 14.5713 129.056 14.5713C130.1 14.5713 130.947 14.9246 131.594 15.63Z" fill="#F3F5F7"/>
<path fill-rule="evenodd" clip-rule="evenodd" d="M67.2428 44.7968C66.8194 44.3754 66.6079 43.8177 66.6079 43.1239V38.3034C66.6079 37.6101 66.8194 37.0525 67.2428 36.6305C67.6663 36.2091 68.2242 35.998 68.9172 35.998C69.6096 35.998 70.1699 36.2091 70.5975 36.6305C71.0251 37.0525 71.239 37.6144 71.239 38.3168V38.8695C71.239 38.9577 71.1963 39.0015 71.111 39.0015H70.1361C70.0503 39.0015 70.0076 38.9577 70.0076 38.8695V38.29C70.0076 37.93 69.9069 37.6406 69.7061 37.421C69.5048 37.2015 69.2418 37.0914 68.9172 37.0914C68.5921 37.0914 68.3291 37.2015 68.1283 37.421C67.9269 37.6406 67.8268 37.93 67.8268 38.29V43.1373C67.8268 43.4973 67.9269 43.7873 68.1283 44.0063C68.3291 44.2264 68.5921 44.3359 68.9172 44.3359C69.2418 44.3359 69.5048 44.2264 69.7061 44.0063C69.9069 43.7873 70.0076 43.4973 70.0076 43.1373V41.6887C70.0076 41.6535 69.9898 41.6358 69.9561 41.6358H68.9812C68.8953 41.6358 68.8533 41.5921 68.8533 41.5039V40.6872C68.8533 40.5996 68.8953 40.5558 68.9812 40.5558H71.111C71.1963 40.5558 71.239 40.5996 71.239 40.6872V43.1239C71.239 43.8177 71.0251 44.3754 70.5975 44.7968C70.1699 45.2182 69.6096 45.4286 68.9172 45.4286C68.2242 45.4286 67.6663 45.2182 67.2428 44.7968Z" fill="#F3F5F7"/>
<path fill-rule="evenodd" clip-rule="evenodd" d="M152.085 21.7907V22.4466C152.085 22.516 152.051 22.5505 151.984 22.5505H150.655C150.628 22.5505 150.615 22.5645 150.615 22.5922V28.8696C150.615 28.9392 150.581 28.9737 150.513 28.9737H149.743C149.675 28.9737 149.641 28.9392 149.641 28.8696V22.5922C149.641 22.5645 149.628 22.5505 149.601 22.5505H148.344C148.276 22.5505 148.242 22.516 148.242 22.4466V21.7907C148.242 21.7214 148.276 21.6865 148.344 21.6865H151.984C152.051 21.6865 152.085 21.7214 152.085 21.7907Z" fill="#B7C2CC"/>
<path fill-rule="evenodd" clip-rule="evenodd" d="M141.884 27.7764C142.063 27.5616 142.153 27.2559 142.153 26.8608C142.153 26.458 142.065 26.1441 141.89 25.9182C141.714 25.6928 141.47 25.5803 141.159 25.5803H140.45C140.422 25.5803 140.409 25.5938 140.409 25.6216V28.0576C140.409 28.086 140.422 28.0994 140.45 28.0994H141.149C141.46 28.0994 141.705 27.9918 141.884 27.7764ZM140.409 22.5921V24.7992C140.409 24.8266 140.422 24.8411 140.45 24.8411H141.098C141.416 24.8411 141.663 24.7421 141.839 24.5445C142.015 24.346 142.102 24.0706 142.102 23.7168C142.102 23.3486 142.015 23.0626 141.839 22.8579C141.663 22.6531 141.416 22.5507 141.098 22.5507H140.45C140.422 22.5507 140.409 22.5642 140.409 22.5921ZM142.604 28.4532C142.256 28.8007 141.798 28.9737 141.23 28.9737H139.537C139.469 28.9737 139.436 28.9391 139.436 28.8699V21.7903C139.436 21.7211 139.469 21.6865 139.537 21.6865H141.089C141.703 21.6865 142.185 21.8514 142.533 22.1811C142.881 22.5108 143.055 22.9915 143.055 23.6231C143.055 24.3724 142.795 24.8896 142.274 25.1742C142.241 25.1948 142.237 25.2121 142.265 25.2261C142.535 25.3924 142.746 25.6255 142.898 25.924C143.05 26.222 143.126 26.5762 143.126 26.9857C143.126 27.6168 142.952 28.1066 142.604 28.4532Z" fill="#B7C2CC"/>
<path fill-rule="evenodd" clip-rule="evenodd" d="M153.77 26.8497H155.118C155.139 26.8497 155.149 26.8363 155.149 26.8084L154.46 23.1126C154.453 23.0992 154.446 23.092 154.439 23.092C154.432 23.092 154.426 23.0992 154.419 23.1126L153.74 26.8084C153.74 26.8363 153.749 26.8497 153.77 26.8497ZM155.544 28.88L155.321 27.6832C155.321 27.6688 155.316 27.6587 155.306 27.6515C155.296 27.6452 155.284 27.6414 155.27 27.6414H153.618C153.604 27.6414 153.592 27.6452 153.582 27.6515C153.572 27.6587 153.567 27.6688 153.567 27.6832L153.354 28.88C153.347 28.9425 153.31 28.9737 153.242 28.9737H152.472C152.439 28.9737 152.413 28.9636 152.396 28.9425C152.379 28.9218 152.374 28.894 152.381 28.8593L153.892 21.7803C153.905 21.7178 153.943 21.6865 154.003 21.6865H154.906C154.973 21.6865 155.011 21.7178 155.017 21.7803L156.538 28.8593V28.88C156.538 28.9425 156.508 28.9737 156.447 28.9737H155.656C155.595 28.9737 155.558 28.9425 155.544 28.88Z" fill="#B7C2CC"/>
<path fill-rule="evenodd" clip-rule="evenodd" d="M147.383 22.5507H145.101C145.074 22.5507 145.061 22.5642 145.061 22.5921V24.8512C145.061 24.879 145.074 24.893 145.101 24.893H146.5C146.568 24.893 146.602 24.9276 146.602 24.9973V25.6529C146.602 25.7226 146.568 25.7572 146.5 25.7572H145.101C145.074 25.7572 145.061 25.7707 145.061 25.7985V28.0682C145.061 28.0961 145.074 28.1095 145.101 28.1095H147.383C147.45 28.1095 147.484 28.1446 147.484 28.2138V28.8699C147.484 28.9391 147.45 28.9737 147.383 28.9737H144.189C144.121 28.9737 144.087 28.9391 144.087 28.8699V21.7903C144.087 21.7211 144.121 21.6865 144.189 21.6865H147.383C147.45 21.6865 147.484 21.7211 147.484 21.7903V22.4464C147.484 22.5161 147.45 22.5507 147.383 22.5507Z" fill="#B7C2CC"/>
<path fill-rule="evenodd" clip-rule="evenodd" d="M72.5854 45.1917V36.2349C72.5854 36.1473 72.6281 36.1035 72.714 36.1035H73.6889C73.7742 36.1035 73.8168 36.1473 73.8168 36.2349V44.1774C73.8168 44.2127 73.834 44.2297 73.8683 44.2297H76.7415C76.8268 44.2297 76.87 44.2741 76.87 44.3617V45.1917C76.87 45.2793 76.8268 45.3231 76.7415 45.3231H72.714C72.6281 45.3231 72.5854 45.2793 72.5854 45.1917Z" fill="#F3F5F7"/>
<path fill-rule="evenodd" clip-rule="evenodd" d="M80.6918 43.9868C80.8973 43.7539 80.9998 43.4486 80.9998 43.071V38.3557C80.9998 37.9787 80.8973 37.6734 80.6918 37.4405C80.4869 37.2082 80.2133 37.0914 79.8709 37.0914C79.5375 37.0914 79.2697 37.2082 79.0696 37.4405C78.8682 37.6734 78.7681 37.9787 78.7681 38.3557V43.071C78.7681 43.4486 78.8682 43.7539 79.0696 43.9868C79.2697 44.2197 79.5375 44.3359 79.8709 44.3359C80.2133 44.3359 80.4869 44.2197 80.6918 43.9868ZM78.1776 44.77C77.7499 44.3316 77.5361 43.7478 77.5361 43.0187V38.422C77.5361 37.6929 77.7499 37.1072 78.1776 36.6633C78.6052 36.2206 79.1696 35.998 79.8709 35.998C80.5811 35.998 81.152 36.2206 81.5838 36.6633C82.0156 37.1072 82.2312 37.6929 82.2312 38.422V43.0187C82.2312 43.7478 82.0156 44.3316 81.5838 44.77C81.152 45.2097 80.5811 45.4286 79.8709 45.4286C79.1696 45.4286 78.6052 45.2097 78.1776 44.77Z" fill="#F3F5F7"/>
<path fill-rule="evenodd" clip-rule="evenodd" d="M86.6773 43.8083C86.9036 43.5365 87.0173 43.1497 87.0173 42.6498C87.0173 42.1402 86.9059 41.7431 86.6838 41.4573C86.4611 41.1721 86.1532 41.0298 85.7599 41.0298H84.862C84.8276 41.0298 84.8105 41.0468 84.8105 41.0821V44.164C84.8105 44.1999 84.8276 44.2169 84.862 44.2169H85.7469C86.1407 44.2169 86.4505 44.0807 86.6773 43.8083ZM84.8105 37.2492V40.0416C84.8105 40.0763 84.8276 40.0945 84.862 40.0945H85.6829C86.085 40.0945 86.3972 39.9693 86.6193 39.7193C86.842 39.4682 86.9527 39.1197 86.9527 38.6722C86.9527 38.2064 86.842 37.8445 86.6193 37.5855C86.3972 37.3264 86.085 37.1969 85.6829 37.1969H84.862C84.8276 37.1969 84.8105 37.2139 84.8105 37.2492ZM87.5877 44.6645C87.1476 45.1042 86.5683 45.3231 85.8499 45.3231H83.7076C83.6217 45.3231 83.5791 45.2793 83.5791 45.1917V36.2349C83.5791 36.1473 83.6217 36.1035 83.7076 36.1035H85.6704C86.4481 36.1035 87.0576 36.3121 87.4982 36.7293C87.9383 37.1464 88.1586 37.7545 88.1586 38.5536C88.1586 39.5016 87.8293 40.156 87.1707 40.516C87.1281 40.5421 87.1239 40.564 87.1583 40.5816C87.5 40.7921 87.7677 41.087 87.9596 41.4646C88.1521 41.8416 88.2486 42.2898 88.2486 42.8079C88.2486 43.6064 88.0283 44.226 87.5877 44.6645Z" fill="#F3F5F7"/>
<path fill-rule="evenodd" clip-rule="evenodd" d="M90.2224 42.6358H91.9282C91.9537 42.6358 91.9667 42.6188 91.9667 42.5835L91.0943 37.9078C91.086 37.8908 91.0771 37.8816 91.0688 37.8816C91.0605 37.8816 91.0516 37.8908 91.0433 37.9078L90.1839 42.5835C90.1839 42.6188 90.1964 42.6358 90.2224 42.6358ZM92.4672 45.2045L92.1847 43.6903C92.1847 43.6721 92.1782 43.6593 92.1657 43.6502C92.1527 43.6423 92.1379 43.6374 92.1207 43.6374H90.0294C90.0128 43.6374 89.9974 43.6423 89.9849 43.6502C89.9719 43.6593 89.9654 43.6721 89.9654 43.6903L89.6959 45.2045C89.6876 45.2836 89.6402 45.3231 89.5549 45.3231H88.58C88.5374 45.3231 88.5054 45.3103 88.4835 45.2836C88.4622 45.2574 88.4562 45.2221 88.4645 45.1783L90.3758 36.2221C90.393 36.143 90.4404 36.1035 90.5174 36.1035H91.6587C91.744 36.1035 91.7914 36.143 91.8003 36.2221L93.724 45.1783V45.2045C93.724 45.2836 93.6855 45.3231 93.6085 45.3231H92.6082C92.5312 45.3231 92.4838 45.2836 92.4672 45.2045Z" fill="#F3F5F7"/>
<path fill-rule="evenodd" clip-rule="evenodd" d="M94.6226 45.1917V36.2349C94.6226 36.1473 94.6658 36.1035 94.7511 36.1035H95.726C95.8113 36.1035 95.8545 36.1473 95.8545 36.2349V44.1774C95.8545 44.2127 95.8711 44.2297 95.9054 44.2297H98.7786C98.8645 44.2297 98.9071 44.2741 98.9071 44.3617V45.1917C98.9071 45.2793 98.8645 45.3231 98.7786 45.3231H94.7511C94.6658 45.3231 94.6226 45.2793 94.6226 45.1917Z" fill="#F3F5F7"/>
<path fill-rule="evenodd" clip-rule="evenodd" d="M102.738 44.7773C102.314 44.3425 102.103 43.7654 102.103 43.0448V38.3691C102.103 37.6491 102.314 37.0744 102.738 36.6439C103.161 36.2139 103.719 35.998 104.412 35.998C105.114 35.998 105.676 36.2139 106.099 36.6439C106.523 37.0744 106.734 37.6491 106.734 38.3691V38.5795C106.734 38.6677 106.691 38.7114 106.606 38.7114L105.631 38.7643C105.545 38.7643 105.503 38.7206 105.503 38.6324V38.29C105.503 37.93 105.402 37.6406 105.201 37.421C105 37.2015 104.737 37.0914 104.412 37.0914C104.087 37.0914 103.827 37.2015 103.63 37.421C103.433 37.6406 103.335 37.93 103.335 38.29V43.1373C103.335 43.4973 103.433 43.7873 103.63 44.0063C103.827 44.2264 104.087 44.3359 104.412 44.3359C104.737 44.3359 105 44.2264 105.201 44.0063C105.402 43.7873 105.503 43.4973 105.503 43.1373V42.7949C105.503 42.7073 105.545 42.6629 105.631 42.6629L106.606 42.7158C106.691 42.7158 106.734 42.7602 106.734 42.8472V43.0448C106.734 43.7654 106.523 44.3425 106.099 44.7773C105.676 45.2115 105.114 45.4286 104.412 45.4286C103.719 45.4286 103.161 45.2115 102.738 44.7773Z" fill="#F3F5F7"/>
<path fill-rule="evenodd" clip-rule="evenodd" d="M110.994 43.9868C111.199 43.7539 111.302 43.4486 111.302 43.071V38.3557C111.302 37.9787 111.199 37.6734 110.994 37.4405C110.789 37.2082 110.515 37.0914 110.173 37.0914C109.839 37.0914 109.572 37.2082 109.371 37.4405C109.17 37.6734 109.069 37.9787 109.069 38.3557V43.071C109.069 43.4486 109.17 43.7539 109.371 43.9868C109.572 44.2197 109.839 44.3359 110.173 44.3359C110.515 44.3359 110.789 44.2197 110.994 43.9868ZM108.479 44.77C108.052 44.3316 107.838 43.7478 107.838 43.0187V38.422C107.838 37.6929 108.052 37.1072 108.479 36.6633C108.907 36.2206 109.471 35.998 110.173 35.998C110.883 35.998 111.454 36.2206 111.885 36.6633C112.317 37.1072 112.533 37.6929 112.533 38.422V43.0187C112.533 43.7478 112.317 44.3316 111.885 44.77C111.454 45.2097 110.883 45.4286 110.173 45.4286C109.471 45.4286 108.907 45.2097 108.479 44.77Z" fill="#F3F5F7"/>
<path fill-rule="evenodd" clip-rule="evenodd" d="M118.024 36.1035H118.998C119.084 36.1035 119.127 36.1473 119.127 36.2349V45.1917C119.127 45.2793 119.084 45.3231 118.998 45.3231H118.024C117.938 45.3231 117.895 45.2793 117.895 45.1917V38.6582C117.895 38.632 117.889 38.6193 117.876 38.6193C117.863 38.6193 117.848 38.6284 117.831 38.6454L116.599 41.0031C116.573 41.0645 116.535 41.0955 116.484 41.0955C116.432 41.0955 116.394 41.0645 116.369 41.0031L115.15 38.6582C115.133 38.6412 115.117 38.632 115.105 38.632C115.092 38.632 115.086 38.6454 115.086 38.6722V45.1917C115.086 45.2793 115.043 45.3231 114.957 45.3231H113.982C113.897 45.3231 113.854 45.2793 113.854 45.1917V36.2349C113.854 36.1473 113.897 36.1035 113.982 36.1035H114.957C115.017 36.1035 115.068 36.1345 115.111 36.196L116.458 38.6722C116.467 38.6807 116.48 38.6849 116.496 38.6849C116.514 38.6849 116.526 38.6807 116.535 38.6722L117.87 36.196C117.903 36.1345 117.954 36.1035 118.024 36.1035Z" fill="#F3F5F7"/>
<path fill-rule="evenodd" clip-rule="evenodd" d="M124.758 36.1035H125.732C125.818 36.1035 125.861 36.1473 125.861 36.2349V45.1917C125.861 45.2793 125.818 45.3231 125.732 45.3231H124.758C124.672 45.3231 124.63 45.2793 124.63 45.1917V38.6582C124.63 38.632 124.623 38.6193 124.611 38.6193C124.597 38.6193 124.582 38.6284 124.566 38.6454L123.334 41.0031C123.308 41.0645 123.27 41.0955 123.218 41.0955C123.167 41.0955 123.129 41.0645 123.103 41.0031L121.884 38.6582C121.867 38.6412 121.852 38.632 121.839 38.632C121.826 38.632 121.82 38.6454 121.82 38.6722V45.1917C121.82 45.2793 121.777 45.3231 121.692 45.3231H120.716C120.631 45.3231 120.588 45.2793 120.588 45.1917V36.2349C120.588 36.1473 120.631 36.1035 120.716 36.1035H121.692C121.752 36.1035 121.803 36.1345 121.846 36.196L123.193 38.6722C123.201 38.6807 123.214 38.6849 123.231 38.6849C123.248 38.6849 123.261 38.6807 123.27 38.6722L124.604 36.196C124.638 36.1345 124.689 36.1035 124.758 36.1035Z" fill="#F3F5F7"/>
<path fill-rule="evenodd" clip-rule="evenodd" d="M130.325 43.9868C130.531 43.7539 130.634 43.4486 130.634 43.071V38.3557C130.634 37.9787 130.531 37.6734 130.325 37.4405C130.12 37.2082 129.847 37.0914 129.504 37.0914C129.171 37.0914 128.904 37.2082 128.703 37.4405C128.501 37.6734 128.401 37.9787 128.401 38.3557V43.071C128.401 43.4486 128.501 43.7539 128.703 43.9868C128.904 44.2197 129.171 44.3359 129.504 44.3359C129.847 44.3359 130.12 44.2197 130.325 43.9868ZM127.811 44.77C127.383 44.3316 127.169 43.7478 127.169 43.0187V38.422C127.169 37.6929 127.383 37.1072 127.811 36.6633C128.239 36.2206 128.803 35.998 129.504 35.998C130.214 35.998 130.785 36.2206 131.217 36.6633C131.648 37.1072 131.865 37.6929 131.865 38.422V43.0187C131.865 43.7478 131.648 44.3316 131.217 44.77C130.785 45.2097 130.214 45.4286 129.504 45.4286C128.803 45.4286 128.239 45.2097 127.811 44.77Z" fill="#F3F5F7"/>
<path fill-rule="evenodd" clip-rule="evenodd" d="M136.958 36.1035H137.92C138.006 36.1035 138.048 36.1473 138.048 36.2349V45.1917C138.048 45.2793 138.006 45.3231 137.92 45.3231H136.817C136.749 45.3231 136.702 45.2884 136.676 45.2179L134.495 39.1988C134.487 39.1812 134.474 39.1745 134.457 39.1793C134.439 39.1836 134.431 39.1939 134.431 39.2122L134.444 45.1917C134.444 45.2793 134.401 45.3231 134.315 45.3231H133.341C133.255 45.3231 133.212 45.2793 133.212 45.1917V36.2349C133.212 36.1473 133.255 36.1035 133.341 36.1035H134.431C134.499 36.1035 134.546 36.1388 134.572 36.2087L136.766 42.2278C136.774 42.2539 136.787 42.2655 136.805 42.2606C136.821 42.2564 136.83 42.2412 136.83 42.215V36.2349C136.83 36.1473 136.873 36.1035 136.958 36.1035Z" fill="#F3F5F7"/>
<path fill-rule="evenodd" clip-rule="evenodd" d="M139.891 44.7773C139.475 44.3425 139.269 43.774 139.269 43.071V42.7292C139.269 42.641 139.311 42.5973 139.397 42.5973H140.346C140.432 42.5973 140.475 42.641 140.475 42.7292V43.0053C140.475 43.4097 140.573 43.732 140.769 43.974C140.966 44.2148 141.218 44.3359 141.526 44.3359C141.834 44.3359 142.089 44.2197 142.289 43.9868C142.49 43.7539 142.591 43.4486 142.591 43.071C142.591 42.8168 142.537 42.593 142.431 42.3996C142.324 42.2063 142.183 42.0329 142.007 41.8791C141.832 41.7258 141.547 41.4996 141.154 41.201C140.718 40.8672 140.376 40.582 140.128 40.3448C139.88 40.1077 139.671 39.8225 139.499 39.4892C139.328 39.1554 139.243 38.7643 139.243 38.3168C139.243 37.6053 139.449 37.041 139.859 36.6244C140.269 36.2072 140.804 35.998 141.462 35.998C142.146 35.998 142.696 36.2224 143.111 36.67C143.525 37.1176 143.733 37.7062 143.733 38.4347V38.7643C143.733 38.8525 143.69 38.8963 143.605 38.8963H142.655C142.569 38.8963 142.527 38.8525 142.527 38.7643V38.4086C142.527 38.0139 142.428 37.6953 142.232 37.4539C142.035 37.2124 141.779 37.0914 141.462 37.0914C141.163 37.0914 140.919 37.1991 140.731 37.4143C140.543 37.6296 140.449 37.93 140.449 38.3168C140.449 38.6677 140.543 38.9638 140.731 39.2058C140.919 39.4473 141.282 39.7702 141.821 40.1739C142.335 40.5686 142.722 40.8891 142.982 41.1354C143.243 41.381 143.444 41.651 143.585 41.9454C143.726 42.2397 143.797 42.5881 143.797 42.9919C143.797 43.7296 143.588 44.3207 143.168 44.7634C142.749 45.2073 142.202 45.4286 141.526 45.4286C140.851 45.4286 140.306 45.2115 139.891 44.7773Z" fill="#F3F5F7"/>
<path fill-rule="evenodd" clip-rule="evenodd" d="M148.604 42.6358H150.31C150.336 42.6358 150.349 42.6188 150.349 42.5835L149.476 37.9078C149.467 37.8908 149.459 37.8816 149.45 37.8816C149.442 37.8816 149.434 37.8908 149.425 37.9078L148.565 42.5835C148.565 42.6188 148.578 42.6358 148.604 42.6358ZM150.849 45.2045L150.567 43.6903C150.567 43.6721 150.56 43.6593 150.548 43.6502C150.535 43.6423 150.52 43.6374 150.502 43.6374H148.411C148.394 43.6374 148.379 43.6423 148.366 43.6502C148.354 43.6593 148.347 43.6721 148.347 43.6903L148.078 45.2045C148.069 45.2836 148.022 45.3231 147.936 45.3231H146.962C146.919 45.3231 146.887 45.3103 146.866 45.2836C146.844 45.2574 146.838 45.2221 146.847 45.1783L148.758 36.2221C148.775 36.143 148.822 36.1035 148.899 36.1035H150.041C150.126 36.1035 150.173 36.143 150.182 36.2221L152.105 45.1783V45.2045C152.105 45.2836 152.068 45.3231 151.991 45.3231H150.99C150.913 45.3231 150.866 45.2836 150.849 45.2045Z" fill="#F3F5F7"/>
<path fill-rule="evenodd" clip-rule="evenodd" d="M153.004 45.1917V36.2349C153.004 36.1473 153.047 36.1035 153.133 36.1035H154.107C154.193 36.1035 154.236 36.1473 154.236 36.2349V44.1774C154.236 44.2127 154.253 44.2297 154.287 44.2297H157.161C157.246 44.2297 157.289 44.2741 157.289 44.3617V45.1917C157.289 45.2793 157.246 45.3231 157.161 45.3231H153.133C153.047 45.3231 153.004 45.2793 153.004 45.1917Z" fill="#F3F5F7"/>
<path fill-rule="evenodd" clip-rule="evenodd" d="M158.164 45.1917V36.2349C158.164 36.1473 158.206 36.1035 158.292 36.1035H159.267C159.352 36.1035 159.396 36.1473 159.396 36.2349V44.1774C159.396 44.2127 159.413 44.2297 159.446 44.2297H162.32C162.405 44.2297 162.448 44.2741 162.448 44.3617V45.1917C162.448 45.2793 162.405 45.3231 162.32 45.3231H158.292C158.206 45.3231 158.164 45.2793 158.164 45.1917Z" fill="#F3F5F7"/>
<path fill-rule="evenodd" clip-rule="evenodd" d="M163.322 45.1917V36.2349C163.322 36.1473 163.364 36.1035 163.45 36.1035H164.425C164.51 36.1035 164.554 36.1473 164.554 36.2349V45.1917C164.554 45.2793 164.51 45.3231 164.425 45.3231H163.45C163.364 45.3231 163.322 45.2793 163.322 45.1917Z" fill="#F3F5F7"/>
<path fill-rule="evenodd" clip-rule="evenodd" d="M167.209 42.6358H168.915C168.94 42.6358 168.953 42.6188 168.953 42.5835L168.081 37.9078C168.072 37.8908 168.064 37.8816 168.055 37.8816C168.047 37.8816 168.038 37.8908 168.03 37.9078L167.17 42.5835C167.17 42.6188 167.183 42.6358 167.209 42.6358ZM169.454 45.2045L169.171 43.6903C169.171 43.6721 169.165 43.6593 169.152 43.6502C169.139 43.6423 169.124 43.6374 169.108 43.6374H167.016C166.999 43.6374 166.984 43.6423 166.971 43.6502C166.959 43.6593 166.952 43.6721 166.952 43.6903L166.683 45.2045C166.674 45.2836 166.627 45.3231 166.542 45.3231H165.567C165.524 45.3231 165.492 45.3103 165.471 45.2836C165.449 45.2574 165.443 45.2221 165.452 45.1783L167.362 36.2221C167.38 36.143 167.427 36.1035 167.504 36.1035H168.645C168.731 36.1035 168.778 36.143 168.787 36.2221L170.711 45.1783V45.2045C170.711 45.2836 170.672 45.3231 170.595 45.3231H169.595C169.518 45.3231 169.471 45.2836 169.454 45.2045Z" fill="#F3F5F7"/>
<path fill-rule="evenodd" clip-rule="evenodd" d="M175.352 36.1035H176.314C176.399 36.1035 176.442 36.1473 176.442 36.2349V45.1917C176.442 45.2793 176.399 45.3231 176.314 45.3231H175.211C175.142 45.3231 175.095 45.2884 175.07 45.2179L172.888 39.1988C172.88 39.1812 172.867 39.1745 172.85 39.1793C172.833 39.1836 172.824 39.1939 172.824 39.2122L172.837 45.1917C172.837 45.2793 172.794 45.3231 172.709 45.3231H171.734C171.649 45.3231 171.605 45.2793 171.605 45.1917V36.2349C171.605 36.1473 171.649 36.1035 171.734 36.1035H172.824C172.893 36.1035 172.94 36.1388 172.965 36.2087L175.159 42.2278C175.167 42.2539 175.18 42.2655 175.198 42.2606C175.215 42.2564 175.224 42.2412 175.224 42.215V36.2349C175.224 36.1473 175.266 36.1035 175.352 36.1035Z" fill="#F3F5F7"/>
<path fill-rule="evenodd" clip-rule="evenodd" d="M178.425 44.7773C178.002 44.3425 177.791 43.7654 177.791 43.0448V38.3691C177.791 37.6491 178.002 37.0744 178.425 36.6439C178.849 36.2139 179.407 35.998 180.1 35.998C180.801 35.998 181.363 36.2139 181.787 36.6439C182.21 37.0744 182.422 37.6491 182.422 38.3691V38.5795C182.422 38.6677 182.379 38.7114 182.293 38.7114L181.319 38.7643C181.233 38.7643 181.19 38.7206 181.19 38.6324V38.29C181.19 37.93 181.09 37.6406 180.889 37.421C180.687 37.2015 180.424 37.0914 180.1 37.0914C179.774 37.0914 179.514 37.2015 179.317 37.421C179.12 37.6406 179.022 37.93 179.022 38.29V43.1373C179.022 43.4973 179.12 43.7873 179.317 44.0063C179.514 44.2264 179.774 44.3359 180.1 44.3359C180.424 44.3359 180.687 44.2264 180.889 44.0063C181.09 43.7873 181.19 43.4973 181.19 43.1373V42.7949C181.19 42.7073 181.233 42.6629 181.319 42.6629L182.293 42.7158C182.379 42.7158 182.422 42.7602 182.422 42.8472V43.0448C182.422 43.7654 182.21 44.3425 181.787 44.7773C181.363 45.2115 180.801 45.4286 180.1 45.4286C179.407 45.4286 178.849 45.2115 178.425 44.7773Z" fill="#F3F5F7"/>
<path fill-rule="evenodd" clip-rule="evenodd" d="M187.872 37.1969H184.986C184.952 37.1969 184.935 37.2139 184.935 37.2492V40.1073C184.935 40.1426 184.952 40.1602 184.986 40.1602H186.756C186.842 40.1602 186.884 40.204 186.884 40.2922V41.1216C186.884 41.2098 186.842 41.2536 186.756 41.2536H184.986C184.952 41.2536 184.935 41.2706 184.935 41.3059V44.1774C184.935 44.2127 184.952 44.2297 184.986 44.2297H187.872C187.958 44.2297 188 44.2741 188 44.3617V45.1917C188 45.2793 187.958 45.3231 187.872 45.3231H183.831C183.745 45.3231 183.703 45.2793 183.703 45.1917V36.2349C183.703 36.1473 183.745 36.1035 183.831 36.1035H187.872C187.958 36.1035 188 36.1473 188 36.2349V37.0649C188 37.1531 187.958 37.1969 187.872 37.1969Z" fill="#F3F5F7"/>
</svg>
