<?xml version="1.0" encoding="UTF-8"?>
<svg width="200px" height="64px" viewBox="0 0 200 64" version="1.1" xmlns="http://www.w3.org/2000/svg" xmlns:xlink="http://www.w3.org/1999/xlink">
    <title>10F1F0F8-8310-49B3-8803-0D8E476E5576</title>
    <g id="UI-kit" stroke="none" stroke-width="1" fill="none" fill-rule="evenodd">
        <g id="Earth-Dashboard-UI-kit" transform="translate(-134.000000, -3031.000000)">
            <g id="Earth-HQ_1-Copy-2" transform="translate(134.000000, 3031.000000)">
                <path d="M31.5429467,12.3046626 C20.7717868,12.3046626 12.0081505,21.1119784 12.0081505,31.9366793 C12.0081505,42.7613802 20.7717868,51.567436 31.5429467,51.567436 C42.3147335,51.567436 51.0789969,42.7613802 51.0789969,31.9366793 C51.0789969,21.1119784 42.3147335,12.3046626 31.5429467,12.3046626 Z M31.5429467,52.3115121 C20.3636364,52.3115121 11.2683386,43.1721656 11.2683386,31.9366793 C11.2683386,20.701193 20.3636364,11.5612165 31.5429467,11.5612165 C42.723511,11.5612165 51.8188088,20.701193 51.8188088,31.9366793 C51.8188088,43.1721656 42.723511,52.3115121 31.5429467,52.3115121 L31.5429467,52.3115121 Z" id="Fill-1" fill="#FFFFFF" opacity="0.795200893"></path>
                <path d="M31.5373041,10.3458712 C19.6990596,10.3458712 10.0576803,20.0339816 10.0576803,31.931639 C10.0576803,43.8406371 19.6990596,53.5287475 31.5373041,53.5287475 C36.6482759,53.5287475 41.3517241,51.7306161 45.030721,48.7158792 L44.5241379,48.1828662 C40.968652,51.0602545 36.4507837,52.7853014 31.5373041,52.7853014 C20.1059561,52.7853014 10.7981191,43.4317417 10.7981191,31.931639 C10.7981191,20.443507 20.1059561,11.0899473 31.5373041,11.0899473 C40.3398119,11.0899473 47.8821317,16.6223202 50.8821317,24.4133831 L51.6225705,24.2646938 C48.5485893,16.1390802 40.6971787,10.3458712 31.5373041,10.3458712" id="Fill-2" fill="#FFFFFF"></path>
                <path d="M31.5373041,9.67550965 C37.5987461,9.67550965 43.09279,12.1194311 47.092163,16.0893072 L47.5611285,15.505891 C43.4257053,11.424498 37.7717868,8.91883276 31.5373041,8.91883276 C18.9090909,8.91883276 8.63761755,19.2407625 8.63761755,31.931639 C8.63761755,44.6225155 18.9090909,54.955786 31.5373041,54.955786 C33.5003135,54.955786 35.4012539,54.7075506 37.2163009,54.2482521 L36.9322884,53.5287475 C35.2037618,53.9634745 33.4018809,54.1991091 31.5373041,54.1991091 C19.3285266,54.1991091 9.39059561,44.2129902 9.39059561,31.931639 C9.39059561,19.6616286 19.3285266,9.67550965 31.5373041,9.67550965" id="Fill-3" fill="#FFFFFF"></path>
                <path d="M8.00815047,31.931639 L7.20564263,31.931639 C7.20564263,43.0341871 14.6125392,52.4501207 24.722884,55.4157145 L24.9203762,54.633206 C15.1561129,51.7558176 8.00815047,42.6738048 8.00815047,31.931639 Z M34.9448276,7.72805896 L34.845768,8.52190816 C46.277116,10.1348081 55.0789969,20.0220109 55.0789969,31.931639 C55.0789969,37.7746211 52.968652,43.1211325 49.462069,47.2522985 L50.1291536,47.6983662 C53.7210031,43.4317417 55.8815047,37.9352811 55.8815047,31.931639 C55.8815047,19.6124855 46.7711599,9.390732 34.9448276,7.72805896 L34.9448276,7.72805896 Z" id="Fill-4" fill="#FFFFFF" opacity="0.70265997"></path>
                <path d="M7.73667712,24.6616184 L6.92163009,24.4385846 C6.19310345,26.8081615 5.81065831,29.3257975 5.81065831,31.931639 C5.81065831,39.0643111 8.69905956,45.5398524 13.3661442,50.2046615 L13.9586207,49.6092746 C9.45266458,45.081184 6.66269592,38.8286765 6.66269592,31.931639 C6.66269592,29.4001421 7.03322884,26.9694515 7.73667712,24.6616184 Z M31.5373041,6.07735665 C27.1423197,6.07735665 22.9949843,7.19441588 19.3655172,9.1550974 L19.723511,9.93634582 C23.2420063,8.02606743 27.2664577,6.93420976 31.5373041,6.93420976 C45.2652038,6.93420976 56.4250784,18.1489048 56.4250784,31.931639 C56.4250784,43.2080779 48.968652,52.7600999 38.7473354,55.8617821 L38.9567398,56.6802028 C49.5492163,53.4802345 57.276489,43.6043724 57.276489,31.931639 C57.276489,17.6770056 45.7341693,6.07735665 31.5373041,6.07735665 L31.5373041,6.07735665 Z" id="Fill-5" fill="#FFFFFF" opacity="0.695800781"></path>
                <path d="M5.230721,31.931639 C5.230721,26.6834137 6.76112853,21.7962008 9.4031348,17.6896063 L8.63761755,17.2057363 C5.92163009,21.4610201 4.34169279,26.510153 4.34169279,31.931639 C4.34169279,41.1358794 8.8846395,49.2986653 15.8470219,54.2482521 L16.3780564,53.5287475 C9.63761755,48.7404508 5.230721,40.8511018 5.230721,31.931639 Z M31.5373041,4.6018052 C30.1793103,4.6018052 28.846395,4.70072133 27.537931,4.89981367 L27.6489028,5.77997822 L27.6363636,5.79320904 C28.907837,5.5941167 30.2169279,5.49520057 31.5373041,5.49520057 C46.0551724,5.49520057 57.8570533,17.3544256 57.8570533,31.931639 C57.8570533,37.8111634 55.9435737,43.2452502 52.6965517,47.6359923 L53.4250784,48.1576646 C56.7705329,43.6176033 58.7460815,38.0102557 58.7460815,31.931639 C58.7460815,16.8585848 46.5485893,4.6018052 31.5373041,4.6018052 L31.5373041,4.6018052 Z" id="Fill-6" fill="#FFFFFF" opacity="0.398879278"></path>
                <path d="M31.5373041,3.19996832 C15.7730408,3.19996832 2.94670846,16.0893072 2.94670846,31.931639 C2.94670846,45.1429278 11.8476489,56.2832782 23.9329154,59.6331958 L24.1673981,58.7145989 C12.4896552,55.4768282 3.88526646,44.6968601 3.88526646,31.931639 C3.88526646,16.6103494 16.2915361,4.14313678 31.5373041,4.14313678 C46.7962382,4.14313678 59.2025078,16.6103494 59.2025078,31.931639 C59.2025078,35.2305235 58.6219436,38.4065503 57.5730408,41.3469425 L58.4495298,41.644951 C59.5479624,38.6050126 60.1410658,35.3426704 60.1410658,31.931639 C60.1410658,16.0893072 47.3147335,3.19996832 31.5373041,3.19996832" id="Fill-7" fill="#FFFFFF" opacity="0.399390811"></path>
                <path d="M31.5373041,1.72378683 C14.9586207,1.72378683 1.47774295,15.2702564 1.47774295,31.931639 C1.47774295,48.5923916 14.9586207,62.1514619 31.5373041,62.1514619 C33.2658307,62.1514619 34.969279,62.0021427 36.6238245,61.7047642 L36.4137931,60.749625 L36.4137931,60.7363942 C34.8338558,61.0218019 33.2043887,61.1591504 31.5373041,61.1591504 C15.5134796,61.1591504 2.46520376,48.0461477 2.46520376,31.931639 C2.46520376,15.828471 15.5134796,2.71609833 31.5373041,2.71609833 C45.9931034,2.71609833 58.0169279,13.3725788 60.2514107,27.2661999 L61.2269592,27.1427122 C58.9435737,12.7526204 46.4996865,1.72378683 31.5373041,1.72378683" id="Fill-8" fill="#FFFFFF" opacity="0.303896949"></path>
                <path d="M31.5429467,1.27897927 C14.7210031,1.27897927 1.03573668,15.0314716 1.03573668,31.9366793 C1.03573668,48.840627 14.7210031,62.5937493 31.5429467,62.5937493 C48.3655172,62.5937493 62.0514107,48.840627 62.0514107,31.9366793 C62.0514107,15.0314716 48.3655172,1.27897927 31.5429467,1.27897927 Z M31.5429467,63.6339438 C14.1498433,63.6339438 0,49.4152226 0,31.9366793 C0,14.457506 14.1498433,0.23815476 31.5429467,0.23815476 C48.9366771,0.23815476 63.0871473,14.457506 63.0871473,31.9366793 C63.0871473,49.4152226 48.9366771,63.6339438 31.5429467,63.6339438 L31.5429467,63.6339438 Z" id="Fill-10" fill="#FFFFFF" opacity="0.302711124"></path>
                <path d="M77.1410658,18.5470895 L72.4194357,18.5470895 C72.3630094,18.5470895 72.3354232,18.5754412 72.3354232,18.6315147 L72.3354232,23.2074883 C72.3354232,23.2641918 72.3630094,23.2925436 72.4194357,23.2925436 L75.3153605,23.2925436 C75.4551724,23.2925436 75.5253918,23.3624779 75.5253918,23.5029766 L75.5253918,24.832359 C75.5253918,24.9722277 75.4551724,25.0427921 75.3153605,25.0427921 L72.4194357,25.0427921 C72.3630094,25.0427921 72.3354232,25.0711438 72.3354232,25.1272173 L72.3354232,29.7246122 C72.3354232,29.7813157 72.3630094,29.8090375 72.4194357,29.8090375 L77.1410658,29.8090375 C77.2808777,29.8090375 77.3510972,29.8796018 77.3510972,30.0201005 L77.3510972,31.3482228 C77.3510972,31.4893516 77.2808777,31.5592859 77.1410658,31.5592859 L70.5304075,31.5592859 C70.3905956,31.5592859 70.3203762,31.4893516 70.3203762,31.3482228 L70.3203762,17.0079041 C70.3203762,16.8674054 70.3905956,16.796841 70.5304075,16.796841 L77.1410658,16.796841 C77.2808777,16.796841 77.3510972,16.8674054 77.3510972,17.0079041 L77.3510972,18.3366564 C77.3510972,18.4771551 77.2808777,18.5470895 77.1410658,18.5470895" id="Fill-12" fill="#F3F5F7"></path>
                <path d="M81.9260188,27.2573793 L84.7172414,27.2573793 C84.7592476,27.2573793 84.7799373,27.2290276 84.7799373,27.172324 L83.3529781,19.6862001 C83.339185,19.6584784 83.3247649,19.6439875 83.3109718,19.6439875 C83.2965517,19.6439875 83.2827586,19.6584784 83.2689655,19.6862001 L81.8626959,27.172324 C81.8626959,27.2290276 81.8840125,27.2573793 81.9260188,27.2573793 Z M85.5987461,31.3696442 L85.1366771,28.9446239 C85.1366771,28.9162721 85.1260188,28.8954808 85.1053292,28.8809899 C85.0840125,28.8671291 85.0595611,28.8601986 85.0319749,28.8601986 L81.6112853,28.8601986 C81.5830721,28.8601986 81.5586207,28.8671291 81.537931,28.8809899 C81.5166144,28.8954808 81.5059561,28.9162721 81.5059561,28.9446239 L81.0652038,31.3696442 C81.0514107,31.496282 80.9742947,31.5592859 80.8344828,31.5592859 L79.2394984,31.5592859 C79.169279,31.5592859 79.1172414,31.5384946 79.0821317,31.496282 C79.0470219,31.4540694 79.0363636,31.3979959 79.0507837,31.3274316 L82.1780564,16.9864828 C82.2056426,16.8598449 82.2827586,16.796841 82.4087774,16.796841 L84.276489,16.796841 C84.415674,16.796841 84.49279,16.8598449 84.50721,16.9864828 L87.6551724,31.3274316 L87.6551724,31.3696442 C87.6551724,31.496282 87.5918495,31.5592859 87.4664577,31.5592859 L85.8294671,31.5592859 C85.7034483,31.5592859 85.6263323,31.496282 85.5987461,31.3696442 L85.5987461,31.3696442 Z" id="Fill-13" fill="#F3F5F7"></path>
                <path d="M91.4946708,18.6315147 L91.4946708,23.3555475 C91.4946708,23.412251 91.522884,23.4399727 91.5793103,23.4399727 L93.1322884,23.4399727 C93.7053292,23.4399727 94.1673981,23.218829 94.5172414,22.7759116 C94.8664577,22.3329941 95.0420063,21.7457977 95.0420063,21.0149524 C95.0420063,20.2557554 94.8664577,19.6546981 94.5172414,19.2117807 C94.1673981,18.7682332 93.7053292,18.5470895 93.1322884,18.5470895 L91.5793103,18.5470895 C91.522884,18.5470895 91.4946708,18.5754412 91.4946708,18.6315147 Z M95.0626959,31.3910655 L93.1322884,25.105796 C93.1178683,25.0642134 93.0896552,25.0427921 93.0476489,25.0427921 L91.5793103,25.0427921 C91.522884,25.0427921 91.4946708,25.0711438 91.4946708,25.1272173 L91.4946708,31.3482228 C91.4946708,31.4893516 91.4250784,31.5592859 91.2852665,31.5592859 L89.6902821,31.5592859 C89.5498433,31.5592859 89.4802508,31.4893516 89.4802508,31.3482228 L89.4802508,17.0079041 C89.4802508,16.8674054 89.5498433,16.796841 89.6902821,16.796841 L93.4470219,16.796841 C94.1605016,16.796841 94.7899687,16.9726219 95.3354232,17.3241837 C95.8808777,17.6757455 96.3040752,18.1709562 96.6050157,18.8110758 C96.9059561,19.4505655 97.0564263,20.1782606 97.0564263,20.9935311 C97.0564263,21.879366 96.8746082,22.6492737 96.5109718,23.3032542 C96.1467085,23.9566047 95.6501567,24.4310241 95.0206897,24.7265125 C94.9786834,24.7687251 94.9648903,24.8103077 94.9786834,24.8531503 L97.1197492,31.3274316 L97.1404389,31.4118568 C97.1404389,31.5101429 97.0777429,31.5592859 96.9517241,31.5592859 L95.3147335,31.5592859 C95.1887147,31.5592859 95.1047022,31.5032125 95.0626959,31.3910655 L95.0626959,31.3910655 Z" id="Fill-14" fill="#F3F5F7"></path>
                <path d="M106.521003,17.0079041 L106.521003,18.3366564 C106.521003,18.4771551 106.450784,18.5470895 106.311599,18.5470895 L103.561755,18.5470895 C103.505956,18.5470895 103.477743,18.5754412 103.477743,18.6315147 L103.477743,31.3482228 C103.477743,31.4893516 103.40815,31.5592859 103.268339,31.5592859 L101.672727,31.5592859 C101.533542,31.5592859 101.463323,31.4893516 101.463323,31.3482228 L101.463323,18.6315147 C101.463323,18.5754412 101.43511,18.5470895 101.379937,18.5470895 L98.7774295,18.5470895 C98.6369906,18.5470895 98.5673981,18.4771551 98.5673981,18.3366564 L98.5673981,17.0079041 C98.5673981,16.8674054 98.6369906,16.796841 98.7774295,16.796841 L106.311599,16.796841 C106.450784,16.796841 106.521003,16.8674054 106.521003,17.0079041" id="Fill-15" fill="#F3F5F7"></path>
                <path d="M114.265204,16.796841 L115.860188,16.796841 C116,16.796841 116.069592,16.8674054 116.069592,17.0079041 L116.069592,31.3482228 C116.069592,31.4893516 116,31.5592859 115.860188,31.5592859 L114.265204,31.5592859 C114.125392,31.5592859 114.055172,31.4893516 114.055172,31.3482228 L114.055172,25.1272173 C114.055172,25.0711438 114.026959,25.0427921 113.97116,25.0427921 L110.802508,25.0427921 C110.746082,25.0427921 110.718495,25.0711438 110.718495,25.1272173 L110.718495,31.3482228 C110.718495,31.4893516 110.648276,31.5592859 110.508464,31.5592859 L108.91348,31.5592859 C108.773041,31.5592859 108.703448,31.4893516 108.703448,31.3482228 L108.703448,17.0079041 C108.703448,16.8674054 108.773041,16.796841 108.91348,16.796841 L110.508464,16.796841 C110.648276,16.796841 110.718495,16.8674054 110.718495,17.0079041 L110.718495,23.2074883 C110.718495,23.2641918 110.746082,23.2925436 110.802508,23.2925436 L113.97116,23.2925436 C114.026959,23.2925436 114.055172,23.2641918 114.055172,23.2074883 L114.055172,17.0079041 C114.055172,16.8674054 114.125392,16.796841 114.265204,16.796841" id="Fill-16" fill="#F3F5F7"></path>
                <path d="M128.934169,16.796841 L130.529154,16.796841 C130.668339,16.796841 130.739185,16.8674054 130.739185,17.0079041 L130.739185,31.3482228 C130.739185,31.4893516 130.668339,31.5592859 130.529154,31.5592859 L128.934169,31.5592859 C128.794357,31.5592859 128.724138,31.4893516 128.724138,31.3482228 L128.724138,25.1272173 C128.724138,25.0711438 128.695925,25.0427921 128.640125,25.0427921 L125.471473,25.0427921 C125.415047,25.0427921 125.386834,25.0711438 125.386834,25.1272173 L125.386834,31.3482228 C125.386834,31.4893516 125.317241,31.5592859 125.178056,31.5592859 L123.583072,31.5592859 C123.442633,31.5592859 123.373041,31.4893516 123.373041,31.3482228 L123.373041,17.0079041 C123.373041,16.8674054 123.442633,16.796841 123.583072,16.796841 L125.178056,16.796841 C125.317241,16.796841 125.386834,16.8674054 125.386834,17.0079041 L125.386834,23.2074883 C125.386834,23.2641918 125.415047,23.2925436 125.471473,23.2925436 L128.640125,23.2925436 C128.695925,23.2925436 128.724138,23.2641918 128.724138,23.2074883 L128.724138,17.0079041 C128.724138,16.8674054 128.794357,16.796841 128.934169,16.796841" id="Fill-17" fill="#F3F5F7"></path>
                <path d="M138.712853,20.3817632 C138.712853,19.7920466 138.555486,19.3100668 138.240752,18.9370836 C137.926019,18.5647306 137.517241,18.378239 137.013166,18.378239 C136.509718,18.378239 136.100313,18.5647306 135.78558,18.9370836 C135.470846,19.3100668 135.314107,19.7920466 135.314107,20.3817632 L135.314107,27.9743637 C135.314107,28.5647103 135.470846,29.0466902 135.78558,29.4190433 C136.100313,29.7920264 136.509718,29.9778879 137.013166,29.9778879 C137.517241,29.9778879 137.926019,29.7920264 138.240752,29.4190433 C138.555486,29.0466902 138.712853,28.5647103 138.712853,27.9743637 L138.712853,20.3817632 Z M139.699687,17.7248885 C140.384953,18.4557338 140.7279,19.4121331 140.7279,20.5928263 L140.7279,27.7633007 C140.7279,28.7335608 140.489655,29.559542 140.015047,30.2412442 C139.538558,30.9229465 138.894671,31.3696442 138.083386,31.5800772 C138.042006,31.608429 138.02069,31.6437112 138.02069,31.6859238 L138.02069,33.6472353 C138.02069,33.787734 137.951097,33.8582984 137.811285,33.8582984 L136.194984,33.8582984 C136.055172,33.8582984 135.984953,33.787734 135.984953,33.6472353 L135.984953,31.6859238 C135.984953,31.6437112 135.964263,31.608429 135.922257,31.5800772 C135.110345,31.3557833 134.470846,30.9053054 134.001881,30.2311636 C133.532915,29.5563918 133.29906,28.7335608 133.29906,27.7633007 L133.29906,20.5928263 C133.29906,19.4121331 133.642006,18.4557338 134.327273,17.7248885 C135.012539,16.9940432 135.908464,16.6279905 137.013166,16.6279905 C138.118495,16.6279905 139.01442,16.9940432 139.699687,17.7248885 L139.699687,17.7248885 Z" id="Fill-18" fill="#F3F5F7"></path>
                <path d="M71.5780564,47.9434514 C71.1297806,47.5068343 70.9059561,46.9290885 70.9059561,46.2102139 L70.9059561,41.2158944 C70.9059561,40.4976499 71.1297806,39.9199041 71.5780564,39.482657 C72.0263323,39.0460399 72.6169279,38.8274164 73.3504702,38.8274164 C74.0833856,38.8274164 74.676489,39.0460399 75.1291536,39.482657 C75.5818182,39.9199041 75.8081505,40.5020602 75.8081505,41.2297553 L75.8081505,41.8024608 C75.8081505,41.8938164 75.7630094,41.9391792 75.6727273,41.9391792 L74.6407524,41.9391792 C74.5498433,41.9391792 74.5047022,41.8938164 74.5047022,41.8024608 L74.5047022,41.2020335 C74.5047022,40.8290504 74.3981191,40.5291518 74.1855799,40.3017077 C73.9724138,40.0742637 73.6940439,39.9602266 73.3504702,39.9602266 C73.0062696,39.9602266 72.7278997,40.0742637 72.5153605,40.3017077 C72.3021944,40.5291518 72.1962382,40.8290504 72.1962382,41.2020335 L72.1962382,46.2240748 C72.1962382,46.5970579 72.3021944,46.8975865 72.5153605,47.1244006 C72.7278997,47.3524747 73.0062696,47.4658818 73.3504702,47.4658818 C73.6940439,47.4658818 73.9724138,47.3524747 74.1855799,47.1244006 C74.3981191,46.8975865 74.5047022,46.5970579 74.5047022,46.2240748 L74.5047022,44.7233218 C74.5047022,44.6867795 74.4858934,44.6685084 74.4501567,44.6685084 L73.4181818,44.6685084 C73.3272727,44.6685084 73.2827586,44.6231456 73.2827586,44.5317899 L73.2827586,43.6856475 C73.2827586,43.5949219 73.3272727,43.549559 73.4181818,43.549559 L75.6727273,43.549559 C75.7630094,43.549559 75.8081505,43.5949219 75.8081505,43.6856475 L75.8081505,46.2102139 C75.8081505,46.9290885 75.5818182,47.5068343 75.1291536,47.9434514 C74.676489,48.3800684 74.0833856,48.5980619 73.3504702,48.5980619 C72.6169279,48.5980619 72.0263323,48.3800684 71.5780564,47.9434514" id="Fill-19" fill="#F3F5F7"></path>
                <path d="M161.387735,24.1079446 L161.387735,24.7875123 C161.387735,24.8593679 161.351823,24.8951347 161.280639,24.8951347 L159.874279,24.8951347 C159.845741,24.8951347 159.831312,24.9096347 159.831312,24.9383125 L159.831312,31.4420554 C159.831312,31.5142333 159.79572,31.55 159.724216,31.55 L158.908167,31.55 C158.836984,31.55 158.801071,31.5142333 158.801071,31.4420554 L158.801071,24.9383125 C158.801071,24.9096347 158.786642,24.8951347 158.758425,24.8951347 L157.427417,24.8951347 C157.355592,24.8951347 157.32,24.8593679 157.32,24.7875123 L157.32,24.1079446 C157.32,24.0360889 157.355592,24 157.427417,24 L161.280639,24 C161.351823,24 161.387735,24.0360889 161.387735,24.1079446" id="Fill-15-Copy" fill="#B7C2CC"></path>
                <path d="M150.592243,30.3095112 C150.781544,30.0869105 150.876691,29.77019 150.876691,29.3608436 C150.876691,28.9435295 150.783527,28.6183431 150.597694,28.3842886 C150.411366,28.1507321 150.153678,28.0342029 149.82463,28.0342029 L149.07337,28.0342029 C149.044628,28.0342029 149.030257,28.0481466 149.030257,28.0770299 L149.030257,30.6008344 C149.030257,30.6302157 149.044628,30.6441594 149.07337,30.6441594 L149.813727,30.6441594 C150.143271,30.6441594 150.402446,30.53261 150.592243,30.3095112 Z M149.030257,24.9382099 L149.030257,27.224972 C149.030257,27.2533573 149.044628,27.2682969 149.07337,27.2682969 L149.760208,27.2682969 C150.096689,27.2682969 150.357846,27.1657114 150.543678,26.9610382 C150.730007,26.755369 150.822675,26.4700218 150.822675,26.1035024 C150.822675,25.7220434 150.730007,25.4257404 150.543678,25.2135974 C150.357846,25.0014544 150.096689,24.8953829 149.760208,24.8953829 L149.07337,24.8953829 C149.044628,24.8953829 149.030257,24.9093266 149.030257,24.9382099 Z M151.353909,31.0106787 C150.985713,31.3707242 150.501061,31.55 149.899954,31.55 L148.107535,31.55 C148.03568,31.55 148,31.5141448 148,31.4424345 L148,24.1075655 C148,24.0358552 148.03568,24 148.107535,24 L149.749801,24 C150.400463,24 150.910388,24.17081 151.279081,24.5124299 C151.647277,24.8540499 151.831623,25.3520381 151.831623,26.0063947 C151.831623,26.7827584 151.556095,27.3185938 151.005039,27.6134028 C150.969359,27.6348163 150.96589,27.6527439 150.994633,27.6671855 C151.280567,27.8394895 151.504558,28.0810138 151.665117,28.3902645 C151.826172,28.6990172 151.906947,29.0660346 151.906947,29.4903206 C151.906947,30.1441791 151.722601,30.6516292 151.353909,31.0106787 L151.353909,31.0106787 Z" id="Fill-22" fill="#B7C2CC"></path>
                <path d="M163.173537,29.3493899 L164.600732,29.3493899 C164.622537,29.3493899 164.633439,29.3354462 164.633439,29.3065629 L163.903488,25.4775312 C163.896055,25.4635875 163.889117,25.4561177 163.881684,25.4561177 C163.874746,25.4561177 163.867808,25.4635875 163.860375,25.4775312 L163.141326,29.3065629 C163.141326,29.3354462 163.151733,29.3493899 163.173537,29.3493899 Z M165.051686,31.4528923 L164.815803,30.2129015 C164.815803,30.1979619 164.810352,30.1875041 164.799945,30.1800343 C164.789043,30.1735605 164.776654,30.1695765 164.761787,30.1695765 L163.012482,30.1695765 C162.998111,30.1695765 162.985226,30.1735605 162.97482,30.1800343 C162.964413,30.1875041 162.958962,30.1979619 162.958962,30.2129015 L162.733485,31.4528923 C162.726052,31.5176308 162.686903,31.55 162.615048,31.55 L161.799861,31.55 C161.764181,31.55 161.736926,31.5395422 161.719086,31.5176308 C161.701246,31.4962173 161.695795,31.4673339 161.703228,31.4314788 L163.302381,24.0971077 C163.316256,24.0323692 163.356396,24 163.420323,24 L164.375751,24 C164.447111,24 164.486755,24.0323692 164.493693,24.0971077 L166.103252,31.4314788 L166.103252,31.4528923 C166.103252,31.5176308 166.071536,31.55 166.007114,31.55 L165.170124,31.55 C165.105702,31.55 165.066057,31.5176308 165.051686,31.4528923 L165.051686,31.4528923 Z" id="Fill-32-Copy" fill="#B7C2CC"></path>
                <path d="M156.4087,24.8953829 L153.99337,24.8953829 C153.965123,24.8953829 153.950752,24.9093266 153.950752,24.9382099 L153.950752,27.2787547 C153.950752,27.307638 153.965123,27.3220797 153.99337,27.3220797 L155.474581,27.3220797 C155.546436,27.3220797 155.582116,27.3579348 155.582116,27.4301431 L155.582116,28.1093991 C155.582116,28.1816074 155.546436,28.2174626 155.474581,28.2174626 L153.99337,28.2174626 C153.965123,28.2174626 153.950752,28.2314062 153.950752,28.2602896 L153.950752,30.6117901 C153.950752,30.6406734 153.965123,30.6546171 153.99337,30.6546171 L156.4087,30.6546171 C156.48006,30.6546171 156.51574,30.6909703 156.51574,30.7626806 L156.51574,31.4424345 C156.51574,31.5141448 156.48006,31.55 156.4087,31.55 L153.027535,31.55 C152.95568,31.55 152.92,31.5141448 152.92,31.4424345 L152.92,24.1075655 C152.92,24.0358552 152.95568,24 153.027535,24 L156.4087,24 C156.48006,24 156.51574,24.0358552 156.51574,24.1075655 L156.51574,24.7873194 C156.51574,24.8595277 156.48006,24.8953829 156.4087,24.8953829" id="Fill-39-Copy" fill="#B7C2CC"></path>
                <path d="M77.2338558,48.3529767 L77.2338558,39.0731316 C77.2338558,38.982406 77.2789969,38.9370432 77.369906,38.9370432 L78.4018809,38.9370432 C78.492163,38.9370432 78.5373041,38.982406 78.5373041,39.0731316 L78.5373041,47.3020716 C78.5373041,47.3386139 78.5554859,47.356255 78.5918495,47.356255 L81.6332288,47.356255 C81.723511,47.356255 81.769279,47.4022478 81.769279,47.4929734 L81.769279,48.3529767 C81.769279,48.4437024 81.723511,48.4890652 81.6332288,48.4890652 L77.369906,48.4890652 C77.2789969,48.4890652 77.2338558,48.4437024 77.2338558,48.3529767" id="Fill-20" fill="#F3F5F7"></path>
                <path d="M85.815674,47.1042393 C86.0332288,46.8629344 86.1416928,46.5466548 86.1416928,46.1554005 L86.1416928,41.2700778 C86.1416928,40.8794536 86.0332288,40.563174 85.815674,40.321869 C85.5987461,40.0811941 85.3090909,39.9602266 84.9467085,39.9602266 C84.5937304,39.9602266 84.3103448,40.0811941 84.0984326,40.321869 C83.8852665,40.563174 83.7793103,40.8794536 83.7793103,41.2700778 L83.7793103,46.1554005 C83.7793103,46.5466548 83.8852665,46.8629344 84.0984326,47.1042393 C84.3103448,47.3455443 84.5937304,47.4658818 84.9467085,47.4658818 C85.3090909,47.4658818 85.5987461,47.3455443 85.815674,47.1042393 Z M83.154232,47.9157296 C82.7015674,47.4614715 82.4752351,46.856634 82.4752351,46.1012172 L82.4752351,41.338752 C82.4752351,40.5833352 82.7015674,39.9766076 83.154232,39.5166791 C83.6068966,39.0580107 84.2043887,38.8274164 84.9467085,38.8274164 C85.6984326,38.8274164 86.3028213,39.0580107 86.7598746,39.5166791 C87.2169279,39.9766076 87.4451411,40.5833352 87.4451411,41.338752 L87.4451411,46.1012172 C87.4451411,46.856634 87.2169279,47.4614715 86.7598746,47.9157296 C86.3028213,48.3712479 85.6984326,48.5980619 84.9467085,48.5980619 C84.2043887,48.5980619 83.6068966,48.3712479 83.154232,47.9157296 L83.154232,47.9157296 Z" id="Fill-21" fill="#F3F5F7"></path>
                <path d="M92.1510972,46.9196379 C92.3905956,46.6380104 92.5109718,46.2373056 92.5109718,45.7194135 C92.5109718,45.1914408 92.3931034,44.7800253 92.1579937,44.4839069 C91.9222571,44.1884186 91.5962382,44.0409895 91.1799373,44.0409895 L90.2294671,44.0409895 C90.1931034,44.0409895 90.1749216,44.0586306 90.1749216,44.0951729 L90.1749216,47.2882107 C90.1749216,47.3253831 90.1931034,47.3430241 90.2294671,47.3430241 L91.1661442,47.3430241 C91.5830721,47.3430241 91.9109718,47.2018954 92.1510972,46.9196379 Z M90.1749216,40.1240367 L90.1749216,43.017176 C90.1749216,43.0530883 90.1931034,43.0719894 90.2294671,43.0719894 L91.0984326,43.0719894 C91.5241379,43.0719894 91.8545455,42.9422014 92.0896552,42.6832553 C92.3253918,42.4230492 92.4426332,42.0620368 92.4426332,41.5983281 C92.4426332,41.1157182 92.3253918,40.740845 92.0896552,40.4724483 C91.8545455,40.2040517 91.5241379,40.0698534 91.0984326,40.0698534 L90.2294671,40.0698534 C90.1931034,40.0698534 90.1749216,40.0874945 90.1749216,40.1240367 Z M93.1147335,47.8067329 C92.6489028,48.2622511 92.0357367,48.4890652 91.2752351,48.4890652 L89.0075235,48.4890652 C88.9166144,48.4890652 88.8714734,48.4437024 88.8714734,48.3529767 L88.8714734,39.0731316 C88.8714734,38.982406 88.9166144,38.9370432 89.0075235,38.9370432 L91.0852665,38.9370432 C91.9084639,38.9370432 92.553605,39.1531466 93.0200627,39.5853534 C93.4858934,40.0175601 93.7191223,40.6475992 93.7191223,41.4754705 C93.7191223,42.4577014 93.3705329,43.1356234 92.6733542,43.5086065 C92.6282132,43.5356982 92.6238245,43.5583796 92.6601881,43.5766507 C93.0219436,43.7946442 93.3053292,44.1002132 93.5084639,44.4914674 C93.7122257,44.8820916 93.8144201,45.3464304 93.8144201,45.8832237 C93.8144201,46.7104649 93.5811912,47.3524747 93.1147335,47.8067329 L93.1147335,47.8067329 Z" id="Fill-22" fill="#F3F5F7"></path>
                <path d="M95.9059561,45.7049226 L97.7115987,45.7049226 C97.738558,45.7049226 97.7523511,45.6872815 97.7523511,45.6507393 L96.8288401,40.806369 C96.8200627,40.7887279 96.8106583,40.7792773 96.8018809,40.7792773 C96.7931034,40.7792773 96.7836991,40.7887279 96.7749216,40.806369 L95.8652038,45.6507393 C95.8652038,45.6872815 95.8783699,45.7049226 95.9059561,45.7049226 Z M98.2821317,48.3662076 L97.9830721,46.7974103 C97.9830721,46.7785092 97.9761755,46.7652783 97.9630094,46.7558278 C97.9492163,46.7476372 97.9335423,46.7425969 97.9153605,46.7425969 L95.7015674,46.7425969 C95.6840125,46.7425969 95.6677116,46.7476372 95.6545455,46.7558278 C95.6407524,46.7652783 95.6338558,46.7785092 95.6338558,46.7974103 L95.3485893,48.3662076 C95.3398119,48.4481126 95.2896552,48.4890652 95.199373,48.4890652 L94.1673981,48.4890652 C94.1222571,48.4890652 94.0884013,48.4758344 94.0652038,48.4481126 C94.0426332,48.421021 94.0363636,48.3844787 94.0451411,48.3391159 L96.0683386,39.0599008 C96.0865204,38.9779957 96.1366771,38.9370432 96.2181818,38.9370432 L97.4263323,38.9370432 C97.5166144,38.9370432 97.5667712,38.9779957 97.5761755,39.0599008 L99.6125392,48.3391159 L99.6125392,48.3662076 C99.6125392,48.4481126 99.5717868,48.4890652 99.4902821,48.4890652 L98.431348,48.4890652 C98.3498433,48.4890652 98.2996865,48.4481126 98.2821317,48.3662076 L98.2821317,48.3662076 Z" id="Fill-23" fill="#F3F5F7"></path>
                <path d="M100.563009,48.3529767 L100.563009,39.0731316 C100.563009,38.982406 100.608777,38.9370432 100.69906,38.9370432 L101.731034,38.9370432 C101.821317,38.9370432 101.867085,38.982406 101.867085,39.0731316 L101.867085,47.3020716 C101.867085,47.3386139 101.884639,47.356255 101.921003,47.356255 L104.962382,47.356255 C105.053292,47.356255 105.098433,47.4022478 105.098433,47.4929734 L105.098433,48.3529767 C105.098433,48.4437024 105.053292,48.4890652 104.962382,48.4890652 L100.69906,48.4890652 C100.608777,48.4890652 100.563009,48.4437024 100.563009,48.3529767" id="Fill-24" fill="#F3F5F7"></path>
                <path d="M109.151724,47.9232901 C108.703448,47.4728122 108.479624,46.8749051 108.479624,46.1283089 L108.479624,41.2839386 C108.479624,40.5379724 108.703448,39.9425855 109.151724,39.4965178 C109.6,39.0510802 110.190596,38.8274164 110.924138,38.8274164 C111.666458,38.8274164 112.261442,39.0510802 112.709718,39.4965178 C113.157994,39.9425855 113.381818,40.5379724 113.381818,41.2839386 L113.381818,41.5019321 C113.381818,41.5932878 113.336677,41.6386506 113.245768,41.6386506 L112.21442,41.693464 C112.123511,41.693464 112.07837,41.6481012 112.07837,41.5567455 L112.07837,41.2020335 C112.07837,40.8290504 111.971787,40.5291518 111.759248,40.3017077 C111.546082,40.0742637 111.267712,39.9602266 110.924138,39.9602266 C110.57931,39.9602266 110.304075,40.0742637 110.095925,40.3017077 C109.887147,40.5291518 109.783699,40.8290504 109.783699,41.2020335 L109.783699,46.2240748 C109.783699,46.5970579 109.887147,46.8975865 110.095925,47.1244006 C110.304075,47.3524747 110.57931,47.4658818 110.924138,47.4658818 C111.267712,47.4658818 111.546082,47.3524747 111.759248,47.1244006 C111.971787,46.8975865 112.07837,46.5970579 112.07837,46.2240748 L112.07837,45.8693628 C112.07837,45.7786372 112.123511,45.7326443 112.21442,45.7326443 L113.245768,45.7874577 C113.336677,45.7874577 113.381818,45.8334506 113.381818,45.9235462 L113.381818,46.1283089 C113.381818,46.8749051 113.157994,47.4728122 112.709718,47.9232901 C112.261442,48.373138 111.666458,48.5980619 110.924138,48.5980619 C110.190596,48.5980619 109.6,48.373138 109.151724,47.9232901" id="Fill-25" fill="#F3F5F7"></path>
                <path d="M117.890282,47.1042393 C118.107837,46.8629344 118.216301,46.5466548 118.216301,46.1554005 L118.216301,41.2700778 C118.216301,40.8794536 118.107837,40.563174 117.890282,40.321869 C117.673354,40.0811941 117.383699,39.9602266 117.021317,39.9602266 C116.668339,39.9602266 116.384953,40.0811941 116.172414,40.321869 C115.959875,40.563174 115.853292,40.8794536 115.853292,41.2700778 L115.853292,46.1554005 C115.853292,46.5466548 115.959875,46.8629344 116.172414,47.1042393 C116.384953,47.3455443 116.668339,47.4658818 117.021317,47.4658818 C117.383699,47.4658818 117.673354,47.3455443 117.890282,47.1042393 Z M115.22884,47.9157296 C114.776176,47.4614715 114.549843,46.856634 114.549843,46.1012172 L114.549843,41.338752 C114.549843,40.5833352 114.776176,39.9766076 115.22884,39.5166791 C115.681505,39.0580107 116.278997,38.8274164 117.021317,38.8274164 C117.773041,38.8274164 118.377429,39.0580107 118.833856,39.5166791 C119.291536,39.9766076 119.519749,40.5833352 119.519749,41.338752 L119.519749,46.1012172 C119.519749,46.856634 119.291536,47.4614715 118.833856,47.9157296 C118.377429,48.3712479 117.773041,48.5980619 117.021317,48.5980619 C116.278997,48.5980619 115.681505,48.3712479 115.22884,47.9157296 L115.22884,47.9157296 Z" id="Fill-26" fill="#F3F5F7"></path>
                <path d="M125.332288,38.9370432 L126.363636,38.9370432 C126.454545,38.9370432 126.499687,38.982406 126.499687,39.0731316 L126.499687,48.3529767 C126.499687,48.4437024 126.454545,48.4890652 126.363636,48.4890652 L125.332288,48.4890652 C125.241379,48.4890652 125.196238,48.4437024 125.196238,48.3529767 L125.196238,41.5838372 C125.196238,41.5567455 125.189342,41.5435147 125.176176,41.5435147 C125.161755,41.5435147 125.146082,41.5529653 125.1279,41.5706064 L123.824451,44.0132678 C123.796865,44.0769017 123.75674,44.1090337 123.702194,44.1090337 C123.647649,44.1090337 123.607524,44.0769017 123.580564,44.0132678 L122.290282,41.5838372 C122.2721,41.5661961 122.255799,41.5567455 122.242633,41.5567455 C122.22884,41.5567455 122.222571,41.5706064 122.222571,41.5983281 L122.222571,48.3529767 C122.222571,48.4437024 122.176803,48.4890652 122.08652,48.4890652 L121.053918,48.4890652 C120.963636,48.4890652 120.918495,48.4437024 120.918495,48.3529767 L120.918495,39.0731316 C120.918495,38.982406 120.963636,38.9370432 121.053918,38.9370432 L122.08652,38.9370432 C122.149216,38.9370432 122.203762,38.9691752 122.24953,39.0328091 L123.675235,41.5983281 C123.684013,41.6071487 123.697806,41.6115589 123.715361,41.6115589 C123.734169,41.6115589 123.747335,41.6071487 123.75674,41.5983281 L125.169279,39.0328091 C125.204389,38.9691752 125.258934,38.9370432 125.332288,38.9370432" id="Fill-27" fill="#F3F5F7"></path>
                <path d="M132.461442,38.9370432 L133.49279,38.9370432 C133.583699,38.9370432 133.62884,38.982406 133.62884,39.0731316 L133.62884,48.3529767 C133.62884,48.4437024 133.583699,48.4890652 133.49279,48.4890652 L132.461442,48.4890652 C132.370533,48.4890652 132.325392,48.4437024 132.325392,48.3529767 L132.325392,41.5838372 C132.325392,41.5567455 132.318495,41.5435147 132.305329,41.5435147 C132.290909,41.5435147 132.275235,41.5529653 132.25768,41.5706064 L130.953605,44.0132678 C130.926019,44.0769017 130.885893,44.1090337 130.831348,44.1090337 C130.776803,44.1090337 130.736677,44.0769017 130.709718,44.0132678 L129.419436,41.5838372 C129.401254,41.5661961 129.384953,41.5567455 129.371787,41.5567455 C129.357994,41.5567455 129.351724,41.5706064 129.351724,41.5983281 L129.351724,48.3529767 C129.351724,48.4437024 129.305956,48.4890652 129.215674,48.4890652 L128.183072,48.4890652 C128.09279,48.4890652 128.047649,48.4437024 128.047649,48.3529767 L128.047649,39.0731316 C128.047649,38.982406 128.09279,38.9370432 128.183072,38.9370432 L129.215674,38.9370432 C129.278997,38.9370432 129.332915,38.9691752 129.378683,39.0328091 L130.804389,41.5983281 C130.813166,41.6071487 130.826959,41.6115589 130.845141,41.6115589 C130.863323,41.6115589 130.876489,41.6071487 130.885893,41.5983281 L132.298433,39.0328091 C132.334169,38.9691752 132.388088,38.9370432 132.461442,38.9370432" id="Fill-28" fill="#F3F5F7"></path>
                <path d="M138.354232,47.1042393 C138.571787,46.8629344 138.680878,46.5466548 138.680878,46.1554005 L138.680878,41.2700778 C138.680878,40.8794536 138.571787,40.563174 138.354232,40.321869 C138.137304,40.0811941 137.847649,39.9602266 137.485266,39.9602266 C137.132288,39.9602266 136.84953,40.0811941 136.636991,40.321869 C136.423824,40.563174 136.317868,40.8794536 136.317868,41.2700778 L136.317868,46.1554005 C136.317868,46.5466548 136.423824,46.8629344 136.636991,47.1042393 C136.84953,47.3455443 137.132288,47.4658818 137.485266,47.4658818 C137.847649,47.4658818 138.137304,47.3455443 138.354232,47.1042393 Z M135.69279,47.9157296 C135.240125,47.4614715 135.013793,46.856634 135.013793,46.1012172 L135.013793,41.338752 C135.013793,40.5833352 135.240125,39.9766076 135.69279,39.5166791 C136.145455,39.0580107 136.742947,38.8274164 137.485266,38.8274164 C138.236991,38.8274164 138.840752,39.0580107 139.298433,39.5166791 C139.754859,39.9766076 139.984326,40.5833352 139.984326,41.338752 L139.984326,46.1012172 C139.984326,46.856634 139.754859,47.4614715 139.298433,47.9157296 C138.840752,48.3712479 138.236991,48.5980619 137.485266,48.5980619 C136.742947,48.5980619 136.145455,48.3712479 135.69279,47.9157296 L135.69279,47.9157296 Z" id="Fill-29" fill="#F3F5F7"></path>
                <path d="M145.374922,38.9370432 L146.39373,38.9370432 C146.484013,38.9370432 146.529154,38.982406 146.529154,39.0731316 L146.529154,48.3529767 C146.529154,48.4437024 146.484013,48.4890652 146.39373,48.4890652 L145.225705,48.4890652 C145.153605,48.4890652 145.104075,48.4531529 145.076489,48.3800684 L142.768025,42.1439419 C142.759248,42.1256708 142.745455,42.1187404 142.727273,42.1237807 C142.708464,42.1281909 142.700313,42.1389016 142.700313,42.1578028 L142.71348,48.3529767 C142.71348,48.4437024 142.668339,48.4890652 142.577429,48.4890652 L141.546082,48.4890652 C141.455172,48.4890652 141.410031,48.4437024 141.410031,48.3529767 L141.410031,39.0731316 C141.410031,38.982406 141.455172,38.9370432 141.546082,38.9370432 L142.700313,38.9370432 C142.772414,38.9370432 142.821944,38.9735854 142.84953,39.0460399 L145.17116,45.2821664 C145.180564,45.3092581 145.19373,45.3212288 145.212539,45.3161885 C145.230094,45.3117783 145.239498,45.2960273 145.239498,45.2689356 L145.239498,39.0731316 C145.239498,38.982406 145.284639,38.9370432 145.374922,38.9370432" id="Fill-30" fill="#F3F5F7"></path>
                <path d="M148.47837,47.9232901 C148.038245,47.4728122 147.819436,46.8837257 147.819436,46.1554005 L147.819436,45.8013186 C147.819436,45.7099629 147.864577,45.6646001 147.955486,45.6646001 L148.959875,45.6646001 C149.050784,45.6646001 149.095925,45.7099629 149.095925,45.8013186 L149.095925,46.0873563 C149.095925,46.5063323 149.2,46.840253 149.40815,47.0910085 C149.616301,47.340504 149.883386,47.4658818 150.209404,47.4658818 C150.535423,47.4658818 150.805016,47.3455443 151.016928,47.1042393 C151.229467,46.8629344 151.33605,46.5466548 151.33605,46.1554005 C151.33605,45.8920442 151.279624,45.6601898 151.166771,45.4598374 C151.053292,45.259485 150.904075,45.0799239 150.718495,44.920524 C150.532915,44.7617542 150.231348,44.5273796 149.815047,44.2180305 C149.353605,43.872139 148.99185,43.5766507 148.729154,43.3309355 C148.466458,43.0852203 148.245141,42.7897319 148.063323,42.4444705 C147.882132,42.0985791 147.792476,41.693464 147.792476,41.2297553 C147.792476,40.4926096 148.010031,39.9079333 148.443887,39.4763566 C148.87837,39.0441498 149.444514,38.8274164 150.141693,38.8274164 C150.865204,38.8274164 151.447022,39.0599008 151.88652,39.5236095 C152.325392,39.9873183 152.544828,40.5971961 152.544828,41.3519828 L152.544828,41.693464 C152.544828,41.7848197 152.499687,41.8301825 152.409404,41.8301825 L151.404389,41.8301825 C151.31348,41.8301825 151.268966,41.7848197 151.268966,41.693464 L151.268966,41.3248912 C151.268966,40.9159958 151.164263,40.5858554 150.956113,40.3357299 C150.747962,40.0856044 150.476489,39.9602266 150.141693,39.9602266 C149.824451,39.9602266 149.566771,40.0717435 149.367398,40.2947773 C149.168025,40.5178111 149.068966,40.8290504 149.068966,41.2297553 C149.068966,41.5932878 149.168025,41.9001168 149.367398,42.1508724 C149.566771,42.4009979 149.951097,42.7355486 150.52163,43.1538945 C151.065204,43.5627899 151.474608,43.8948204 151.75047,44.1499863 C152.026959,44.404522 152.239498,44.6842594 152.388715,44.9891983 C152.537931,45.2941372 152.612539,45.6551495 152.612539,46.0734955 C152.612539,46.8377328 152.391223,47.4501308 151.947335,47.9087992 C151.504075,48.3687277 150.924138,48.5980619 150.209404,48.5980619 C149.494044,48.5980619 148.917241,48.373138 148.47837,47.9232901" id="Fill-31" fill="#F3F5F7"></path>
                <path d="M157.704702,45.7049226 L159.510345,45.7049226 C159.537931,45.7049226 159.551724,45.6872815 159.551724,45.6507393 L158.628213,40.806369 C158.618809,40.7887279 158.610031,40.7792773 158.600627,40.7792773 C158.59185,40.7792773 158.583072,40.7887279 158.573668,40.806369 L157.66395,45.6507393 C157.66395,45.6872815 157.677116,45.7049226 157.704702,45.7049226 Z M160.080878,48.3662076 L159.782445,46.7974103 C159.782445,46.7785092 159.775549,46.7652783 159.762382,46.7558278 C159.748589,46.7476372 159.732915,46.7425969 159.714107,46.7425969 L157.50094,46.7425969 C157.482759,46.7425969 157.466458,46.7476372 157.453292,46.7558278 C157.440125,46.7652783 157.433229,46.7785092 157.433229,46.7974103 L157.147962,48.3662076 C157.138558,48.4481126 157.089028,48.4890652 156.998119,48.4890652 L155.966771,48.4890652 C155.92163,48.4890652 155.887147,48.4758344 155.864577,48.4481126 C155.842006,48.421021 155.83511,48.3844787 155.844514,48.3391159 L157.867712,39.0599008 C157.885266,38.9779957 157.93605,38.9370432 158.016928,38.9370432 L159.225705,38.9370432 C159.315987,38.9370432 159.366144,38.9779957 159.374922,39.0599008 L161.411285,48.3391159 L161.411285,48.3662076 C161.411285,48.4481126 161.37116,48.4890652 161.289655,48.4890652 L160.230721,48.4890652 C160.149216,48.4890652 160.09906,48.4481126 160.080878,48.3662076 L160.080878,48.3662076 Z" id="Fill-32" fill="#F3F5F7"></path>
                <path d="M162.362382,48.3529767 L162.362382,39.0731316 C162.362382,38.982406 162.407524,38.9370432 162.498433,38.9370432 L163.529781,38.9370432 C163.62069,38.9370432 163.665831,38.982406 163.665831,39.0731316 L163.665831,47.3020716 C163.665831,47.3386139 163.684013,47.356255 163.720376,47.356255 L166.762382,47.356255 C166.852038,47.356255 166.897806,47.4022478 166.897806,47.4929734 L166.897806,48.3529767 C166.897806,48.4437024 166.852038,48.4890652 166.762382,48.4890652 L162.498433,48.4890652 C162.407524,48.4890652 162.362382,48.4437024 162.362382,48.3529767" id="Fill-33" fill="#F3F5F7"></path>
                <path d="M167.821317,48.3529767 L167.821317,39.0731316 C167.821317,38.982406 167.866458,38.9370432 167.957367,38.9370432 L168.989342,38.9370432 C169.079624,38.9370432 169.125392,38.982406 169.125392,39.0731316 L169.125392,47.3020716 C169.125392,47.3386139 169.143574,47.356255 169.17931,47.356255 L172.221317,47.356255 C172.311599,47.356255 172.35674,47.4022478 172.35674,47.4929734 L172.35674,48.3529767 C172.35674,48.4437024 172.311599,48.4890652 172.221317,48.4890652 L167.957367,48.4890652 C167.866458,48.4890652 167.821317,48.4437024 167.821317,48.3529767" id="Fill-34" fill="#F3F5F7"></path>
                <path d="M173.280251,48.3529767 L173.280251,39.0731316 C173.280251,38.982406 173.325392,38.9370432 173.416301,38.9370432 L174.448276,38.9370432 C174.538558,38.9370432 174.584326,38.982406 174.584326,39.0731316 L174.584326,48.3529767 C174.584326,48.4437024 174.538558,48.4890652 174.448276,48.4890652 L173.416301,48.4890652 C173.325392,48.4890652 173.280251,48.4437024 173.280251,48.3529767" id="Fill-35" fill="#F3F5F7"></path>
                <path d="M177.394984,45.7049226 L179.201254,45.7049226 C179.227586,45.7049226 179.241379,45.6872815 179.241379,45.6507393 L178.317868,40.806369 C178.309091,40.7887279 178.299687,40.7792773 178.290909,40.7792773 C178.282132,40.7792773 178.272727,40.7887279 178.26395,40.806369 L177.354232,45.6507393 C177.354232,45.6872815 177.368025,45.7049226 177.394984,45.7049226 Z M179.77116,48.3662076 L179.4721,46.7974103 C179.4721,46.7785092 179.465204,46.7652783 179.452038,46.7558278 C179.438245,46.7476372 179.422571,46.7425969 179.405016,46.7425969 L177.190596,46.7425969 C177.173041,46.7425969 177.157367,46.7476372 177.143574,46.7558278 C177.130408,46.7652783 177.123511,46.7785092 177.123511,46.7974103 L176.838245,48.3662076 C176.82884,48.4481126 176.778683,48.4890652 176.689028,48.4890652 L175.656426,48.4890652 C175.611285,48.4890652 175.577429,48.4758344 175.554859,48.4481126 C175.532288,48.421021 175.525392,48.3844787 175.534796,48.3391159 L177.557367,39.0599008 C177.576176,38.9779957 177.625705,38.9370432 177.70721,38.9370432 L178.915361,38.9370432 C179.00627,38.9370432 179.055799,38.9779957 179.065204,39.0599008 L181.102194,48.3391159 L181.102194,48.3662076 C181.102194,48.4481126 181.060815,48.4890652 180.97931,48.4890652 L179.920376,48.4890652 C179.838871,48.4890652 179.789342,48.4481126 179.77116,48.3662076 L179.77116,48.3662076 Z" id="Fill-36" fill="#F3F5F7"></path>
                <path d="M186.018182,38.9370432 L187.036364,38.9370432 C187.126646,38.9370432 187.171787,38.982406 187.171787,39.0731316 L187.171787,48.3529767 C187.171787,48.4437024 187.126646,48.4890652 187.036364,48.4890652 L185.868339,48.4890652 C185.795611,48.4890652 185.746082,48.4531529 185.719122,48.3800684 L183.410031,42.1439419 C183.401254,42.1256708 183.387461,42.1187404 183.369906,42.1237807 C183.351724,42.1281909 183.34232,42.1389016 183.34232,42.1578028 L183.356113,48.3529767 C183.356113,48.4437024 183.310345,48.4890652 183.22069,48.4890652 L182.188088,48.4890652 C182.097806,48.4890652 182.052038,48.4437024 182.052038,48.3529767 L182.052038,39.0731316 C182.052038,38.982406 182.097806,38.9370432 182.188088,38.9370432 L183.34232,38.9370432 C183.415047,38.9370432 183.464577,38.9735854 183.491536,39.0460399 L185.813793,45.2821664 C185.822571,45.3092581 185.836364,45.3212288 185.854545,45.3161885 C185.872727,45.3117783 185.882132,45.2960273 185.882132,45.2689356 L185.882132,39.0731316 C185.882132,38.982406 185.927273,38.9370432 186.018182,38.9370432" id="Fill-37" fill="#F3F5F7"></path>
                <path d="M189.269592,47.9232901 C188.821317,47.4728122 188.597492,46.8749051 188.597492,46.1283089 L188.597492,41.2839386 C188.597492,40.5379724 188.821317,39.9425855 189.269592,39.4965178 C189.717868,39.0510802 190.308464,38.8274164 191.042006,38.8274164 C191.784326,38.8274164 192.37931,39.0510802 192.827586,39.4965178 C193.275862,39.9425855 193.499687,40.5379724 193.499687,41.2839386 L193.499687,41.5019321 C193.499687,41.5932878 193.454545,41.6386506 193.363636,41.6386506 L192.332288,41.693464 C192.241379,41.693464 192.196238,41.6481012 192.196238,41.5567455 L192.196238,41.2020335 C192.196238,40.8290504 192.089655,40.5291518 191.877116,40.3017077 C191.66395,40.0742637 191.38558,39.9602266 191.042006,39.9602266 C190.697179,39.9602266 190.421944,40.0742637 190.213793,40.3017077 C190.005016,40.5291518 189.901567,40.8290504 189.901567,41.2020335 L189.901567,46.2240748 C189.901567,46.5970579 190.005016,46.8975865 190.213793,47.1244006 C190.421944,47.3524747 190.697179,47.4658818 191.042006,47.4658818 C191.38558,47.4658818 191.66395,47.3524747 191.877116,47.1244006 C192.089655,46.8975865 192.196238,46.5970579 192.196238,46.2240748 L192.196238,45.8693628 C192.196238,45.7786372 192.241379,45.7326443 192.332288,45.7326443 L193.363636,45.7874577 C193.454545,45.7874577 193.499687,45.8334506 193.499687,45.9235462 L193.499687,46.1283089 C193.499687,46.8749051 193.275862,47.4728122 192.827586,47.9232901 C192.37931,48.373138 191.784326,48.5980619 191.042006,48.5980619 C190.308464,48.5980619 189.717868,48.373138 189.269592,47.9232901" id="Fill-38" fill="#F3F5F7"></path>
                <path d="M199.271473,40.0698534 L196.215674,40.0698534 C196.179937,40.0698534 196.161755,40.0874945 196.161755,40.1240367 L196.161755,43.0852203 C196.161755,43.1217625 196.179937,43.1400337 196.215674,43.1400337 L198.089655,43.1400337 C198.180564,43.1400337 198.225705,43.1853965 198.225705,43.2767521 L198.225705,44.1361254 C198.225705,44.2274811 198.180564,44.2728439 198.089655,44.2728439 L196.215674,44.2728439 C196.179937,44.2728439 196.161755,44.290485 196.161755,44.3270272 L196.161755,47.3020716 C196.161755,47.3386139 196.179937,47.356255 196.215674,47.356255 L199.271473,47.356255 C199.361755,47.356255 199.406897,47.4022478 199.406897,47.4929734 L199.406897,48.3529767 C199.406897,48.4437024 199.361755,48.4890652 199.271473,48.4890652 L194.99373,48.4890652 C194.902821,48.4890652 194.85768,48.4437024 194.85768,48.3529767 L194.85768,39.0731316 C194.85768,38.982406 194.902821,38.9370432 194.99373,38.9370432 L199.271473,38.9370432 C199.361755,38.9370432 199.406897,38.982406 199.406897,39.0731316 L199.406897,39.9331349 C199.406897,40.0244906 199.361755,40.0698534 199.271473,40.0698534" id="Fill-39" fill="#F3F5F7"></path>
            </g>
        </g>
    </g>
</svg>