<svg width="201" height="64" viewBox="0 0 201 64" fill="none" xmlns="http://www.w3.org/2000/svg">
<path opacity="0.795201" fill-rule="evenodd" clip-rule="evenodd" d="M31.5429 12.3045C20.7718 12.3045 12.0082 21.1118 12.0082 31.9365C12.0082 42.7612 20.7718 51.5673 31.5429 51.5673C42.3147 51.5673 51.079 42.7612 51.079 31.9365C51.079 21.1118 42.3147 12.3045 31.5429 12.3045ZM31.5429 52.3113C20.3636 52.3113 11.2683 43.172 11.2683 31.9365C11.2683 20.701 20.3636 11.561 31.5429 11.561C42.7235 11.561 51.8188 20.701 51.8188 31.9365C51.8188 43.172 42.7235 52.3113 31.5429 52.3113Z" fill="white"/>
<path fill-rule="evenodd" clip-rule="evenodd" d="M31.5373 10.3457C19.6991 10.3457 10.0577 20.0338 10.0577 31.9315C10.0577 43.8405 19.6991 53.5286 31.5373 53.5286C36.6483 53.5286 41.3517 51.7304 45.0307 48.7157L44.5241 48.1827C40.9687 51.0601 36.4508 52.7851 31.5373 52.7851C20.106 52.7851 10.7981 43.4316 10.7981 31.9315C10.7981 20.4433 20.106 11.0898 31.5373 11.0898C40.3398 11.0898 47.8821 16.6222 50.8821 24.4132L51.6226 24.2645C48.5486 16.1389 40.6972 10.3457 31.5373 10.3457Z" fill="white"/>
<path fill-rule="evenodd" clip-rule="evenodd" d="M31.5373 9.67538C37.5987 9.67538 43.0928 12.1193 47.0922 16.0892L47.5611 15.5058C43.4257 11.4244 37.7718 8.9187 31.5373 8.9187C18.9091 8.9187 8.63762 19.2406 8.63762 31.9315C8.63762 44.6224 18.9091 54.9557 31.5373 54.9557C33.5003 54.9557 35.4013 54.7074 37.2163 54.2481L36.9323 53.5286C35.2038 53.9633 33.4019 54.199 31.5373 54.199C19.3285 54.199 9.3906 44.2129 9.3906 31.9315C9.3906 19.6615 19.3285 9.67538 31.5373 9.67538Z" fill="white"/>
<path opacity="0.70266" fill-rule="evenodd" clip-rule="evenodd" d="M8.00815 31.9316H7.20564C7.20564 43.0342 14.6125 52.4501 24.7229 55.4157L24.9204 54.6332C15.1561 51.7558 8.00815 42.6738 8.00815 31.9316ZM34.9448 7.72803L34.8458 8.52188C46.2771 10.1348 55.079 20.022 55.079 31.9316C55.079 37.7746 52.9687 43.1211 49.4621 47.2523L50.1292 47.6983C53.721 43.4317 55.8815 37.9352 55.8815 31.9316C55.8815 19.6125 46.7712 9.3907 34.9448 7.72803Z" fill="white"/>
<path opacity="0.695801" fill-rule="evenodd" clip-rule="evenodd" d="M7.73668 24.6614L6.92163 24.4384C6.19311 26.808 5.81066 29.3256 5.81066 31.9314C5.81066 39.0641 8.69906 45.5396 13.3661 50.2045L13.9586 49.6091C9.45267 45.081 6.6627 38.8285 6.6627 31.9314C6.6627 29.3999 7.03323 26.9692 7.73668 24.6614ZM31.5373 6.07715C27.1423 6.07715 22.995 7.19421 19.3655 9.15489L19.7235 9.93614C23.242 8.02586 27.2665 6.934 31.5373 6.934C45.2652 6.934 56.4251 18.1487 56.4251 31.9314C56.4251 43.2079 48.9687 52.7599 38.7473 55.8616L38.9567 56.68C49.5492 53.48 57.2765 43.6042 57.2765 31.9314C57.2765 17.6768 45.7342 6.07715 31.5373 6.07715Z" fill="white"/>
<path opacity="0.398879" fill-rule="evenodd" clip-rule="evenodd" d="M5.23072 31.9316C5.23072 26.6834 6.76113 21.7962 9.40313 17.6896L8.63761 17.2057C5.92163 21.461 4.34169 26.5102 4.34169 31.9316C4.34169 41.1359 8.88464 49.2987 15.847 54.2483L16.3781 53.5287C9.63761 48.7405 5.23072 40.8511 5.23072 31.9316ZM31.5373 4.60181C30.1793 4.60181 28.8464 4.70072 27.5379 4.89982L27.6489 5.77998L27.6364 5.79321C28.9078 5.59412 30.2169 5.4952 31.5373 5.4952C46.0552 5.4952 57.857 17.3544 57.857 31.9316C57.857 37.8112 55.9436 43.2453 52.6965 47.636L53.4251 48.1577C56.7705 43.6176 58.7461 38.0103 58.7461 31.9316C58.7461 16.8586 46.5486 4.60181 31.5373 4.60181Z" fill="white"/>
<path opacity="0.399391" fill-rule="evenodd" clip-rule="evenodd" d="M31.5373 3.19995C15.773 3.19995 2.94671 16.0893 2.94671 31.9316C2.94671 45.1429 11.8476 56.2833 23.9329 59.6332L24.1674 58.7146C12.4897 55.4768 3.88527 44.6968 3.88527 31.9316C3.88527 16.6103 16.2915 4.14312 31.5373 4.14312C46.7962 4.14312 59.2025 16.6103 59.2025 31.9316C59.2025 35.2305 58.6219 38.4065 57.573 41.3469L58.4495 41.6449C59.548 38.605 60.1411 35.3427 60.1411 31.9316C60.1411 16.0893 47.3147 3.19995 31.5373 3.19995Z" fill="white"/>
<path opacity="0.303897" fill-rule="evenodd" clip-rule="evenodd" d="M31.5373 1.72363C14.9586 1.72363 1.47775 15.2701 1.47775 31.9315C1.47775 48.5922 14.9586 62.1513 31.5373 62.1513C33.2658 62.1513 34.9693 62.002 36.6238 61.7046L36.4138 60.7495V60.7362C34.8339 61.0216 33.2044 61.159 31.5373 61.159C15.5135 61.159 2.46521 48.046 2.46521 31.9315C2.46521 15.8283 15.5135 2.71594 31.5373 2.71594C45.9931 2.71594 58.0169 13.3724 60.2514 27.266L61.227 27.1426C58.9436 12.7525 46.4997 1.72363 31.5373 1.72363Z" fill="white"/>
<path opacity="0.302711" fill-rule="evenodd" clip-rule="evenodd" d="M31.5429 1.27886C14.721 1.27886 1.03574 15.0314 1.03574 31.9366C1.03574 48.8405 14.721 62.5936 31.5429 62.5936C48.3655 62.5936 62.0514 48.8405 62.0514 31.9366C62.0514 15.0314 48.3655 1.27886 31.5429 1.27886ZM31.5429 63.6338C14.1498 63.6338 0 49.4151 0 31.9366C0 14.4574 14.1498 0.238037 31.5429 0.238037C48.9367 0.238037 63.0871 14.4574 63.0871 31.9366C63.0871 49.4151 48.9367 63.6338 31.5429 63.6338Z" fill="white"/>
<path fill-rule="evenodd" clip-rule="evenodd" d="M77.1411 18.5469H72.4194C72.363 18.5469 72.3354 18.5752 72.3354 18.6313V23.2073C72.3354 23.264 72.363 23.2923 72.4194 23.2923H75.3154C75.4552 23.2923 75.5254 23.3623 75.5254 23.5028V24.8321C75.5254 24.972 75.4552 25.0426 75.3154 25.0426H72.4194C72.363 25.0426 72.3354 25.0709 72.3354 25.127V29.7244C72.3354 29.7811 72.363 29.8088 72.4194 29.8088H77.1411C77.2809 29.8088 77.3511 29.8794 77.3511 30.0199V31.348C77.3511 31.4891 77.2809 31.5591 77.1411 31.5591H70.5304C70.3906 31.5591 70.3204 31.4891 70.3204 31.348V17.0077C70.3204 16.8672 70.3906 16.7966 70.5304 16.7966H77.1411C77.2809 16.7966 77.3511 16.8672 77.3511 17.0077V18.3364C77.3511 18.4769 77.2809 18.5469 77.1411 18.5469Z" fill="#F3F5F7"/>
<path fill-rule="evenodd" clip-rule="evenodd" d="M81.926 27.2572H84.7172C84.7593 27.2572 84.7799 27.2288 84.7799 27.1721L83.353 19.686C83.3392 19.6583 83.3248 19.6438 83.311 19.6438C83.2966 19.6438 83.2828 19.6583 83.269 19.686L81.8627 27.1721C81.8627 27.2288 81.884 27.2572 81.926 27.2572ZM85.5988 31.3694L85.1367 28.9444C85.1367 28.9161 85.126 28.8953 85.1053 28.8808C85.084 28.8669 85.0596 28.86 85.032 28.86H81.6113C81.5831 28.86 81.5586 28.8669 81.5379 28.8808C81.5166 28.8953 81.506 28.9161 81.506 28.9444L81.0652 31.3694C81.0514 31.4961 80.9743 31.5591 80.8345 31.5591H79.2395C79.1693 31.5591 79.1172 31.5383 79.0821 31.4961C79.047 31.4539 79.0364 31.3978 79.0508 31.3272L82.1781 16.9863C82.2056 16.8596 82.2828 16.7966 82.4088 16.7966H84.2765C84.4157 16.7966 84.4928 16.8596 84.5072 16.9863L87.6552 31.3272V31.3694C87.6552 31.4961 87.5919 31.5591 87.4665 31.5591H85.8295C85.7035 31.5591 85.6263 31.4961 85.5988 31.3694Z" fill="#F3F5F7"/>
<path fill-rule="evenodd" clip-rule="evenodd" d="M91.4947 18.6313V23.3553C91.4947 23.412 91.5229 23.4398 91.5793 23.4398H93.1323C93.7053 23.4398 94.1674 23.2186 94.5173 22.7757C94.8665 22.3328 95.042 21.7456 95.042 21.0147C95.042 20.2555 94.8665 19.6545 94.5173 19.2116C94.1674 18.768 93.7053 18.5469 93.1323 18.5469H91.5793C91.5229 18.5469 91.4947 18.5752 91.4947 18.6313ZM95.0627 31.3909L93.1323 25.1056C93.1179 25.064 93.0897 25.0426 93.0477 25.0426H91.5793C91.5229 25.0426 91.4947 25.0709 91.4947 25.127V31.348C91.4947 31.4891 91.4251 31.5591 91.2853 31.5591H89.6903C89.5499 31.5591 89.4803 31.4891 89.4803 31.348V17.0077C89.4803 16.8672 89.5499 16.7966 89.6903 16.7966H93.447C94.1605 16.7966 94.79 16.9724 95.3354 17.324C95.8809 17.6755 96.3041 18.1707 96.605 18.8109C96.906 19.4504 97.0564 20.178 97.0564 20.9933C97.0564 21.8792 96.8746 22.6491 96.511 23.303C96.1467 23.9564 95.6502 24.4308 95.0207 24.7263C94.9787 24.7685 94.9649 24.8101 94.9787 24.8529L97.1198 31.3272L97.1404 31.4116C97.1404 31.5099 97.0777 31.5591 96.9517 31.5591H95.3147C95.1887 31.5591 95.1047 31.503 95.0627 31.3909Z" fill="#F3F5F7"/>
<path fill-rule="evenodd" clip-rule="evenodd" d="M106.521 17.0077V18.3364C106.521 18.4769 106.451 18.5469 106.312 18.5469H103.562C103.506 18.5469 103.478 18.5752 103.478 18.6313V31.348C103.478 31.4891 103.408 31.5591 103.268 31.5591H101.673C101.534 31.5591 101.463 31.4891 101.463 31.348V18.6313C101.463 18.5752 101.435 18.5469 101.38 18.5469H98.7774C98.637 18.5469 98.5674 18.4769 98.5674 18.3364V17.0077C98.5674 16.8672 98.637 16.7966 98.7774 16.7966H106.312C106.451 16.7966 106.521 16.8672 106.521 17.0077Z" fill="#F3F5F7"/>
<path fill-rule="evenodd" clip-rule="evenodd" d="M114.265 16.7966H115.86C116 16.7966 116.07 16.8672 116.07 17.0077V31.348C116.07 31.4891 116 31.5591 115.86 31.5591H114.265C114.125 31.5591 114.055 31.4891 114.055 31.348V25.127C114.055 25.0709 114.027 25.0426 113.971 25.0426H110.803C110.746 25.0426 110.718 25.0709 110.718 25.127V31.348C110.718 31.4891 110.648 31.5591 110.508 31.5591H108.913C108.773 31.5591 108.703 31.4891 108.703 31.348V17.0077C108.703 16.8672 108.773 16.7966 108.913 16.7966H110.508C110.648 16.7966 110.718 16.8672 110.718 17.0077V23.2073C110.718 23.264 110.746 23.2923 110.803 23.2923H113.971C114.027 23.2923 114.055 23.264 114.055 23.2073V17.0077C114.055 16.8672 114.125 16.7966 114.265 16.7966Z" fill="#F3F5F7"/>
<path fill-rule="evenodd" clip-rule="evenodd" d="M128.934 16.7966H130.529C130.668 16.7966 130.739 16.8672 130.739 17.0077V31.348C130.739 31.4891 130.668 31.5591 130.529 31.5591H128.934C128.794 31.5591 128.724 31.4891 128.724 31.348V25.127C128.724 25.0709 128.696 25.0426 128.64 25.0426H125.471C125.415 25.0426 125.387 25.0709 125.387 25.127V31.348C125.387 31.4891 125.317 31.5591 125.178 31.5591H123.583C123.443 31.5591 123.373 31.4891 123.373 31.348V17.0077C123.373 16.8672 123.443 16.7966 123.583 16.7966H125.178C125.317 16.7966 125.387 16.8672 125.387 17.0077V23.2073C125.387 23.264 125.415 23.2923 125.471 23.2923H128.64C128.696 23.2923 128.724 23.264 128.724 23.2073V17.0077C128.724 16.8672 128.794 16.7966 128.934 16.7966Z" fill="#F3F5F7"/>
<path fill-rule="evenodd" clip-rule="evenodd" d="M138.713 20.3817C138.713 19.792 138.555 19.31 138.241 18.937C137.926 18.5647 137.517 18.3782 137.013 18.3782C136.51 18.3782 136.1 18.5647 135.786 18.937C135.471 19.31 135.314 19.792 135.314 20.3817V27.9743C135.314 28.5646 135.471 29.0466 135.786 29.419C136.1 29.792 136.51 29.9778 137.013 29.9778C137.517 29.9778 137.926 29.792 138.241 29.419C138.555 29.0466 138.713 28.5646 138.713 27.9743V20.3817ZM139.7 17.7248C140.385 18.4557 140.728 19.4121 140.728 20.5928V27.7632C140.728 28.7335 140.49 29.5595 140.015 30.2412C139.539 30.9229 138.895 31.3696 138.083 31.58C138.042 31.6084 138.021 31.6437 138.021 31.6859V33.6472C138.021 33.7877 137.951 33.8582 137.811 33.8582H136.195C136.055 33.8582 135.985 33.7877 135.985 33.6472V31.6859C135.985 31.6437 135.964 31.6084 135.922 31.58C135.11 31.3557 134.471 30.9052 134.002 30.2311C133.533 29.5563 133.299 28.7335 133.299 27.7632V20.5928C133.299 19.4121 133.642 18.4557 134.327 17.7248C135.013 16.994 135.908 16.6279 137.013 16.6279C138.118 16.6279 139.014 16.994 139.7 17.7248Z" fill="#F3F5F7"/>
<path fill-rule="evenodd" clip-rule="evenodd" d="M71.578 47.9434C71.1298 47.5068 70.9059 46.9291 70.9059 46.2102V41.2159C70.9059 40.4976 71.1298 39.9199 71.578 39.4826C72.0263 39.046 72.6169 38.8274 73.3505 38.8274C74.0834 38.8274 74.6765 39.046 75.1291 39.4826C75.5818 39.9199 75.8081 40.502 75.8081 41.2297V41.8024C75.8081 41.8938 75.763 41.9392 75.6727 41.9392H74.6407C74.5498 41.9392 74.5047 41.8938 74.5047 41.8024V41.202C74.5047 40.829 74.3981 40.5291 74.1856 40.3017C73.9724 40.0742 73.694 39.9602 73.3505 39.9602C73.0063 39.9602 72.7279 40.0742 72.5154 40.3017C72.3022 40.5291 72.1962 40.829 72.1962 41.202V46.2241C72.1962 46.597 72.3022 46.8976 72.5154 47.1244C72.7279 47.3525 73.0063 47.4659 73.3505 47.4659C73.694 47.4659 73.9724 47.3525 74.1856 47.1244C74.3981 46.8976 74.5047 46.597 74.5047 46.2241V44.7233C74.5047 44.6868 74.4859 44.6685 74.4501 44.6685H73.4182C73.3273 44.6685 73.2828 44.6231 73.2828 44.5318V43.6856C73.2828 43.5949 73.3273 43.5495 73.4182 43.5495H75.6727C75.763 43.5495 75.8081 43.5949 75.8081 43.6856V46.2102C75.8081 46.9291 75.5818 47.5068 75.1291 47.9434C74.6765 48.38 74.0834 48.598 73.3505 48.598C72.6169 48.598 72.0263 48.38 71.578 47.9434Z" fill="#F3F5F7"/>
<path fill-rule="evenodd" clip-rule="evenodd" d="M161.388 24.1079V24.7875C161.388 24.8594 161.352 24.8951 161.281 24.8951H159.874C159.846 24.8951 159.831 24.9096 159.831 24.9383V31.4421C159.831 31.5142 159.796 31.55 159.724 31.55H158.908C158.837 31.55 158.801 31.5142 158.801 31.4421V24.9383C158.801 24.9096 158.787 24.8951 158.758 24.8951H157.427C157.356 24.8951 157.32 24.8594 157.32 24.7875V24.1079C157.32 24.0361 157.356 24 157.427 24H161.281C161.352 24 161.388 24.0361 161.388 24.1079Z" fill="#B7C2CC"/>
<path fill-rule="evenodd" clip-rule="evenodd" d="M150.592 30.3095C150.782 30.0869 150.877 29.7702 150.877 29.3608C150.877 28.9435 150.784 28.6183 150.598 28.3843C150.411 28.1507 150.154 28.0342 149.825 28.0342H149.073C149.045 28.0342 149.03 28.0481 149.03 28.077V30.6008C149.03 30.6302 149.045 30.6442 149.073 30.6442H149.814C150.143 30.6442 150.402 30.5326 150.592 30.3095ZM149.03 24.9382V27.225C149.03 27.2534 149.045 27.2683 149.073 27.2683H149.76C150.097 27.2683 150.358 27.1657 150.544 26.961C150.73 26.7554 150.823 26.47 150.823 26.1035C150.823 25.722 150.73 25.4257 150.544 25.2136C150.358 25.0015 150.097 24.8954 149.76 24.8954H149.073C149.045 24.8954 149.03 24.9093 149.03 24.9382ZM151.354 31.0107C150.986 31.3707 150.501 31.55 149.9 31.55H148.108C148.036 31.55 148 31.5141 148 31.4424V24.1076C148 24.0359 148.036 24 148.108 24H149.75C150.4 24 150.91 24.1708 151.279 24.5124C151.647 24.8541 151.832 25.352 151.832 26.0064C151.832 26.7828 151.556 27.3186 151.005 27.6134C150.969 27.6348 150.966 27.6527 150.995 27.6672C151.281 27.8395 151.505 28.081 151.665 28.3903C151.826 28.699 151.907 29.066 151.907 29.4903C151.907 30.1442 151.723 30.6516 151.354 31.0107Z" fill="#B7C2CC"/>
<path fill-rule="evenodd" clip-rule="evenodd" d="M163.174 29.3494H164.601C164.623 29.3494 164.633 29.3354 164.633 29.3066L163.903 25.4775C163.896 25.4636 163.889 25.4561 163.882 25.4561C163.875 25.4561 163.868 25.4636 163.86 25.4775L163.141 29.3066C163.141 29.3354 163.152 29.3494 163.174 29.3494ZM165.052 31.4529L164.816 30.2129C164.816 30.198 164.81 30.1875 164.8 30.18C164.789 30.1736 164.777 30.1696 164.762 30.1696H163.012C162.998 30.1696 162.985 30.1736 162.975 30.18C162.964 30.1875 162.959 30.198 162.959 30.2129L162.733 31.4529C162.726 31.5176 162.687 31.55 162.615 31.55H161.8C161.764 31.55 161.737 31.5395 161.719 31.5176C161.701 31.4962 161.696 31.4673 161.703 31.4315L163.302 24.0971C163.316 24.0324 163.356 24 163.42 24H164.376C164.447 24 164.487 24.0324 164.494 24.0971L166.103 31.4315V31.4529C166.103 31.5176 166.072 31.55 166.007 31.55H165.17C165.106 31.55 165.066 31.5176 165.052 31.4529Z" fill="#B7C2CC"/>
<path fill-rule="evenodd" clip-rule="evenodd" d="M156.409 24.8954H153.993C153.965 24.8954 153.951 24.9093 153.951 24.9382V27.2788C153.951 27.3076 153.965 27.3221 153.993 27.3221H155.475C155.546 27.3221 155.582 27.3579 155.582 27.4301V28.1094C155.582 28.1816 155.546 28.2175 155.475 28.2175H153.993C153.965 28.2175 153.951 28.2314 153.951 28.2603V30.6118C153.951 30.6407 153.965 30.6546 153.993 30.6546H156.409C156.48 30.6546 156.516 30.691 156.516 30.7627V31.4424C156.516 31.5141 156.48 31.55 156.409 31.55H153.028C152.956 31.55 152.92 31.5141 152.92 31.4424V24.1076C152.92 24.0359 152.956 24 153.028 24H156.409C156.48 24 156.516 24.0359 156.516 24.1076V24.7873C156.516 24.8595 156.48 24.8954 156.409 24.8954Z" fill="#B7C2CC"/>
<path fill-rule="evenodd" clip-rule="evenodd" d="M77.2339 48.3529V39.0731C77.2339 38.9824 77.279 38.937 77.3699 38.937H78.4019C78.4922 38.937 78.5373 38.9824 78.5373 39.0731V47.302C78.5373 47.3386 78.5555 47.3562 78.5919 47.3562H81.6332C81.7235 47.3562 81.7693 47.4022 81.7693 47.4929V48.3529C81.7693 48.4437 81.7235 48.489 81.6332 48.489H77.3699C77.279 48.489 77.2339 48.4437 77.2339 48.3529Z" fill="#F3F5F7"/>
<path fill-rule="evenodd" clip-rule="evenodd" d="M85.8157 47.1042C86.0332 46.8629 86.1417 46.5466 86.1417 46.1554V41.2701C86.1417 40.8794 86.0332 40.5632 85.8157 40.3218C85.5987 40.0812 85.3091 39.9602 84.9467 39.9602C84.5937 39.9602 84.3103 40.0812 84.0984 40.3218C83.8853 40.5632 83.7793 40.8794 83.7793 41.2701V46.1554C83.7793 46.5466 83.8853 46.8629 84.0984 47.1042C84.3103 47.3455 84.5937 47.4659 84.9467 47.4659C85.3091 47.4659 85.5987 47.3455 85.8157 47.1042ZM83.1542 47.9157C82.7016 47.4614 82.4752 46.8566 82.4752 46.1012V41.3387C82.4752 40.5833 82.7016 39.9766 83.1542 39.5167C83.6069 39.058 84.2044 38.8274 84.9467 38.8274C85.6984 38.8274 86.3028 39.058 86.7599 39.5167C87.2169 39.9766 87.4451 40.5833 87.4451 41.3387V46.1012C87.4451 46.8566 87.2169 47.4614 86.7599 47.9157C86.3028 48.3712 85.6984 48.598 84.9467 48.598C84.2044 48.598 83.6069 48.3712 83.1542 47.9157Z" fill="#F3F5F7"/>
<path fill-rule="evenodd" clip-rule="evenodd" d="M92.1511 46.9196C92.3906 46.638 92.511 46.2373 92.511 45.7194C92.511 45.1914 92.3931 44.78 92.158 44.4839C91.9223 44.1884 91.5962 44.041 91.1799 44.041H90.2295C90.1931 44.041 90.1749 44.0586 90.1749 44.0951V47.2882C90.1749 47.3254 90.1931 47.343 90.2295 47.343H91.1661C91.5831 47.343 91.911 47.2019 92.1511 46.9196ZM90.1749 40.124V43.0171C90.1749 43.0531 90.1931 43.072 90.2295 43.072H91.0984C91.5241 43.072 91.8545 42.9422 92.0897 42.6832C92.3254 42.423 92.4426 42.062 92.4426 41.5983C92.4426 41.1157 92.3254 40.7408 92.0897 40.4724C91.8545 40.204 91.5241 40.0698 91.0984 40.0698H90.2295C90.1931 40.0698 90.1749 40.0875 90.1749 40.124ZM93.1147 47.8067C92.6489 48.2622 92.0357 48.489 91.2752 48.489H89.0075C88.9166 48.489 88.8715 48.4437 88.8715 48.3529V39.0731C88.8715 38.9824 88.9166 38.937 89.0075 38.937H91.0853C91.9085 38.937 92.5536 39.1531 93.0201 39.5853C93.4859 40.0175 93.7191 40.6476 93.7191 41.4754C93.7191 42.4577 93.3705 43.1356 92.6734 43.5086C92.6282 43.5357 92.6238 43.5584 92.6602 43.5766C93.0219 43.7946 93.3053 44.1002 93.5085 44.4914C93.7122 44.8821 93.8144 45.3464 93.8144 45.8832C93.8144 46.7104 93.5812 47.3524 93.1147 47.8067Z" fill="#F3F5F7"/>
<path fill-rule="evenodd" clip-rule="evenodd" d="M95.906 45.7049H97.7116C97.7386 45.7049 97.7524 45.6872 97.7524 45.6507L96.8288 40.8063C96.8201 40.7887 96.8107 40.7792 96.8019 40.7792C96.7931 40.7792 96.7837 40.7887 96.7749 40.8063L95.8652 45.6507C95.8652 45.6872 95.8784 45.7049 95.906 45.7049ZM98.2821 48.3662L97.9831 46.7974C97.9831 46.7785 97.9762 46.7652 97.963 46.7558C97.9492 46.7476 97.9335 46.7426 97.9154 46.7426H95.7016C95.684 46.7426 95.6677 46.7476 95.6546 46.7558C95.6408 46.7652 95.6339 46.7785 95.6339 46.7974L95.3486 48.3662C95.3398 48.4481 95.2897 48.489 95.1994 48.489H94.1674C94.1223 48.489 94.0884 48.4758 94.0652 48.4481C94.0426 48.421 94.0364 48.3844 94.0451 48.3391L96.0683 39.0599C96.0865 38.978 96.1367 38.937 96.2182 38.937H97.4263C97.5166 38.937 97.5668 38.978 97.5762 39.0599L99.6125 48.3391V48.3662C99.6125 48.4481 99.5718 48.489 99.4903 48.489H98.4314C98.3498 48.489 98.2997 48.4481 98.2821 48.3662Z" fill="#F3F5F7"/>
<path fill-rule="evenodd" clip-rule="evenodd" d="M100.563 48.3529V39.0731C100.563 38.9824 100.609 38.937 100.699 38.937H101.731C101.821 38.937 101.867 38.9824 101.867 39.0731V47.302C101.867 47.3386 101.885 47.3562 101.921 47.3562H104.962C105.053 47.3562 105.098 47.4022 105.098 47.4929V48.3529C105.098 48.4437 105.053 48.489 104.962 48.489H100.699C100.609 48.489 100.563 48.4437 100.563 48.3529Z" fill="#F3F5F7"/>
<path fill-rule="evenodd" clip-rule="evenodd" d="M109.152 47.9233C108.703 47.4728 108.48 46.8749 108.48 46.1283V41.2839C108.48 40.538 108.703 39.9426 109.152 39.4965C109.6 39.0511 110.191 38.8274 110.924 38.8274C111.666 38.8274 112.261 39.0511 112.71 39.4965C113.158 39.9426 113.382 40.538 113.382 41.2839V41.5019C113.382 41.5933 113.337 41.6386 113.246 41.6386L112.214 41.6934C112.123 41.6934 112.078 41.6481 112.078 41.5567V41.202C112.078 40.829 111.972 40.5291 111.759 40.3017C111.546 40.0742 111.268 39.9602 110.924 39.9602C110.579 39.9602 110.304 40.0742 110.096 40.3017C109.887 40.5291 109.784 40.829 109.784 41.202V46.2241C109.784 46.597 109.887 46.8976 110.096 47.1244C110.304 47.3525 110.579 47.4659 110.924 47.4659C111.268 47.4659 111.546 47.3525 111.759 47.1244C111.972 46.8976 112.078 46.597 112.078 46.2241V45.8693C112.078 45.7786 112.123 45.7326 112.214 45.7326L113.246 45.7874C113.337 45.7874 113.382 45.8334 113.382 45.9235V46.1283C113.382 46.8749 113.158 47.4728 112.71 47.9233C112.261 48.3731 111.666 48.598 110.924 48.598C110.191 48.598 109.6 48.3731 109.152 47.9233Z" fill="#F3F5F7"/>
<path fill-rule="evenodd" clip-rule="evenodd" d="M117.89 47.1042C118.108 46.8629 118.216 46.5466 118.216 46.1554V41.2701C118.216 40.8794 118.108 40.5632 117.89 40.3218C117.673 40.0812 117.384 39.9602 117.021 39.9602C116.668 39.9602 116.385 40.0812 116.172 40.3218C115.96 40.5632 115.853 40.8794 115.853 41.2701V46.1554C115.853 46.5466 115.96 46.8629 116.172 47.1042C116.385 47.3455 116.668 47.4659 117.021 47.4659C117.384 47.4659 117.673 47.3455 117.89 47.1042ZM115.229 47.9157C114.776 47.4614 114.55 46.8566 114.55 46.1012V41.3387C114.55 40.5833 114.776 39.9766 115.229 39.5167C115.682 39.058 116.279 38.8274 117.021 38.8274C117.773 38.8274 118.377 39.058 118.834 39.5167C119.292 39.9766 119.52 40.5833 119.52 41.3387V46.1012C119.52 46.8566 119.292 47.4614 118.834 47.9157C118.377 48.3712 117.773 48.598 117.021 48.598C116.279 48.598 115.682 48.3712 115.229 47.9157Z" fill="#F3F5F7"/>
<path fill-rule="evenodd" clip-rule="evenodd" d="M125.332 38.937H126.364C126.455 38.937 126.5 38.9824 126.5 39.0731V48.3529C126.5 48.4437 126.455 48.489 126.364 48.489H125.332C125.241 48.489 125.196 48.4437 125.196 48.3529V41.5838C125.196 41.5567 125.189 41.5435 125.176 41.5435C125.162 41.5435 125.146 41.5529 125.128 41.5706L123.824 44.0132C123.797 44.0769 123.757 44.109 123.702 44.109C123.648 44.109 123.608 44.0769 123.581 44.0132L122.29 41.5838C122.272 41.5662 122.256 41.5567 122.243 41.5567C122.229 41.5567 122.223 41.5706 122.223 41.5983V48.3529C122.223 48.4437 122.177 48.489 122.087 48.489H121.054C120.964 48.489 120.918 48.4437 120.918 48.3529V39.0731C120.918 38.9824 120.964 38.937 121.054 38.937H122.087C122.149 38.937 122.204 38.9691 122.25 39.0328L123.675 41.5983C123.684 41.6071 123.698 41.6115 123.715 41.6115C123.734 41.6115 123.747 41.6071 123.757 41.5983L125.169 39.0328C125.204 38.9691 125.259 38.937 125.332 38.937Z" fill="#F3F5F7"/>
<path fill-rule="evenodd" clip-rule="evenodd" d="M132.461 38.937H133.493C133.584 38.937 133.629 38.9824 133.629 39.0731V48.3529C133.629 48.4437 133.584 48.489 133.493 48.489H132.461C132.371 48.489 132.325 48.4437 132.325 48.3529V41.5838C132.325 41.5567 132.318 41.5435 132.305 41.5435C132.291 41.5435 132.275 41.5529 132.258 41.5706L130.954 44.0132C130.926 44.0769 130.886 44.109 130.831 44.109C130.777 44.109 130.737 44.0769 130.71 44.0132L129.419 41.5838C129.401 41.5662 129.385 41.5567 129.372 41.5567C129.358 41.5567 129.352 41.5706 129.352 41.5983V48.3529C129.352 48.4437 129.306 48.489 129.216 48.489H128.183C128.093 48.489 128.048 48.4437 128.048 48.3529V39.0731C128.048 38.9824 128.093 38.937 128.183 38.937H129.216C129.279 38.937 129.333 38.9691 129.379 39.0328L130.804 41.5983C130.813 41.6071 130.827 41.6115 130.845 41.6115C130.863 41.6115 130.876 41.6071 130.886 41.5983L132.298 39.0328C132.334 38.9691 132.388 38.937 132.461 38.937Z" fill="#F3F5F7"/>
<path fill-rule="evenodd" clip-rule="evenodd" d="M138.354 47.1042C138.572 46.8629 138.681 46.5466 138.681 46.1554V41.2701C138.681 40.8794 138.572 40.5632 138.354 40.3218C138.137 40.0812 137.848 39.9602 137.485 39.9602C137.132 39.9602 136.85 40.0812 136.637 40.3218C136.424 40.5632 136.318 40.8794 136.318 41.2701V46.1554C136.318 46.5466 136.424 46.8629 136.637 47.1042C136.85 47.3455 137.132 47.4659 137.485 47.4659C137.848 47.4659 138.137 47.3455 138.354 47.1042ZM135.693 47.9157C135.24 47.4614 135.014 46.8566 135.014 46.1012V41.3387C135.014 40.5833 135.24 39.9766 135.693 39.5167C136.145 39.058 136.743 38.8274 137.485 38.8274C138.237 38.8274 138.841 39.058 139.298 39.5167C139.755 39.9766 139.984 40.5833 139.984 41.3387V46.1012C139.984 46.8566 139.755 47.4614 139.298 47.9157C138.841 48.3712 138.237 48.598 137.485 48.598C136.743 48.598 136.145 48.3712 135.693 47.9157Z" fill="#F3F5F7"/>
<path fill-rule="evenodd" clip-rule="evenodd" d="M145.375 38.937H146.394C146.484 38.937 146.529 38.9824 146.529 39.0731V48.3529C146.529 48.4437 146.484 48.489 146.394 48.489H145.226C145.154 48.489 145.104 48.4531 145.076 48.38L142.768 42.1439C142.759 42.1256 142.745 42.1187 142.727 42.1237C142.708 42.1282 142.7 42.1389 142.7 42.1578L142.713 48.3529C142.713 48.4437 142.668 48.489 142.577 48.489H141.546C141.455 48.489 141.41 48.4437 141.41 48.3529V39.0731C141.41 38.9824 141.455 38.937 141.546 38.937H142.7C142.772 38.937 142.822 38.9736 142.85 39.046L145.171 45.2821C145.181 45.3092 145.194 45.3212 145.213 45.3162C145.23 45.3117 145.24 45.296 145.24 45.2689V39.0731C145.24 38.9824 145.285 38.937 145.375 38.937Z" fill="#F3F5F7"/>
<path fill-rule="evenodd" clip-rule="evenodd" d="M148.478 47.9233C148.038 47.4728 147.819 46.8837 147.819 46.1554V45.8013C147.819 45.7099 147.865 45.6646 147.955 45.6646H148.96C149.051 45.6646 149.096 45.7099 149.096 45.8013V46.0873C149.096 46.5063 149.2 46.8402 149.408 47.091C149.616 47.3405 149.883 47.4659 150.209 47.4659C150.535 47.4659 150.805 47.3455 151.017 47.1042C151.229 46.8629 151.336 46.5466 151.336 46.1554C151.336 45.892 151.28 45.6602 151.167 45.4598C151.053 45.2595 150.904 45.0799 150.718 44.9205C150.533 44.7617 150.231 44.5274 149.815 44.218C149.354 43.8721 148.992 43.5766 148.729 43.3309C148.466 43.0852 148.245 42.7897 148.063 42.4444C147.882 42.0986 147.792 41.6934 147.792 41.2297C147.792 40.4926 148.01 39.9079 148.444 39.4763C148.878 39.0441 149.445 38.8274 150.142 38.8274C150.865 38.8274 151.447 39.0599 151.887 39.5236C152.325 39.9873 152.545 40.5972 152.545 41.352V41.6934C152.545 41.7848 152.5 41.8302 152.409 41.8302H151.404C151.313 41.8302 151.269 41.7848 151.269 41.6934V41.3249C151.269 40.916 151.164 40.5858 150.956 40.3357C150.748 40.0856 150.476 39.9602 150.142 39.9602C149.824 39.9602 149.567 40.0717 149.367 40.2948C149.168 40.5178 149.069 40.829 149.069 41.2297C149.069 41.5933 149.168 41.9001 149.367 42.1508C149.567 42.401 149.951 42.7355 150.522 43.1539C151.065 43.5628 151.475 43.8948 151.75 44.15C152.027 44.4045 152.24 44.6842 152.389 44.9892C152.538 45.2941 152.613 45.6551 152.613 46.0735C152.613 46.8377 152.391 47.4501 151.947 47.9088C151.504 48.3687 150.924 48.598 150.209 48.598C149.494 48.598 148.917 48.3731 148.478 47.9233Z" fill="#F3F5F7"/>
<path fill-rule="evenodd" clip-rule="evenodd" d="M157.705 45.7049H159.51C159.538 45.7049 159.552 45.6872 159.552 45.6507L158.628 40.8063C158.619 40.7887 158.61 40.7792 158.601 40.7792C158.592 40.7792 158.583 40.7887 158.574 40.8063L157.664 45.6507C157.664 45.6872 157.677 45.7049 157.705 45.7049ZM160.081 48.3662L159.782 46.7974C159.782 46.7785 159.776 46.7652 159.762 46.7558C159.749 46.7476 159.733 46.7426 159.714 46.7426H157.501C157.483 46.7426 157.466 46.7476 157.453 46.7558C157.44 46.7652 157.433 46.7785 157.433 46.7974L157.148 48.3662C157.139 48.4481 157.089 48.489 156.998 48.489H155.967C155.922 48.489 155.887 48.4758 155.865 48.4481C155.842 48.421 155.835 48.3844 155.845 48.3391L157.868 39.0599C157.885 38.978 157.936 38.937 158.017 38.937H159.226C159.316 38.937 159.366 38.978 159.375 39.0599L161.411 48.3391V48.3662C161.411 48.4481 161.371 48.489 161.29 48.489H160.231C160.149 48.489 160.099 48.4481 160.081 48.3662Z" fill="#F3F5F7"/>
<path fill-rule="evenodd" clip-rule="evenodd" d="M162.362 48.3529V39.0731C162.362 38.9824 162.408 38.937 162.498 38.937H163.53C163.621 38.937 163.666 38.9824 163.666 39.0731V47.302C163.666 47.3386 163.684 47.3562 163.72 47.3562H166.762C166.852 47.3562 166.898 47.4022 166.898 47.4929V48.3529C166.898 48.4437 166.852 48.489 166.762 48.489H162.498C162.408 48.489 162.362 48.4437 162.362 48.3529Z" fill="#F3F5F7"/>
<path fill-rule="evenodd" clip-rule="evenodd" d="M167.821 48.3529V39.0731C167.821 38.9824 167.866 38.937 167.957 38.937H168.989C169.08 38.937 169.125 38.9824 169.125 39.0731V47.302C169.125 47.3386 169.144 47.3562 169.179 47.3562H172.221C172.312 47.3562 172.357 47.4022 172.357 47.4929V48.3529C172.357 48.4437 172.312 48.489 172.221 48.489H167.957C167.866 48.489 167.821 48.4437 167.821 48.3529Z" fill="#F3F5F7"/>
<path fill-rule="evenodd" clip-rule="evenodd" d="M173.28 48.3529V39.0731C173.28 38.9824 173.325 38.937 173.416 38.937H174.448C174.539 38.937 174.584 38.9824 174.584 39.0731V48.3529C174.584 48.4437 174.539 48.489 174.448 48.489H173.416C173.325 48.489 173.28 48.4437 173.28 48.3529Z" fill="#F3F5F7"/>
<path fill-rule="evenodd" clip-rule="evenodd" d="M177.395 45.7049H179.201C179.228 45.7049 179.241 45.6872 179.241 45.6507L178.318 40.8063C178.309 40.7887 178.3 40.7792 178.291 40.7792C178.282 40.7792 178.273 40.7887 178.264 40.8063L177.354 45.6507C177.354 45.6872 177.368 45.7049 177.395 45.7049ZM179.771 48.3662L179.472 46.7974C179.472 46.7785 179.465 46.7652 179.452 46.7558C179.438 46.7476 179.423 46.7426 179.405 46.7426H177.191C177.173 46.7426 177.157 46.7476 177.144 46.7558C177.13 46.7652 177.123 46.7785 177.123 46.7974L176.838 48.3662C176.829 48.4481 176.779 48.489 176.689 48.489H175.656C175.611 48.489 175.577 48.4758 175.555 48.4481C175.532 48.421 175.525 48.3844 175.535 48.3391L177.557 39.0599C177.576 38.978 177.626 38.937 177.707 38.937H178.915C179.006 38.937 179.056 38.978 179.065 39.0599L181.102 48.3391V48.3662C181.102 48.4481 181.061 48.489 180.979 48.489H179.92C179.839 48.489 179.789 48.4481 179.771 48.3662Z" fill="#F3F5F7"/>
<path fill-rule="evenodd" clip-rule="evenodd" d="M186.018 38.937H187.036C187.127 38.937 187.172 38.9824 187.172 39.0731V48.3529C187.172 48.4437 187.127 48.489 187.036 48.489H185.868C185.796 48.489 185.746 48.4531 185.719 48.38L183.41 42.1439C183.401 42.1256 183.387 42.1187 183.37 42.1237C183.352 42.1282 183.342 42.1389 183.342 42.1578L183.356 48.3529C183.356 48.4437 183.31 48.489 183.221 48.489H182.188C182.098 48.489 182.052 48.4437 182.052 48.3529V39.0731C182.052 38.9824 182.098 38.937 182.188 38.937H183.342C183.415 38.937 183.465 38.9736 183.492 39.046L185.814 45.2821C185.823 45.3092 185.836 45.3212 185.855 45.3162C185.873 45.3117 185.882 45.296 185.882 45.2689V39.0731C185.882 38.9824 185.927 38.937 186.018 38.937Z" fill="#F3F5F7"/>
<path fill-rule="evenodd" clip-rule="evenodd" d="M189.27 47.9233C188.821 47.4728 188.597 46.8749 188.597 46.1283V41.2839C188.597 40.538 188.821 39.9426 189.27 39.4965C189.718 39.0511 190.308 38.8274 191.042 38.8274C191.784 38.8274 192.379 39.0511 192.828 39.4965C193.276 39.9426 193.5 40.538 193.5 41.2839V41.5019C193.5 41.5933 193.455 41.6386 193.364 41.6386L192.332 41.6934C192.241 41.6934 192.196 41.6481 192.196 41.5567V41.202C192.196 40.829 192.09 40.5291 191.877 40.3017C191.664 40.0742 191.386 39.9602 191.042 39.9602C190.697 39.9602 190.422 40.0742 190.214 40.3017C190.005 40.5291 189.902 40.829 189.902 41.202V46.2241C189.902 46.597 190.005 46.8976 190.214 47.1244C190.422 47.3525 190.697 47.4659 191.042 47.4659C191.386 47.4659 191.664 47.3525 191.877 47.1244C192.09 46.8976 192.196 46.597 192.196 46.2241V45.8693C192.196 45.7786 192.241 45.7326 192.332 45.7326L193.364 45.7874C193.455 45.7874 193.5 45.8334 193.5 45.9235V46.1283C193.5 46.8749 193.276 47.4728 192.828 47.9233C192.379 48.3731 191.784 48.598 191.042 48.598C190.308 48.598 189.718 48.3731 189.27 47.9233Z" fill="#F3F5F7"/>
<path fill-rule="evenodd" clip-rule="evenodd" d="M199.271 40.0698H196.216C196.18 40.0698 196.162 40.0875 196.162 40.124V43.0852C196.162 43.1217 196.18 43.14 196.216 43.14H198.09C198.181 43.14 198.226 43.1854 198.226 43.2767V44.1361C198.226 44.2274 198.181 44.2728 198.09 44.2728H196.216C196.18 44.2728 196.162 44.2905 196.162 44.327V47.302C196.162 47.3386 196.18 47.3562 196.216 47.3562H199.271C199.362 47.3562 199.407 47.4022 199.407 47.4929V48.3529C199.407 48.4437 199.362 48.489 199.271 48.489H194.994C194.903 48.489 194.858 48.4437 194.858 48.3529V39.0731C194.858 38.9824 194.903 38.937 194.994 38.937H199.271C199.362 38.937 199.407 38.9824 199.407 39.0731V39.9331C199.407 40.0245 199.362 40.0698 199.271 40.0698Z" fill="#F3F5F7"/>
<path d="M72.3281 59.7734V62H71.6133V56.3125H73.4258C73.9544 56.3125 74.3698 56.4714 74.6719 56.7891C74.974 57.1042 75.125 57.5247 75.125 58.0508C75.125 58.5977 74.9805 59.0195 74.6914 59.3164C74.4049 59.6107 74 59.763 73.4766 59.7734H72.3281ZM72.3281 59.1602H73.4258C73.7435 59.1602 73.987 59.0651 74.1562 58.875C74.3255 58.6849 74.4102 58.4128 74.4102 58.0586C74.4102 57.7174 74.3229 57.444 74.1484 57.2383C73.974 57.0326 73.7344 56.9297 73.4297 56.9297H72.3281V59.1602Z" fill="#F3F5F7"/>
<path d="M75.7539 59.6914C75.7539 59.0768 75.9023 58.5911 76.1992 58.2344C76.4987 57.875 76.8932 57.6953 77.3828 57.6953C77.8724 57.6953 78.2656 57.8698 78.5625 58.2188C78.862 58.5677 79.0156 59.043 79.0234 59.6445V60.0898C79.0234 60.7018 78.875 61.1862 78.5781 61.543C78.2812 61.8997 77.8854 62.0781 77.3906 62.0781C76.901 62.0781 76.5078 61.9049 76.2109 61.5586C75.9167 61.2122 75.7643 60.7435 75.7539 60.1523V59.6914ZM76.4453 60.0898C76.4453 60.5247 76.5299 60.8672 76.6992 61.1172C76.8711 61.3646 77.1016 61.4883 77.3906 61.4883C78 61.4883 78.3138 61.0482 78.332 60.168V59.6914C78.332 59.2591 78.2461 58.918 78.0742 58.668C77.9023 58.4154 77.6719 58.2891 77.3828 58.2891C77.099 58.2891 76.8711 58.4154 76.6992 58.668C76.5299 58.918 76.4453 59.2578 76.4453 59.6875V60.0898Z" fill="#F3F5F7"/>
<path d="M83.0664 60.7852L83.707 57.7734H84.3906L83.3555 62H82.8047L81.9805 58.9766L81.1758 62H80.6211L79.5938 57.7734H80.2734L80.9297 60.7109L81.7148 57.7734H82.2617L83.0664 60.7852Z" fill="#F3F5F7"/>
<path d="M86.6289 62.0781C86.1029 62.0781 85.6992 61.9219 85.418 61.6094C85.1367 61.2943 84.9935 60.8333 84.9883 60.2266V59.7148C84.9883 59.0846 85.125 58.5911 85.3984 58.2344C85.6745 57.875 86.0586 57.6953 86.5508 57.6953C87.0456 57.6953 87.4154 57.8529 87.6602 58.168C87.9049 58.4831 88.0299 58.974 88.0352 59.6406V60.0938H85.6758V60.1914C85.6758 60.6445 85.7604 60.974 85.9297 61.1797C86.1016 61.3854 86.3477 61.4883 86.668 61.4883C86.8711 61.4883 87.0495 61.4505 87.2031 61.375C87.3594 61.2969 87.5052 61.1745 87.6406 61.0078L88 61.4453C87.7005 61.8672 87.2435 62.0781 86.6289 62.0781ZM86.5508 58.2891C86.2643 58.2891 86.0521 58.388 85.9141 58.5859C85.776 58.7812 85.6979 59.0859 85.6797 59.5H87.3438V59.4062C87.3255 59.0052 87.2526 58.7188 87.125 58.5469C87 58.375 86.8086 58.2891 86.5508 58.2891Z" fill="#F3F5F7"/>
<path d="M90.6133 58.4219C90.5169 58.4036 90.4128 58.3945 90.3008 58.3945C89.9466 58.3945 89.6992 58.5885 89.5586 58.9766V62H88.8672V57.7734H89.5391L89.5508 58.2031C89.7357 57.8646 89.9974 57.6953 90.3359 57.6953C90.4453 57.6953 90.5365 57.7135 90.6094 57.75L90.6133 58.4219Z" fill="#F3F5F7"/>
<path d="M92.7383 62.0781C92.2122 62.0781 91.8086 61.9219 91.5273 61.6094C91.2461 61.2943 91.1029 60.8333 91.0977 60.2266V59.7148C91.0977 59.0846 91.2344 58.5911 91.5078 58.2344C91.7839 57.875 92.168 57.6953 92.6602 57.6953C93.1549 57.6953 93.5247 57.8529 93.7695 58.168C94.0143 58.4831 94.1393 58.974 94.1445 59.6406V60.0938H91.7852V60.1914C91.7852 60.6445 91.8698 60.974 92.0391 61.1797C92.2109 61.3854 92.457 61.4883 92.7773 61.4883C92.9805 61.4883 93.1589 61.4505 93.3125 61.375C93.4688 61.2969 93.6146 61.1745 93.75 61.0078L94.1094 61.4453C93.8099 61.8672 93.3529 62.0781 92.7383 62.0781ZM92.6602 58.2891C92.3737 58.2891 92.1615 58.388 92.0234 58.5859C91.8854 58.7812 91.8073 59.0859 91.7891 59.5H93.4531V59.4062C93.4349 59.0052 93.362 58.7188 93.2344 58.5469C93.1094 58.375 92.918 58.2891 92.6602 58.2891Z" fill="#F3F5F7"/>
<path d="M94.832 59.6953C94.832 59.0443 94.9531 58.5482 95.1953 58.207C95.4401 57.8659 95.7904 57.6953 96.2461 57.6953C96.6497 57.6953 96.9648 57.8594 97.1914 58.1875V56H97.8828V62H97.25L97.2148 61.5469C96.9883 61.901 96.6641 62.0781 96.2422 62.0781C95.8047 62.0781 95.4609 61.9089 95.2109 61.5703C94.9635 61.2292 94.8372 60.7487 94.832 60.1289V59.6953ZM95.5234 60.0898C95.5234 60.5638 95.5938 60.9128 95.7344 61.1367C95.875 61.3581 96.1042 61.4688 96.4219 61.4688C96.7656 61.4688 97.0221 61.2956 97.1914 60.9492V58.8164C97.0143 58.4779 96.7591 58.3086 96.4258 58.3086C96.1081 58.3086 95.8789 58.4206 95.7383 58.6445C95.5977 58.8659 95.526 59.207 95.5234 59.668V60.0898Z" fill="#F3F5F7"/>
<path d="M103.844 60.0898C103.844 60.7487 103.725 61.2448 103.488 61.5781C103.251 61.9115 102.908 62.0781 102.457 62.0781C102.009 62.0781 101.673 61.8854 101.449 61.5L101.414 62H100.785V56H101.473V58.2383C101.699 57.8763 102.025 57.6953 102.449 57.6953C102.913 57.6953 103.26 57.8594 103.492 58.1875C103.724 58.5156 103.841 59.0104 103.844 59.6719V60.0898ZM103.156 59.6953C103.156 59.1953 103.086 58.8398 102.945 58.6289C102.807 58.4154 102.582 58.3086 102.27 58.3086C101.913 58.3086 101.647 58.5013 101.473 58.8867V60.8984C101.645 61.2786 101.913 61.4688 102.277 61.4688C102.59 61.4688 102.814 61.3594 102.949 61.1406C103.085 60.9219 103.154 60.582 103.156 60.1211V59.6953Z" fill="#F3F5F7"/>
<path d="M105.836 60.8516L106.605 57.7734H107.34L105.957 62.5977C105.853 62.9596 105.706 63.2344 105.516 63.4219C105.326 63.612 105.109 63.707 104.867 63.707C104.773 63.707 104.654 63.6862 104.508 63.6445V63.0586L104.66 63.0742C104.861 63.0742 105.017 63.026 105.129 62.9297C105.243 62.8359 105.336 62.6719 105.406 62.4375L105.543 61.9648L104.301 57.7734H105.055L105.836 60.8516Z" fill="#F3F5F7"/>
<path d="M110.758 56.75V57.7734H111.395V58.332H110.758V60.9531C110.758 61.1198 110.785 61.2461 110.84 61.332C110.895 61.418 110.988 61.4609 111.121 61.4609C111.212 61.4609 111.305 61.4453 111.398 61.4141L111.391 62C111.234 62.0521 111.074 62.0781 110.91 62.0781C110.637 62.0781 110.428 61.9805 110.285 61.7852C110.142 61.5898 110.07 61.3138 110.07 60.957V58.332H109.426V57.7734H110.07V56.75H110.758Z" fill="#F3F5F7"/>
<path d="M112.91 58.207C113.173 57.8659 113.509 57.6953 113.918 57.6953C114.665 57.6953 115.044 58.194 115.055 59.1914V62H114.367V59.2227C114.367 58.8919 114.311 58.6576 114.199 58.5195C114.09 58.3789 113.924 58.3086 113.703 58.3086C113.531 58.3086 113.376 58.3659 113.238 58.4805C113.103 58.5951 112.993 58.7448 112.91 58.9297V62H112.219V56H112.91V58.207Z" fill="#F3F5F7"/>
<path d="M117.598 62.0781C117.072 62.0781 116.668 61.9219 116.387 61.6094C116.105 61.2943 115.962 60.8333 115.957 60.2266V59.7148C115.957 59.0846 116.094 58.5911 116.367 58.2344C116.643 57.875 117.027 57.6953 117.52 57.6953C118.014 57.6953 118.384 57.8529 118.629 58.168C118.874 58.4831 118.999 58.974 119.004 59.6406V60.0938H116.645V60.1914C116.645 60.6445 116.729 60.974 116.898 61.1797C117.07 61.3854 117.316 61.4883 117.637 61.4883C117.84 61.4883 118.018 61.4505 118.172 61.375C118.328 61.2969 118.474 61.1745 118.609 61.0078L118.969 61.4453C118.669 61.8672 118.212 62.0781 117.598 62.0781ZM117.52 58.2891C117.233 58.2891 117.021 58.388 116.883 58.5859C116.745 58.7812 116.667 59.0859 116.648 59.5H118.312V59.4062C118.294 59.0052 118.221 58.7188 118.094 58.5469C117.969 58.375 117.777 58.2891 117.52 58.2891Z" fill="#F3F5F7"/>
<path d="M125.484 62H124.766L122.488 57.6172V62H121.77V56.3125H122.488L124.773 60.7148V56.3125H125.484V62Z" fill="#F3F5F7"/>
<path d="M128.781 61.6289C128.552 61.9284 128.217 62.0781 127.777 62.0781C127.395 62.0781 127.105 61.9466 126.91 61.6836C126.715 61.418 126.616 61.0326 126.613 60.5273V57.7734H127.301V60.4766C127.301 61.1354 127.499 61.4648 127.895 61.4648C128.314 61.4648 128.603 61.2773 128.762 60.9023V57.7734H129.453V62H128.797L128.781 61.6289Z" fill="#F3F5F7"/>
<path d="M131.238 62H130.547V56H131.238V62Z" fill="#F3F5F7"/>
<path d="M133.074 62H132.383V56H133.074V62Z" fill="#F3F5F7"/>
<path d="M138.582 60.5625C138.582 60.2786 138.505 60.0612 138.352 59.9102C138.198 59.7591 137.921 59.612 137.52 59.4688C137.118 59.3255 136.811 59.1758 136.598 59.0195C136.387 58.8607 136.228 58.681 136.121 58.4805C136.017 58.2773 135.965 58.0456 135.965 57.7852C135.965 57.3346 136.115 56.9635 136.414 56.6719C136.716 56.3802 137.111 56.2344 137.598 56.2344C137.931 56.2344 138.228 56.3099 138.488 56.4609C138.749 56.6094 138.949 56.8164 139.09 57.082C139.23 57.3477 139.301 57.6393 139.301 57.957H138.582C138.582 57.6055 138.497 57.3333 138.328 57.1406C138.159 56.9479 137.915 56.8516 137.598 56.8516C137.309 56.8516 137.085 56.9323 136.926 57.0938C136.767 57.2552 136.688 57.4818 136.688 57.7734C136.688 58.013 136.773 58.2135 136.945 58.375C137.117 58.5365 137.383 58.681 137.742 58.8086C138.302 58.9935 138.702 59.2214 138.941 59.4922C139.184 59.763 139.305 60.1172 139.305 60.5547C139.305 61.0156 139.155 61.3854 138.855 61.6641C138.556 61.9401 138.148 62.0781 137.633 62.0781C137.302 62.0781 136.996 62.0065 136.715 61.8633C136.436 61.7174 136.216 61.5143 136.055 61.2539C135.896 60.9909 135.816 60.6901 135.816 60.3516H136.535C136.535 60.7031 136.633 60.9766 136.828 61.1719C137.026 61.3672 137.294 61.4648 137.633 61.4648C137.948 61.4648 138.185 61.3841 138.344 61.2227C138.503 61.0612 138.582 60.8411 138.582 60.5625Z" fill="#F3F5F7"/>
<path d="M141.617 61.4883C141.846 61.4883 142.03 61.418 142.168 61.2773C142.306 61.1341 142.382 60.931 142.395 60.668H143.047C143.031 61.0742 142.887 61.4115 142.613 61.6797C142.342 61.9453 142.01 62.0781 141.617 62.0781C141.094 62.0781 140.694 61.9141 140.418 61.5859C140.145 61.2552 140.008 60.7643 140.008 60.1133V59.6484C140.008 59.0104 140.145 58.526 140.418 58.1953C140.691 57.862 141.09 57.6953 141.613 57.6953C142.046 57.6953 142.388 57.832 142.641 58.1055C142.896 58.3789 143.031 58.7526 143.047 59.2266H142.395C142.379 58.9141 142.303 58.6797 142.168 58.5234C142.035 58.3672 141.85 58.2891 141.613 58.2891C141.306 58.2891 141.078 58.3906 140.93 58.5938C140.781 58.7943 140.704 59.125 140.699 59.5859V60.125C140.699 60.6224 140.772 60.974 140.918 61.1797C141.066 61.3854 141.299 61.4883 141.617 61.4883Z" fill="#F3F5F7"/>
<path d="M144.535 58.207C144.798 57.8659 145.134 57.6953 145.543 57.6953C146.29 57.6953 146.669 58.194 146.68 59.1914V62H145.992V59.2227C145.992 58.8919 145.936 58.6576 145.824 58.5195C145.715 58.3789 145.549 58.3086 145.328 58.3086C145.156 58.3086 145.001 58.3659 144.863 58.4805C144.728 58.5951 144.618 58.7448 144.535 58.9297V62H143.844V56H144.535V58.207Z" fill="#F3F5F7"/>
<path d="M147.566 59.6914C147.566 59.0768 147.715 58.5911 148.012 58.2344C148.311 57.875 148.706 57.6953 149.195 57.6953C149.685 57.6953 150.078 57.8698 150.375 58.2188C150.674 58.5677 150.828 59.043 150.836 59.6445V60.0898C150.836 60.7018 150.688 61.1862 150.391 61.543C150.094 61.8997 149.698 62.0781 149.203 62.0781C148.714 62.0781 148.32 61.9049 148.023 61.5586C147.729 61.2122 147.577 60.7435 147.566 60.1523V59.6914ZM148.258 60.0898C148.258 60.5247 148.342 60.8672 148.512 61.1172C148.684 61.3646 148.914 61.4883 149.203 61.4883C149.812 61.4883 150.126 61.0482 150.145 60.168V59.6914C150.145 59.2591 150.059 58.918 149.887 58.668C149.715 58.4154 149.484 58.2891 149.195 58.2891C148.911 58.2891 148.684 58.4154 148.512 58.668C148.342 58.918 148.258 59.2578 148.258 59.6875V60.0898Z" fill="#F3F5F7"/>
<path d="M151.582 59.6914C151.582 59.0768 151.73 58.5911 152.027 58.2344C152.327 57.875 152.721 57.6953 153.211 57.6953C153.701 57.6953 154.094 57.8698 154.391 58.2188C154.69 58.5677 154.844 59.043 154.852 59.6445V60.0898C154.852 60.7018 154.703 61.1862 154.406 61.543C154.109 61.8997 153.714 62.0781 153.219 62.0781C152.729 62.0781 152.336 61.9049 152.039 61.5586C151.745 61.2122 151.592 60.7435 151.582 60.1523V59.6914ZM152.273 60.0898C152.273 60.5247 152.358 60.8672 152.527 61.1172C152.699 61.3646 152.93 61.4883 153.219 61.4883C153.828 61.4883 154.142 61.0482 154.16 60.168V59.6914C154.16 59.2591 154.074 58.918 153.902 58.668C153.73 58.4154 153.5 58.2891 153.211 58.2891C152.927 58.2891 152.699 58.4154 152.527 58.668C152.358 58.918 152.273 59.2578 152.273 59.6875V60.0898Z" fill="#F3F5F7"/>
<path d="M156.488 62H155.797V56H156.488V62Z" fill="#F3F5F7"/>
</svg>
