<svg width="114" height="36" viewBox="0 0 114 36" fill="none" xmlns="http://www.w3.org/2000/svg">
<path opacity="0.795201" fill-rule="evenodd" clip-rule="evenodd" d="M17.972 6.85204C11.8348 6.85204 6.84145 11.8534 6.84145 18.0003C6.84145 24.1472 11.8348 29.1478 17.972 29.1478C24.1096 29.1478 29.1033 24.1472 29.1033 18.0003C29.1033 11.8534 24.1096 6.85204 17.972 6.85204ZM17.972 29.5704C11.6023 29.5704 6.41992 24.3805 6.41992 18.0003C6.41992 11.6201 11.6023 6.42987 17.972 6.42987C24.3425 6.42987 29.5249 11.6201 29.5249 18.0003C29.5249 24.3805 24.3425 29.5704 17.972 29.5704Z" fill="white"/>
<path fill-rule="evenodd" clip-rule="evenodd" d="M17.9702 5.73999C11.2249 5.73999 5.73145 11.2415 5.73145 17.9977C5.73145 24.7604 11.2249 30.2619 17.9702 30.2619C20.8823 30.2619 23.5622 29.2408 25.6585 27.5288L25.3698 27.2261C23.344 28.8601 20.7698 29.8397 17.9702 29.8397C11.4568 29.8397 6.15333 24.5282 6.15333 17.9977C6.15333 11.474 11.4568 6.16252 17.9702 6.16252C22.9857 6.16252 27.2832 9.30414 28.9925 13.7284L29.4144 13.6439C27.6629 9.02973 23.1893 5.73999 17.9702 5.73999Z" fill="white"/>
<path fill-rule="evenodd" clip-rule="evenodd" d="M17.9697 5.35925C21.4234 5.35925 24.5538 6.74706 26.8326 9.0014L27.0998 8.6701C24.7435 6.35243 21.522 4.92957 17.9697 4.92957C10.7744 4.92957 4.92188 10.791 4.92188 17.9976C4.92188 25.2043 10.7744 31.0722 17.9697 31.0722C19.0882 31.0722 20.1713 30.9312 21.2055 30.6704L21.0437 30.2618C20.0588 30.5087 19.0321 30.6425 17.9697 30.6425C11.0134 30.6425 5.35091 24.9717 5.35091 17.9976C5.35091 11.03 11.0134 5.35925 17.9697 5.35925Z" fill="white"/>
<path opacity="0.70266" fill-rule="evenodd" clip-rule="evenodd" d="M4.56272 17.9976H4.10547C4.10547 24.3023 8.32579 29.6492 14.0865 31.3333L14.199 30.8889C8.63551 29.2549 4.56272 24.0976 4.56272 17.9976ZM19.9108 4.2533L19.8543 4.70409C26.3677 5.62 31.3829 11.2346 31.3829 17.9976C31.3829 21.3156 30.1804 24.3516 28.1824 26.6976L28.5625 26.9509C30.6091 24.528 31.8401 21.4068 31.8401 17.9976C31.8401 11.002 26.6492 5.19746 19.9108 4.2533Z" fill="white"/>
<path opacity="0.695801" fill-rule="evenodd" clip-rule="evenodd" d="M4.40796 13.8693L3.94356 13.7426C3.52846 15.0882 3.31055 16.5179 3.31055 17.9976C3.31055 22.048 4.95631 25.7252 7.61553 28.3741L7.95311 28.0361C5.3857 25.4647 3.79602 21.9142 3.79602 17.9976C3.79602 16.5601 4.00715 15.1798 4.40796 13.8693ZM17.9691 3.31598C15.465 3.31598 13.1019 3.95031 11.0339 5.06371L11.2378 5.50735C13.2426 4.42258 15.5357 3.80255 17.9691 3.80255C25.7911 3.80255 32.1498 10.1709 32.1498 17.9976C32.1498 24.4011 27.9012 29.8253 22.0773 31.5866L22.1966 32.0514C28.232 30.2342 32.6349 24.6261 32.6349 17.9976C32.6349 9.90297 26.0583 3.31598 17.9691 3.31598Z" fill="white"/>
<path opacity="0.398879" fill-rule="evenodd" clip-rule="evenodd" d="M2.98019 17.9975C2.98019 15.0172 3.85218 12.242 5.35755 9.91002L4.92137 9.63525C3.37385 12.0517 2.47363 14.9189 2.47363 17.9975C2.47363 23.2242 5.06212 27.8596 9.02917 30.6702L9.33174 30.2617C5.49116 27.5426 2.98019 23.0625 2.98019 17.9975ZM17.9692 2.47797C17.1955 2.47797 16.436 2.53414 15.6904 2.64719L15.7537 3.147L15.7465 3.15452C16.471 3.04146 17.2169 2.98529 17.9692 2.98529C26.2412 2.98529 32.9657 9.71968 32.9657 17.9975C32.9657 21.3363 31.8755 24.4221 30.0254 26.9154L30.4405 27.2116C32.3467 24.6335 33.4723 21.4493 33.4723 17.9975C33.4723 9.43811 26.5224 2.47797 17.9692 2.47797Z" fill="white"/>
<path opacity="0.399391" fill-rule="evenodd" clip-rule="evenodd" d="M17.9691 1.68188C8.98693 1.68188 1.67871 9.00124 1.67871 17.9975C1.67871 25.4996 6.75031 31.8258 13.6363 33.7281L13.7699 33.2065C7.11611 31.3679 2.21348 25.2463 2.21348 17.9975C2.21348 9.29711 9.28236 2.21747 17.9691 2.21747C26.6634 2.21747 33.7323 9.29711 33.7323 17.9975C33.7323 19.8708 33.4015 21.6743 32.8038 23.3441L33.3032 23.5133C33.9291 21.787 34.2671 19.9345 34.2671 17.9975C34.2671 9.00124 26.9588 1.68188 17.9691 1.68188Z" fill="white"/>
<path opacity="0.303897" fill-rule="evenodd" clip-rule="evenodd" d="M17.9692 0.843628C8.52296 0.843628 0.841797 8.53614 0.841797 17.9975C0.841797 27.4585 8.52296 35.1581 17.9692 35.1581C18.9541 35.1581 19.9247 35.0734 20.8674 34.9045L20.7477 34.3621V34.3546C19.8475 34.5167 18.9191 34.5947 17.9692 34.5947C8.83911 34.5947 1.40443 27.1483 1.40443 17.9975C1.40443 8.85313 8.83911 1.40712 17.9692 1.40712C26.2059 1.40712 33.0568 7.45852 34.33 15.3482L34.8858 15.278C33.5848 7.10647 26.4945 0.843628 17.9692 0.843628Z" fill="white"/>
<path opacity="0.302711" fill-rule="evenodd" clip-rule="evenodd" d="M17.9726 0.591044C8.38777 0.591044 0.590145 8.40055 0.590145 18.0004C0.590145 27.5995 8.38777 35.4093 17.9726 35.4093C27.5578 35.4093 35.3558 27.5995 35.3558 18.0004C35.3558 8.40055 27.5578 0.591044 17.9726 0.591044ZM17.9726 36C8.06233 36 0 27.9257 0 18.0004C0 8.07462 8.06233 0 17.9726 0C27.8833 0 35.9459 8.07462 35.9459 18.0004C35.9459 27.9257 27.8833 36 17.9726 36Z" fill="white"/>
<path fill-rule="evenodd" clip-rule="evenodd" d="M43.9609 9.85411H41.2561C41.2238 9.85411 41.208 9.87053 41.208 9.90301V12.553C41.208 12.5859 41.2238 12.6023 41.2561 12.6023H42.9151C42.9952 12.6023 43.0354 12.6428 43.0354 12.7242V13.494C43.0354 13.575 42.9952 13.6159 42.9151 13.6159H41.2561C41.2238 13.6159 41.208 13.6323 41.208 13.6648V16.3272C41.208 16.36 41.2238 16.3761 41.2561 16.3761H43.9609C44.041 16.3761 44.0812 16.417 44.0812 16.4983V17.2675C44.0812 17.3492 44.041 17.3897 43.9609 17.3897H40.174C40.0939 17.3897 40.0537 17.3492 40.0537 17.2675V8.96275C40.0537 8.88138 40.0939 8.84052 40.174 8.84052H43.9609C44.041 8.84052 44.0812 8.88138 44.0812 8.96275V9.73225C44.0812 9.81361 44.041 9.85411 43.9609 9.85411Z" fill="#F3F5F7"/>
<path fill-rule="evenodd" clip-rule="evenodd" d="M46.7014 14.8984H48.3004C48.3244 14.8984 48.3363 14.882 48.3363 14.8491L47.5188 10.5138C47.5109 10.4977 47.5027 10.4893 47.4948 10.4893C47.4865 10.4893 47.4786 10.4977 47.4707 10.5138L46.6651 14.8491C46.6651 14.882 46.6774 14.8984 46.7014 14.8984ZM48.8053 17.2799L48.5406 15.8755C48.5406 15.8591 48.5345 15.847 48.5227 15.8386C48.5105 15.8306 48.4965 15.8266 48.4807 15.8266H46.5211C46.505 15.8266 46.491 15.8306 46.4791 15.8386C46.4669 15.847 46.4608 15.8591 46.4608 15.8755L46.2083 17.2799C46.2004 17.3532 46.1562 17.3897 46.0761 17.3897H45.1625C45.1222 17.3897 45.0924 17.3777 45.0723 17.3532C45.0522 17.3288 45.0461 17.2963 45.0544 17.2554L46.8458 8.95034C46.8616 8.877 46.9058 8.84052 46.978 8.84052H48.0479C48.1276 8.84052 48.1718 8.877 48.18 8.95034L49.9833 17.2554V17.2799C49.9833 17.3532 49.9471 17.3897 49.8752 17.3897H48.9375C48.8653 17.3897 48.8211 17.3532 48.8053 17.2799Z" fill="#F3F5F7"/>
<path fill-rule="evenodd" clip-rule="evenodd" d="M52.1842 9.90301V12.6388C52.1842 12.6716 52.2004 12.6877 52.2327 12.6877H53.1223C53.4506 12.6877 53.7153 12.5596 53.9157 12.3031C54.1157 12.0466 54.2163 11.7065 54.2163 11.2833C54.2163 10.8436 54.1157 10.4955 53.9157 10.239C53.7153 9.98218 53.4506 9.85411 53.1223 9.85411H52.2327C52.2004 9.85411 52.1842 9.87053 52.1842 9.90301ZM54.2282 17.2923L53.1223 13.6524C53.1141 13.6283 53.0979 13.6159 53.0738 13.6159H52.2327C52.2004 13.6159 52.1842 13.6323 52.1842 13.6648V17.2675C52.1842 17.3492 52.1444 17.3897 52.0643 17.3897H51.1506C51.0701 17.3897 51.0303 17.3492 51.0303 17.2675V8.96275C51.0303 8.88138 51.0701 8.84052 51.1506 8.84052H53.3026C53.7113 8.84052 54.0719 8.94231 54.3844 9.14591C54.6968 9.3495 54.9393 9.63629 55.1117 10.007C55.2841 10.3773 55.3702 10.7988 55.3702 11.2709C55.3702 11.7839 55.2661 12.2298 55.0578 12.6085C54.8491 12.9869 54.5647 13.2616 54.2041 13.4327C54.18 13.4572 54.1721 13.4812 54.18 13.5061L55.4065 17.2554L55.4184 17.3043C55.4184 17.3612 55.3825 17.3897 55.3103 17.3897H54.3725C54.3003 17.3897 54.2522 17.3572 54.2282 17.2923Z" fill="#F3F5F7"/>
<path fill-rule="evenodd" clip-rule="evenodd" d="M60.7915 8.96275V9.73225C60.7915 9.81361 60.7513 9.85411 60.6716 9.85411H59.0963C59.0644 9.85411 59.0482 9.87053 59.0482 9.90301V17.2675C59.0482 17.3492 59.0084 17.3897 58.9283 17.3897H58.0142C57.9345 17.3897 57.8943 17.3492 57.8943 17.2675V9.90301C57.8943 9.87053 57.8781 9.85411 57.8465 9.85411H56.3557C56.2752 9.85411 56.2354 9.81361 56.2354 9.73225V8.96275C56.2354 8.88138 56.2752 8.84052 56.3557 8.84052H60.6716C60.7513 8.84052 60.7915 8.88138 60.7915 8.96275Z" fill="#F3F5F7"/>
<path fill-rule="evenodd" clip-rule="evenodd" d="M65.227 8.84052H66.1407C66.2208 8.84052 66.2607 8.88138 66.2607 8.96275V17.2675C66.2607 17.3492 66.2208 17.3897 66.1407 17.3897H65.227C65.147 17.3897 65.1067 17.3492 65.1067 17.2675V13.6648C65.1067 13.6323 65.0906 13.6159 65.0586 13.6159H63.2435C63.2111 13.6159 63.1953 13.6323 63.1953 13.6648V17.2675C63.1953 17.3492 63.1551 17.3897 63.075 17.3897H62.1613C62.0809 17.3897 62.041 17.3492 62.041 17.2675V8.96275C62.041 8.88138 62.0809 8.84052 62.1613 8.84052H63.075C63.1551 8.84052 63.1953 8.88138 63.1953 8.96275V12.553C63.1953 12.5859 63.2111 12.6023 63.2435 12.6023H65.0586C65.0906 12.6023 65.1067 12.5859 65.1067 12.553V8.96275C65.1067 8.88138 65.147 8.84052 65.227 8.84052Z" fill="#F3F5F7"/>
<path fill-rule="evenodd" clip-rule="evenodd" d="M73.63 8.84052H74.5437C74.6234 8.84052 74.664 8.88138 74.664 8.96275V17.2675C74.664 17.3492 74.6234 17.3897 74.5437 17.3897H73.63C73.5499 17.3897 73.5097 17.3492 73.5097 17.2675V13.6648C73.5097 13.6323 73.4935 13.6159 73.4616 13.6159H71.6464C71.6141 13.6159 71.5979 13.6323 71.5979 13.6648V17.2675C71.5979 17.3492 71.5581 17.3897 71.4783 17.3897H70.5647C70.4842 17.3897 70.4443 17.3492 70.4443 17.2675V8.96275C70.4443 8.88138 70.4842 8.84052 70.5647 8.84052H71.4783C71.5581 8.84052 71.5979 8.88138 71.5979 8.96275V12.553C71.5979 12.5859 71.6141 12.6023 71.6464 12.6023H73.4616C73.4935 12.6023 73.5097 12.5859 73.5097 12.553V8.96275C73.5097 8.88138 73.5499 8.84052 73.63 8.84052Z" fill="#F3F5F7"/>
<path fill-rule="evenodd" clip-rule="evenodd" d="M79.2302 10.9167C79.2302 10.5752 79.14 10.2961 78.9597 10.0801C78.7794 9.86446 78.5453 9.75646 78.2565 9.75646C77.9681 9.75646 77.7336 9.86446 77.5533 10.0801C77.373 10.2961 77.2832 10.5752 77.2832 10.9167V15.3137C77.2832 15.6556 77.373 15.9347 77.5533 16.1504C77.7336 16.3664 77.9681 16.474 78.2565 16.474C78.5453 16.474 78.7794 16.3664 78.9597 16.1504C79.14 15.9347 79.2302 15.6556 79.2302 15.3137V10.9167ZM79.7955 9.37809C80.188 9.80133 80.3845 10.3552 80.3845 11.039V15.1915C80.3845 15.7534 80.248 16.2317 79.9761 16.6265C79.7032 17.0213 79.3343 17.28 78.8696 17.4019C78.8459 17.4183 78.8337 17.4387 78.8337 17.4632V18.599C78.8337 18.6804 78.7938 18.7212 78.7137 18.7212H77.7878C77.7077 18.7212 77.6675 18.6804 77.6675 18.599V17.4632C77.6675 17.4387 77.6557 17.4183 77.6316 17.4019C77.1665 17.272 76.8002 17.0111 76.5315 16.6207C76.2629 16.2299 76.1289 15.7534 76.1289 15.1915V11.039C76.1289 10.3552 76.3254 9.80133 76.7179 9.37809C77.1105 8.95485 77.6237 8.74286 78.2565 8.74286C78.8897 8.74286 79.4029 8.95485 79.7955 9.37809Z" fill="#F3F5F7"/>
<path fill-rule="evenodd" clip-rule="evenodd" d="M40.7747 26.8781C40.5179 26.6252 40.3896 26.2906 40.3896 25.8743V22.982C40.3896 22.5661 40.5179 22.2315 40.7747 21.9783C41.0315 21.7254 41.3698 21.5988 41.79 21.5988C42.2098 21.5988 42.5496 21.7254 42.8089 21.9783C43.0682 22.2315 43.1978 22.5686 43.1978 22.9901V23.3217C43.1978 23.3746 43.172 23.4009 43.1203 23.4009H42.5291C42.477 23.4009 42.4512 23.3746 42.4512 23.3217V22.974C42.4512 22.758 42.3901 22.5843 42.2684 22.4526C42.1462 22.3209 41.9868 22.2548 41.79 22.2548C41.5928 22.2548 41.4333 22.3209 41.3116 22.4526C41.1895 22.5843 41.1288 22.758 41.1288 22.974V25.8823C41.1288 26.0983 41.1895 26.2724 41.3116 26.4037C41.4333 26.5358 41.5928 26.6015 41.79 26.6015C41.9868 26.6015 42.1462 26.5358 42.2684 26.4037C42.3901 26.2724 42.4512 26.0983 42.4512 25.8823V25.0132C42.4512 24.9921 42.4404 24.9815 42.4199 24.9815H41.8288C41.7767 24.9815 41.7512 24.9552 41.7512 24.9023V24.4123C41.7512 24.3598 41.7767 24.3335 41.8288 24.3335H43.1203C43.172 24.3335 43.1978 24.3598 43.1978 24.4123V25.8743C43.1978 26.2906 43.0682 26.6252 42.8089 26.8781C42.5496 27.1309 42.2098 27.2572 41.79 27.2572C41.3698 27.2572 41.0315 27.1309 40.7747 26.8781Z" fill="#F3F5F7"/>
<path fill-rule="evenodd" clip-rule="evenodd" d="M92.2208 13.0746V13.4681C92.2208 13.5098 92.2002 13.5305 92.1594 13.5305H91.3538C91.3375 13.5305 91.3292 13.5389 91.3292 13.5555V17.3219C91.3292 17.3637 91.3088 17.3844 91.2679 17.3844H90.8004C90.7596 17.3844 90.739 17.3637 90.739 17.3219V13.5555C90.739 13.5389 90.7308 13.5305 90.7146 13.5305H89.9522C89.911 13.5305 89.8906 13.5098 89.8906 13.4681V13.0746C89.8906 13.033 89.911 13.0121 89.9522 13.0121H92.1594C92.2002 13.0121 92.2208 13.033 92.2208 13.0746Z" fill="#B7C2CC"/>
<path fill-rule="evenodd" clip-rule="evenodd" d="M86.0357 16.666C86.1442 16.5371 86.1987 16.3537 86.1987 16.1166C86.1987 15.875 86.1453 15.6866 86.0389 15.5511C85.9321 15.4158 85.7845 15.3484 85.596 15.3484H85.1657C85.1492 15.3484 85.141 15.3564 85.141 15.3732V16.8347C85.141 16.8518 85.1492 16.8598 85.1657 16.8598H85.5898C85.7785 16.8598 85.927 16.7952 86.0357 16.666ZM85.141 13.5554V14.8797C85.141 14.8962 85.1492 14.9048 85.1657 14.9048H85.5591C85.7519 14.9048 85.9015 14.8454 86.0079 14.7269C86.1146 14.6078 86.1677 14.4425 86.1677 14.2303C86.1677 14.0093 86.1146 13.8378 86.0079 13.7149C85.9015 13.592 85.7519 13.5306 85.5591 13.5306H85.1657C85.1492 13.5306 85.141 13.5387 85.141 13.5554ZM86.4721 17.0721C86.2611 17.2806 85.9835 17.3844 85.6392 17.3844H84.6124C84.5712 17.3844 84.5508 17.3637 84.5508 17.3221V13.0744C84.5508 13.0328 84.5712 13.0121 84.6124 13.0121H85.5531C85.9259 13.0121 86.218 13.111 86.4292 13.3088C86.6401 13.5067 86.7457 13.7951 86.7457 14.174C86.7457 14.6236 86.5879 14.9339 86.2722 15.1047C86.2518 15.1171 86.2498 15.1274 86.2662 15.1358C86.43 15.2356 86.5584 15.3755 86.6503 15.5546C86.7426 15.7334 86.7889 15.9459 86.7889 16.1916C86.7889 16.5703 86.6833 16.8642 86.4721 17.0721Z" fill="#B7C2CC"/>
<path fill-rule="evenodd" clip-rule="evenodd" d="M93.2435 16.11H94.0611C94.0736 16.11 94.0798 16.1019 94.0798 16.0852L93.6617 13.8677C93.6574 13.8597 93.6534 13.8553 93.6492 13.8553C93.6452 13.8553 93.6412 13.8597 93.637 13.8677L93.2251 16.0852C93.2251 16.1019 93.231 16.11 93.2435 16.11ZM94.3194 17.3282L94.1843 16.6101C94.1843 16.6014 94.1812 16.5954 94.1752 16.591C94.169 16.5873 94.1619 16.585 94.1533 16.585H93.1513C93.143 16.585 93.1356 16.5873 93.1297 16.591C93.1237 16.5954 93.1206 16.6014 93.1206 16.6101L92.9914 17.3282C92.9872 17.3657 92.9648 17.3844 92.9236 17.3844H92.4566C92.4362 17.3844 92.4206 17.3784 92.4103 17.3657C92.4001 17.3533 92.397 17.3365 92.4013 17.3158L93.3173 13.0683C93.3253 13.0308 93.3483 13.0121 93.3849 13.0121H93.9322C93.9731 13.0121 93.9958 13.0308 93.9998 13.0683L94.9218 17.3158V17.3282C94.9218 17.3657 94.9036 17.3844 94.8667 17.3844H94.3873C94.3503 17.3844 94.3276 17.3657 94.3194 17.3282Z" fill="#B7C2CC"/>
<path fill-rule="evenodd" clip-rule="evenodd" d="M89.3696 13.5306H87.986C87.9698 13.5306 87.9616 13.5387 87.9616 13.5554V14.9109C87.9616 14.9276 87.9698 14.936 87.986 14.936H88.8345C88.8756 14.936 88.8961 14.9567 88.8961 14.9985V15.3919C88.8961 15.4337 88.8756 15.4545 88.8345 15.4545H87.986C87.9698 15.4545 87.9616 15.4626 87.9616 15.4793V16.8411C87.9616 16.8578 87.9698 16.8659 87.986 16.8659H89.3696C89.4105 16.8659 89.4309 16.8869 89.4309 16.9285V17.3221C89.4309 17.3637 89.4105 17.3844 89.3696 17.3844H87.4327C87.3915 17.3844 87.3711 17.3637 87.3711 17.3221V13.0744C87.3711 13.0328 87.3915 13.0121 87.4327 13.0121H89.3696C89.4105 13.0121 89.4309 13.0328 89.4309 13.0744V13.468C89.4309 13.5099 89.4105 13.5306 89.3696 13.5306Z" fill="#B7C2CC"/>
<path fill-rule="evenodd" clip-rule="evenodd" d="M44.0137 27.1153V21.7412C44.0137 21.6887 44.0395 21.6624 44.0916 21.6624H44.6828C44.7345 21.6624 44.7603 21.6887 44.7603 21.7412V26.5067C44.7603 26.5279 44.7708 26.5381 44.7916 26.5381H46.5338C46.5856 26.5381 46.6118 26.5648 46.6118 26.6173V27.1153C46.6118 27.1679 46.5856 27.1942 46.5338 27.1942H44.0916C44.0395 27.1942 44.0137 27.1679 44.0137 27.1153Z" fill="#F3F5F7"/>
<path fill-rule="evenodd" clip-rule="evenodd" d="M48.9302 26.3921C49.0548 26.2523 49.1169 26.0692 49.1169 25.8426V23.0134C49.1169 22.7872 49.0548 22.604 48.9302 22.4643C48.8059 22.3249 48.64 22.2548 48.4324 22.2548C48.2302 22.2548 48.0678 22.3249 47.9464 22.4643C47.8243 22.604 47.7636 22.7872 47.7636 23.0134V25.8426C47.7636 26.0692 47.8243 26.2523 47.9464 26.3921C48.0678 26.5318 48.2302 26.6015 48.4324 26.6015C48.64 26.6015 48.8059 26.5318 48.9302 26.3921ZM47.4056 26.862C47.1463 26.5989 47.0166 26.2487 47.0166 25.8112V23.0532C47.0166 22.6157 47.1463 22.2643 47.4056 21.998C47.6649 21.7324 48.0071 21.5988 48.4324 21.5988C48.863 21.5988 49.2092 21.7324 49.471 21.998C49.7329 22.2643 49.8636 22.6157 49.8636 23.0532V25.8112C49.8636 26.2487 49.7329 26.5989 49.471 26.862C49.2092 27.1258 48.863 27.2572 48.4324 27.2572C48.0071 27.2572 47.6649 27.1258 47.4056 26.862Z" fill="#F3F5F7"/>
<path fill-rule="evenodd" clip-rule="evenodd" d="M52.5594 26.2853C52.6966 26.1222 52.7655 25.8901 52.7655 25.5902C52.7655 25.2844 52.698 25.0462 52.5633 24.8747C52.4283 24.7036 52.2415 24.6182 52.0031 24.6182H51.4586C51.4378 24.6182 51.4273 24.6284 51.4273 24.6496V26.4987C51.4273 26.5202 51.4378 26.5305 51.4586 26.5305H51.9952C52.234 26.5305 52.4218 26.4487 52.5594 26.2853ZM51.4273 22.3498V24.0253C51.4273 24.0461 51.4378 24.057 51.4586 24.057H51.9564C52.2002 24.057 52.3895 23.9819 52.5242 23.8319C52.6592 23.6812 52.7264 23.4722 52.7264 23.2036C52.7264 22.9241 52.6592 22.707 52.5242 22.5516C52.3895 22.3962 52.2002 22.3184 51.9564 22.3184H51.4586C51.4378 22.3184 51.4273 22.3287 51.4273 22.3498ZM53.1114 26.799C52.8445 27.0628 52.4933 27.1942 52.0576 27.1942H50.7586C50.7065 27.1942 50.6807 27.1679 50.6807 27.1153V21.7412C50.6807 21.6887 50.7065 21.6624 50.7586 21.6624H51.9488C52.4204 21.6624 52.7899 21.7876 53.0572 22.0379C53.324 22.2882 53.4576 22.653 53.4576 23.1325C53.4576 23.7013 53.2579 24.0939 52.8585 24.3099C52.8327 24.3256 52.8302 24.3387 52.851 24.3493C53.0582 24.4755 53.2206 24.6525 53.3369 24.8791C53.4537 25.1053 53.5122 25.3742 53.5122 25.6851C53.5122 26.1641 53.3786 26.5359 53.1114 26.799Z" fill="#F3F5F7"/>
<path fill-rule="evenodd" clip-rule="evenodd" d="M54.7088 25.5818H55.7431C55.7586 25.5818 55.7665 25.5716 55.7665 25.5504L55.2374 22.745C55.2324 22.7348 55.227 22.7293 55.222 22.7293C55.217 22.7293 55.2116 22.7348 55.2066 22.745L54.6854 25.5504C54.6854 25.5716 54.693 25.5818 54.7088 25.5818ZM56.07 27.123L55.8986 26.2145C55.8986 26.2035 55.8947 26.1959 55.8871 26.1904C55.8792 26.1857 55.8703 26.1827 55.8598 26.1827H54.5917C54.5816 26.1827 54.5723 26.1857 54.5647 26.1904C54.5568 26.1959 54.5529 26.2035 54.5529 26.2145L54.3895 27.123C54.3845 27.1704 54.3557 27.1942 54.304 27.1942H53.7128C53.687 27.1942 53.6676 27.1865 53.6543 27.1704C53.6414 27.1547 53.6378 27.1336 53.6428 27.1073L54.8018 21.7336C54.8122 21.6861 54.8409 21.6624 54.8876 21.6624H55.5797C55.6314 21.6624 55.6602 21.6861 55.6655 21.7336L56.8321 27.1073V27.123C56.8321 27.1704 56.8087 27.1942 56.762 27.1942H56.1554C56.1087 27.1942 56.08 27.1704 56.07 27.123Z" fill="#F3F5F7"/>
<path fill-rule="evenodd" clip-rule="evenodd" d="M57.377 27.1153V21.7412C57.377 21.6887 57.4032 21.6624 57.4549 21.6624H58.046C58.0978 21.6624 58.124 21.6887 58.124 21.7412V26.5067C58.124 26.5279 58.134 26.5381 58.1549 26.5381H59.8971C59.9492 26.5381 59.975 26.5648 59.975 26.6173V27.1153C59.975 27.1679 59.9492 27.1942 59.8971 27.1942H57.4549C57.4032 27.1942 57.377 27.1679 57.377 27.1153Z" fill="#F3F5F7"/>
<path fill-rule="evenodd" clip-rule="evenodd" d="M62.2981 26.8664C62.0413 26.6055 61.9131 26.2593 61.9131 25.8269V23.0214C61.9131 22.5894 62.0413 22.2446 62.2981 21.9863C62.5549 21.7283 62.8932 21.5988 63.3134 21.5988C63.7386 21.5988 64.0795 21.7283 64.3363 21.9863C64.5931 22.2446 64.7213 22.5894 64.7213 23.0214V23.1477C64.7213 23.2006 64.6954 23.2268 64.6433 23.2268L64.0525 23.2586C64.0005 23.2586 63.9746 23.2323 63.9746 23.1794V22.974C63.9746 22.758 63.9135 22.5843 63.7918 22.4526C63.6697 22.3209 63.5102 22.2548 63.3134 22.2548C63.1159 22.2548 62.9582 22.3209 62.839 22.4526C62.7194 22.5843 62.6601 22.758 62.6601 22.974V25.8823C62.6601 26.0983 62.7194 26.2724 62.839 26.4037C62.9582 26.5358 63.1159 26.6015 63.3134 26.6015C63.5102 26.6015 63.6697 26.5358 63.7918 26.4037C63.9135 26.2724 63.9746 26.0983 63.9746 25.8823V25.6769C63.9746 25.6244 64.0005 25.5978 64.0525 25.5978L64.6433 25.6295C64.6954 25.6295 64.7213 25.6561 64.7213 25.7083V25.8269C64.7213 26.2593 64.5931 26.6055 64.3363 26.8664C64.0795 27.1269 63.7386 27.2572 63.3134 27.2572C62.8932 27.2572 62.5549 27.1269 62.2981 26.8664Z" fill="#F3F5F7"/>
<path fill-rule="evenodd" clip-rule="evenodd" d="M67.3042 26.3921C67.4288 26.2523 67.4909 26.0692 67.4909 25.8426V23.0134C67.4909 22.7872 67.4288 22.604 67.3042 22.4643C67.1799 22.3249 67.014 22.2548 66.8064 22.2548C66.6042 22.2548 66.4419 22.3249 66.3201 22.4643C66.1984 22.604 66.1373 22.7872 66.1373 23.0134V25.8426C66.1373 26.0692 66.1984 26.2523 66.3201 26.3921C66.4419 26.5318 66.6042 26.6015 66.8064 26.6015C67.014 26.6015 67.1799 26.5318 67.3042 26.3921ZM65.7796 26.862C65.5203 26.5989 65.3906 26.2487 65.3906 25.8112V23.0532C65.3906 22.6157 65.5203 22.2643 65.7796 21.998C66.0389 21.7324 66.3812 21.5988 66.8064 21.5988C67.237 21.5988 67.5832 21.7324 67.8447 21.998C68.1069 22.2643 68.2376 22.6157 68.2376 23.0532V25.8112C68.2376 26.2487 68.1069 26.5989 67.8447 26.862C67.5832 27.1258 67.237 27.2572 66.8064 27.2572C66.3812 27.2572 66.0389 27.1258 65.7796 26.862Z" fill="#F3F5F7"/>
<path fill-rule="evenodd" clip-rule="evenodd" d="M71.5675 21.6624H72.1583C72.2104 21.6624 72.2362 21.6887 72.2362 21.7412V27.1153C72.2362 27.1679 72.2104 27.1942 72.1583 27.1942H71.5675C71.5154 27.1942 71.4895 27.1679 71.4895 27.1153V23.1952C71.4895 23.1795 71.4856 23.1719 71.4781 23.1719C71.4698 23.1719 71.4608 23.1773 71.4504 23.1876L70.7037 24.6021C70.6879 24.639 70.6649 24.6576 70.6337 24.6576C70.6024 24.6576 70.5795 24.639 70.564 24.6021L69.8249 23.1952C69.8145 23.185 69.8051 23.1795 69.7976 23.1795C69.7897 23.1795 69.7861 23.1876 69.7861 23.2036V27.1153C69.7861 27.1679 69.7599 27.1942 69.7082 27.1942H69.1166C69.0649 27.1942 69.0391 27.1679 69.0391 27.1153V21.7412C69.0391 21.6887 69.0649 21.6624 69.1166 21.6624H69.7082C69.7441 21.6624 69.7753 21.681 69.8015 21.7179L70.6182 23.2036C70.6233 23.2087 70.6312 23.2113 70.6412 23.2113C70.652 23.2113 70.6595 23.2087 70.6649 23.2036L71.4741 21.7179C71.4942 21.681 71.5255 21.6624 71.5675 21.6624Z" fill="#F3F5F7"/>
<path fill-rule="evenodd" clip-rule="evenodd" d="M75.6505 21.6624H76.2413C76.2934 21.6624 76.3192 21.6887 76.3192 21.7412V27.1153C76.3192 27.1679 76.2934 27.1942 76.2413 27.1942H75.6505C75.5984 27.1942 75.5725 27.1679 75.5725 27.1153V23.1952C75.5725 23.1795 75.5686 23.1719 75.5611 23.1719C75.5528 23.1719 75.5438 23.1773 75.5338 23.1876L74.7867 24.6021C74.7709 24.639 74.7479 24.6576 74.7167 24.6576C74.6854 24.6576 74.6625 24.639 74.647 24.6021L73.9079 23.1952C73.8975 23.185 73.8881 23.1795 73.8806 23.1795C73.8727 23.1795 73.8691 23.1876 73.8691 23.2036V27.1153C73.8691 27.1679 73.8429 27.1942 73.7912 27.1942H73.1996C73.1479 27.1942 73.1221 27.1679 73.1221 27.1153V21.7412C73.1221 21.6887 73.1479 21.6624 73.1996 21.6624H73.7912C73.8274 21.6624 73.8583 21.681 73.8845 21.7179L74.7012 23.2036C74.7063 23.2087 74.7142 23.2113 74.7246 23.2113C74.735 23.2113 74.7426 23.2087 74.7479 23.2036L75.5571 21.7179C75.5776 21.681 75.6085 21.6624 75.6505 21.6624Z" fill="#F3F5F7"/>
<path fill-rule="evenodd" clip-rule="evenodd" d="M79.0268 26.3921C79.1515 26.2523 79.214 26.0692 79.214 25.8426V23.0134C79.214 22.7872 79.1515 22.604 79.0268 22.4643C78.9026 22.3249 78.7366 22.2548 78.529 22.2548C78.3268 22.2548 78.1649 22.3249 78.0431 22.4643C77.921 22.604 77.8603 22.7872 77.8603 23.0134V25.8426C77.8603 26.0692 77.921 26.2523 78.0431 26.3921C78.1649 26.5318 78.3268 26.6015 78.529 26.6015C78.7366 26.6015 78.9026 26.5318 79.0268 26.3921ZM77.5022 26.862C77.2429 26.5989 77.1133 26.2487 77.1133 25.8112V23.0532C77.1133 22.6157 77.2429 22.2643 77.5022 21.998C77.7616 21.7324 78.1038 21.5988 78.529 21.5988C78.9597 21.5988 79.3055 21.7324 79.5677 21.998C79.8292 22.2643 79.9606 22.6157 79.9606 23.0532V25.8112C79.9606 26.2487 79.8292 26.5989 79.5677 26.862C79.3055 27.1258 78.9597 27.2572 78.529 27.2572C78.1038 27.2572 77.7616 27.1258 77.5022 26.862Z" fill="#F3F5F7"/>
<path fill-rule="evenodd" clip-rule="evenodd" d="M83.0486 21.6624H83.6322C83.684 21.6624 83.7098 21.6887 83.7098 21.7412V27.1153C83.7098 27.1679 83.684 27.1942 83.6322 27.1942H82.9631C82.9218 27.1942 82.8935 27.1734 82.8777 27.131L81.5553 23.5196C81.5502 23.509 81.5423 23.505 81.5319 23.5079C81.5212 23.5105 81.5165 23.5167 81.5165 23.5276L81.524 27.1153C81.524 27.1679 81.4982 27.1942 81.4461 27.1942H80.8553C80.8032 27.1942 80.7773 27.1679 80.7773 27.1153V21.7412C80.7773 21.6887 80.8032 21.6624 80.8553 21.6624H81.5165C81.5578 21.6624 81.5862 21.6836 81.602 21.7255L82.9319 25.337C82.9373 25.3527 82.9448 25.3596 82.9556 25.3567C82.9657 25.3541 82.971 25.345 82.971 25.3293V21.7412C82.971 21.6887 82.9969 21.6624 83.0486 21.6624Z" fill="#F3F5F7"/>
<path fill-rule="evenodd" clip-rule="evenodd" d="M84.8275 26.8664C84.5754 26.6055 84.45 26.2644 84.45 25.8426V25.6375C84.45 25.5846 84.4759 25.5583 84.5279 25.5583H85.1033C85.1554 25.5583 85.1812 25.5846 85.1812 25.6375V25.8032C85.1812 26.0458 85.2409 26.2392 85.3601 26.3844C85.4793 26.5289 85.6323 26.6015 85.8191 26.6015C86.0058 26.6015 86.1603 26.5318 86.2817 26.3921C86.4034 26.2523 86.4645 26.0692 86.4645 25.8426C86.4645 25.6901 86.4322 25.5558 86.3675 25.4398C86.3025 25.3237 86.217 25.2198 86.1107 25.1274C86.0044 25.0355 85.8317 24.8998 85.5932 24.7206C85.3288 24.5203 85.1216 24.3492 84.9711 24.2069C84.8207 24.0646 84.6939 23.8935 84.5897 23.6935C84.4859 23.4932 84.4346 23.2586 84.4346 22.9901C84.4346 22.5632 84.5592 22.2246 84.8077 21.9746C85.0566 21.7243 85.3809 21.5988 85.7803 21.5988C86.1948 21.5988 86.528 21.7335 86.7798 22.002C87.0312 22.2705 87.1569 22.6237 87.1569 23.0608V23.2586C87.1569 23.3115 87.1311 23.3378 87.0793 23.3378H86.5036C86.4515 23.3378 86.426 23.3115 86.426 23.2586V23.0451C86.426 22.8083 86.3661 22.6172 86.2468 22.4723C86.1276 22.3275 85.9721 22.2548 85.7803 22.2548C85.5986 22.2548 85.451 22.3194 85.3368 22.4486C85.2225 22.5778 85.1658 22.758 85.1658 22.9901C85.1658 23.2006 85.2225 23.3783 85.3368 23.5235C85.451 23.6683 85.6711 23.8621 85.9979 24.1044C86.3093 24.3412 86.5438 24.5334 86.7019 24.6812C86.8603 24.8286 86.982 24.9906 87.0675 25.1672C87.153 25.3438 87.1957 25.5529 87.1957 25.7951C87.1957 26.2377 87.0689 26.5924 86.8146 26.858C86.5607 27.1244 86.2285 27.2572 85.8191 27.2572C85.4093 27.2572 85.0789 27.1269 84.8275 26.8664Z" fill="#F3F5F7"/>
<path fill-rule="evenodd" clip-rule="evenodd" d="M90.1109 25.5818H91.1453C91.1611 25.5818 91.169 25.5716 91.169 25.5504L90.6399 22.745C90.6345 22.7348 90.6295 22.7293 90.6241 22.7293C90.6191 22.7293 90.6141 22.7348 90.6087 22.745L90.0876 25.5504C90.0876 25.5716 90.0951 25.5818 90.1109 25.5818ZM91.4721 27.123L91.3011 26.2145C91.3011 26.2035 91.2972 26.1959 91.2896 26.1904C91.2817 26.1857 91.2728 26.1827 91.262 26.1827H89.9942C89.9838 26.1827 89.9744 26.1857 89.9669 26.1904C89.9593 26.1959 89.9554 26.2035 89.9554 26.2145L89.792 27.123C89.7866 27.1704 89.7582 27.1942 89.7061 27.1942H89.1153C89.0895 27.1942 89.0697 27.1865 89.0568 27.1704C89.0439 27.1547 89.0399 27.1336 89.0453 27.1073L90.2043 21.7336C90.2143 21.6861 90.2434 21.6624 90.2898 21.6624H90.9822C91.0339 21.6624 91.0627 21.6861 91.0677 21.7336L92.2342 27.1073V27.123C92.2342 27.1704 92.2112 27.1942 92.1645 27.1942H91.5579C91.5112 27.1942 91.4825 27.1704 91.4721 27.123Z" fill="#F3F5F7"/>
<path fill-rule="evenodd" clip-rule="evenodd" d="M92.7793 27.1153V21.7412C92.7793 21.6887 92.8052 21.6624 92.8572 21.6624H93.448C93.5001 21.6624 93.526 21.6887 93.526 21.7412V26.5067C93.526 26.5279 93.5364 26.5381 93.5572 26.5381H95.2998C95.3512 26.5381 95.3774 26.5648 95.3774 26.6173V27.1153C95.3774 27.1679 95.3512 27.1942 95.2998 27.1942H92.8572C92.8052 27.1942 92.7793 27.1679 92.7793 27.1153Z" fill="#F3F5F7"/>
<path fill-rule="evenodd" clip-rule="evenodd" d="M95.9072 27.1153V21.7412C95.9072 21.6887 95.9331 21.6624 95.9852 21.6624H96.5763C96.628 21.6624 96.6543 21.6887 96.6543 21.7412V26.5067C96.6543 26.5279 96.6647 26.5381 96.6851 26.5381H98.4277C98.4795 26.5381 98.5053 26.5648 98.5053 26.6173V27.1153C98.5053 27.1679 98.4795 27.1942 98.4277 27.1942H95.9852C95.9331 27.1942 95.9072 27.1679 95.9072 27.1153Z" fill="#F3F5F7"/>
<path fill-rule="evenodd" clip-rule="evenodd" d="M99.0352 27.1153V21.7412C99.0352 21.6887 99.061 21.6624 99.1131 21.6624H99.7042C99.756 21.6624 99.7822 21.6887 99.7822 21.7412V27.1153C99.7822 27.1679 99.756 27.1942 99.7042 27.1942H99.1131C99.061 27.1942 99.0352 27.1679 99.0352 27.1153Z" fill="#F3F5F7"/>
<path fill-rule="evenodd" clip-rule="evenodd" d="M101.392 25.5818H102.427C102.442 25.5818 102.45 25.5716 102.45 25.5504L101.921 22.745C101.916 22.7348 101.91 22.7293 101.905 22.7293C101.9 22.7293 101.895 22.7348 101.89 22.745L101.369 25.5504C101.369 25.5716 101.377 25.5818 101.392 25.5818ZM102.753 27.123L102.582 26.2145C102.582 26.2035 102.578 26.1959 102.571 26.1904C102.563 26.1857 102.554 26.1827 102.544 26.1827H101.275C101.265 26.1827 101.256 26.1857 101.248 26.1904C101.241 26.1959 101.237 26.2035 101.237 26.2145L101.073 27.123C101.068 27.1704 101.039 27.1942 100.988 27.1942H100.396C100.37 27.1942 100.351 27.1865 100.338 27.1704C100.325 27.1547 100.321 27.1336 100.327 27.1073L101.485 21.7336C101.496 21.6861 101.524 21.6624 101.571 21.6624H102.263C102.315 21.6624 102.344 21.6861 102.349 21.7336L103.516 27.1073V27.123C103.516 27.1704 103.492 27.1942 103.445 27.1942H102.839C102.792 27.1942 102.764 27.1704 102.753 27.123Z" fill="#F3F5F7"/>
<path fill-rule="evenodd" clip-rule="evenodd" d="M106.331 21.6624H106.914C106.966 21.6624 106.991 21.6887 106.991 21.7412V27.1153C106.991 27.1679 106.966 27.1942 106.914 27.1942H106.245C106.203 27.1942 106.175 27.1734 106.159 27.131L104.837 23.5196C104.831 23.509 104.824 23.505 104.814 23.5079C104.803 23.5105 104.798 23.5167 104.798 23.5276L104.806 27.1153C104.806 27.1679 104.779 27.1942 104.728 27.1942H104.137C104.085 27.1942 104.059 27.1679 104.059 27.1153V21.7412C104.059 21.6887 104.085 21.6624 104.137 21.6624H104.798C104.839 21.6624 104.868 21.6836 104.883 21.7255L106.213 25.337C106.219 25.3527 106.226 25.3596 106.237 25.3567C106.247 25.3541 106.253 25.345 106.253 25.3293V21.7412C106.253 21.6887 106.278 21.6624 106.331 21.6624Z" fill="#F3F5F7"/>
<path fill-rule="evenodd" clip-rule="evenodd" d="M108.194 26.8664C107.937 26.6055 107.809 26.2593 107.809 25.8269V23.0214C107.809 22.5894 107.937 22.2446 108.194 21.9863C108.45 21.7283 108.789 21.5988 109.209 21.5988C109.634 21.5988 109.975 21.7283 110.232 21.9863C110.489 22.2446 110.617 22.5894 110.617 23.0214V23.1477C110.617 23.2006 110.591 23.2268 110.539 23.2268L109.948 23.2586C109.896 23.2586 109.87 23.2323 109.87 23.1794V22.974C109.87 22.758 109.809 22.5843 109.687 22.4526C109.565 22.3209 109.406 22.2548 109.209 22.2548C109.011 22.2548 108.854 22.3209 108.734 22.4526C108.615 22.5843 108.556 22.758 108.556 22.974V25.8823C108.556 26.0983 108.615 26.2724 108.734 26.4037C108.854 26.5358 109.011 26.6015 109.209 26.6015C109.406 26.6015 109.565 26.5358 109.687 26.4037C109.809 26.2724 109.87 26.0983 109.87 25.8823V25.6769C109.87 25.6244 109.896 25.5978 109.948 25.5978L110.539 25.6295C110.591 25.6295 110.617 25.6561 110.617 25.7083V25.8269C110.617 26.2593 110.489 26.6055 110.232 26.8664C109.975 27.1269 109.634 27.2572 109.209 27.2572C108.789 27.2572 108.45 27.1269 108.194 26.8664Z" fill="#F3F5F7"/>
<path fill-rule="evenodd" clip-rule="evenodd" d="M113.922 22.3184H112.171C112.151 22.3184 112.141 22.3287 112.141 22.3498V24.0647C112.141 24.0859 112.151 24.0964 112.171 24.0964H113.245C113.297 24.0964 113.323 24.1227 113.323 24.1756V24.6733C113.323 24.7262 113.297 24.7525 113.245 24.7525H112.171C112.151 24.7525 112.141 24.7627 112.141 24.7838V26.5067C112.141 26.5279 112.151 26.5381 112.171 26.5381H113.922C113.974 26.5381 114 26.5648 114 26.6173V27.1153C114 27.1679 113.974 27.1942 113.922 27.1942H111.471C111.419 27.1942 111.394 27.1679 111.394 27.1153V21.7412C111.394 21.6887 111.419 21.6624 111.471 21.6624H113.922C113.974 21.6624 114 21.6887 114 21.7412V22.2393C114 22.2922 113.974 22.3184 113.922 22.3184Z" fill="#F3F5F7"/>
</svg>
