<?xml version="1.0" encoding="UTF-8"?>
<svg width="964px" height="435px" viewBox="0 0 964 435" version="1.1" xmlns="http://www.w3.org/2000/svg" xmlns:xlink="http://www.w3.org/1999/xlink">
    <title>D6AAEC31-063A-4636-A4D1-4651BF673C99</title>
    <g id="visuals" stroke="none" stroke-width="1" fill="none" fill-rule="evenodd">
        <g id="Earth-HQ---Indicator---Oceans" transform="translate(-137.000000, -5251.000000)">
            <g id="Group-2" transform="translate(137.000000, 5251.000000)">
                <g id="Group-7" transform="translate(22.000000, 10.000000)" fill-rule="nonzero">
                    <rect id="Rectangle" fill="#7C90A2" x="90" y="399" width="709" height="1"></rect>
                    <rect id="Rectangle" fill="#7C90A2" x="0" y="0" width="1" height="400"></rect>
                    <rect id="Rectangle" fill="#D5DCE1" x="90.8873592" y="0" width="707.225282" height="1"></rect>
                    <rect id="Rectangle-Copy" fill="#D5DCE1" x="0.887359199" y="44" width="797.225282" height="1"></rect>
                    <rect id="Rectangle-Copy-2" fill="#D5DCE1" x="0.887359199" y="89" width="797.225282" height="1"></rect>
                    <rect id="Rectangle-Copy-3" fill="#D5DCE1" x="0.887359199" y="133" width="797.225282" height="1"></rect>
                    <rect id="Rectangle-Copy-4" fill="#D5DCE1" x="0.887359199" y="177" width="797.225282" height="1"></rect>
                    <rect id="Rectangle-Copy-5" fill="#D5DCE1" x="0.887359199" y="222" width="797.225282" height="1"></rect>
                    <rect id="Rectangle-Copy-6" fill="#D5DCE1" x="0.887359199" y="266" width="797.225282" height="1"></rect>
                    <rect id="Rectangle-Copy-7" fill="#D5DCE1" x="0.887359199" y="310" width="797.225282" height="1"></rect>
                    <rect id="Rectangle-Copy-8" fill="#D5DCE1" x="0.887359199" y="355" width="797.225282" height="1"></rect>
                </g>
                <text id="1950" font-family="BarlowCondensed-Regular, Barlow Condensed" font-size="14" font-style="condensed" font-weight="normal" fill="#38444F">
                    <tspan x="26" y="431">1950</tspan>
                </text>
                <text id="1980" font-family="BarlowCondensed-Regular, Barlow Condensed" font-size="14" font-style="condensed" font-weight="normal" fill="#38444F">
                    <tspan x="370" y="431">1980</tspan>
                </text>
                <text id="1970" font-family="BarlowCondensed-Regular, Barlow Condensed" font-size="14" font-style="condensed" font-weight="normal" fill="#38444F">
                    <tspan x="256" y="431">1970</tspan>
                </text>
                <text id="1960" font-family="BarlowCondensed-Regular, Barlow Condensed" font-size="14" font-style="condensed" font-weight="normal" fill="#38444F">
                    <tspan x="141" y="431">1960</tspan>
                </text>
                <text id="1990" font-family="BarlowCondensed-Regular, Barlow Condensed" font-size="14" font-style="condensed" font-weight="normal" fill="#38444F">
                    <tspan x="485" y="431">1990</tspan>
                </text>
                <text id="2000" font-family="BarlowCondensed-Regular, Barlow Condensed" font-size="14" font-style="condensed" font-weight="normal" fill="#38444F">
                    <tspan x="600" y="432">2000</tspan>
                </text>
                <text id="2010" font-family="BarlowCondensed-Regular, Barlow Condensed" font-size="14" font-style="condensed" font-weight="normal" fill="#38444F">
                    <tspan x="718" y="431">2010</tspan>
                </text>
                <text id="0" font-family="BarlowCondensed-Regular, Barlow Condensed" font-size="14" font-style="condensed" font-weight="normal" fill="#38444F">
                    <tspan x="10.784" y="414">0</tspan>
                </text>
                <text id="120" font-family="BarlowCondensed-Regular, Barlow Condensed" font-size="14" font-style="condensed" font-weight="normal" line-spacing="17.5" fill="#38444F">
                    <tspan x="1.572" y="145">120</tspan>
                </text>
                <text id="100" font-family="BarlowCondensed-Regular, Barlow Condensed" font-size="14" font-style="condensed" font-weight="normal" line-spacing="17.5" fill="#38444F">
                    <tspan x="0.984" y="190">100</tspan>
                </text>
                <text id="80" font-family="BarlowCondensed-Regular, Barlow Condensed" font-size="14" font-style="condensed" font-weight="normal" line-spacing="17.5" fill="#38444F">
                    <tspan x="2.076" y="235"> 80</tspan>
                </text>
                <text id="60" font-family="BarlowCondensed-Regular, Barlow Condensed" font-size="14" font-style="condensed" font-weight="normal" line-spacing="17.5" fill="#38444F">
                    <tspan x="5.044" y="280">60</tspan>
                </text>
                <text id="40" font-family="BarlowCondensed-Regular, Barlow Condensed" font-size="14" font-style="condensed" font-weight="normal" line-spacing="17.5" fill="#38444F">
                    <tspan x="4.974" y="324">40</tspan>
                </text>
                <text id="20" font-family="BarlowCondensed-Regular, Barlow Condensed" font-size="14" font-style="condensed" font-weight="normal" line-spacing="17.5" fill="#38444F">
                    <tspan x="5.156" y="369">20</tspan>
                </text>
                <text id="140" font-family="BarlowCondensed-Regular, Barlow Condensed" font-size="14" font-style="condensed" font-weight="normal" fill="#38444F">
                    <tspan x="1.39" y="102">140</tspan>
                </text>
                <text id="180" font-family="BarlowCondensed-Regular, Barlow Condensed" font-size="14" font-style="condensed" font-weight="normal" fill="#38444F">
                    <tspan x="1.292" y="14">180</tspan>
                </text>
                <text id="million-tonnes" font-family="BarlowCondensed-Regular, Barlow Condensed" font-size="14" font-style="condensed" font-weight="normal" fill="#38444F">
                    <tspan x="32.136" y="14">million tonnes</tspan>
                </text>
                <text id="160" font-family="BarlowCondensed-Regular, Barlow Condensed" font-size="14" font-style="condensed" font-weight="normal" fill="#38444F">
                    <tspan x="1.46" y="58">160</tspan>
                </text>
                <text id="Aquaculture-marine-w" font-family="Barlow-Medium, Barlow" font-size="14" font-weight="400" fill="#1A2129">
                    <tspan x="848" y="26">Aquaculture </tspan>
                    <tspan x="848" y="43">marine waters</tspan>
                </text>
                <line x1="824" y1="21.5" x2="841" y2="21.5" id="Path-13" stroke="#9EB3C8" fill-rule="nonzero"></line>
                <text id="Aquaculture-inland-w" font-family="Barlow-Medium, Barlow" font-size="14" font-weight="400" fill="#1A2129">
                    <tspan x="848" y="89">Aquaculture</tspan>
                    <tspan x="848" y="106">inland waters</tspan>
                </text>
                <line x1="824" y1="86.5" x2="841" y2="86.5" id="Path-13" stroke="#9EB3C8" fill-rule="nonzero"></line>
                <text id="Capture-fisheries-ma" font-family="Barlow-Regular, Barlow" font-size="12" font-weight="normal" fill="#38444F">
                    <tspan x="848" y="197">Capture fisheries</tspan>
                    <tspan x="848" y="211">marine waters</tspan>
                </text>
                <line x1="824" y1="194.5" x2="841" y2="194.5" id="Path-13" stroke="#9EB3C8" fill-rule="nonzero"></line>
                <text id="Capture-fisheries-in" font-family="Barlow-Regular, Barlow" font-size="12" font-weight="normal" fill="#38444F">
                    <tspan x="848" y="379">Capture fisheries</tspan>
                    <tspan x="848" y="393">inland waters</tspan>
                </text>
                <line x1="824" y1="376.5" x2="841" y2="376.5" id="Path-13" stroke="#9EB3C8" fill-rule="nonzero"></line>
                <g id="FAO_Fig1-(1)" transform="translate(32.000000, 19.000000)" fill-rule="nonzero">
                    <g id="Group-6">
                        <polygon id="Path" fill="#B7C2CC" points="7.3617005e-14 377.912233 7.3617005e-14 382.003714 11.5934266 382.003714 23.1868507 382.003714 34.7802773 382.003714 46.3737039 382.003714 57.9671305 382.003714 69.5605571 382.003714 81.1539838 382.003714 92.7474078 382.003714 104.340834 382.003714 115.934261 382.003714 127.527688 382.003714 139.121114 382.003714 150.714541 382.003714 162.307965 382.003714 173.901392 382.003714 185.494818 382.003714 197.088245 382.003714 208.681671 382.003714 220.275098 382.003714 231.868522 382.003714 243.461949 382.003714 255.055375 382.003714 266.648802 382.003714 278.242229 382.003714 289.835655 382.003714 301.429079 382.003714 313.022506 382.003714 324.615933 382.003714 336.209359 382.003714 347.802786 382.003714 359.396212 382.003714 370.989636 382.003714 382.583063 382.003714 394.17649 382.003714 405.769916 382.003714 417.363343 382.003714 428.956767 382.003714 440.550194 382.003714 452.14362 382.003714 463.737047 382.003714 475.330473 382.003714 486.9239 382.003714 498.517324 382.003714 510.110751 382.003714 521.704177 382.003714 533.297604 382.003714 544.891031 382.003714 556.484457 382.003714 568.077881 382.003714 579.671308 382.003714 591.264734 382.003714 602.858161 382.003714 614.451588 382.003714 626.045014 382.003714 637.638438 382.003714 649.231865 382.003714 660.825292 382.003714 672.418718 382.003714 684.012145 382.003714 695.605571 382.003714 707.198996 382.003714 718.792422 382.003714 730.385849 382.003714 741.979275 382.003714 753.572702 382.003714 765.166129 382.003714 776.759553 382.003714 788.352979 382.003714 788.352979 356.281185 788.352979 356.281185 776.759553 356.523556 765.166129 357.68485 753.572702 358.1469 741.979275 358.370233 730.385849 358.647588 718.792422 358.721227 707.198996 359.530894 695.605571 358.757971 684.012145 359.904472 672.418718 360.261597 660.825292 360.447152 649.231865 360.977071 637.638438 361.830789 626.045014 363.45314 614.451588 363.575868 602.858161 364.011596 591.264734 363.704657 579.671308 363.616124 568.077881 364.318089 556.484457 365.241334 544.891031 365.990955 533.297604 366.051225 521.704177 366.401437 510.110751 367.643691 498.517324 367.925755 486.9239 368.73552 475.330473 368.618786 463.737047 368.226834 452.14362 368.706469 440.550194 368.819868 428.956767 369.033521 417.363343 369.322371 405.769916 369.989136 394.17649 369.791663 382.583063 370.095795 370.989636 370.631733 359.396212 370.647872 347.802786 371.087647 336.209359 371.529927 324.615933 371.584218 313.022506 371.328944 301.429079 371.670902 289.835655 371.39288 278.242229 371.403044 266.648802 371.262896 255.055375 371.582098 243.461949 371.721319 231.868522 372.108366 220.275098 372.611366 208.681671 372.734414 197.088245 373.155393 185.494818 373.476803 173.901392 373.516506 162.307965 373.980546 150.714541 374.661523 139.121114 374.247211 127.527688 374.682413 115.934261 375.433323 104.340834 375.682128 92.7474078 375.724431 81.1539838 375.666758 69.5605571 375.592977 57.9671305 375.646118 46.3737039 376.063269 34.7802773 376.558436 23.1868507 377.27022 11.5934266 377.557904"></polygon>
                        <polygon id="Path" fill="#D5DCE1" points="7.3617005e-14 341.956958 7.3617005e-14 377.912233 11.5934266 377.557904 23.1868507 377.27022 34.7802773 376.558436 46.3737039 376.063269 57.9671305 375.646118 69.5605571 375.592977 81.1539838 375.666758 92.7474078 375.724431 104.340834 375.682128 115.934261 375.433323 127.527688 374.682413 139.121114 374.247211 150.714541 374.661523 162.307965 373.980546 173.901392 373.516506 185.494818 373.476803 197.088245 373.155393 208.681671 372.734414 220.275098 372.611366 231.868522 372.108366 243.461949 371.721319 255.055375 371.582098 266.648802 371.262896 278.242229 371.403044 289.835655 371.39288 301.429079 371.670902 313.022506 371.328944 324.615933 371.584218 336.209359 371.529927 347.802786 371.087647 359.396212 370.647872 370.989636 370.631733 382.583063 370.095795 394.17649 369.791663 405.769916 369.989136 417.363343 369.322371 428.956767 369.033521 440.550194 368.819868 452.14362 368.706469 463.737047 368.226834 475.330473 368.618786 486.9239 368.73552 498.517324 367.925755 510.110751 367.643691 521.704177 366.401437 533.297604 366.051225 544.891031 365.990955 556.484457 365.241334 568.077881 364.318089 579.671308 363.616124 591.264734 363.704657 602.858161 364.011596 614.451588 363.575868 626.045014 363.45314 637.638438 361.830789 649.231865 360.977071 660.825292 360.447152 672.418718 360.261597 684.012145 359.904472 695.605571 358.757971 707.198996 359.530894 718.792422 358.721227 730.385849 358.647588 741.979275 358.370233 753.572702 358.1469 765.166129 357.68485 776.759553 356.523556 788.352979 356.281185 788.352979 175.661363 788.352979 175.661363 776.759553 182.760194 765.166129 190.203628 753.572702 185.883086 741.979275 188.616733 730.385849 189.999269 718.792422 192.350045 707.198996 185.951149 695.605571 195.572186 684.012145 191.452477 672.418718 190.514262 660.825292 188.398521 649.231865 189.020861 637.638438 184.121776 626.045014 183.317618 614.451588 193.068715 602.858161 187.125139 591.264734 187.732945 579.671308 181.801262 568.077881 185.735109 556.484457 198.296921 544.891031 182.621767 533.297604 181.261856 521.704177 184.610347 510.110751 184.872558 498.517324 196.74103 486.9239 199.695533 475.330473 202.887691 463.737047 200.846501 452.14362 193.011057 440.550194 194.056098 428.956767 201.492703 417.363343 202.78616 405.769916 214.570628 394.17649 217.953752 382.583063 229.950575 370.989636 229.899057 359.396212 233.491404 347.802786 238.187953 336.209359 239.734847 324.615933 240.713213 313.022506 245.258358 301.429079 242.399354 289.835655 249.641596 278.242229 248.594797 266.648802 255.401392 255.055375 256.564935 243.461949 247.620989 231.868522 247.549097 220.275098 260.466899 208.681671 257.465878 197.088245 264.600907 185.494818 271.753666 173.901392 280.020489 162.307965 282.117899 150.714541 291.93369 139.121114 294.179743 127.527688 301.30631 115.934261 309.415937 104.340834 314.412612 92.7474078 319.54235 81.1539838 320.807189 69.5605571 321.11294 57.9671305 324.756839 46.3737039 327.734726 34.7802773 331.896597 23.1868507 332.842938 11.5934266 336.720396"></polygon>
                        <polygon id="Path" fill="#31A9BF" points="7.3617005e-14 341.401555 7.3617005e-14 341.956958 11.5934266 336.720396 23.1868507 332.842938 34.7802773 331.896597 46.3737039 327.734726 57.9671305 324.756839 69.5605571 321.11294 81.1539838 320.807189 92.7474078 319.54235 104.340834 314.412612 115.934261 309.415937 127.527688 301.30631 139.121114 294.179743 150.714541 291.93369 162.307965 282.117899 173.901392 280.020489 185.494818 271.753666 197.088245 264.600907 208.681671 257.465878 220.275098 260.466899 231.868522 247.549097 243.461949 247.620989 255.055375 256.564935 266.648802 255.401392 278.242229 248.594797 289.835655 249.641596 301.429079 242.399354 313.022506 245.258358 324.615933 240.713213 336.209359 239.734847 347.802786 238.187953 359.396212 233.491404 370.989636 229.899057 382.583063 229.950575 394.17649 217.953752 405.769916 214.570628 417.363343 202.78616 428.956767 201.492703 440.550194 194.056098 452.14362 193.011057 463.737047 200.846501 475.330473 202.887691 486.9239 199.695533 498.517324 196.74103 510.110751 184.872558 521.704177 184.610347 533.297604 181.261856 544.891031 182.621767 556.484457 198.296921 568.077881 185.735109 579.671308 181.801262 591.264734 187.732945 602.858161 187.125139 614.451588 193.068715 626.045014 183.317618 637.638438 184.121776 649.231865 189.020861 660.825292 188.398521 672.418718 190.514262 684.012145 191.452477 695.605571 195.572186 707.198996 185.951149 718.792422 192.350045 730.385849 189.999269 741.979275 188.616733 753.572702 185.883086 765.166129 190.203628 776.759553 182.760194 788.352979 175.661363 788.352979 65.8099843 788.352979 65.8099843 776.759553 76.7356624 765.166129 87.5448647 753.572702 87.9462287 741.979275 93.7683761 730.385849 99.8561036 718.792422 107.672066 707.198996 106.560798 695.605571 118.664541 684.012145 119.231071 672.418718 121.542124 660.825292 124.841187 649.231865 129.601843 637.638438 128.580869 626.045014 131.096043 614.451588 145.347429 602.858161 142.117386 591.264734 145.427537 579.671308 141.805075 568.077881 147.418651 556.484457 162.63599 544.891031 147.956676 533.297604 148.508251 521.704177 155.545735 510.110751 159.633669 498.517324 175.117058 486.9239 180.652797 475.330473 185.963082 463.737047 184.458735 452.14362 177.476281 440.550194 179.533438 428.956767 188.187847 417.363343 191.137938 405.769916 204.506967 394.17649 209.451609 382.583063 222.747355 370.989636 223.443642 359.396212 227.758082 347.802786 233.151878 336.209359 235.157433 324.615933 236.43443 313.022506 241.129007 301.429079 238.488032 289.835655 245.801634 278.242229 245.044196 266.648802 252.097799 255.055375 253.502269 243.461949 244.726709 231.868522 244.825371 220.275098 257.936541 208.681671 255.116506 197.088245 262.303532 185.494818 269.496858 173.901392 277.832147 162.307965 280.273824 150.714541 290.256648 139.121114 292.65887 127.527688 299.720748 115.934261 307.582732 104.340834 312.433318 92.7474078 317.723108 81.1539838 318.944966 69.5605571 319.765942 57.9671305 323.488912 46.3737039 326.595571 34.7802773 331.030824 23.1868507 332.108062 11.5934266 336.049131"></polygon>
                        <polygon id="Path" fill="#237786" points="7.3617005e-14 340.664942 7.3617005e-14 341.401555 11.5934266 336.049131 23.1868507 332.108062 34.7802773 331.030824 46.3737039 326.595571 57.9671305 323.488912 69.5605571 319.765942 81.1539838 318.944966 92.7474078 317.723108 104.340834 312.433318 115.934261 307.582732 127.527688 299.720748 139.121114 292.65887 150.714541 290.256648 162.307965 280.273824 173.901392 277.832147 185.494818 269.496858 197.088245 262.303532 208.681671 255.116506 220.275098 257.936541 231.868522 244.825371 243.461949 244.726709 255.055375 253.502269 266.648802 252.097799 278.242229 245.044196 289.835655 245.801634 301.429079 238.488032 313.022506 241.129007 324.615933 236.43443 336.209359 235.157433 347.802786 233.151878 359.396212 227.758082 370.989636 223.443642 382.583063 222.747355 394.17649 209.451609 405.769916 204.506967 417.363343 191.137938 428.956767 188.187847 440.550194 179.533438 452.14362 177.476281 463.737047 184.458735 475.330473 185.963082 486.9239 180.652797 498.517324 175.117058 510.110751 159.633669 521.704177 155.545735 533.297604 148.508251 544.891031 147.956676 556.484457 162.63599 568.077881 147.418651 579.671308 141.805075 591.264734 145.427537 602.858161 142.117386 614.451588 145.347429 626.045014 131.096043 637.638438 128.580869 649.231865 129.601843 660.825292 124.841187 672.418718 121.542124 684.012145 119.231071 695.605571 118.664541 707.198996 106.560798 718.792422 107.672066 730.385849 99.8561036 741.979275 93.7683761 753.572702 87.9462287 765.166129 87.5448647 776.759553 76.7356624 788.352979 65.8099843 788.352979 -2.62142626e-14 788.352979 -2.62142626e-14 776.759553 12.5555242 765.166129 26.5061666 753.572702 30.1720393 741.979275 37.7529989 730.385849 46.7406778 718.792422 56.5196089 707.198996 58.0193066 695.605571 72.0156597 684.012145 73.4313735 672.418718 77.2903679 660.825292 81.5381179 649.231865 87.9039434 637.638438 89.3358995 626.045014 93.6435753 614.451588 109.804882 602.858161 108.412459 591.264734 113.66875 579.671308 112.436033 568.077881 119.978681 556.484457 137.501669 544.891031 124.160558 533.297604 124.47069 521.704177 132.438417 510.110751 140.280653 498.517324 158.655336 486.9239 166.722533 475.330473 173.516769 463.737047 172.848045 452.14362 166.652139 440.550194 169.060044 428.956767 178.885086 417.363343 183.177636 405.769916 197.405777 394.17649 203.094208 382.583063 216.634047 370.989636 217.763163 359.396212 222.27252 347.802786 228.118353 336.209359 230.445335 324.615933 231.716727 313.022506 236.438095 301.429079 234.419006 289.835655 241.901846 278.242229 241.62394 266.648802 248.809212 255.055375 250.243756 243.461949 241.76091 231.868522 242.056531 220.275098 255.414473 208.681671 252.583211 197.088245 260.012923 185.494818 267.295034 173.901392 275.696833 162.307965 278.165282 150.714541 288.164121 139.121114 290.801874 127.527688 298.044511 115.934261 305.873995 104.340834 310.878755 92.7474078 316.291599 81.1539838 317.467556 69.5605571 318.525288 57.9671305 322.151582 46.3737039 325.401324 34.7802773 329.837555 23.1868507 331.083687 11.5934266 335.160971"></polygon>
                    </g>
                </g>
            </g>
        </g>
    </g>
</svg>