<?xml version="1.0" encoding="UTF-8"?>
<svg width="129px" height="125px" viewBox="0 0 129 125" version="1.1" xmlns="http://www.w3.org/2000/svg" xmlns:xlink="http://www.w3.org/1999/xlink">
    <title>23081B68-FD35-4E92-8157-9A06DD11F123</title>
    <g id="UI-kit" stroke="none" stroke-width="1" fill="none" fill-rule="evenodd">
        <g id="Earth-Dashboard-UI-kit---Ocean" transform="translate(-174.000000, -3485.000000)" fill="#F35600" fill-rule="nonzero">
            <path id="Path" d="M240.30127,3485.11352 C274.542925,3485.11352 302.30127,3512.87186 302.30127,3547.11352 C302.30127,3581.35517 274.542925,3609.11352 240.30127,3609.11352 C206.059616,3609.11352 178.30127,3581.35517 178.30127,3547.11352 C178.30127,3538.55874 180.035952,3530.24348 183.355419,3522.55605 L183.422987,3522.415 L183.422987,3522.415 L183.50137,3522.27966 L190.067,3511.9 L176.588212,3519.16606 L174.690386,3515.64494 L194.890102,3504.75761 C196.218692,3504.04152 197.810483,3504.99831 197.838794,3506.47238 L197.836345,3506.62147 L196.651186,3529.53779 L192.656524,3529.3312 L193.446,3514.039 L186.968,3524.28 L186.722207,3524.8626 C183.917266,3531.60851 182.407461,3538.8553 182.306672,3546.31362 L182.30127,3547.11352 C182.30127,3579.14603 208.268755,3605.11352 240.30127,3605.11352 C272.333786,3605.11352 298.30127,3579.14603 298.30127,3547.11352 C298.30127,3515.40133 272.850539,3489.63348 241.260406,3489.12129 L240.30127,3489.11352 L240.30127,3485.11352 Z"></path>
        </g>
    </g>
</svg>