<?xml version="1.0" encoding="UTF-8"?>
<svg width="625px" height="249px" viewBox="0 0 625 249" version="1.1" xmlns="http://www.w3.org/2000/svg" xmlns:xlink="http://www.w3.org/1999/xlink">
    <title>C6F96DC6-C3A3-49DD-8CFD-01AE335DC47C</title>
    <g id="visuals" stroke="none" stroke-width="1" fill="none" fill-rule="evenodd">
        <g id="Earth-HQ---Indicator---Oceans" transform="translate(-365.000000, -7846.000000)">
            <g id="Group-8" transform="translate(365.000000, 7846.000000)">
                <rect id="Rectangle" fill="#E4E8EC" fill-rule="nonzero" x="194" y="37" width="387" height="32"></rect>
                <rect id="Rectangle-Copy-9" fill="#E4E8EC" fill-rule="nonzero" x="194" y="98" width="322" height="32"></rect>
                <rect id="Rectangle-Copy-17" fill="#E4E8EC" fill-rule="nonzero" x="194" y="157" width="133" height="32"></rect>
                <rect id="Rectangle-Copy-10" fill="#E4E8EC" fill-rule="nonzero" x="194" y="98" width="196" height="32"></rect>
                <rect id="Rectangle-Copy-18" fill="#E4E8EC" fill-rule="nonzero" x="194" y="157" width="132" height="32"></rect>
                <rect id="Rectangle-Copy-20" fill="#E4E8EC" fill-rule="nonzero" x="194" y="216" width="98" height="32"></rect>
                <g id="tree-copy-365" transform="translate(263.000000, 41.000000)" stroke="#174F59" stroke-linecap="round" stroke-linejoin="round" stroke-width="1.5">
                    <g id="crypto-currency-dogecoin">
                        <circle id="Oval" fill="#79CEDC" cx="12" cy="12" r="11.25"></circle>
                        <path d="M15.071,7.25 L10.859,7.25 C10.3737591,7.21121046 9.89592672,7.3872344 9.55181131,7.73154227 C9.20769589,8.07585014 9.03193915,8.55378089 9.071,9.039 C9.071,11 15.071,12.5 15.071,14.461 C15.0797716,14.9381073 14.8941063,15.3982607 14.5566835,15.7356835 C14.2192607,16.0731063 13.7591073,16.2587716 13.282,16.25 L9.071,16.25" id="Path"></path>
                        <line x1="12.071" y1="7.25" x2="12.071" y2="5" id="Path"></line>
                        <line x1="12.071" y1="18.5" x2="12.071" y2="16.25" id="Path"></line>
                    </g>
                </g>
                <g id="tree-copy-371" transform="translate(263.000000, 102.000000)" stroke="#174F59" stroke-linecap="round" stroke-linejoin="round" stroke-width="1.5">
                    <g id="crypto-currency-dogecoin">
                        <circle id="Oval" fill="#79CEDC" cx="12" cy="12" r="11.25"></circle>
                        <path d="M15.071,7.25 L10.859,7.25 C10.3737591,7.21121046 9.89592672,7.3872344 9.55181131,7.73154227 C9.20769589,8.07585014 9.03193915,8.55378089 9.071,9.039 C9.071,11 15.071,12.5 15.071,14.461 C15.0797716,14.9381073 14.8941063,15.3982607 14.5566835,15.7356835 C14.2192607,16.0731063 13.7591073,16.2587716 13.282,16.25 L9.071,16.25" id="Path"></path>
                        <line x1="12.071" y1="7.25" x2="12.071" y2="5" id="Path"></line>
                        <line x1="12.071" y1="18.5" x2="12.071" y2="16.25" id="Path"></line>
                    </g>
                </g>
                <g id="tree-copy-373" transform="translate(263.000000, 161.000000)" stroke="#174F59" stroke-linecap="round" stroke-linejoin="round" stroke-width="1.5">
                    <g id="crypto-currency-dogecoin">
                        <circle id="Oval" fill="#79CEDC" cx="12" cy="12" r="11.25"></circle>
                        <path d="M15.071,7.25 L10.859,7.25 C10.3737591,7.21121046 9.89592672,7.3872344 9.55181131,7.73154227 C9.20769589,8.07585014 9.03193915,8.55378089 9.071,9.039 C9.071,11 15.071,12.5 15.071,14.461 C15.0797716,14.9381073 14.8941063,15.3982607 14.5566835,15.7356835 C14.2192607,16.0731063 13.7591073,16.2587716 13.282,16.25 L9.071,16.25" id="Path"></path>
                        <line x1="12.071" y1="7.25" x2="12.071" y2="5" id="Path"></line>
                        <line x1="12.071" y1="18.5" x2="12.071" y2="16.25" id="Path"></line>
                    </g>
                </g>
                <g id="tree-copy-377" transform="translate(263.000000, 220.000000)" stroke="#174F59" stroke-linecap="round" stroke-linejoin="round" stroke-width="1.5">
                    <g id="crypto-currency-dogecoin">
                        <circle id="Oval" fill="#79CEDC" cx="12" cy="12" r="11.25"></circle>
                        <path d="M15.071,7.25 L10.859,7.25 C10.3737591,7.21121046 9.89592672,7.3872344 9.55181131,7.73154227 C9.20769589,8.07585014 9.03193915,8.55378089 9.071,9.039 C9.071,11 15.071,12.5 15.071,14.461 C15.0797716,14.9381073 14.8941063,15.3982607 14.5566835,15.7356835 C14.2192607,16.0731063 13.7591073,16.2587716 13.282,16.25 L9.071,16.25" id="Path"></path>
                        <line x1="12.071" y1="7.25" x2="12.071" y2="5" id="Path"></line>
                        <line x1="12.071" y1="18.5" x2="12.071" y2="16.25" id="Path"></line>
                    </g>
                </g>
                <g id="tree-copy-367" transform="translate(391.000000, 41.000000)" stroke="#174F59" stroke-linecap="round" stroke-linejoin="round" stroke-width="1.5">
                    <g id="crypto-currency-dogecoin">
                        <circle id="Oval" fill="#79CEDC" cx="12" cy="12" r="11.25"></circle>
                        <path d="M15.071,7.25 L10.859,7.25 C10.3737591,7.21121046 9.89592672,7.3872344 9.55181131,7.73154227 C9.20769589,8.07585014 9.03193915,8.55378089 9.071,9.039 C9.071,11 15.071,12.5 15.071,14.461 C15.0797716,14.9381073 14.8941063,15.3982607 14.5566835,15.7356835 C14.2192607,16.0731063 13.7591073,16.2587716 13.282,16.25 L9.071,16.25" id="Path"></path>
                        <line x1="12.071" y1="7.25" x2="12.071" y2="5" id="Path"></line>
                        <line x1="12.071" y1="18.5" x2="12.071" y2="16.25" id="Path"></line>
                    </g>
                </g>
                <g id="tree-copy-372" transform="translate(391.000000, 102.000000)" stroke="#174F59" stroke-linecap="round" stroke-linejoin="round" stroke-width="1.5">
                    <g id="crypto-currency-dogecoin">
                        <circle id="Oval" fill="#79CEDC" cx="12" cy="12" r="11.25"></circle>
                        <path d="M15.071,7.25 L10.859,7.25 C10.3737591,7.21121046 9.89592672,7.3872344 9.55181131,7.73154227 C9.20769589,8.07585014 9.03193915,8.55378089 9.071,9.039 C9.071,11 15.071,12.5 15.071,14.461 C15.0797716,14.9381073 14.8941063,15.3982607 14.5566835,15.7356835 C14.2192607,16.0731063 13.7591073,16.2587716 13.282,16.25 L9.071,16.25" id="Path"></path>
                        <line x1="12.071" y1="7.25" x2="12.071" y2="5" id="Path"></line>
                        <line x1="12.071" y1="18.5" x2="12.071" y2="16.25" id="Path"></line>
                    </g>
                </g>
                <g id="tree-copy-369" transform="translate(519.000000, 41.000000)" stroke="#174F59" stroke-linecap="round" stroke-linejoin="round" stroke-width="1.5">
                    <g id="crypto-currency-dogecoin">
                        <circle id="Oval" fill="#79CEDC" cx="12" cy="12" r="11.25"></circle>
                        <path d="M15.071,7.25 L10.859,7.25 C10.3737591,7.21121046 9.89592672,7.3872344 9.55181131,7.73154227 C9.20769589,8.07585014 9.03193915,8.55378089 9.071,9.039 C9.071,11 15.071,12.5 15.071,14.461 C15.0797716,14.9381073 14.8941063,15.3982607 14.5566835,15.7356835 C14.2192607,16.0731063 13.7591073,16.2587716 13.282,16.25 L9.071,16.25" id="Path"></path>
                        <line x1="12.071" y1="7.25" x2="12.071" y2="5" id="Path"></line>
                        <line x1="12.071" y1="18.5" x2="12.071" y2="16.25" id="Path"></line>
                    </g>
                </g>
                <g id="tree-copy-366" transform="translate(199.000000, 41.000000)" stroke="#174F59" stroke-linecap="round" stroke-linejoin="round" stroke-width="1.5">
                    <g id="crypto-currency-dogecoin">
                        <circle id="Oval" fill="#79CEDC" cx="12" cy="12" r="11.25"></circle>
                        <path d="M15.071,7.25 L10.859,7.25 C10.3737591,7.21121046 9.89592672,7.3872344 9.55181131,7.73154227 C9.20769589,8.07585014 9.03193915,8.55378089 9.071,9.039 C9.071,11 15.071,12.5 15.071,14.461 C15.0797716,14.9381073 14.8941063,15.3982607 14.5566835,15.7356835 C14.2192607,16.0731063 13.7591073,16.2587716 13.282,16.25 L9.071,16.25" id="Path"></path>
                        <line x1="12.071" y1="7.25" x2="12.071" y2="5" id="Path"></line>
                        <line x1="12.071" y1="18.5" x2="12.071" y2="16.25" id="Path"></line>
                    </g>
                </g>
                <g id="tree-copy-374" transform="translate(199.000000, 102.000000)" stroke="#174F59" stroke-linecap="round" stroke-linejoin="round" stroke-width="1.5">
                    <g id="crypto-currency-dogecoin">
                        <circle id="Oval" fill="#79CEDC" cx="12" cy="12" r="11.25"></circle>
                        <path d="M15.071,7.25 L10.859,7.25 C10.3737591,7.21121046 9.89592672,7.3872344 9.55181131,7.73154227 C9.20769589,8.07585014 9.03193915,8.55378089 9.071,9.039 C9.071,11 15.071,12.5 15.071,14.461 C15.0797716,14.9381073 14.8941063,15.3982607 14.5566835,15.7356835 C14.2192607,16.0731063 13.7591073,16.2587716 13.282,16.25 L9.071,16.25" id="Path"></path>
                        <line x1="12.071" y1="7.25" x2="12.071" y2="5" id="Path"></line>
                        <line x1="12.071" y1="18.5" x2="12.071" y2="16.25" id="Path"></line>
                    </g>
                </g>
                <g id="tree-copy-386" transform="translate(199.000000, 161.000000)" stroke="#174F59" stroke-linecap="round" stroke-linejoin="round" stroke-width="1.5">
                    <g id="crypto-currency-dogecoin">
                        <circle id="Oval" fill="#79CEDC" cx="12" cy="12" r="11.25"></circle>
                        <path d="M15.071,7.25 L10.859,7.25 C10.3737591,7.21121046 9.89592672,7.3872344 9.55181131,7.73154227 C9.20769589,8.07585014 9.03193915,8.55378089 9.071,9.039 C9.071,11 15.071,12.5 15.071,14.461 C15.0797716,14.9381073 14.8941063,15.3982607 14.5566835,15.7356835 C14.2192607,16.0731063 13.7591073,16.2587716 13.282,16.25 L9.071,16.25" id="Path"></path>
                        <line x1="12.071" y1="7.25" x2="12.071" y2="5" id="Path"></line>
                        <line x1="12.071" y1="18.5" x2="12.071" y2="16.25" id="Path"></line>
                    </g>
                </g>
                <g id="tree-copy-387" transform="translate(199.000000, 220.000000)" stroke="#174F59" stroke-linecap="round" stroke-linejoin="round" stroke-width="1.5">
                    <g id="crypto-currency-dogecoin">
                        <circle id="Oval" fill="#79CEDC" cx="12" cy="12" r="11.25"></circle>
                        <path d="M15.071,7.25 L10.859,7.25 C10.3737591,7.21121046 9.89592672,7.3872344 9.55181131,7.73154227 C9.20769589,8.07585014 9.03193915,8.55378089 9.071,9.039 C9.071,11 15.071,12.5 15.071,14.461 C15.0797716,14.9381073 14.8941063,15.3982607 14.5566835,15.7356835 C14.2192607,16.0731063 13.7591073,16.2587716 13.282,16.25 L9.071,16.25" id="Path"></path>
                        <line x1="12.071" y1="7.25" x2="12.071" y2="5" id="Path"></line>
                        <line x1="12.071" y1="18.5" x2="12.071" y2="16.25" id="Path"></line>
                    </g>
                </g>
                <g id="tree-copy-366" transform="translate(151.000000, 41.000000)" stroke="#F35600" stroke-linecap="round" stroke-linejoin="round" stroke-width="1.5">
                    <g id="crypto-currency-dogecoin">
                        <circle id="Oval" fill="#FFC7A8" cx="12" cy="12" r="11.25"></circle>
                        <path d="M15.071,7.25 L10.859,7.25 C10.3737591,7.21121046 9.89592672,7.3872344 9.55181131,7.73154227 C9.20769589,8.07585014 9.03193915,8.55378089 9.071,9.039 C9.071,11 15.071,12.5 15.071,14.461 C15.0797716,14.9381073 14.8941063,15.3982607 14.5566835,15.7356835 C14.2192607,16.0731063 13.7591073,16.2587716 13.282,16.25 L9.071,16.25" id="Path"></path>
                        <line x1="12.071" y1="7.25" x2="12.071" y2="5" id="Path"></line>
                        <line x1="12.071" y1="18.5" x2="12.071" y2="16.25" id="Path"></line>
                    </g>
                </g>
                <g id="tree-copy-374" transform="translate(151.000000, 102.000000)" stroke="#F35600" stroke-linecap="round" stroke-linejoin="round" stroke-width="1.5">
                    <g id="crypto-currency-dogecoin">
                        <circle id="Oval" fill="#FFC7A8" cx="12" cy="12" r="11.25"></circle>
                        <path d="M15.071,7.25 L10.859,7.25 C10.3737591,7.21121046 9.89592672,7.3872344 9.55181131,7.73154227 C9.20769589,8.07585014 9.03193915,8.55378089 9.071,9.039 C9.071,11 15.071,12.5 15.071,14.461 C15.0797716,14.9381073 14.8941063,15.3982607 14.5566835,15.7356835 C14.2192607,16.0731063 13.7591073,16.2587716 13.282,16.25 L9.071,16.25" id="Path"></path>
                        <line x1="12.071" y1="7.25" x2="12.071" y2="5" id="Path"></line>
                        <line x1="12.071" y1="18.5" x2="12.071" y2="16.25" id="Path"></line>
                    </g>
                </g>
                <g id="tree-copy-386" transform="translate(151.000000, 161.000000)" stroke="#F35600" stroke-linecap="round" stroke-linejoin="round" stroke-width="1.5">
                    <g id="crypto-currency-dogecoin">
                        <circle id="Oval" fill="#FFC7A8" cx="12" cy="12" r="11.25"></circle>
                        <path d="M15.071,7.25 L10.859,7.25 C10.3737591,7.21121046 9.89592672,7.3872344 9.55181131,7.73154227 C9.20769589,8.07585014 9.03193915,8.55378089 9.071,9.039 C9.071,11 15.071,12.5 15.071,14.461 C15.0797716,14.9381073 14.8941063,15.3982607 14.5566835,15.7356835 C14.2192607,16.0731063 13.7591073,16.2587716 13.282,16.25 L9.071,16.25" id="Path"></path>
                        <line x1="12.071" y1="7.25" x2="12.071" y2="5" id="Path"></line>
                        <line x1="12.071" y1="18.5" x2="12.071" y2="16.25" id="Path"></line>
                    </g>
                </g>
                <g id="tree-copy-387" transform="translate(151.000000, 220.000000)" stroke="#F35600" stroke-linecap="round" stroke-linejoin="round" stroke-width="1.5">
                    <g id="crypto-currency-dogecoin">
                        <circle id="Oval" fill="#FFC7A8" cx="12" cy="12" r="11.25"></circle>
                        <path d="M15.071,7.25 L10.859,7.25 C10.3737591,7.21121046 9.89592672,7.3872344 9.55181131,7.73154227 C9.20769589,8.07585014 9.03193915,8.55378089 9.071,9.039 C9.071,11 15.071,12.5 15.071,14.461 C15.0797716,14.9381073 14.8941063,15.3982607 14.5566835,15.7356835 C14.2192607,16.0731063 13.7591073,16.2587716 13.282,16.25 L9.071,16.25" id="Path"></path>
                        <line x1="12.071" y1="7.25" x2="12.071" y2="5" id="Path"></line>
                        <line x1="12.071" y1="18.5" x2="12.071" y2="16.25" id="Path"></line>
                    </g>
                </g>
                <g id="tree-copy-368" transform="translate(327.000000, 41.000000)" stroke="#174F59" stroke-linecap="round" stroke-linejoin="round" stroke-width="1.5">
                    <g id="crypto-currency-dogecoin">
                        <circle id="Oval" fill="#79CEDC" cx="12" cy="12" r="11.25"></circle>
                        <path d="M15.071,7.25 L10.859,7.25 C10.3737591,7.21121046 9.89592672,7.3872344 9.55181131,7.73154227 C9.20769589,8.07585014 9.03193915,8.55378089 9.071,9.039 C9.071,11 15.071,12.5 15.071,14.461 C15.0797716,14.9381073 14.8941063,15.3982607 14.5566835,15.7356835 C14.2192607,16.0731063 13.7591073,16.2587716 13.282,16.25 L9.071,16.25" id="Path"></path>
                        <line x1="12.071" y1="7.25" x2="12.071" y2="5" id="Path"></line>
                        <line x1="12.071" y1="18.5" x2="12.071" y2="16.25" id="Path"></line>
                    </g>
                </g>
                <g id="tree-copy-375" transform="translate(327.000000, 102.000000)" stroke="#174F59" stroke-linecap="round" stroke-linejoin="round" stroke-width="1.5">
                    <g id="crypto-currency-dogecoin">
                        <circle id="Oval" fill="#79CEDC" cx="12" cy="12" r="11.25"></circle>
                        <path d="M15.071,7.25 L10.859,7.25 C10.3737591,7.21121046 9.89592672,7.3872344 9.55181131,7.73154227 C9.20769589,8.07585014 9.03193915,8.55378089 9.071,9.039 C9.071,11 15.071,12.5 15.071,14.461 C15.0797716,14.9381073 14.8941063,15.3982607 14.5566835,15.7356835 C14.2192607,16.0731063 13.7591073,16.2587716 13.282,16.25 L9.071,16.25" id="Path"></path>
                        <line x1="12.071" y1="7.25" x2="12.071" y2="5" id="Path"></line>
                        <line x1="12.071" y1="18.5" x2="12.071" y2="16.25" id="Path"></line>
                    </g>
                </g>
                <g id="tree-copy-370" transform="translate(455.000000, 41.000000)" stroke="#174F59" stroke-linecap="round" stroke-linejoin="round" stroke-width="1.5">
                    <g id="crypto-currency-dogecoin">
                        <circle id="Oval" fill="#79CEDC" cx="12" cy="12" r="11.25"></circle>
                        <path d="M15.071,7.25 L10.859,7.25 C10.3737591,7.21121046 9.89592672,7.3872344 9.55181131,7.73154227 C9.20769589,8.07585014 9.03193915,8.55378089 9.071,9.039 C9.071,11 15.071,12.5 15.071,14.461 C15.0797716,14.9381073 14.8941063,15.3982607 14.5566835,15.7356835 C14.2192607,16.0731063 13.7591073,16.2587716 13.282,16.25 L9.071,16.25" id="Path"></path>
                        <line x1="12.071" y1="7.25" x2="12.071" y2="5" id="Path"></line>
                        <line x1="12.071" y1="18.5" x2="12.071" y2="16.25" id="Path"></line>
                    </g>
                </g>
                <g id="tree-copy-376" transform="translate(455.000000, 102.000000)" stroke="#174F59" stroke-linecap="round" stroke-linejoin="round" stroke-width="1.5">
                    <g id="crypto-currency-dogecoin">
                        <circle id="Oval" fill="#79CEDC" cx="12" cy="12" r="11.25"></circle>
                        <path d="M15.071,7.25 L10.859,7.25 C10.3737591,7.21121046 9.89592672,7.3872344 9.55181131,7.73154227 C9.20769589,8.07585014 9.03193915,8.55378089 9.071,9.039 C9.071,11 15.071,12.5 15.071,14.461 C15.0797716,14.9381073 14.8941063,15.3982607 14.5566835,15.7356835 C14.2192607,16.0731063 13.7591073,16.2587716 13.282,16.25 L9.071,16.25" id="Path"></path>
                        <line x1="12.071" y1="7.25" x2="12.071" y2="5" id="Path"></line>
                        <line x1="12.071" y1="18.5" x2="12.071" y2="16.25" id="Path"></line>
                    </g>
                </g>
                <g id="tree-copy-378" transform="translate(295.000000, 41.000000)" stroke="#174F59" stroke-linecap="round" stroke-linejoin="round" stroke-width="1.5">
                    <g id="crypto-currency-dogecoin">
                        <circle id="Oval" fill="#79CEDC" cx="12" cy="12" r="11.25"></circle>
                        <path d="M15.071,7.25 L10.859,7.25 C10.3737591,7.21121046 9.89592672,7.3872344 9.55181131,7.73154227 C9.20769589,8.07585014 9.03193915,8.55378089 9.071,9.039 C9.071,11 15.071,12.5 15.071,14.461 C15.0797716,14.9381073 14.8941063,15.3982607 14.5566835,15.7356835 C14.2192607,16.0731063 13.7591073,16.2587716 13.282,16.25 L9.071,16.25" id="Path"></path>
                        <line x1="12.071" y1="7.25" x2="12.071" y2="5" id="Path"></line>
                        <line x1="12.071" y1="18.5" x2="12.071" y2="16.25" id="Path"></line>
                    </g>
                </g>
                <g id="tree-copy-384" transform="translate(295.000000, 102.000000)" stroke="#174F59" stroke-linecap="round" stroke-linejoin="round" stroke-width="1.5">
                    <g id="crypto-currency-dogecoin">
                        <circle id="Oval" fill="#79CEDC" cx="12" cy="12" r="11.25"></circle>
                        <path d="M15.071,7.25 L10.859,7.25 C10.3737591,7.21121046 9.89592672,7.3872344 9.55181131,7.73154227 C9.20769589,8.07585014 9.03193915,8.55378089 9.071,9.039 C9.071,11 15.071,12.5 15.071,14.461 C15.0797716,14.9381073 14.8941063,15.3982607 14.5566835,15.7356835 C14.2192607,16.0731063 13.7591073,16.2587716 13.282,16.25 L9.071,16.25" id="Path"></path>
                        <line x1="12.071" y1="7.25" x2="12.071" y2="5" id="Path"></line>
                        <line x1="12.071" y1="18.5" x2="12.071" y2="16.25" id="Path"></line>
                    </g>
                </g>
                <g id="tree-copy-389" transform="translate(295.000000, 161.000000)" stroke="#174F59" stroke-linecap="round" stroke-linejoin="round" stroke-width="1.5">
                    <g id="crypto-currency-dogecoin">
                        <circle id="Oval" fill="#79CEDC" cx="12" cy="12" r="11.25"></circle>
                        <path d="M15.071,7.25 L10.859,7.25 C10.3737591,7.21121046 9.89592672,7.3872344 9.55181131,7.73154227 C9.20769589,8.07585014 9.03193915,8.55378089 9.071,9.039 C9.071,11 15.071,12.5 15.071,14.461 C15.0797716,14.9381073 14.8941063,15.3982607 14.5566835,15.7356835 C14.2192607,16.0731063 13.7591073,16.2587716 13.282,16.25 L9.071,16.25" id="Path"></path>
                        <line x1="12.071" y1="7.25" x2="12.071" y2="5" id="Path"></line>
                        <line x1="12.071" y1="18.5" x2="12.071" y2="16.25" id="Path"></line>
                    </g>
                </g>
                <g id="tree-copy-380" transform="translate(423.000000, 41.000000)" stroke="#174F59" stroke-linecap="round" stroke-linejoin="round" stroke-width="1.5">
                    <g id="crypto-currency-dogecoin">
                        <circle id="Oval" fill="#79CEDC" cx="12" cy="12" r="11.25"></circle>
                        <path d="M15.071,7.25 L10.859,7.25 C10.3737591,7.21121046 9.89592672,7.3872344 9.55181131,7.73154227 C9.20769589,8.07585014 9.03193915,8.55378089 9.071,9.039 C9.071,11 15.071,12.5 15.071,14.461 C15.0797716,14.9381073 14.8941063,15.3982607 14.5566835,15.7356835 C14.2192607,16.0731063 13.7591073,16.2587716 13.282,16.25 L9.071,16.25" id="Path"></path>
                        <line x1="12.071" y1="7.25" x2="12.071" y2="5" id="Path"></line>
                        <line x1="12.071" y1="18.5" x2="12.071" y2="16.25" id="Path"></line>
                    </g>
                </g>
                <g id="tree-copy-385" transform="translate(423.000000, 102.000000)" stroke="#174F59" stroke-linecap="round" stroke-linejoin="round" stroke-width="1.5">
                    <g id="crypto-currency-dogecoin">
                        <circle id="Oval" fill="#79CEDC" cx="12" cy="12" r="11.25"></circle>
                        <path d="M15.071,7.25 L10.859,7.25 C10.3737591,7.21121046 9.89592672,7.3872344 9.55181131,7.73154227 C9.20769589,8.07585014 9.03193915,8.55378089 9.071,9.039 C9.071,11 15.071,12.5 15.071,14.461 C15.0797716,14.9381073 14.8941063,15.3982607 14.5566835,15.7356835 C14.2192607,16.0731063 13.7591073,16.2587716 13.282,16.25 L9.071,16.25" id="Path"></path>
                        <line x1="12.071" y1="7.25" x2="12.071" y2="5" id="Path"></line>
                        <line x1="12.071" y1="18.5" x2="12.071" y2="16.25" id="Path"></line>
                    </g>
                </g>
                <g id="tree-copy-382" transform="translate(551.000000, 41.000000)" stroke="#174F59" stroke-linecap="round" stroke-linejoin="round" stroke-width="1.5">
                    <g id="crypto-currency-dogecoin">
                        <circle id="Oval" fill="#79CEDC" cx="12" cy="12" r="11.25"></circle>
                        <path d="M15.071,7.25 L10.859,7.25 C10.3737591,7.21121046 9.89592672,7.3872344 9.55181131,7.73154227 C9.20769589,8.07585014 9.03193915,8.55378089 9.071,9.039 C9.071,11 15.071,12.5 15.071,14.461 C15.0797716,14.9381073 14.8941063,15.3982607 14.5566835,15.7356835 C14.2192607,16.0731063 13.7591073,16.2587716 13.282,16.25 L9.071,16.25" id="Path"></path>
                        <line x1="12.071" y1="7.25" x2="12.071" y2="5" id="Path"></line>
                        <line x1="12.071" y1="18.5" x2="12.071" y2="16.25" id="Path"></line>
                    </g>
                </g>
                <g id="tree-copy-379" transform="translate(231.000000, 41.000000)" stroke="#174F59" stroke-linecap="round" stroke-linejoin="round" stroke-width="1.5">
                    <g id="crypto-currency-dogecoin">
                        <circle id="Oval" fill="#79CEDC" cx="12" cy="12" r="11.25"></circle>
                        <path d="M15.071,7.25 L10.859,7.25 C10.3737591,7.21121046 9.89592672,7.3872344 9.55181131,7.73154227 C9.20769589,8.07585014 9.03193915,8.55378089 9.071,9.039 C9.071,11 15.071,12.5 15.071,14.461 C15.0797716,14.9381073 14.8941063,15.3982607 14.5566835,15.7356835 C14.2192607,16.0731063 13.7591073,16.2587716 13.282,16.25 L9.071,16.25" id="Path"></path>
                        <line x1="12.071" y1="7.25" x2="12.071" y2="5" id="Path"></line>
                        <line x1="12.071" y1="18.5" x2="12.071" y2="16.25" id="Path"></line>
                    </g>
                </g>
                <g id="tree-copy-390" transform="translate(231.000000, 102.000000)" stroke="#174F59" stroke-linecap="round" stroke-linejoin="round" stroke-width="1.5">
                    <g id="crypto-currency-dogecoin">
                        <circle id="Oval" fill="#79CEDC" cx="12" cy="12" r="11.25"></circle>
                        <path d="M15.071,7.25 L10.859,7.25 C10.3737591,7.21121046 9.89592672,7.3872344 9.55181131,7.73154227 C9.20769589,8.07585014 9.03193915,8.55378089 9.071,9.039 C9.071,11 15.071,12.5 15.071,14.461 C15.0797716,14.9381073 14.8941063,15.3982607 14.5566835,15.7356835 C14.2192607,16.0731063 13.7591073,16.2587716 13.282,16.25 L9.071,16.25" id="Path"></path>
                        <line x1="12.071" y1="7.25" x2="12.071" y2="5" id="Path"></line>
                        <line x1="12.071" y1="18.5" x2="12.071" y2="16.25" id="Path"></line>
                    </g>
                </g>
                <g id="tree-copy-394" transform="translate(231.000000, 161.000000)" stroke="#174F59" stroke-linecap="round" stroke-linejoin="round" stroke-width="1.5">
                    <g id="crypto-currency-dogecoin">
                        <circle id="Oval" fill="#79CEDC" cx="12" cy="12" r="11.25"></circle>
                        <path d="M15.071,7.25 L10.859,7.25 C10.3737591,7.21121046 9.89592672,7.3872344 9.55181131,7.73154227 C9.20769589,8.07585014 9.03193915,8.55378089 9.071,9.039 C9.071,11 15.071,12.5 15.071,14.461 C15.0797716,14.9381073 14.8941063,15.3982607 14.5566835,15.7356835 C14.2192607,16.0731063 13.7591073,16.2587716 13.282,16.25 L9.071,16.25" id="Path"></path>
                        <line x1="12.071" y1="7.25" x2="12.071" y2="5" id="Path"></line>
                        <line x1="12.071" y1="18.5" x2="12.071" y2="16.25" id="Path"></line>
                    </g>
                </g>
                <g id="tree-copy-395" transform="translate(231.000000, 220.000000)" stroke="#174F59" stroke-linecap="round" stroke-linejoin="round" stroke-width="1.5">
                    <g id="crypto-currency-dogecoin">
                        <circle id="Oval" fill="#79CEDC" cx="12" cy="12" r="11.25"></circle>
                        <path d="M15.071,7.25 L10.859,7.25 C10.3737591,7.21121046 9.89592672,7.3872344 9.55181131,7.73154227 C9.20769589,8.07585014 9.03193915,8.55378089 9.071,9.039 C9.071,11 15.071,12.5 15.071,14.461 C15.0797716,14.9381073 14.8941063,15.3982607 14.5566835,15.7356835 C14.2192607,16.0731063 13.7591073,16.2587716 13.282,16.25 L9.071,16.25" id="Path"></path>
                        <line x1="12.071" y1="7.25" x2="12.071" y2="5" id="Path"></line>
                        <line x1="12.071" y1="18.5" x2="12.071" y2="16.25" id="Path"></line>
                    </g>
                </g>
                <g id="tree-copy-381" transform="translate(359.000000, 41.000000)" stroke="#174F59" stroke-linecap="round" stroke-linejoin="round" stroke-width="1.5">
                    <g id="crypto-currency-dogecoin">
                        <circle id="Oval" fill="#79CEDC" cx="12" cy="12" r="11.25"></circle>
                        <path d="M15.071,7.25 L10.859,7.25 C10.3737591,7.21121046 9.89592672,7.3872344 9.55181131,7.73154227 C9.20769589,8.07585014 9.03193915,8.55378089 9.071,9.039 C9.071,11 15.071,12.5 15.071,14.461 C15.0797716,14.9381073 14.8941063,15.3982607 14.5566835,15.7356835 C14.2192607,16.0731063 13.7591073,16.2587716 13.282,16.25 L9.071,16.25" id="Path"></path>
                        <line x1="12.071" y1="7.25" x2="12.071" y2="5" id="Path"></line>
                        <line x1="12.071" y1="18.5" x2="12.071" y2="16.25" id="Path"></line>
                    </g>
                </g>
                <g id="tree-copy-391" transform="translate(359.000000, 102.000000)" stroke="#174F59" stroke-linecap="round" stroke-linejoin="round" stroke-width="1.5">
                    <g id="crypto-currency-dogecoin">
                        <circle id="Oval" fill="#79CEDC" cx="12" cy="12" r="11.25"></circle>
                        <path d="M15.071,7.25 L10.859,7.25 C10.3737591,7.21121046 9.89592672,7.3872344 9.55181131,7.73154227 C9.20769589,8.07585014 9.03193915,8.55378089 9.071,9.039 C9.071,11 15.071,12.5 15.071,14.461 C15.0797716,14.9381073 14.8941063,15.3982607 14.5566835,15.7356835 C14.2192607,16.0731063 13.7591073,16.2587716 13.282,16.25 L9.071,16.25" id="Path"></path>
                        <line x1="12.071" y1="7.25" x2="12.071" y2="5" id="Path"></line>
                        <line x1="12.071" y1="18.5" x2="12.071" y2="16.25" id="Path"></line>
                    </g>
                </g>
                <g id="tree-copy-383" transform="translate(487.000000, 41.000000)" stroke="#174F59" stroke-linecap="round" stroke-linejoin="round" stroke-width="1.5">
                    <g id="crypto-currency-dogecoin">
                        <circle id="Oval" fill="#79CEDC" cx="12" cy="12" r="11.25"></circle>
                        <path d="M15.071,7.25 L10.859,7.25 C10.3737591,7.21121046 9.89592672,7.3872344 9.55181131,7.73154227 C9.20769589,8.07585014 9.03193915,8.55378089 9.071,9.039 C9.071,11 15.071,12.5 15.071,14.461 C15.0797716,14.9381073 14.8941063,15.3982607 14.5566835,15.7356835 C14.2192607,16.0731063 13.7591073,16.2587716 13.282,16.25 L9.071,16.25" id="Path"></path>
                        <line x1="12.071" y1="7.25" x2="12.071" y2="5" id="Path"></line>
                        <line x1="12.071" y1="18.5" x2="12.071" y2="16.25" id="Path"></line>
                    </g>
                </g>
                <g id="tree-copy-392" transform="translate(487.000000, 102.000000)" stroke="#174F59" stroke-linecap="round" stroke-linejoin="round" stroke-width="1.5">
                    <g id="crypto-currency-dogecoin">
                        <circle id="Oval" fill="#79CEDC" cx="12" cy="12" r="11.25"></circle>
                        <path d="M15.071,7.25 L10.859,7.25 C10.3737591,7.21121046 9.89592672,7.3872344 9.55181131,7.73154227 C9.20769589,8.07585014 9.03193915,8.55378089 9.071,9.039 C9.071,11 15.071,12.5 15.071,14.461 C15.0797716,14.9381073 14.8941063,15.3982607 14.5566835,15.7356835 C14.2192607,16.0731063 13.7591073,16.2587716 13.282,16.25 L9.071,16.25" id="Path"></path>
                        <line x1="12.071" y1="7.25" x2="12.071" y2="5" id="Path"></line>
                        <line x1="12.071" y1="18.5" x2="12.071" y2="16.25" id="Path"></line>
                    </g>
                </g>
                <text id="Offshore-wind-energy" font-family="Barlow Condensed" font-size="14" fill="#1A2129">
                    <tspan x="19.612" y="50">Offshore wind energy </tspan>
                    <tspan x="69.228" y="67">production</tspan>
                </text>
                <text id="INVESTMENTS" font-family="Barlow Condensed" font-size="14" fill="#F35600">
                    <tspan x="90" y="14">INVESTMENTS</tspan>
                </text>
                <text id="RETURNS" font-family="Barlow Condensed" font-size="14" fill="#174F59">
                    <tspan x="193" y="14">RETURNS</tspan>
                </text>
                <text id=":" font-family="Barlow Condensed" font-size="14" font-weight="500" fill="#1A2129">
                    <tspan x="182.15" y="57">:</tspan>
                </text>
                <text id=":" font-family="Barlow Condensed" font-size="14" font-weight="500" fill="#1A2129">
                    <tspan x="182.15" y="118">:</tspan>
                </text>
                <text id=":" font-family="Barlow Condensed" font-size="14" font-weight="500" fill="#1A2129">
                    <tspan x="182.15" y="176">:</tspan>
                </text>
                <text id=":" font-family="Barlow Condensed" font-size="14" font-weight="500" fill="#1A2129">
                    <tspan x="183.15" y="236">:</tspan>
                </text>
                <text id="Sustainable-ocean-ba" font-family="Barlow Condensed" font-size="14" fill="#1A2129">
                    <tspan x="1.104" y="110">Sustainable ocean-based </tspan>
                    <tspan x="45.008" y="127">food production</tspan>
                </text>
                <text id="1:12" font-family="Barlow Condensed" font-size="24" line-spacing="36" fill="#31A9BF">
                    <tspan x="598" y="57">1:12</tspan>
                </text>
                <text id="1:10" font-family="Barlow Condensed" font-size="24" line-spacing="36" fill="#31A9BF">
                    <tspan x="533" y="118">1:10</tspan>
                </text>
                <text id="1:4" font-family="Barlow Condensed" font-size="24" line-spacing="36" fill="#31A9BF">
                    <tspan x="336" y="179">1:4</tspan>
                </text>
                <text id="1:3" font-family="Barlow Condensed" font-size="24" line-spacing="36" fill="#31A9BF">
                    <tspan x="300" y="237">1:3</tspan>
                </text>
                <text id="Decarbonization-of-i" font-family="Barlow Condensed" font-size="14" fill="#1A2129">
                    <tspan x="30.994" y="168">Decarbonization of </tspan>
                    <tspan x="40.878" y="185">internal shipping</tspan>
                </text>
                <text id="Conservation-and-res" font-family="Barlow Condensed" font-size="14" fill="#1A2129">
                    <tspan x="38.064" y="227">Conservation and </tspan>
                    <tspan x="0.166" y="244">restoration of mangroves</tspan>
                </text>
            </g>
        </g>
    </g>
</svg>