<?xml version="1.0" encoding="UTF-8"?>
<svg width="201px" height="47px" viewBox="0 0 201 47" version="1.1" xmlns="http://www.w3.org/2000/svg" xmlns:xlink="http://www.w3.org/1999/xlink">
    <title>F11ECF1E-FD78-4B3B-8CA2-26873942966D</title>
    <g id="visuals" stroke="none" stroke-width="1" fill="none" fill-rule="evenodd" opacity="0.796316964">
        <g id="Earth-HQ---About" transform="translate(-642.000000, -880.000000)" fill="#FFFFFF">
            <g id="Group-5" transform="translate(642.000000, 880.000000)">
                <g id="logo_GCA" transform="translate(0.000000, -0.000000)">
                    <g id="Earth-HQ_1-Copy-2">
                        <path d="M23.1083859,9.01440483 C15.2174263,9.01440483 8.79717983,15.4666509 8.79717983,23.3968347 C8.79717983,31.3270185 15.2174263,37.7783414 23.1083859,37.7783414 C30.9998048,37.7783414 37.4205105,31.3270185 37.4205105,23.3968347 C37.4205105,15.4666509 30.9998048,9.01440483 23.1083859,9.01440483 Z M23.1083859,38.3234521 C14.9184149,38.3234521 8.25519308,31.6279602 8.25519308,23.3968347 C8.25519308,15.1657091 14.9184149,8.46975569 23.1083859,8.46975569 C31.2992754,8.46975569 37.9624973,15.1657091 37.9624973,23.3968347 C37.9624973,31.6279602 31.2992754,38.3234521 23.1083859,38.3234521 L23.1083859,38.3234521 Z" id="Fill-1" opacity="0.795200893"></path>
                        <path d="M23.1042521,7.57939282 C14.4315455,7.57939282 7.36826392,14.6769096 7.36826392,23.3931421 C7.36826392,32.1176828 14.4315455,39.2151996 23.1042521,39.2151996 C26.8485537,39.2151996 30.2943034,37.8978872 32.9895392,35.6892888 L32.6184161,35.2988031 C30.0136645,37.4067799 26.7038708,38.6705505 23.1042521,38.6705505 C14.7296382,38.6705505 7.91070998,31.8181258 7.91070998,23.3931421 C7.91070998,14.9769282 14.7296382,8.12450353 23.1042521,8.12450353 C29.5529758,8.12450353 35.0784847,12.1775239 37.2762869,17.8852623 L37.818733,17.7763325 C35.5667321,11.823502 29.8147829,7.57939282 23.1042521,7.57939282" id="Fill-2"></path>
                        <path d="M23.1042521,7.08828546 C27.5448689,7.08828546 31.5698095,8.87870412 34.4997531,11.7870382 L34.8433176,11.3596271 C31.8137035,8.36959564 27.6716387,6.53394341 23.1042521,6.53394341 C13.8528139,6.53394341 6.32792495,14.0957967 6.32792495,23.3931421 C6.32792495,32.6904876 13.8528139,40.2606491 23.1042521,40.2606491 C24.5423542,40.2606491 25.9349846,40.0787916 27.2646893,39.7423092 L27.0566215,39.2151996 C25.7903017,39.5336809 24.4702424,39.706307 23.1042521,39.706307 C14.1600928,39.706307 6.87955722,32.390469 6.87955722,23.3931421 C6.87955722,14.4041235 14.1600928,7.08828546 23.1042521,7.08828546" id="Fill-3"></path>
                        <path d="M5.8667769,23.3931421 L5.27885907,23.3931421 C5.27885907,31.526877 10.7051569,38.4249968 18.1120029,40.597593 L18.2566858,40.0243267 C11.1033794,37.9163499 5.8667769,31.2628606 5.8667769,23.3931421 Z M25.6006063,5.66158165 L25.5280352,6.24315616 C33.9026491,7.42476785 40.3509135,14.6681398 40.3509135,23.3931421 C40.3509135,27.6737151 38.8048733,31.5905733 36.235948,34.6170685 L36.7246547,34.943858 C39.3560463,31.8181258 40.9388313,27.7914147 40.9388313,23.3931421 C40.9388313,14.3681213 34.264586,6.87965714 25.6006063,5.66158165 L25.6006063,5.66158165 Z" id="Fill-4" opacity="0.70265997"></path>
                        <path d="M5.66789532,18.0671197 L5.07079128,17.903725 C4.53707212,19.6396787 4.25689253,21.4841007 4.25689253,23.3931421 C4.25689253,28.6185429 6.37293741,33.3625292 9.79204703,36.7799718 L10.2260957,36.3437909 C6.92502899,33.0265084 4.88109592,28.4459168 4.88109592,23.3931421 C4.88109592,21.5385656 5.1525486,19.7578399 5.66789532,18.0671197 Z M23.1042521,4.45227594 C19.8844833,4.45227594 16.8461424,5.27063435 14.1871921,6.70703106 L14.4494586,7.27937423 C17.0271108,5.87990288 19.9754269,5.08000715 23.1042521,5.08000715 C33.1613214,5.08000715 41.3370538,13.295901 41.3370538,23.3931421 C41.3370538,31.6542695 35.8744704,38.6520878 28.3863263,40.9243825 L28.5397361,41.5239581 C36.2997922,39.179659 41.9607978,31.9445952 41.9607978,23.3931421 C41.9607978,12.9501872 33.5048859,4.45227594 23.1042521,4.45227594 L23.1042521,4.45227594 Z" id="Fill-5" opacity="0.695800781"></path>
                        <path d="M3.83203004,23.3931421 C3.83203004,19.5482885 4.95320771,15.9679127 6.88874344,12.9594186 L6.32792495,12.6049351 C4.33819055,15.722359 3.18072732,19.4213575 3.18072732,23.3931421 C3.18072732,30.1361754 6.50889341,36.1162383 11.6095399,39.7423092 L11.9985761,39.2151996 C7.06052568,35.7072899 3.83203004,29.9275471 3.83203004,23.3931421 Z M23.1042521,3.37128586 C22.1093849,3.37128586 21.1328901,3.44375189 20.1743085,3.58960709 L20.2556065,4.23441628 L20.2464202,4.24410919 C21.1779026,4.09825399 22.1369435,4.02578796 23.1042521,4.02578796 C33.7400531,4.02578796 42.3861196,12.7138649 42.3861196,23.3931421 C42.3861196,27.700486 40.9843031,31.681502 38.6055324,34.8981629 L39.1392516,35.2803404 C41.590134,31.9542881 43.0374223,27.8463412 43.0374223,23.3931421 C43.0374223,12.3506116 34.1015307,3.37128586 23.1042521,3.37128586 L23.1042521,3.37128586 Z" id="Fill-6" opacity="0.398879278"></path>
                        <path d="M23.1042521,2.34429914 C11.5553412,2.34429914 2.15876078,11.7870382 2.15876078,23.3931421 C2.15876078,33.071742 8.67959627,41.2331709 17.5332713,43.687323 L17.7050536,43.0143582 C9.14993053,40.642365 2.84634905,32.7449525 2.84634905,23.3931421 C2.84634905,12.1687542 11.9351912,3.03526504 23.1042521,3.03526504 C34.2829584,3.03526504 43.3718006,12.1687542 43.3718006,23.3931421 C43.3718006,25.8099073 42.9464788,28.1366669 42.1780518,30.2908004 L42.8201683,30.5091216 C43.6248809,28.2820605 44.0593889,25.8920662 44.0593889,23.3931421 C44.0593889,11.7870382 34.6628085,2.34429914 23.1042521,2.34429914" id="Fill-7" opacity="0.399390811"></path>
                        <path d="M23.1042521,1.2628475 C10.9586965,1.2628475 1.08259557,11.187001 1.08259557,23.3931421 C1.08259557,35.5988217 10.9586965,45.5322065 23.1042521,45.5322065 C24.370572,45.5322065 25.6185194,45.4228151 26.8306406,45.2049555 L26.6767715,44.5052198 L26.6767715,44.4955269 C25.5193083,44.7046168 24.3255595,44.8052384 23.1042521,44.8052384 C11.3651865,44.8052384 1.80601008,35.198643 1.80601008,23.3931421 C1.80601008,11.5959494 11.3651865,1.98981563 23.1042521,1.98981563 C33.6945813,1.98981563 42.5032439,9.79676101 44.1402276,19.975238 L44.8549152,19.8847708 C43.1821053,9.34257902 34.0657044,1.2628475 23.1042521,1.2628475" id="Fill-8" opacity="0.303896949"></path>
                        <path d="M23.1083859,0.936981148 C10.7846177,0.936981148 0.758781448,11.0120671 0.758781448,23.3968347 C0.758781448,35.7806791 10.7846177,45.8562266 23.1083859,45.8562266 C35.4326134,45.8562266 45.4589089,35.7806791 45.4589089,23.3968347 C45.4589089,11.0120671 35.4326134,0.936981148 23.1083859,0.936981148 Z M23.1083859,46.6182738 C10.3661855,46.6182738 0,36.2016283 0,23.3968347 C0,10.5915795 10.3661855,0.174472352 23.1083859,0.174472352 C35.8510455,0.174472352 46.2176904,10.5915795 46.2176904,23.3968347 C46.2176904,36.2016283 35.8510455,46.6182738 23.1083859,46.6182738 L23.1083859,46.6182738 Z" id="Fill-10" opacity="0.302711124"></path>
                    </g>
                    <g id="Group-4" transform="translate(50.549451, 8.791209)" fill-rule="nonzero">
                        <path d="M3.50769231,15.5076923 C4.33846154,15.5076923 5.01025641,15.2615385 5.52307692,14.7692308 C6.03589744,14.2769231 6.29230769,13.625641 6.29230769,12.8153846 L6.29230769,12.8153846 L6.29230769,9.96923077 C6.29230769,9.86666667 6.24102564,9.81538462 6.13846154,9.81538462 L6.13846154,9.81538462 L3.58461538,9.81538462 C3.48205128,9.81538462 3.43076923,9.86666667 3.43076923,9.96923077 L3.43076923,9.96923077 L3.43076923,10.9230769 C3.43076923,11.025641 3.48205128,11.0769231 3.58461538,11.0769231 L3.58461538,11.0769231 L4.75384615,11.0769231 C4.79487179,11.0769231 4.81538462,11.0974359 4.81538462,11.1384615 L4.81538462,11.1384615 L4.81538462,12.8307692 C4.81538462,13.2512821 4.69487179,13.5897436 4.45384615,13.8461538 C4.21282051,14.1025641 3.8974359,14.2307692 3.50769231,14.2307692 C3.11794872,14.2307692 2.8025641,14.1025641 2.56153846,13.8461538 C2.32051282,13.5897436 2.2,13.2512821 2.2,12.8307692 L2.2,12.8307692 L2.2,7.16923077 C2.2,6.74871795 2.32051282,6.41025641 2.56153846,6.15384615 C2.8025641,5.8974359 3.11794872,5.76923077 3.50769231,5.76923077 C3.8974359,5.76923077 4.21282051,5.8974359 4.45384615,6.15384615 C4.69487179,6.41025641 4.81538462,6.74871795 4.81538462,7.16923077 L4.81538462,7.16923077 L4.81538462,7.84615385 C4.81538462,7.94871795 4.86666667,8 4.96923077,8 L4.96923077,8 L6.13846154,8 C6.24102564,8 6.29230769,7.94871795 6.29230769,7.84615385 L6.29230769,7.84615385 L6.29230769,7.2 C6.29230769,6.37948718 6.03589744,5.72307692 5.52307692,5.23076923 C5.01025641,4.73846154 4.33846154,4.49230769 3.50769231,4.49230769 C2.67692308,4.49230769 2.00769231,4.73846154 1.5,5.23076923 C0.992307692,5.72307692 0.738461538,6.37435897 0.738461538,7.18461538 L0.738461538,7.18461538 L0.738461538,12.8153846 C0.738461538,13.625641 0.992307692,14.2769231 1.5,14.7692308 C2.00769231,15.2615385 2.67692308,15.5076923 3.50769231,15.5076923 Z M12.9692308,15.3846154 C13.0717949,15.3846154 13.1230769,15.3333333 13.1230769,15.2307692 L13.1230769,15.2307692 L13.1230769,14.2615385 C13.1230769,14.1589744 13.0717949,14.1076923 12.9692308,14.1076923 L12.9692308,14.1076923 L9.52307692,14.1076923 C9.48205128,14.1076923 9.46153846,14.0871795 9.46153846,14.0461538 L9.46153846,14.0461538 L9.46153846,4.76923077 C9.46153846,4.66666667 9.41025641,4.61538462 9.30769231,4.61538462 L9.30769231,4.61538462 L8.13846154,4.61538462 C8.03589744,4.61538462 7.98461538,4.66666667 7.98461538,4.76923077 L7.98461538,4.76923077 L7.98461538,15.2307692 C7.98461538,15.3333333 8.03589744,15.3846154 8.13846154,15.3846154 L8.13846154,15.3846154 L12.9692308,15.3846154 Z M16.8307692,15.5076923 C17.6820513,15.5076923 18.3666667,15.2512821 18.8846154,14.7384615 C19.4025641,14.225641 19.6615385,13.5435897 19.6615385,12.6923077 L19.6615385,12.6923077 L19.6615385,7.32307692 C19.6615385,6.47179487 19.4025641,5.78717949 18.8846154,5.26923077 C18.3666667,4.75128205 17.6820513,4.49230769 16.8307692,4.49230769 C15.9897436,4.49230769 15.3128205,4.75128205 14.8,5.26923077 C14.2871795,5.78717949 14.0307692,6.47179487 14.0307692,7.32307692 L14.0307692,7.32307692 L14.0307692,12.6923077 C14.0307692,13.5435897 14.2871795,14.225641 14.8,14.7384615 C15.3128205,15.2512821 15.9897436,15.5076923 16.8307692,15.5076923 Z M16.8307692,14.2307692 C16.4307692,14.2307692 16.1102564,14.0948718 15.8692308,13.8230769 C15.6282051,13.5512821 15.5076923,13.1948718 15.5076923,12.7538462 L15.5076923,12.7538462 L15.5076923,7.24615385 C15.5076923,6.80512821 15.6282051,6.44871795 15.8692308,6.17692308 C16.1102564,5.90512821 16.4307692,5.76923077 16.8307692,5.76923077 C17.2410256,5.76923077 17.5692308,5.90512821 17.8153846,6.17692308 C18.0615385,6.44871795 18.1846154,6.80512821 18.1846154,7.24615385 L18.1846154,7.24615385 L18.1846154,12.7538462 C18.1846154,13.1948718 18.0615385,13.5512821 17.8153846,13.8230769 C17.5692308,14.0948718 17.2410256,14.2307692 16.8307692,14.2307692 Z M24.0769231,15.3846154 C24.9384615,15.3846154 25.6333333,15.1282051 26.1615385,14.6153846 C26.6897436,14.1025641 26.9538462,13.3794872 26.9538462,12.4461538 C26.9538462,11.8410256 26.8384615,11.3179487 26.6076923,10.8769231 C26.3769231,10.4358974 26.0564103,10.0923077 25.6461538,9.84615385 C25.6051282,9.82564103 25.6102564,9.8 25.6615385,9.76923077 C26.4512821,9.34871795 26.8461538,8.58461538 26.8461538,7.47692308 C26.8461538,6.54358974 26.5820513,5.83333333 26.0538462,5.34615385 C25.525641,4.85897436 24.7948718,4.61538462 23.8615385,4.61538462 L23.8615385,4.61538462 L21.5076923,4.61538462 C21.4051282,4.61538462 21.3538462,4.66666667 21.3538462,4.76923077 L21.3538462,4.76923077 L21.3538462,15.2307692 C21.3538462,15.3333333 21.4051282,15.3846154 21.5076923,15.3846154 L21.5076923,15.3846154 L24.0769231,15.3846154 Z M23.8769231,9.27692308 L22.8923077,9.27692308 C22.8512821,9.27692308 22.8307692,9.25641026 22.8307692,9.21538462 L22.8307692,9.21538462 L22.8307692,5.95384615 C22.8307692,5.91282051 22.8512821,5.89230769 22.8923077,5.89230769 L22.8923077,5.89230769 L23.8769231,5.89230769 C24.3589744,5.89230769 24.7333333,6.04358974 25,6.34615385 C25.2666667,6.64871795 25.4,7.07179487 25.4,7.61538462 C25.4,8.13846154 25.2666667,8.54615385 25,8.83846154 C24.7333333,9.13076923 24.3589744,9.27692308 23.8769231,9.27692308 L23.8769231,9.27692308 Z M23.9538462,14.0923077 L22.8923077,14.0923077 C22.8512821,14.0923077 22.8307692,14.0717949 22.8307692,14.0307692 L22.8307692,14.0307692 L22.8307692,10.4307692 C22.8307692,10.3897436 22.8512821,10.3692308 22.8923077,10.3692308 L22.8923077,10.3692308 L23.9692308,10.3692308 C24.4410256,10.3692308 24.8102564,10.5358974 25.0769231,10.8692308 C25.3435897,11.2025641 25.4769231,11.6666667 25.4769231,12.2615385 C25.4769231,12.8461538 25.3410256,13.2974359 25.0692308,13.6153846 C24.7974359,13.9333333 24.425641,14.0923077 23.9538462,14.0923077 L23.9538462,14.0923077 Z M28.9230769,15.3846154 C29.025641,15.3846154 29.0820513,15.3384615 29.0923077,15.2461538 L29.0923077,15.2461538 L29.4153846,13.4769231 C29.4153846,13.4564103 29.4230769,13.4410256 29.4384615,13.4307692 C29.4538462,13.4205128 29.4717949,13.4153846 29.4923077,13.4153846 L29.4923077,13.4153846 L32,13.4153846 C32.0205128,13.4153846 32.0384615,13.4205128 32.0538462,13.4307692 C32.0692308,13.4410256 32.0769231,13.4564103 32.0769231,13.4769231 L32.0769231,13.4769231 L32.4153846,15.2461538 C32.4358974,15.3384615 32.4923077,15.3846154 32.5846154,15.3846154 L32.5846154,15.3846154 L33.7846154,15.3846154 C33.8769231,15.3846154 33.9230769,15.3384615 33.9230769,15.2461538 L33.9230769,15.2461538 L33.9230769,15.2153846 L31.6153846,4.75384615 C31.6051282,4.66153846 31.5487179,4.61538462 31.4461538,4.61538462 L31.4461538,4.61538462 L30.0769231,4.61538462 C29.9846154,4.61538462 29.9282051,4.66153846 29.9076923,4.75384615 L29.9076923,4.75384615 L27.6153846,15.2153846 C27.6051282,15.2666667 27.6128205,15.3076923 27.6384615,15.3384615 C27.6641026,15.3692308 27.7025641,15.3846154 27.7538462,15.3846154 L27.7538462,15.3846154 L28.9230769,15.3846154 Z M31.7692308,12.2461538 L29.7230769,12.2461538 C29.6923077,12.2461538 29.6769231,12.225641 29.6769231,12.1846154 L29.6769231,12.1846154 L30.7076923,6.72307692 C30.7179487,6.7025641 30.7282051,6.69230769 30.7384615,6.69230769 C30.7487179,6.69230769 30.7589744,6.7025641 30.7692308,6.72307692 L30.7692308,6.72307692 L31.8153846,12.1846154 C31.8153846,12.225641 31.8,12.2461538 31.7692308,12.2461538 L31.7692308,12.2461538 Z M40.0615385,15.3846154 C40.1641026,15.3846154 40.2153846,15.3333333 40.2153846,15.2307692 L40.2153846,15.2307692 L40.2153846,14.2615385 C40.2153846,14.1589744 40.1641026,14.1076923 40.0615385,14.1076923 L40.0615385,14.1076923 L36.6153846,14.1076923 C36.574359,14.1076923 36.5538462,14.0871795 36.5538462,14.0461538 L36.5538462,14.0461538 L36.5538462,4.76923077 C36.5538462,4.66666667 36.5025641,4.61538462 36.4,4.61538462 L36.4,4.61538462 L35.2307692,4.61538462 C35.1282051,4.61538462 35.0769231,4.66666667 35.0769231,4.76923077 L35.0769231,4.76923077 L35.0769231,15.2307692 C35.0769231,15.3333333 35.1282051,15.3846154 35.2307692,15.3846154 L35.2307692,15.3846154 L40.0615385,15.3846154 Z M46.9692308,15.5076923 C47.8102564,15.5076923 48.4846154,15.2538462 48.9923077,14.7461538 C49.5,14.2384615 49.7538462,13.5641026 49.7538462,12.7230769 L49.7538462,12.7230769 L49.7538462,12.4923077 C49.7538462,12.3897436 49.7025641,12.3384615 49.6,12.3384615 L49.6,12.3384615 L48.4307692,12.2769231 C48.3282051,12.2769231 48.2769231,12.3282051 48.2769231,12.4307692 L48.2769231,12.4307692 L48.2769231,12.8307692 C48.2769231,13.2512821 48.1564103,13.5897436 47.9153846,13.8461538 C47.674359,14.1025641 47.3589744,14.2307692 46.9692308,14.2307692 C46.5794872,14.2307692 46.2666667,14.1025641 46.0307692,13.8461538 C45.7948718,13.5897436 45.6769231,13.2512821 45.6769231,12.8307692 L45.6769231,12.8307692 L45.6769231,7.16923077 C45.6769231,6.74871795 45.7948718,6.41025641 46.0307692,6.15384615 C46.2666667,5.8974359 46.5794872,5.76923077 46.9692308,5.76923077 C47.3589744,5.76923077 47.674359,5.8974359 47.9153846,6.15384615 C48.1564103,6.41025641 48.2769231,6.74871795 48.2769231,7.16923077 L48.2769231,7.16923077 L48.2769231,7.56923077 C48.2769231,7.67179487 48.3282051,7.72307692 48.4307692,7.72307692 L48.4307692,7.72307692 L49.6,7.66153846 C49.7025641,7.66153846 49.7538462,7.61025641 49.7538462,7.50769231 L49.7538462,7.50769231 L49.7538462,7.26153846 C49.7538462,6.42051282 49.5,5.74871795 48.9923077,5.24615385 C48.4846154,4.74358974 47.8102564,4.49230769 46.9692308,4.49230769 C46.1384615,4.49230769 45.4692308,4.74358974 44.9615385,5.24615385 C44.4538462,5.74871795 44.2,6.42051282 44.2,7.26153846 L44.2,7.26153846 L44.2,12.7230769 C44.2,13.5641026 44.4538462,14.2384615 44.9615385,14.7461538 C45.4692308,15.2538462 46.1384615,15.5076923 46.9692308,15.5076923 Z M53.9538462,15.5076923 C54.8051282,15.5076923 55.4897436,15.2512821 56.0076923,14.7384615 C56.525641,14.225641 56.7846154,13.5435897 56.7846154,12.6923077 L56.7846154,12.6923077 L56.7846154,7.32307692 C56.7846154,6.47179487 56.525641,5.78717949 56.0076923,5.26923077 C55.4897436,4.75128205 54.8051282,4.49230769 53.9538462,4.49230769 C53.1128205,4.49230769 52.4358974,4.75128205 51.9230769,5.26923077 C51.4102564,5.78717949 51.1538462,6.47179487 51.1538462,7.32307692 L51.1538462,7.32307692 L51.1538462,12.6923077 C51.1538462,13.5435897 51.4102564,14.225641 51.9230769,14.7384615 C52.4358974,15.2512821 53.1128205,15.5076923 53.9538462,15.5076923 Z M53.9538462,14.2307692 C53.5538462,14.2307692 53.2333333,14.0948718 52.9923077,13.8230769 C52.7512821,13.5512821 52.6307692,13.1948718 52.6307692,12.7538462 L52.6307692,12.7538462 L52.6307692,7.24615385 C52.6307692,6.80512821 52.7512821,6.44871795 52.9923077,6.17692308 C53.2333333,5.90512821 53.5538462,5.76923077 53.9538462,5.76923077 C54.3641026,5.76923077 54.6923077,5.90512821 54.9384615,6.17692308 C55.1846154,6.44871795 55.3076923,6.80512821 55.3076923,7.24615385 L55.3076923,7.24615385 L55.3076923,12.7538462 C55.3076923,13.1948718 55.1846154,13.5512821 54.9384615,13.8230769 C54.6923077,14.0948718 54.3641026,14.2307692 53.9538462,14.2307692 Z M59.7692308,15.3846154 C59.8717949,15.3846154 59.9230769,15.3333333 59.9230769,15.2307692 L59.9230769,15.2307692 L59.9230769,7.61538462 C59.9230769,7.58461538 59.9307692,7.56923077 59.9461538,7.56923077 C59.9615385,7.56923077 59.9794872,7.57948718 60,7.6 L60,7.6 L61.4615385,10.3384615 C61.4923077,10.4102564 61.5384615,10.4461538 61.6,10.4461538 C61.6615385,10.4461538 61.7076923,10.4102564 61.7384615,10.3384615 L61.7384615,10.3384615 L63.2153846,7.58461538 C63.2358974,7.56410256 63.2538462,7.55384615 63.2692308,7.55384615 C63.2846154,7.55384615 63.2923077,7.56923077 63.2923077,7.6 L63.2923077,7.6 L63.2923077,15.2307692 C63.2923077,15.3333333 63.3435897,15.3846154 63.4461538,15.3846154 L63.4461538,15.3846154 L64.6153846,15.3846154 C64.7179487,15.3846154 64.7692308,15.3333333 64.7692308,15.2307692 L64.7692308,15.2307692 L64.7692308,4.76923077 C64.7692308,4.66666667 64.7179487,4.61538462 64.6153846,4.61538462 L64.6153846,4.61538462 L63.4461538,4.61538462 C63.3641026,4.61538462 63.3025641,4.65128205 63.2615385,4.72307692 L63.2615385,4.72307692 L61.6615385,7.61538462 C61.6512821,7.62564103 61.6358974,7.63076923 61.6153846,7.63076923 C61.5948718,7.63076923 61.5794872,7.62564103 61.5692308,7.61538462 L61.5692308,7.61538462 L59.9538462,4.72307692 C59.9025641,4.65128205 59.8410256,4.61538462 59.7692308,4.61538462 L59.7692308,4.61538462 L58.6,4.61538462 C58.4974359,4.61538462 58.4461538,4.66666667 58.4461538,4.76923077 L58.4461538,4.76923077 L58.4461538,15.2307692 C58.4461538,15.3333333 58.4974359,15.3846154 58.6,15.3846154 L58.6,15.3846154 L59.7692308,15.3846154 Z M67.9230769,15.3846154 C68.025641,15.3846154 68.0769231,15.3333333 68.0769231,15.2307692 L68.0769231,15.2307692 L68.0769231,7.61538462 C68.0769231,7.58461538 68.0846154,7.56923077 68.1,7.56923077 C68.1153846,7.56923077 68.1333333,7.57948718 68.1538462,7.6 L68.1538462,7.6 L69.6153846,10.3384615 C69.6461538,10.4102564 69.6923077,10.4461538 69.7538462,10.4461538 C69.8153846,10.4461538 69.8615385,10.4102564 69.8923077,10.3384615 L69.8923077,10.3384615 L71.3692308,7.58461538 C71.3897436,7.56410256 71.4076923,7.55384615 71.4230769,7.55384615 C71.4384615,7.55384615 71.4461538,7.56923077 71.4461538,7.6 L71.4461538,7.6 L71.4461538,15.2307692 C71.4461538,15.3333333 71.4974359,15.3846154 71.6,15.3846154 L71.6,15.3846154 L72.7692308,15.3846154 C72.8717949,15.3846154 72.9230769,15.3333333 72.9230769,15.2307692 L72.9230769,15.2307692 L72.9230769,4.76923077 C72.9230769,4.66666667 72.8717949,4.61538462 72.7692308,4.61538462 L72.7692308,4.61538462 L71.6,4.61538462 C71.5179487,4.61538462 71.4564103,4.65128205 71.4153846,4.72307692 L71.4153846,4.72307692 L69.8153846,7.61538462 C69.8051282,7.62564103 69.7897436,7.63076923 69.7692308,7.63076923 C69.7487179,7.63076923 69.7333333,7.62564103 69.7230769,7.61538462 L69.7230769,7.61538462 L68.1076923,4.72307692 C68.0564103,4.65128205 67.9948718,4.61538462 67.9230769,4.61538462 L67.9230769,4.61538462 L66.7538462,4.61538462 C66.6512821,4.61538462 66.6,4.66666667 66.6,4.76923077 L66.6,4.76923077 L66.6,15.2307692 C66.6,15.3333333 66.6512821,15.3846154 66.7538462,15.3846154 L66.7538462,15.3846154 L67.9230769,15.3846154 Z M77.3692308,15.5076923 C78.2205128,15.5076923 78.9051282,15.2512821 79.4230769,14.7384615 C79.9410256,14.225641 80.2,13.5435897 80.2,12.6923077 L80.2,12.6923077 L80.2,7.32307692 C80.2,6.47179487 79.9410256,5.78717949 79.4230769,5.26923077 C78.9051282,4.75128205 78.2205128,4.49230769 77.3692308,4.49230769 C76.5282051,4.49230769 75.8512821,4.75128205 75.3384615,5.26923077 C74.825641,5.78717949 74.5692308,6.47179487 74.5692308,7.32307692 L74.5692308,7.32307692 L74.5692308,12.6923077 C74.5692308,13.5435897 74.825641,14.225641 75.3384615,14.7384615 C75.8512821,15.2512821 76.5282051,15.5076923 77.3692308,15.5076923 Z M77.3692308,14.2307692 C76.9692308,14.2307692 76.6487179,14.0948718 76.4076923,13.8230769 C76.1666667,13.5512821 76.0461538,13.1948718 76.0461538,12.7538462 L76.0461538,12.7538462 L76.0461538,7.24615385 C76.0461538,6.80512821 76.1666667,6.44871795 76.4076923,6.17692308 C76.6487179,5.90512821 76.9692308,5.76923077 77.3692308,5.76923077 C77.7794872,5.76923077 78.1076923,5.90512821 78.3538462,6.17692308 C78.6,6.44871795 78.7230769,6.80512821 78.7230769,7.24615385 L78.7230769,7.24615385 L78.7230769,12.7538462 C78.7230769,13.1948718 78.6,13.5512821 78.3538462,13.8230769 C78.1076923,14.0948718 77.7794872,14.2307692 77.3692308,14.2307692 Z M83.2153846,15.3846154 C83.3179487,15.3846154 83.3692308,15.3333333 83.3692308,15.2307692 L83.3692308,15.2307692 L83.3538462,8.24615385 C83.3538462,8.22564103 83.3641026,8.21282051 83.3846154,8.20769231 C83.4051282,8.2025641 83.4205128,8.21025641 83.4307692,8.23076923 L83.4307692,8.23076923 L86.0461538,15.2615385 C86.0769231,15.3435897 86.1333333,15.3846154 86.2153846,15.3846154 L86.2153846,15.3846154 L87.5384615,15.3846154 C87.6410256,15.3846154 87.6923077,15.3333333 87.6923077,15.2307692 L87.6923077,15.2307692 L87.6923077,4.76923077 C87.6923077,4.66666667 87.6410256,4.61538462 87.5384615,4.61538462 L87.5384615,4.61538462 L86.3846154,4.61538462 C86.2820513,4.61538462 86.2307692,4.66666667 86.2307692,4.76923077 L86.2307692,4.76923077 L86.2307692,11.7538462 C86.2307692,11.7846154 86.2205128,11.8025641 86.2,11.8076923 C86.1794872,11.8128205 86.1641026,11.8 86.1538462,11.7692308 L86.1538462,11.7692308 L83.5230769,4.73846154 C83.4923077,4.65641026 83.4358974,4.61538462 83.3538462,4.61538462 L83.3538462,4.61538462 L82.0461538,4.61538462 C81.9435897,4.61538462 81.8923077,4.66666667 81.8923077,4.76923077 L81.8923077,4.76923077 L81.8923077,15.2307692 C81.8923077,15.3333333 81.9435897,15.3846154 82.0461538,15.3846154 L82.0461538,15.3846154 L83.2153846,15.3846154 Z M91.9384615,15.5076923 C92.7487179,15.5076923 93.4051282,15.2487179 93.9076923,14.7307692 C94.4102564,14.2128205 94.6615385,13.5230769 94.6615385,12.6615385 C94.6615385,12.1897436 94.5769231,11.7820513 94.4076923,11.4384615 C94.2384615,11.0948718 93.9974359,10.7794872 93.6846154,10.4923077 C93.3717949,10.2051282 92.9076923,9.83076923 92.2923077,9.36923077 C91.6461538,8.8974359 91.2102564,8.52051282 90.9846154,8.23846154 C90.7589744,7.95641026 90.6461538,7.61025641 90.6461538,7.2 C90.6461538,6.74871795 90.7589744,6.3974359 90.9846154,6.14615385 C91.2102564,5.89487179 91.5025641,5.76923077 91.8615385,5.76923077 C92.2410256,5.76923077 92.5487179,5.91025641 92.7846154,6.19230769 C93.0205128,6.47435897 93.1384615,6.84615385 93.1384615,7.30769231 L93.1384615,7.30769231 L93.1384615,7.72307692 C93.1384615,7.82564103 93.1897436,7.87692308 93.2923077,7.87692308 L93.2923077,7.87692308 L94.4307692,7.87692308 C94.5333333,7.87692308 94.5846154,7.82564103 94.5846154,7.72307692 L94.5846154,7.72307692 L94.5846154,7.33846154 C94.5846154,6.48717949 94.3358974,5.8 93.8384615,5.27692308 C93.3410256,4.75384615 92.6820513,4.49230769 91.8615385,4.49230769 C91.0717949,4.49230769 90.4307692,4.73589744 89.9384615,5.22307692 C89.4461538,5.71025641 89.2,6.36923077 89.2,7.2 C89.2,7.72307692 89.3025641,8.17948718 89.5076923,8.56923077 C89.7128205,8.95897436 89.9641026,9.29230769 90.2615385,9.56923077 C90.5589744,9.84615385 90.9692308,10.1794872 91.4923077,10.5692308 C91.9641026,10.9179487 92.3051282,11.1820513 92.5153846,11.3615385 C92.725641,11.5410256 92.8948718,11.7435897 93.0230769,11.9692308 C93.1512821,12.1948718 93.2153846,12.4564103 93.2153846,12.7538462 C93.2153846,13.1948718 93.0948718,13.5512821 92.8538462,13.8230769 C92.6128205,14.0948718 92.3076923,14.2307692 91.9384615,14.2307692 C91.5692308,14.2307692 91.2666667,14.0897436 91.0307692,13.8076923 C90.7948718,13.525641 90.6769231,13.1487179 90.6769231,12.6769231 L90.6769231,12.6769231 L90.6769231,12.3538462 C90.6769231,12.2512821 90.625641,12.2 90.5230769,12.2 L90.5230769,12.2 L89.3846154,12.2 C89.2820513,12.2 89.2307692,12.2512821 89.2307692,12.3538462 L89.2307692,12.3538462 L89.2307692,12.7538462 C89.2307692,13.574359 89.4794872,14.2384615 89.9769231,14.7461538 C90.474359,15.2538462 91.1282051,15.5076923 91.9384615,15.5076923 Z M99.7846154,15.3846154 C99.8871795,15.3846154 99.9435897,15.3384615 99.9538462,15.2461538 L99.9538462,15.2461538 L100.276923,13.4769231 C100.276923,13.4564103 100.284615,13.4410256 100.3,13.4307692 C100.315385,13.4205128 100.333333,13.4153846 100.353846,13.4153846 L100.353846,13.4153846 L102.861538,13.4153846 C102.882051,13.4153846 102.9,13.4205128 102.915385,13.4307692 C102.930769,13.4410256 102.938462,13.4564103 102.938462,13.4769231 L102.938462,13.4769231 L103.276923,15.2461538 C103.297436,15.3384615 103.353846,15.3846154 103.446154,15.3846154 L103.446154,15.3846154 L104.646154,15.3846154 C104.738462,15.3846154 104.784615,15.3384615 104.784615,15.2461538 L104.784615,15.2461538 L104.784615,15.2153846 L102.476923,4.75384615 C102.466667,4.66153846 102.410256,4.61538462 102.307692,4.61538462 L102.307692,4.61538462 L100.938462,4.61538462 C100.846154,4.61538462 100.789744,4.66153846 100.769231,4.75384615 L100.769231,4.75384615 L98.4769231,15.2153846 C98.4666667,15.2666667 98.474359,15.3076923 98.5,15.3384615 C98.525641,15.3692308 98.5641026,15.3846154 98.6153846,15.3846154 L98.6153846,15.3846154 L99.7846154,15.3846154 Z M102.630769,12.2461538 L100.584615,12.2461538 C100.553846,12.2461538 100.538462,12.225641 100.538462,12.1846154 L100.538462,12.1846154 L101.569231,6.72307692 C101.579487,6.7025641 101.589744,6.69230769 101.6,6.69230769 C101.610256,6.69230769 101.620513,6.7025641 101.630769,6.72307692 L101.630769,6.72307692 L102.676923,12.1846154 C102.676923,12.225641 102.661538,12.2461538 102.630769,12.2461538 L102.630769,12.2461538 Z M110.923077,15.3846154 C111.025641,15.3846154 111.076923,15.3333333 111.076923,15.2307692 L111.076923,15.2307692 L111.076923,14.2615385 C111.076923,14.1589744 111.025641,14.1076923 110.923077,14.1076923 L110.923077,14.1076923 L107.476923,14.1076923 C107.435897,14.1076923 107.415385,14.0871795 107.415385,14.0461538 L107.415385,14.0461538 L107.415385,4.76923077 C107.415385,4.66666667 107.364103,4.61538462 107.261538,4.61538462 L107.261538,4.61538462 L106.092308,4.61538462 C105.989744,4.61538462 105.938462,4.66666667 105.938462,4.76923077 L105.938462,4.76923077 L105.938462,15.2307692 C105.938462,15.3333333 105.989744,15.3846154 106.092308,15.3846154 L106.092308,15.3846154 L110.923077,15.3846154 Z M117.184615,15.3846154 C117.287179,15.3846154 117.338462,15.3333333 117.338462,15.2307692 L117.338462,15.2307692 L117.338462,14.2615385 C117.338462,14.1589744 117.287179,14.1076923 117.184615,14.1076923 L117.184615,14.1076923 L113.738462,14.1076923 C113.697436,14.1076923 113.676923,14.0871795 113.676923,14.0461538 L113.676923,14.0461538 L113.676923,4.76923077 C113.676923,4.66666667 113.625641,4.61538462 113.523077,4.61538462 L113.523077,4.61538462 L112.353846,4.61538462 C112.251282,4.61538462 112.2,4.66666667 112.2,4.76923077 L112.2,4.76923077 L112.2,15.2307692 C112.2,15.3333333 112.251282,15.3846154 112.353846,15.3846154 L112.353846,15.3846154 L117.184615,15.3846154 Z M119.784615,15.3846154 C119.887179,15.3846154 119.938462,15.3333333 119.938462,15.2307692 L119.938462,15.2307692 L119.938462,4.76923077 C119.938462,4.66666667 119.887179,4.61538462 119.784615,4.61538462 L119.784615,4.61538462 L118.615385,4.61538462 C118.512821,4.61538462 118.461538,4.66666667 118.461538,4.76923077 L118.461538,4.76923077 L118.461538,15.2307692 C118.461538,15.3333333 118.512821,15.3846154 118.615385,15.3846154 L118.615385,15.3846154 L119.784615,15.3846154 Z M122.4,15.3846154 C122.502564,15.3846154 122.558974,15.3384615 122.569231,15.2461538 L122.569231,15.2461538 L122.892308,13.4769231 C122.892308,13.4564103 122.9,13.4410256 122.915385,13.4307692 C122.930769,13.4205128 122.948718,13.4153846 122.969231,13.4153846 L122.969231,13.4153846 L125.476923,13.4153846 C125.497436,13.4153846 125.515385,13.4205128 125.530769,13.4307692 C125.546154,13.4410256 125.553846,13.4564103 125.553846,13.4769231 L125.553846,13.4769231 L125.892308,15.2461538 C125.912821,15.3384615 125.969231,15.3846154 126.061538,15.3846154 L126.061538,15.3846154 L127.261538,15.3846154 C127.353846,15.3846154 127.4,15.3384615 127.4,15.2461538 L127.4,15.2461538 L127.4,15.2153846 L125.092308,4.75384615 C125.082051,4.66153846 125.025641,4.61538462 124.923077,4.61538462 L124.923077,4.61538462 L123.553846,4.61538462 C123.461538,4.61538462 123.405128,4.66153846 123.384615,4.75384615 L123.384615,4.75384615 L121.092308,15.2153846 C121.082051,15.2666667 121.089744,15.3076923 121.115385,15.3384615 C121.141026,15.3692308 121.179487,15.3846154 121.230769,15.3846154 L121.230769,15.3846154 L122.4,15.3846154 Z M125.246154,12.2461538 L123.2,12.2461538 C123.169231,12.2461538 123.153846,12.225641 123.153846,12.1846154 L123.153846,12.1846154 L124.184615,6.72307692 C124.194872,6.7025641 124.205128,6.69230769 124.215385,6.69230769 C124.225641,6.69230769 124.235897,6.7025641 124.246154,6.72307692 L124.246154,6.72307692 L125.292308,12.1846154 C125.292308,12.225641 125.276923,12.2461538 125.246154,12.2461538 L125.246154,12.2461538 Z M129.876923,15.3846154 C129.979487,15.3846154 130.030769,15.3333333 130.030769,15.2307692 L130.030769,15.2307692 L130.015385,8.24615385 C130.015385,8.22564103 130.025641,8.21282051 130.046154,8.20769231 C130.066667,8.2025641 130.082051,8.21025641 130.092308,8.23076923 L130.092308,8.23076923 L132.707692,15.2615385 C132.738462,15.3435897 132.794872,15.3846154 132.876923,15.3846154 L132.876923,15.3846154 L134.2,15.3846154 C134.302564,15.3846154 134.353846,15.3333333 134.353846,15.2307692 L134.353846,15.2307692 L134.353846,4.76923077 C134.353846,4.66666667 134.302564,4.61538462 134.2,4.61538462 L134.2,4.61538462 L133.046154,4.61538462 C132.94359,4.61538462 132.892308,4.66666667 132.892308,4.76923077 L132.892308,4.76923077 L132.892308,11.7538462 C132.892308,11.7846154 132.882051,11.8025641 132.861538,11.8076923 C132.841026,11.8128205 132.825641,11.8 132.815385,11.7692308 L132.815385,11.7692308 L130.184615,4.73846154 C130.153846,4.65641026 130.097436,4.61538462 130.015385,4.61538462 L130.015385,4.61538462 L128.707692,4.61538462 C128.605128,4.61538462 128.553846,4.66666667 128.553846,4.76923077 L128.553846,4.76923077 L128.553846,15.2307692 C128.553846,15.3333333 128.605128,15.3846154 128.707692,15.3846154 L128.707692,15.3846154 L129.876923,15.3846154 Z M138.815385,15.5076923 C139.65641,15.5076923 140.330769,15.2538462 140.838462,14.7461538 C141.346154,14.2384615 141.6,13.5641026 141.6,12.7230769 L141.6,12.7230769 L141.6,12.4923077 C141.6,12.3897436 141.548718,12.3384615 141.446154,12.3384615 L141.446154,12.3384615 L140.276923,12.2769231 C140.174359,12.2769231 140.123077,12.3282051 140.123077,12.4307692 L140.123077,12.4307692 L140.123077,12.8307692 C140.123077,13.2512821 140.002564,13.5897436 139.761538,13.8461538 C139.520513,14.1025641 139.205128,14.2307692 138.815385,14.2307692 C138.425641,14.2307692 138.112821,14.1025641 137.876923,13.8461538 C137.641026,13.5897436 137.523077,13.2512821 137.523077,12.8307692 L137.523077,12.8307692 L137.523077,7.16923077 C137.523077,6.74871795 137.641026,6.41025641 137.876923,6.15384615 C138.112821,5.8974359 138.425641,5.76923077 138.815385,5.76923077 C139.205128,5.76923077 139.520513,5.8974359 139.761538,6.15384615 C140.002564,6.41025641 140.123077,6.74871795 140.123077,7.16923077 L140.123077,7.16923077 L140.123077,7.56923077 C140.123077,7.67179487 140.174359,7.72307692 140.276923,7.72307692 L140.276923,7.72307692 L141.446154,7.66153846 C141.548718,7.66153846 141.6,7.61025641 141.6,7.50769231 L141.6,7.50769231 L141.6,7.26153846 C141.6,6.42051282 141.346154,5.74871795 140.838462,5.24615385 C140.330769,4.74358974 139.65641,4.49230769 138.815385,4.49230769 C137.984615,4.49230769 137.315385,4.74358974 136.807692,5.24615385 C136.3,5.74871795 136.046154,6.42051282 136.046154,7.26153846 L136.046154,7.26153846 L136.046154,12.7230769 C136.046154,13.5641026 136.3,14.2384615 136.807692,14.7461538 C137.315385,15.2538462 137.984615,15.5076923 138.815385,15.5076923 Z M148.215385,15.3846154 C148.317949,15.3846154 148.369231,15.3333333 148.369231,15.2307692 L148.369231,15.2307692 L148.369231,14.2615385 C148.369231,14.1589744 148.317949,14.1076923 148.215385,14.1076923 L148.215385,14.1076923 L144.753846,14.1076923 C144.712821,14.1076923 144.692308,14.0871795 144.692308,14.0461538 L144.692308,14.0461538 L144.692308,10.6923077 C144.692308,10.6512821 144.712821,10.6307692 144.753846,10.6307692 L144.753846,10.6307692 L146.876923,10.6307692 C146.979487,10.6307692 147.030769,10.5794872 147.030769,10.4769231 L147.030769,10.4769231 L147.030769,9.50769231 C147.030769,9.40512821 146.979487,9.35384615 146.876923,9.35384615 L146.876923,9.35384615 L144.753846,9.35384615 C144.712821,9.35384615 144.692308,9.33333333 144.692308,9.29230769 L144.692308,9.29230769 L144.692308,5.95384615 C144.692308,5.91282051 144.712821,5.89230769 144.753846,5.89230769 L144.753846,5.89230769 L148.215385,5.89230769 C148.317949,5.89230769 148.369231,5.84102564 148.369231,5.73846154 L148.369231,5.73846154 L148.369231,4.76923077 C148.369231,4.66666667 148.317949,4.61538462 148.215385,4.61538462 L148.215385,4.61538462 L143.369231,4.61538462 C143.266667,4.61538462 143.215385,4.66666667 143.215385,4.76923077 L143.215385,4.76923077 L143.215385,15.2307692 C143.215385,15.3333333 143.266667,15.3846154 143.369231,15.3846154 L143.369231,15.3846154 L148.215385,15.3846154 Z" id="GLOBALCOMMONSALLIANCE"></path>
                        <path d="M1.73772894,27.8388278 C1.80610501,27.8388278 1.84371184,27.8080586 1.85054945,27.7465201 L1.85054945,27.7465201 L2.06593407,26.567033 C2.06593407,26.5533578 2.07106227,26.5431013 2.08131868,26.5362637 C2.09157509,26.5294261 2.1035409,26.5260073 2.11721612,26.5260073 L2.11721612,26.5260073 L3.78901099,26.5260073 C3.8026862,26.5260073 3.81465201,26.5294261 3.82490842,26.5362637 C3.83516484,26.5431013 3.84029304,26.5533578 3.84029304,26.567033 L3.84029304,26.567033 L4.06593407,27.7465201 C4.07960928,27.8080586 4.11721612,27.8388278 4.17875458,27.8388278 L4.17875458,27.8388278 L4.97875458,27.8388278 C5.04029304,27.8388278 5.07106227,27.8080586 5.07106227,27.7465201 L5.07106227,27.7465201 L5.07106227,27.7260073 L3.53260073,20.7516484 C3.52576313,20.6901099 3.48815629,20.6593407 3.41978022,20.6593407 L3.41978022,20.6593407 L2.50695971,20.6593407 C2.44542125,20.6593407 2.40781441,20.6901099 2.39413919,20.7516484 L2.39413919,20.7516484 L0.865934066,27.7260073 C0.859096459,27.7601954 0.864224664,27.7875458 0.881318681,27.8080586 C0.898412698,27.8285714 0.924053724,27.8388278 0.958241758,27.8388278 L0.958241758,27.8388278 L1.73772894,27.8388278 Z M3.63516484,25.7465201 L2.27106227,25.7465201 C2.25054945,25.7465201 2.24029304,25.7328449 2.24029304,25.7054945 L2.24029304,25.7054945 L2.92747253,22.0644689 C2.93431013,22.0507937 2.94114774,22.043956 2.94798535,22.043956 C2.95482295,22.043956 2.96166056,22.0507937 2.96849817,22.0644689 L2.96849817,22.0644689 L3.66593407,25.7054945 C3.66593407,25.7328449 3.65567766,25.7465201 3.63516484,25.7465201 L3.63516484,25.7465201 Z M8.76336996,27.8388278 C8.83174603,27.8388278 8.86593407,27.8046398 8.86593407,27.7362637 L8.86593407,27.7362637 L8.86593407,24.7619048 C8.86593407,24.7345543 8.87960928,24.7208791 8.90695971,24.7208791 L8.90695971,24.7208791 L9.87106227,24.7208791 C10.3838828,24.7208791 10.797558,24.5362637 11.1120879,24.167033 C11.4266178,23.7978022 11.5838828,23.3123321 11.5838828,22.7106227 C11.5838828,22.0952381 11.4214896,21.5978022 11.0967033,21.218315 C10.771917,20.8388278 10.3462759,20.6490842 9.81978022,20.6490842 L9.81978022,20.6490842 L7.98388278,20.6490842 C7.91550672,20.6490842 7.88131868,20.6832723 7.88131868,20.7516484 L7.88131868,20.7516484 L7.88131868,27.7362637 C7.88131868,27.8046398 7.91550672,27.8388278 7.98388278,27.8388278 L7.98388278,27.8388278 L8.76336996,27.8388278 Z M9.66593407,23.9311355 L8.90695971,23.9311355 C8.87960928,23.9311355 8.86593407,23.9174603 8.86593407,23.8901099 L8.86593407,23.8901099 L8.86593407,21.5413919 C8.86593407,21.5140415 8.87960928,21.5003663 8.90695971,21.5003663 L8.90695971,21.5003663 L9.66593407,21.5003663 C9.94627595,21.5003663 10.171917,21.6114774 10.3428571,21.8336996 C10.5137973,22.0559219 10.5992674,22.3550672 10.5992674,22.7311355 C10.5992674,23.1003663 10.5137973,23.392674 10.3428571,23.6080586 C10.171917,23.8234432 9.94627595,23.9311355 9.66593407,23.9311355 L9.66593407,23.9311355 Z M15.840293,27.8388278 C15.9086691,27.8388278 15.9428571,27.8046398 15.9428571,27.7362637 L15.9428571,27.7362637 L15.9428571,27.0901099 C15.9428571,27.0217338 15.9086691,26.9875458 15.840293,26.9875458 L15.840293,26.9875458 L13.5428571,26.9875458 C13.5155067,26.9875458 13.5018315,26.9738706 13.5018315,26.9465201 L13.5018315,26.9465201 L13.5018315,20.7619048 C13.5018315,20.6935287 13.4676435,20.6593407 13.3992674,20.6593407 L13.3992674,20.6593407 L12.6197802,20.6593407 C12.5514042,20.6593407 12.5172161,20.6935287 12.5172161,20.7619048 L12.5172161,20.7619048 L12.5172161,27.7362637 C12.5172161,27.8046398 12.5514042,27.8388278 12.6197802,27.8388278 L12.6197802,27.8388278 L15.840293,27.8388278 Z M17.0608059,27.8388278 C17.1291819,27.8388278 17.1667888,27.8080586 17.1736264,27.7465201 L17.1736264,27.7465201 L17.389011,26.567033 C17.389011,26.5533578 17.3941392,26.5431013 17.4043956,26.5362637 C17.414652,26.5294261 17.4266178,26.5260073 17.440293,26.5260073 L17.440293,26.5260073 L19.1120879,26.5260073 C19.1257631,26.5260073 19.1377289,26.5294261 19.1479853,26.5362637 C19.1582418,26.5431013 19.16337,26.5533578 19.16337,26.567033 L19.16337,26.567033 L19.389011,27.7465201 C19.4026862,27.8080586 19.440293,27.8388278 19.5018315,27.8388278 L19.5018315,27.8388278 L20.3018315,27.8388278 C20.36337,27.8388278 20.3941392,27.8080586 20.3941392,27.7465201 L20.3941392,27.7465201 L20.3941392,27.7260073 L18.8556777,20.7516484 C18.84884,20.6901099 18.8112332,20.6593407 18.7428571,20.6593407 L18.7428571,20.6593407 L17.8300366,20.6593407 C17.7684982,20.6593407 17.7308913,20.6901099 17.7172161,20.7516484 L17.7172161,20.7516484 L16.189011,27.7260073 C16.1821734,27.7601954 16.1873016,27.7875458 16.2043956,27.8080586 C16.2214896,27.8285714 16.2471306,27.8388278 16.2813187,27.8388278 L16.2813187,27.8388278 L17.0608059,27.8388278 Z M18.9582418,25.7465201 L17.5941392,25.7465201 C17.5736264,25.7465201 17.56337,25.7328449 17.56337,25.7054945 L17.56337,25.7054945 L18.2505495,22.0644689 C18.2573871,22.0507937 18.2642247,22.043956 18.2710623,22.043956 C18.2778999,22.043956 18.2847375,22.0507937 18.2915751,22.0644689 L18.2915751,22.0644689 L18.989011,25.7054945 C18.989011,25.7328449 18.9787546,25.7465201 18.9582418,25.7465201 L18.9582418,25.7465201 Z M22.0454212,27.8388278 C22.1137973,27.8388278 22.1479853,27.8046398 22.1479853,27.7362637 L22.1479853,27.7362637 L22.1377289,23.0798535 C22.1377289,23.0661783 22.1445665,23.0576313 22.1582418,23.0542125 C22.171917,23.0507937 22.1821734,23.0559219 22.189011,23.0695971 L22.189011,23.0695971 L23.9326007,27.7567766 C23.9531136,27.8114774 23.9907204,27.8388278 24.0454212,27.8388278 L24.0454212,27.8388278 L24.9274725,27.8388278 C24.9958486,27.8388278 25.0300366,27.8046398 25.0300366,27.7362637 L25.0300366,27.7362637 L25.0300366,20.7619048 C25.0300366,20.6935287 24.9958486,20.6593407 24.9274725,20.6593407 L24.9274725,20.6593407 L24.1582418,20.6593407 C24.0898657,20.6593407 24.0556777,20.6935287 24.0556777,20.7619048 L24.0556777,20.7619048 L24.0556777,25.418315 C24.0556777,25.4388278 24.04884,25.4507937 24.0351648,25.4542125 C24.0214896,25.4576313 24.0112332,25.4490842 24.0043956,25.4285714 L24.0043956,25.4285714 L22.2505495,20.7413919 C22.2300366,20.6866911 22.1924298,20.6593407 22.1377289,20.6593407 L22.1377289,20.6593407 L21.2659341,20.6593407 C21.197558,20.6593407 21.16337,20.6935287 21.16337,20.7619048 L21.16337,20.7619048 L21.16337,27.7362637 C21.16337,27.8046398 21.197558,27.8388278 21.2659341,27.8388278 L21.2659341,27.8388278 L22.0454212,27.8388278 Z M29.2351648,27.8388278 C29.3035409,27.8388278 29.3377289,27.8046398 29.3377289,27.7362637 L29.3377289,27.7362637 L29.3377289,24.7106227 C29.3377289,24.6832723 29.3514042,24.6695971 29.3787546,24.6695971 L29.3787546,24.6695971 L30.7838828,24.6695971 C30.8522589,24.6695971 30.8864469,24.635409 30.8864469,24.567033 L30.8864469,24.567033 L30.8864469,23.9208791 C30.8864469,23.8525031 30.8522589,23.818315 30.7838828,23.818315 L30.7838828,23.818315 L29.3787546,23.818315 C29.3514042,23.818315 29.3377289,23.8046398 29.3377289,23.7772894 L29.3377289,23.7772894 L29.3377289,21.5516484 C29.3377289,21.5242979 29.3514042,21.5106227 29.3787546,21.5106227 L29.3787546,21.5106227 L31.6761905,21.5106227 C31.7445665,21.5106227 31.7787546,21.4764347 31.7787546,21.4080586 L31.7787546,21.4080586 L31.7787546,20.7619048 C31.7787546,20.6935287 31.7445665,20.6593407 31.6761905,20.6593407 L31.6761905,20.6593407 L28.4556777,20.6593407 C28.3873016,20.6593407 28.3531136,20.6935287 28.3531136,20.7619048 L28.3531136,20.7619048 L28.3531136,27.7362637 C28.3531136,27.8046398 28.3873016,27.8388278 28.4556777,27.8388278 L28.4556777,27.8388278 L29.2351648,27.8388278 Z M34.2813187,27.9208791 C34.84884,27.9208791 35.3052503,27.7499389 35.6505495,27.4080586 C35.9958486,27.0661783 36.1684982,26.6114774 36.1684982,26.043956 L36.1684982,26.043956 L36.1684982,22.4644689 C36.1684982,21.8969475 35.9958486,21.4405372 35.6505495,21.0952381 C35.3052503,20.7499389 34.84884,20.5772894 34.2813187,20.5772894 C33.7206349,20.5772894 33.2693529,20.7499389 32.9274725,21.0952381 C32.5855922,21.4405372 32.414652,21.8969475 32.414652,22.4644689 L32.414652,22.4644689 L32.414652,26.043956 C32.414652,26.6114774 32.5855922,27.0661783 32.9274725,27.4080586 C33.2693529,27.7499389 33.7206349,27.9208791 34.2813187,27.9208791 Z M34.2813187,27.0695971 C34.014652,27.0695971 33.8009768,26.9789988 33.640293,26.7978022 C33.4796093,26.6166056 33.3992674,26.3789988 33.3992674,26.0849817 L33.3992674,26.0849817 L33.3992674,22.4131868 C33.3992674,22.1191697 33.4796093,21.8815629 33.640293,21.7003663 C33.8009768,21.5191697 34.014652,21.4285714 34.2813187,21.4285714 C34.554823,21.4285714 34.7736264,21.5191697 34.9377289,21.7003663 C35.1018315,21.8815629 35.1838828,22.1191697 35.1838828,22.4131868 L35.1838828,22.4131868 L35.1838828,26.0849817 C35.1838828,26.3789988 35.1018315,26.6166056 34.9377289,26.7978022 C34.7736264,26.9789988 34.554823,27.0695971 34.2813187,27.0695971 Z M38.1787546,27.8388278 C38.2471306,27.8388278 38.2813187,27.8046398 38.2813187,27.7362637 L38.2813187,27.7362637 L38.2813187,24.7106227 C38.2813187,24.6832723 38.2949939,24.6695971 38.3223443,24.6695971 L38.3223443,24.6695971 L39.040293,24.6695971 C39.0608059,24.6695971 39.0744811,24.6798535 39.0813187,24.7003663 L39.0813187,24.7003663 L40.0249084,27.7567766 C40.0454212,27.8114774 40.0864469,27.8388278 40.1479853,27.8388278 L40.1479853,27.8388278 L40.9479853,27.8388278 C41.0095238,27.8388278 41.040293,27.8148962 41.040293,27.767033 L41.040293,27.767033 L41.0300366,27.7260073 L39.9838828,24.5772894 C39.9770452,24.5567766 39.9838828,24.5362637 40.0043956,24.5157509 C40.3120879,24.3721612 40.554823,24.1413919 40.7326007,23.8234432 C40.9103785,23.5054945 40.9992674,23.1311355 40.9992674,22.7003663 C40.9992674,22.3037851 40.9257631,21.9499389 40.7787546,21.6388278 C40.631746,21.3277167 40.4249084,21.0866911 40.1582418,20.9157509 C39.8915751,20.7448107 39.5838828,20.6593407 39.2351648,20.6593407 L39.2351648,20.6593407 L37.3992674,20.6593407 C37.3308913,20.6593407 37.2967033,20.6935287 37.2967033,20.7619048 L37.2967033,20.7619048 L37.2967033,27.7362637 C37.2967033,27.8046398 37.3308913,27.8388278 37.3992674,27.8388278 L37.3992674,27.8388278 L38.1787546,27.8388278 Z M39.0813187,23.8901099 L38.3223443,23.8901099 C38.2949939,23.8901099 38.2813187,23.8764347 38.2813187,23.8490842 L38.2813187,23.8490842 L38.2813187,21.5516484 C38.2813187,21.5242979 38.2949939,21.5106227 38.3223443,21.5106227 L38.3223443,21.5106227 L39.0813187,21.5106227 C39.3616606,21.5106227 39.5873016,21.618315 39.7582418,21.8336996 C39.9291819,22.0490842 40.014652,22.3413919 40.014652,22.7106227 C40.014652,23.0661783 39.9291819,23.3516484 39.7582418,23.567033 C39.5873016,23.7824176 39.3616606,23.8901099 39.0813187,23.8901099 L39.0813187,23.8901099 Z M45.96337,27.8388278 C46.031746,27.8388278 46.0659341,27.8046398 46.0659341,27.7362637 L46.0659341,27.7362637 L46.0659341,21.5516484 C46.0659341,21.5242979 46.0796093,21.5106227 46.1069597,21.5106227 L46.1069597,21.5106227 L47.4505495,21.5106227 C47.5189255,21.5106227 47.5531136,21.4764347 47.5531136,21.4080586 L47.5531136,21.4080586 L47.5531136,20.7619048 C47.5531136,20.6935287 47.5189255,20.6593407 47.4505495,20.6593407 L47.4505495,20.6593407 L43.7684982,20.6593407 C43.7001221,20.6593407 43.6659341,20.6935287 43.6659341,20.7619048 L43.6659341,20.7619048 L43.6659341,21.4080586 C43.6659341,21.4764347 43.7001221,21.5106227 43.7684982,21.5106227 L43.7684982,21.5106227 L45.040293,21.5106227 C45.0676435,21.5106227 45.0813187,21.5242979 45.0813187,21.5516484 L45.0813187,21.5516484 L45.0813187,27.7362637 C45.0813187,27.8046398 45.1155067,27.8388278 45.1838828,27.8388278 L45.1838828,27.8388278 L45.96337,27.8388278 Z M49.3787546,27.8388278 C49.4471306,27.8388278 49.4813187,27.8046398 49.4813187,27.7362637 L49.4813187,27.7362637 L49.4813187,24.7106227 C49.4813187,24.6832723 49.4949939,24.6695971 49.5223443,24.6695971 L49.5223443,24.6695971 L51.0710623,24.6695971 C51.0984127,24.6695971 51.1120879,24.6832723 51.1120879,24.7106227 L51.1120879,24.7106227 L51.1120879,27.7362637 C51.1120879,27.8046398 51.1462759,27.8388278 51.214652,27.8388278 L51.214652,27.8388278 L51.9941392,27.8388278 C52.0625153,27.8388278 52.0967033,27.8046398 52.0967033,27.7362637 L52.0967033,27.7362637 L52.0967033,20.7619048 C52.0967033,20.6935287 52.0625153,20.6593407 51.9941392,20.6593407 L51.9941392,20.6593407 L51.214652,20.6593407 C51.1462759,20.6593407 51.1120879,20.6935287 51.1120879,20.7619048 L51.1120879,20.7619048 L51.1120879,23.7772894 C51.1120879,23.8046398 51.0984127,23.818315 51.0710623,23.818315 L51.0710623,23.818315 L49.5223443,23.818315 C49.4949939,23.818315 49.4813187,23.8046398 49.4813187,23.7772894 L49.4813187,23.7772894 L49.4813187,20.7619048 C49.4813187,20.6935287 49.4471306,20.6593407 49.3787546,20.6593407 L49.3787546,20.6593407 L48.5992674,20.6593407 C48.5308913,20.6593407 48.4967033,20.6935287 48.4967033,20.7619048 L48.4967033,20.7619048 L48.4967033,27.7362637 C48.4967033,27.8046398 48.5308913,27.8388278 48.5992674,27.8388278 L48.5992674,27.8388278 L49.3787546,27.8388278 Z M56.7018315,27.8388278 C56.7702076,27.8388278 56.8043956,27.8046398 56.8043956,27.7362637 L56.8043956,27.7362637 L56.8043956,27.0901099 C56.8043956,27.0217338 56.7702076,26.9875458 56.7018315,26.9875458 L56.7018315,26.9875458 L54.3941392,26.9875458 C54.3667888,26.9875458 54.3531136,26.9738706 54.3531136,26.9465201 L54.3531136,26.9465201 L54.3531136,24.7106227 C54.3531136,24.6832723 54.3667888,24.6695971 54.3941392,24.6695971 L54.3941392,24.6695971 L55.8095238,24.6695971 C55.8778999,24.6695971 55.9120879,24.635409 55.9120879,24.567033 L55.9120879,24.567033 L55.9120879,23.9208791 C55.9120879,23.8525031 55.8778999,23.818315 55.8095238,23.818315 L55.8095238,23.818315 L54.3941392,23.818315 C54.3667888,23.818315 54.3531136,23.8046398 54.3531136,23.7772894 L54.3531136,23.7772894 L54.3531136,21.5516484 C54.3531136,21.5242979 54.3667888,21.5106227 54.3941392,21.5106227 L54.3941392,21.5106227 L56.7018315,21.5106227 C56.7702076,21.5106227 56.8043956,21.4764347 56.8043956,21.4080586 L56.8043956,21.4080586 L56.8043956,20.7619048 C56.8043956,20.6935287 56.7702076,20.6593407 56.7018315,20.6593407 L56.7018315,20.6593407 L53.4710623,20.6593407 C53.4026862,20.6593407 53.3684982,20.6935287 53.3684982,20.7619048 L53.3684982,20.7619048 L53.3684982,27.7362637 C53.3684982,27.8046398 53.4026862,27.8388278 53.4710623,27.8388278 L53.4710623,27.8388278 L56.7018315,27.8388278 Z M60.7223443,27.8388278 C60.7907204,27.8388278 60.8249084,27.8046398 60.8249084,27.7362637 L60.8249084,27.7362637 L60.8249084,24.7619048 C60.8249084,24.7345543 60.8385836,24.7208791 60.8659341,24.7208791 L60.8659341,24.7208791 L61.8300366,24.7208791 C62.3428571,24.7208791 62.7565324,24.5362637 63.0710623,24.167033 C63.3855922,23.7978022 63.5428571,23.3123321 63.5428571,22.7106227 C63.5428571,22.0952381 63.380464,21.5978022 63.0556777,21.218315 C62.7308913,20.8388278 62.3052503,20.6490842 61.7787546,20.6490842 L61.7787546,20.6490842 L59.9428571,20.6490842 C59.8744811,20.6490842 59.840293,20.6832723 59.840293,20.7516484 L59.840293,20.7516484 L59.840293,27.7362637 C59.840293,27.8046398 59.8744811,27.8388278 59.9428571,27.8388278 L59.9428571,27.8388278 L60.7223443,27.8388278 Z M61.6249084,23.9311355 L60.8659341,23.9311355 C60.8385836,23.9311355 60.8249084,23.9174603 60.8249084,23.8901099 L60.8249084,23.8901099 L60.8249084,21.5413919 C60.8249084,21.5140415 60.8385836,21.5003663 60.8659341,21.5003663 L60.8659341,21.5003663 L61.6249084,21.5003663 C61.9052503,21.5003663 62.1308913,21.6114774 62.3018315,21.8336996 C62.4727717,22.0559219 62.5582418,22.3550672 62.5582418,22.7311355 C62.5582418,23.1003663 62.4727717,23.392674 62.3018315,23.6080586 C62.1308913,23.8234432 61.9052503,23.9311355 61.6249084,23.9311355 L61.6249084,23.9311355 Z M67.7992674,27.8388278 C67.8676435,27.8388278 67.9018315,27.8046398 67.9018315,27.7362637 L67.9018315,27.7362637 L67.9018315,27.0901099 C67.9018315,27.0217338 67.8676435,26.9875458 67.7992674,26.9875458 L67.7992674,26.9875458 L65.5018315,26.9875458 C65.4744811,26.9875458 65.4608059,26.9738706 65.4608059,26.9465201 L65.4608059,26.9465201 L65.4608059,20.7619048 C65.4608059,20.6935287 65.4266178,20.6593407 65.3582418,20.6593407 L65.3582418,20.6593407 L64.5787546,20.6593407 C64.5103785,20.6593407 64.4761905,20.6935287 64.4761905,20.7619048 L64.4761905,20.7619048 L64.4761905,27.7362637 C64.4761905,27.8046398 64.5103785,27.8388278 64.5787546,27.8388278 L64.5787546,27.8388278 L67.7992674,27.8388278 Z M69.0197802,27.8388278 C69.0881563,27.8388278 69.1257631,27.8080586 69.1326007,27.7465201 L69.1326007,27.7465201 L69.3479853,26.567033 C69.3479853,26.5533578 69.3531136,26.5431013 69.36337,26.5362637 C69.3736264,26.5294261 69.3855922,26.5260073 69.3992674,26.5260073 L69.3992674,26.5260073 L71.0710623,26.5260073 C71.0847375,26.5260073 71.0967033,26.5294261 71.1069597,26.5362637 C71.1172161,26.5431013 71.1223443,26.5533578 71.1223443,26.567033 L71.1223443,26.567033 L71.3479853,27.7465201 C71.3616606,27.8080586 71.3992674,27.8388278 71.4608059,27.8388278 L71.4608059,27.8388278 L72.2608059,27.8388278 C72.3223443,27.8388278 72.3531136,27.8080586 72.3531136,27.7465201 L72.3531136,27.7465201 L72.3531136,27.7260073 L70.814652,20.7516484 C70.8078144,20.6901099 70.7702076,20.6593407 70.7018315,20.6593407 L70.7018315,20.6593407 L69.789011,20.6593407 C69.7274725,20.6593407 69.6898657,20.6901099 69.6761905,20.7516484 L69.6761905,20.7516484 L68.1479853,27.7260073 C68.1411477,27.7601954 68.1462759,27.7875458 68.16337,27.8080586 C68.180464,27.8285714 68.206105,27.8388278 68.240293,27.8388278 L68.240293,27.8388278 L69.0197802,27.8388278 Z M70.9172161,25.7465201 L69.5531136,25.7465201 C69.5326007,25.7465201 69.5223443,25.7328449 69.5223443,25.7054945 L69.5223443,25.7054945 L70.2095238,22.0644689 C70.2163614,22.0507937 70.223199,22.043956 70.2300366,22.043956 C70.2368742,22.043956 70.2437118,22.0507937 70.2505495,22.0644689 L70.2505495,22.0644689 L70.9479853,25.7054945 C70.9479853,25.7328449 70.9377289,25.7465201 70.9172161,25.7465201 L70.9172161,25.7465201 Z M74.0043956,27.8388278 C74.0727717,27.8388278 74.1069597,27.8046398 74.1069597,27.7362637 L74.1069597,27.7362637 L74.0967033,23.0798535 C74.0967033,23.0661783 74.1035409,23.0576313 74.1172161,23.0542125 C74.1308913,23.0507937 74.1411477,23.0559219 74.1479853,23.0695971 L74.1479853,23.0695971 L75.8915751,27.7567766 C75.9120879,27.8114774 75.9496947,27.8388278 76.0043956,27.8388278 L76.0043956,27.8388278 L76.8864469,27.8388278 C76.954823,27.8388278 76.989011,27.8046398 76.989011,27.7362637 L76.989011,27.7362637 L76.989011,20.7619048 C76.989011,20.6935287 76.954823,20.6593407 76.8864469,20.6593407 L76.8864469,20.6593407 L76.1172161,20.6593407 C76.04884,20.6593407 76.014652,20.6935287 76.014652,20.7619048 L76.014652,20.7619048 L76.014652,25.418315 C76.014652,25.4388278 76.0078144,25.4507937 75.9941392,25.4542125 C75.980464,25.4576313 75.9702076,25.4490842 75.96337,25.4285714 L75.96337,25.4285714 L74.2095238,20.7413919 C74.189011,20.6866911 74.1514042,20.6593407 74.0967033,20.6593407 L74.0967033,20.6593407 L73.2249084,20.6593407 C73.1565324,20.6593407 73.1223443,20.6935287 73.1223443,20.7619048 L73.1223443,20.7619048 L73.1223443,27.7362637 C73.1223443,27.8046398 73.1565324,27.8388278 73.2249084,27.8388278 L73.2249084,27.8388278 L74.0043956,27.8388278 Z M81.5941392,27.8388278 C81.6625153,27.8388278 81.6967033,27.8046398 81.6967033,27.7362637 L81.6967033,27.7362637 L81.6967033,27.0901099 C81.6967033,27.0217338 81.6625153,26.9875458 81.5941392,26.9875458 L81.5941392,26.9875458 L79.2864469,26.9875458 C79.2590965,26.9875458 79.2454212,26.9738706 79.2454212,26.9465201 L79.2454212,26.9465201 L79.2454212,24.7106227 C79.2454212,24.6832723 79.2590965,24.6695971 79.2864469,24.6695971 L79.2864469,24.6695971 L80.7018315,24.6695971 C80.7702076,24.6695971 80.8043956,24.635409 80.8043956,24.567033 L80.8043956,24.567033 L80.8043956,23.9208791 C80.8043956,23.8525031 80.7702076,23.818315 80.7018315,23.818315 L80.7018315,23.818315 L79.2864469,23.818315 C79.2590965,23.818315 79.2454212,23.8046398 79.2454212,23.7772894 L79.2454212,23.7772894 L79.2454212,21.5516484 C79.2454212,21.5242979 79.2590965,21.5106227 79.2864469,21.5106227 L79.2864469,21.5106227 L81.5941392,21.5106227 C81.6625153,21.5106227 81.6967033,21.4764347 81.6967033,21.4080586 L81.6967033,21.4080586 L81.6967033,20.7619048 C81.6967033,20.6935287 81.6625153,20.6593407 81.5941392,20.6593407 L81.5941392,20.6593407 L78.36337,20.6593407 C78.2949939,20.6593407 78.2608059,20.6935287 78.2608059,20.7619048 L78.2608059,20.7619048 L78.2608059,27.7362637 C78.2608059,27.8046398 78.2949939,27.8388278 78.36337,27.8388278 L78.36337,27.8388278 L81.5941392,27.8388278 Z M84.6608059,27.8388278 C84.7291819,27.8388278 84.76337,27.8046398 84.76337,27.7362637 L84.76337,27.7362637 L84.76337,21.5516484 C84.76337,21.5242979 84.7770452,21.5106227 84.8043956,21.5106227 L84.8043956,21.5106227 L86.1479853,21.5106227 C86.2163614,21.5106227 86.2505495,21.4764347 86.2505495,21.4080586 L86.2505495,21.4080586 L86.2505495,20.7619048 C86.2505495,20.6935287 86.2163614,20.6593407 86.1479853,20.6593407 L86.1479853,20.6593407 L82.4659341,20.6593407 C82.397558,20.6593407 82.36337,20.6935287 82.36337,20.7619048 L82.36337,20.7619048 L82.36337,21.4080586 C82.36337,21.4764347 82.397558,21.5106227 82.4659341,21.5106227 L82.4659341,21.5106227 L83.7377289,21.5106227 C83.7650794,21.5106227 83.7787546,21.5242979 83.7787546,21.5516484 L83.7787546,21.5516484 L83.7787546,27.7362637 C83.7787546,27.8046398 83.8129426,27.8388278 83.8813187,27.8388278 L83.8813187,27.8388278 L84.6608059,27.8388278 Z" id="APLANFORTHEPLANET"></path>
                    </g>
                </g>
            </g>
        </g>
    </g>
</svg>