<?xml version="1.0" encoding="UTF-8"?>
<svg width="178px" height="30px" viewBox="0 0 178 30" version="1.1" xmlns="http://www.w3.org/2000/svg" xmlns:xlink="http://www.w3.org/1999/xlink">
    <title>614D0B6A-1F67-408F-9A05-BE3A8696F67C</title>
    <g id="visuals" stroke="none" stroke-width="1" fill="none" fill-rule="evenodd" opacity="0.796316964">
        <g id="Earth-HQ---About" transform="translate(-911.000000, -888.000000)" fill="#FFFFFF" fill-rule="nonzero">
            <g id="Group-5" transform="translate(642.000000, 880.000000)">
                <g id="logo_RW" transform="translate(269.000000, 8.000000)">
                    <path d="M46.38,14.731 C45.958,15.29 45.342,15.659 44.53,15.808 L47.451,20.6 L44.416,20.6 L42.015,15.981 L40.927,15.981 L40.927,20.6 L38.4,20.6 L38.4,9.23 L42.68,9.23 C43.264,9.23 43.819,9.301 44.344,9.413 C44.869,9.525 45.328,9.726 45.723,9.987 C46.118,10.248 46.432,10.6 46.665,11.041 C46.897,11.483 47.014,12.034 47.014,12.695 C47.014,13.494 46.803,14.173 46.381,14.732 L46.38,14.731 Z M44.181,13.397 C44.316,13.227 44.384,12.987 44.384,12.677 C44.384,12.39 44.324,12.16 44.206,11.99 C44.088,11.82 43.935,11.689 43.752,11.598 C43.568,11.508 43.357,11.445 43.119,11.413 C42.881,11.381 42.649,11.362 42.422,11.362 L40.928,11.362 L40.928,13.849 L42.259,13.849 C42.486,13.849 42.726,13.887 42.981,13.871 C43.236,13.855 43.465,13.853 43.671,13.773 C43.876,13.693 44.047,13.568 44.182,13.397 L44.181,13.397 Z M51.034,15.98 L51.034,18.112 L56.448,18.112 L56.448,20.599 L48.507,20.599 L48.507,9.229 L56.087,9.229 L56.087,11.716 L51.034,11.716 L51.034,13.493 L56.087,13.493 L56.087,15.98 L51.034,15.98 Z M64.158,14.611 C64.553,14.845 64.88,15.16 65.14,15.553 C65.4,15.946 65.529,16.474 65.529,17.135 C65.529,17.763 65.41,18.312 65.172,18.78 C64.934,19.248 64.612,19.638 64.206,19.947 C63.8,20.256 63.33,20.485 62.794,20.633 C62.259,20.782 61.693,20.857 61.098,20.857 C60.351,20.857 59.659,20.745 59.021,20.522 C58.383,20.299 57.788,19.936 57.236,19.435 L59.037,17.486 C59.297,17.827 59.624,18.09 60.019,18.276 C60.414,18.463 60.822,18.556 61.244,18.556 C61.449,18.556 61.658,18.532 61.869,18.484 C62.08,18.436 62.269,18.364 62.437,18.268 C62.605,18.172 62.74,18.05 62.843,17.901 C62.945,17.752 62.997,17.576 62.997,17.373 C62.997,17.032 62.864,16.764 62.599,16.566 C62.334,16.368 62.001,16.201 61.601,16.063 C61.201,15.925 60.768,15.786 60.303,15.648 C59.838,15.51 59.405,15.323 59.005,15.089 C58.605,14.855 58.272,14.546 58.007,14.162 C57.742,13.779 57.61,13.273 57.61,12.644 C57.61,12.037 57.732,11.504 57.975,11.046 C58.218,10.588 58.543,10.205 58.949,9.895 C59.355,9.587 59.823,9.355 60.352,9.2 C60.881,9.045 61.429,8.968 61.991,8.968 C62.64,8.968 63.267,9.059 63.873,9.24 C64.479,9.421 65.026,9.725 65.512,10.15 L63.776,12.019 C63.57,11.764 63.292,11.574 62.94,11.452 C62.588,11.33 62.256,11.269 61.942,11.269 C61.758,11.269 61.568,11.29 61.374,11.333 C61.18,11.376 60.995,11.442 60.822,11.533 C60.649,11.624 60.508,11.744 60.4,11.892 C60.292,12.04 60.238,12.222 60.238,12.435 C60.238,12.776 60.368,13.037 60.627,13.218 C60.886,13.399 61.214,13.553 61.609,13.681 C62.004,13.809 62.428,13.936 62.883,14.064 C63.338,14.192 63.762,14.373 64.157,14.607 L64.158,14.611 Z M77.003,10.577 C77.555,11.094 77.985,11.719 78.294,12.454 C78.603,13.189 78.756,14.009 78.756,14.914 C78.756,15.819 78.602,16.639 78.294,17.374 C77.986,18.109 77.555,18.735 77.003,19.252 C76.451,19.769 75.797,20.165 75.04,20.442 C74.283,20.719 73.455,20.857 72.557,20.857 C71.659,20.857 70.831,20.718 70.074,20.442 C69.317,20.166 68.662,19.769 68.11,19.252 C67.558,18.735 67.128,18.11 66.82,17.374 C66.512,16.64 66.358,15.819 66.358,14.914 C66.358,14.009 66.512,13.189 66.82,12.454 C67.129,11.719 67.559,11.093 68.11,10.577 C68.661,10.061 69.316,9.664 70.074,9.387 C70.831,9.11 71.659,8.972 72.557,8.972 C73.455,8.972 74.282,9.111 75.04,9.387 C75.797,9.664 76.452,10.061 77.003,10.577 Z M75.875,16.376 C76.043,15.934 76.127,15.447 76.127,14.914 C76.127,14.392 76.043,13.908 75.875,13.46 C75.707,13.012 75.466,12.627 75.153,12.302 C74.839,11.977 74.463,11.725 74.025,11.543 C73.587,11.361 73.097,11.272 72.557,11.272 C72.016,11.272 71.526,11.362 71.088,11.543 C70.65,11.724 70.274,11.977 69.96,12.302 C69.646,12.627 69.406,13.013 69.238,13.46 C69.07,13.907 68.986,14.392 68.986,14.914 C68.986,15.447 69.07,15.934 69.238,16.376 C69.406,16.818 69.646,17.201 69.96,17.526 C70.274,17.851 70.65,18.104 71.088,18.285 C71.526,18.466 72.016,18.556 72.557,18.556 C73.098,18.556 73.587,18.466 74.025,18.285 C74.463,18.104 74.839,17.851 75.153,17.526 C75.467,17.201 75.707,16.818 75.875,16.376 Z M87.13,16.112 L87.13,9.229 L89.657,9.229 L89.657,16.208 C89.657,16.879 89.588,17.497 89.382,18.061 C89.176,18.625 88.905,19.116 88.499,19.531 C88.093,19.946 87.585,20.271 86.979,20.505 C86.373,20.739 85.671,20.856 84.881,20.856 C84.08,20.856 83.369,20.739 82.763,20.505 C82.157,20.271 81.636,19.946 81.23,19.531 C80.824,19.116 80.487,18.626 80.281,18.061 C80.076,17.497 79.91,16.879 79.91,16.208 L79.91,9.229 L82.437,9.229 L82.437,16.112 C82.437,16.463 82.559,16.789 82.673,17.087 C82.787,17.385 83.012,17.643 83.217,17.862 C83.423,18.081 83.668,18.251 83.954,18.373 C84.24,18.495 84.55,18.557 84.885,18.557 C85.22,18.557 85.525,18.496 85.806,18.373 C86.087,18.25 86.323,18.08 86.528,17.862 C86.734,17.644 86.877,17.385 86.991,17.087 C87.105,16.789 87.129,16.464 87.129,16.112 L87.13,16.112 Z M99.772,14.731 C99.35,15.29 98.734,15.659 97.922,15.808 L100.843,20.6 L97.808,20.6 L95.407,15.981 L93.989,15.981 L93.989,20.6 L91.462,20.6 L91.462,9.23 L96.072,9.23 C96.657,9.23 97.211,9.301 97.736,9.413 C98.261,9.525 98.72,9.726 99.115,9.987 C99.51,10.248 99.824,10.6 100.057,11.041 C100.289,11.483 100.406,12.034 100.406,12.695 C100.406,13.494 100.195,14.173 99.773,14.732 L99.772,14.731 Z M97.573,13.397 C97.708,13.227 97.776,12.987 97.776,12.677 C97.776,12.39 97.716,12.16 97.598,11.99 C97.48,11.82 97.327,11.689 97.144,11.598 C96.96,11.508 96.749,11.445 96.511,11.413 C96.273,11.381 96.041,11.362 95.814,11.362 L93.99,11.362 L93.99,13.849 L95.651,13.849 C95.878,13.849 96.119,13.887 96.373,13.871 C96.627,13.855 96.857,13.853 97.063,13.773 C97.268,13.693 97.439,13.568 97.574,13.397 L97.573,13.397 Z M108.341,18.237 C108.741,18.024 109.071,17.726 109.331,17.343 L111.441,18.893 C110.954,19.564 110.337,20.059 109.591,20.379 C108.845,20.699 108.076,20.858 107.287,20.858 C106.389,20.858 105.561,20.719 104.804,20.443 C104.047,20.167 103.392,19.77 102.84,19.253 C102.288,18.736 101.858,18.111 101.55,17.375 C101.242,16.641 101.088,15.82 101.088,14.915 C101.088,14.01 101.242,13.19 101.55,12.455 C101.859,11.72 102.289,11.094 102.84,10.578 C103.391,10.062 104.046,9.665 104.804,9.388 C105.561,9.111 106.389,8.973 107.287,8.973 C107.612,8.973 107.95,9.003 108.301,9.061 C108.652,9.119 108.999,9.213 109.339,9.341 C109.68,9.469 110.007,9.639 110.321,9.852 C110.635,10.065 110.916,10.326 111.165,10.635 L109.218,12.201 C108.969,11.903 108.663,11.674 108.301,11.514 C107.939,11.354 107.519,11.275 107.043,11.275 C106.567,11.275 106.126,11.365 105.72,11.546 C105.314,11.728 104.963,11.98 104.665,12.305 C104.367,12.63 104.135,13.016 103.967,13.463 C103.799,13.91 103.715,14.395 103.715,14.917 C103.715,15.45 103.799,15.937 103.967,16.379 C104.135,16.821 104.364,17.204 104.657,17.529 C104.949,17.854 105.292,18.107 105.687,18.288 C106.082,18.469 106.507,18.559 106.961,18.559 C107.48,18.559 107.94,18.453 108.34,18.239 L108.341,18.237 Z M114.925,15.98 L114.925,18.112 L120.7,18.112 L120.7,20.599 L112.398,20.599 L112.398,9.229 L120.339,9.229 L120.339,11.716 L114.925,11.716 L114.925,13.493 L119.978,13.493 L119.978,15.98 L114.925,15.98 Z M135.783,9.229 L136.887,9.229 L133.544,20.599 L132.23,20.599 L129.325,10.65 L129.293,10.65 L126.388,20.599 L125.073,20.599 L121.73,9.229 L122.833,9.229 L125.689,19.178 L125.721,19.178 L128.626,9.229 L129.989,9.229 L132.894,19.178 L132.926,19.178 L135.782,9.229 L135.783,9.229 Z M141.625,9.229 L142.728,9.229 L147.564,20.599 L146.363,20.599 L145.113,17.401 L139.027,17.401 L137.729,20.599 L136.609,20.599 L141.624,9.229 L141.625,9.229 Z M139.45,16.691 L144.724,16.691 L142.127,10.493 L139.449,16.691 L139.45,16.691 Z M147.411,10.295 L147.411,9.229 L156.435,9.229 L156.435,10.295 L152.464,10.295 L152.464,20.599 L151.381,20.599 L151.381,10.294 L147.41,10.294 L147.411,10.295 Z M165.53,18.932 C165.8,18.714 166.039,18.451 166.244,18.141 L167.12,18.796 C166.568,19.531 165.93,20.058 165.205,20.378 C164.48,20.698 163.695,20.857 162.852,20.857 C161.976,20.857 161.172,20.71 160.442,20.418 C159.712,20.126 159.087,19.715 158.567,19.188 C158.048,18.661 157.642,18.032 157.35,17.303 C157.058,16.574 156.912,15.777 156.912,14.915 C156.912,14.052 157.058,13.259 157.35,12.535 C157.642,11.811 158.048,11.185 158.567,10.658 C159.086,10.131 159.711,9.718 160.442,9.42 C161.173,9.122 161.976,8.973 162.852,8.973 C163.631,8.973 164.359,9.109 165.035,9.38 C165.711,9.651 166.303,10.107 166.812,10.746 L165.936,11.465 C165.579,10.933 165.122,10.544 164.565,10.298 C164.007,10.054 163.437,9.931 162.853,9.931 C162.107,9.931 161.433,10.059 160.833,10.314 C160.233,10.569 159.721,10.921 159.3,11.369 C158.878,11.816 158.553,12.343 158.326,12.951 C158.099,13.559 157.985,14.213 157.985,14.916 C157.985,15.619 158.099,16.274 158.326,16.881 C158.553,17.488 158.878,18.015 159.3,18.463 C159.722,18.911 160.233,19.262 160.833,19.517 C161.434,19.773 162.107,19.9 162.853,19.9 C163.145,19.9 163.448,19.866 163.762,19.796 C164.076,19.726 164.381,19.62 164.679,19.477 C164.977,19.334 165.261,19.152 165.531,18.934 L165.53,18.932 Z M176.289,9.229 L177.372,9.229 L177.372,20.599 L176.289,20.599 L176.289,15.269 L169.792,15.269 L169.792,20.599 L168.709,20.599 L168.709,9.229 L169.792,9.229 L169.792,14.204 L176.289,14.204 L176.289,9.229 Z M9.415,5.906 L16.062,12.553 L6.646,21.969 L-0.001,15.322 L9.414,5.906 L9.415,5.906 Z M17.421,11.069 L10.9,4.547 L14.705,0.743 L21.226,7.265 L17.421,11.069 Z M19.841,24.837 L13.194,18.19 L22.61,8.774 L29.257,15.421 L19.841,24.837 L19.841,24.837 Z M11.836,19.674 L18.358,26.196 L14.554,30 L8.032,23.478 L11.836,19.674 Z" id="Shape"></path>
                </g>
            </g>
        </g>
    </g>
</svg>