<?xml version="1.0" encoding="UTF-8"?>
<svg width="62px" height="65px" viewBox="0 0 62 65" version="1.1" xmlns="http://www.w3.org/2000/svg" xmlns:xlink="http://www.w3.org/1999/xlink">
    <title>6584C6B8-1FF7-49D0-AF4E-2F8E3AD00F4D</title>
    <g id="visuals" stroke="none" stroke-width="1" fill="none" fill-rule="evenodd">
        <g id="Earth-HQ---About" transform="translate(-975.000000, -951.000000)" fill="#D5DCE1" fill-rule="nonzero">
            <g id="Group-5" transform="translate(642.000000, 880.000000)">
                <g id="logo_nowthis" transform="translate(333.000000, 71.000000)">
                    <path d="M57.6954286,4.23572003 L57.6954286,26.9656744 L4.30457143,26.9656744 L4.30457143,4.23572003 L57.6954286,4.23572003 M62,0 L0,0 L0,31.2013945 L62,31.2013945 L62,0 Z M57.6954286,38.0343256 L57.6954286,60.76428 L4.30457143,60.76428 L4.30457143,38.0343256 L57.6954286,38.0343256 M62,33.7986055 L0,33.7986055 L0,65 L62,65 L62,33.7986055 Z" id="Shape"></path>
                    <path d="M21.3460392,21.8095238 L18.8664821,21.8095238 L13.959753,15.012987 L13.959753,21.8095238 L11,21.8095238 L11,10.1818182 L13.8637138,10.1818182 L18.3862862,16.5800866 L18.3862862,10.1818182 L21.3460392,10.1818182 L21.3460392,21.8095238 Z M29.5006388,22 C26.1218058,22 23.7906729,19.4632035 23.7906729,16 C23.7906729,12.5194805 26.1218058,10 29.5006388,10 C32.8969336,10 35.2455524,12.5194805 35.2455524,16 C35.2542589,19.4632035 32.9056644,22 29.5006388,22 Z M29.5006388,12.6666667 C27.9116269,12.6666667 26.8813884,13.991342 26.8813884,16 C26.8813884,18.008658 27.9116269,19.3333333 29.5006388,19.3333333 C31.0896508,19.3333333 32.1548126,18.008658 32.1548126,16 C32.1548126,13.991342 31.0896508,12.6666667 29.5006388,12.6666667 Z M45.4867973,10.1818182 L47.2853492,17.021645 L48.9092845,10.1818182 L52,10.1818182 L48.9092845,21.8095238 L46.0979557,21.8095238 L44.2819421,14.995671 L42.4484668,21.8095238 L39.637138,21.8095238 L36.5638842,10.1818182 L39.6982538,10.1818182 L41.3396508,17.021645 L43.1556644,10.1818182 L45.4867973,10.1818182 L45.4867973,10.1818182 Z" id="Shape"></path>
                    <path d="M9,44.1904762 L19.47782,44.1904762 L19.47782,46.8051948 L15.7870722,46.8051948 L15.7870722,55.8181818 L12.6641318,55.8181818 L12.6641318,46.8051948 L9,46.8051948 L9,44.1904762 L9,44.1904762 Z M32.7680608,44.1904762 L32.7680608,55.8181818 L29.6451204,55.8181818 L29.6451204,51.2121212 L25.0494297,51.2121212 L25.0494297,55.8181818 L21.9264892,55.8181818 L21.9264892,44.1904762 L25.0494297,44.1904762 L25.0494297,48.6060606 L29.6451204,48.6060606 L29.6451204,44.1904762 L32.7680608,44.1904762 Z M38.8187579,55.8181818 L35.6958175,55.8181818 L35.6958175,44.1904762 L38.8187579,44.1904762 L38.8187579,55.8181818 Z M44.3548796,52.3722944 C44.6032953,53.1688312 45.3041825,53.5670996 46.2801014,53.5670996 C47.2294043,53.5670996 47.8948035,53.1688312 47.8948035,52.4502165 C47.8948035,51.9047619 47.52218,51.6536797 46.7680608,51.4805195 L44.4790875,51.004329 C42.7313054,50.6233766 41.409379,49.7316017 41.409379,47.7662338 C41.409379,45.4978355 43.3523447,44 45.9873257,44 C48.8973384,44 50.5475285,45.5497835 50.8757921,47.5584416 L47.8326996,47.5584416 C47.5842839,46.9177489 47.0342205,46.4242424 46.0050697,46.4242424 C45.1089987,46.4242424 44.5145754,46.8051948 44.5145754,47.4458874 C44.5145754,47.95671 44.887199,48.2424242 45.5082383,48.3722944 L47.8326996,48.9004329 C49.8732573,49.3766234 51,50.4502165 51,52.2510823 C51,54.6406926 48.9416984,56 46.3422053,56 C43.4854246,56 41.5513308,54.6580087 41.1254753,52.3636364 L44.3548796,52.3636364 L44.3548796,52.3722944 L44.3548796,52.3722944 Z" id="Shape"></path>
                </g>
            </g>
        </g>
    </g>
</svg>