<?xml version="1.0" encoding="UTF-8"?>
<svg width="24px" height="17px" viewBox="0 0 24 17" version="1.1" xmlns="http://www.w3.org/2000/svg" xmlns:xlink="http://www.w3.org/1999/xlink">
    <title>FBEB996A-0DA8-4AE9-9060-68D1CF537FFA</title>
    <g id="UI-kit" stroke="none" stroke-width="1" fill="none" fill-rule="evenodd">
        <g id="Earth-Dashboard-UI-kit" transform="translate(-587.000000, -2630.000000)" fill="#31A9BF" fill-rule="nonzero">
            <path d="M608,2630 C608.702221,2630 609.329307,2630.32169 609.741927,2630.82575 C609.746571,2630.83132 609.751064,2630.83699 609.75549,2630.84275 C610.066897,2631.23319 610.25,2631.72021 610.25,2632.25 L610.25,2632.25 L610.25,2644.25 C610.25,2645.49264 609.242641,2646.5 608,2646.5 L608,2646.5 L590,2646.5 C588.757359,2646.5 587.75,2645.49264 587.75,2644.25 L587.75,2644.25 L587.75,2632.25 C587.75,2631.72021 587.933103,2631.23319 588.239477,2630.84877 C588.241069,2630.84725 588.242782,2630.84499 588.24451,2630.84275 L588.258073,2630.82575 C588.670693,2630.32169 589.297779,2630 590,2630 L590,2630 Z M608.75,2632.562 L601.4743,2638.15845 C600.073956,2639.23571 598.145973,2639.2788 596.703458,2638.28776 L596.525745,2638.15849 L589.25,2632.562 L589.25,2644.25 C589.25,2644.6297 589.532154,2644.94349 589.898229,2644.99315 L590,2645 L608,2645 C608.414214,2645 608.75,2644.66421 608.75,2644.25 L608.75,2644.25 L608.75,2632.562 Z M607.669,2631.5 L590.33,2631.5 L597.4403,2636.96955 C598.308718,2637.6376 599.499046,2637.67471 600.40327,2637.08086 L600.559745,2636.96951 L607.669,2631.5 Z" id="email-copy-3"></path>
        </g>
    </g>
</svg>