<?xml version="1.0" encoding="UTF-8"?>
<svg width="24px" height="17px" viewBox="0 0 24 17" version="1.1" xmlns="http://www.w3.org/2000/svg" xmlns:xlink="http://www.w3.org/1999/xlink">
    <title>66F55142-02A4-4D95-B735-D46ED01C3CD9</title>
    <g id="UI-kit" stroke="none" stroke-width="1" fill="none" fill-rule="evenodd">
        <g id="Earth-Dashboard-UI-kit" transform="translate(-749.000000, -2580.000000)" fill="#FFFFFF" fill-rule="nonzero">
            <path d="M770,2580 C770.702221,2580 771.329307,2580.32169 771.741927,2580.82575 C771.746571,2580.83132 771.751064,2580.83699 771.75549,2580.84275 C772.066897,2581.23319 772.25,2581.72021 772.25,2582.25 L772.25,2582.25 L772.25,2594.25 C772.25,2595.49264 771.242641,2596.5 770,2596.5 L770,2596.5 L752,2596.5 C750.757359,2596.5 749.75,2595.49264 749.75,2594.25 L749.75,2594.25 L749.75,2582.25 C749.75,2581.72021 749.933103,2581.23319 750.239477,2580.84877 C750.241069,2580.84725 750.242782,2580.84499 750.24451,2580.84275 L750.258073,2580.82575 C750.670693,2580.32169 751.297779,2580 752,2580 L752,2580 Z M770.75,2582.562 L763.4743,2588.15845 C762.073956,2589.23571 760.145973,2589.2788 758.703458,2588.28776 L758.525745,2588.15849 L751.25,2582.562 L751.25,2594.25 C751.25,2594.6297 751.532154,2594.94349 751.898229,2594.99315 L752,2595 L770,2595 C770.414214,2595 770.75,2594.66421 770.75,2594.25 L770.75,2594.25 L770.75,2582.562 Z M769.669,2581.5 L752.33,2581.5 L759.4403,2586.96955 C760.308718,2587.6376 761.499046,2587.67471 762.40327,2587.08086 L762.559745,2586.96951 L769.669,2581.5 Z" id="email-"></path>
        </g>
    </g>
</svg>