<?xml version="1.0" encoding="UTF-8"?>
<svg width="24px" height="17px" viewBox="0 0 24 17" version="1.1" xmlns="http://www.w3.org/2000/svg" xmlns:xlink="http://www.w3.org/1999/xlink">
    <title>55FC1A0A-03A0-41D8-A441-6C02791DC349</title>
    <g id="UI-kit" stroke="none" stroke-width="1" fill="none" fill-rule="evenodd">
        <g id="Earth-Dashboard-UI-kit" transform="translate(-432.000000, -2630.000000)" fill="#1F88FF" fill-rule="nonzero">
            <path d="M453,2630 C453.702221,2630 454.329307,2630.32169 454.741927,2630.82575 C454.746571,2630.83132 454.751064,2630.83699 454.75549,2630.84275 C455.066897,2631.23319 455.25,2631.72021 455.25,2632.25 L455.25,2632.25 L455.25,2644.25 C455.25,2645.49264 454.242641,2646.5 453,2646.5 L453,2646.5 L435,2646.5 C433.757359,2646.5 432.75,2645.49264 432.75,2644.25 L432.75,2644.25 L432.75,2632.25 C432.75,2631.72021 432.933103,2631.23319 433.239477,2630.84877 C433.241069,2630.84725 433.242782,2630.84499 433.24451,2630.84275 L433.258073,2630.82575 C433.670693,2630.32169 434.297779,2630 435,2630 L435,2630 Z M453.75,2632.562 L446.4743,2638.15845 C445.073956,2639.23571 443.145973,2639.2788 441.703458,2638.28776 L441.525745,2638.15849 L434.25,2632.562 L434.25,2644.25 C434.25,2644.6297 434.532154,2644.94349 434.898229,2644.99315 L435,2645 L453,2645 C453.414214,2645 453.75,2644.66421 453.75,2644.25 L453.75,2644.25 L453.75,2632.562 Z M452.669,2631.5 L435.33,2631.5 L442.4403,2636.96955 C443.308718,2637.6376 444.499046,2637.67471 445.40327,2637.08086 L445.559745,2636.96951 L452.669,2631.5 Z" id="email-copy-2"></path>
        </g>
    </g>
</svg>