<?xml version="1.0" encoding="UTF-8"?>
<svg width="24px" height="17px" viewBox="0 0 24 17" version="1.1" xmlns="http://www.w3.org/2000/svg" xmlns:xlink="http://www.w3.org/1999/xlink">
    <title>A68C4FEC-EE7E-4CB7-B7B0-7CC197686DC5</title>
    <g id="UI-kit" stroke="none" stroke-width="1" fill="none" fill-rule="evenodd">
        <g id="Earth-Dashboard-UI-kit" transform="translate(-122.000000, -2630.000000)" fill="#F35600" fill-rule="nonzero">
            <path d="M143,2630 C143.702221,2630 144.329307,2630.32169 144.741927,2630.82575 C144.746571,2630.83132 144.751064,2630.83699 144.75549,2630.84275 C145.066897,2631.23319 145.25,2631.72021 145.25,2632.25 L145.25,2632.25 L145.25,2644.25 C145.25,2645.49264 144.242641,2646.5 143,2646.5 L143,2646.5 L125,2646.5 C123.757359,2646.5 122.75,2645.49264 122.75,2644.25 L122.75,2644.25 L122.75,2632.25 C122.75,2631.72021 122.933103,2631.23319 123.239477,2630.84877 C123.241069,2630.84725 123.242782,2630.84499 123.24451,2630.84275 L123.258073,2630.82575 C123.670693,2630.32169 124.297779,2630 125,2630 L125,2630 Z M143.75,2632.562 L136.4743,2638.15845 C135.073956,2639.23571 133.145973,2639.2788 131.703458,2638.28776 L131.525745,2638.15849 L124.25,2632.562 L124.25,2644.25 C124.25,2644.6297 124.532154,2644.94349 124.898229,2644.99315 L125,2645 L143,2645 C143.414214,2645 143.75,2644.66421 143.75,2644.25 L143.75,2644.25 L143.75,2632.562 Z M142.669,2631.5 L125.33,2631.5 L132.4403,2636.96955 C133.308718,2637.6376 134.499046,2637.67471 135.40327,2637.08086 L135.559745,2636.96951 L142.669,2631.5 Z" id="email"></path>
        </g>
    </g>
</svg>