<?xml version="1.0" encoding="UTF-8"?>
<svg width="24px" height="17px" viewBox="0 0 24 17" version="1.1" xmlns="http://www.w3.org/2000/svg" xmlns:xlink="http://www.w3.org/1999/xlink">
    <title>AD50328A-0F7B-4F81-AE2D-A5BE94D1EC2A</title>
    <g id="UI-kit" stroke="none" stroke-width="1" fill="none" fill-rule="evenodd">
        <g id="Earth-Dashboard-UI-kit" transform="translate(-277.000000, -2630.000000)" fill="#009A67" fill-rule="nonzero">
            <path d="M298,2630 C298.702221,2630 299.329307,2630.32169 299.741927,2630.82575 C299.746571,2630.83132 299.751064,2630.83699 299.75549,2630.84275 C300.066897,2631.23319 300.25,2631.72021 300.25,2632.25 L300.25,2632.25 L300.25,2644.25 C300.25,2645.49264 299.242641,2646.5 298,2646.5 L298,2646.5 L280,2646.5 C278.757359,2646.5 277.75,2645.49264 277.75,2644.25 L277.75,2644.25 L277.75,2632.25 C277.75,2631.72021 277.933103,2631.23319 278.239477,2630.84877 C278.241069,2630.84725 278.242782,2630.84499 278.24451,2630.84275 L278.258073,2630.82575 C278.670693,2630.32169 279.297779,2630 280,2630 L280,2630 Z M298.75,2632.562 L291.4743,2638.15845 C290.073956,2639.23571 288.145973,2639.2788 286.703458,2638.28776 L286.525745,2638.15849 L279.25,2632.562 L279.25,2644.25 C279.25,2644.6297 279.532154,2644.94349 279.898229,2644.99315 L280,2645 L298,2645 C298.414214,2645 298.75,2644.66421 298.75,2644.25 L298.75,2644.25 L298.75,2632.562 Z M297.669,2631.5 L280.33,2631.5 L287.4403,2636.96955 C288.308718,2637.6376 289.499046,2637.67471 290.40327,2637.08086 L290.559745,2636.96951 L297.669,2631.5 Z" id="email-copy"></path>
        </g>
    </g>
</svg>