<?xml version="1.0" encoding="UTF-8"?>
<svg width="14px" height="25px" viewBox="0 0 14 25" version="1.1" xmlns="http://www.w3.org/2000/svg" xmlns:xlink="http://www.w3.org/1999/xlink">
    <title>A15A8DF8-49ED-4C0A-A9F3-BDC5DA9796FA</title>
    <g id="UI-kit" stroke="none" stroke-width="1" fill="none" fill-rule="evenodd">
        <g id="Earth-Dashboard-UI-kit" transform="translate(-477.000000, -2622.000000)" fill="#1F88FF" fill-rule="nonzero">
            <path d="M485.54,2622.99 L485.281457,2622.99391 C481.709145,2623.10298 480.12,2625.48425 480.12,2628.6 L480.119,2630 L477.87,2630 C477.455786,2630 477.12,2630.33579 477.12,2630.75 L477.12,2634.75 L477.126847,2634.85177 C477.176509,2635.21785 477.490304,2635.5 477.87,2635.5 L480.119,2635.5 L480.12,2646.25 C480.12,2646.66421 480.455786,2647 480.87,2647 L485.87,2647 L485.971771,2646.99315 C486.337846,2646.94349 486.62,2646.6297 486.62,2646.25 L486.619,2635.5 L489.72,2635.5 C490.104603,2635.5 490.426875,2635.20907 490.466091,2634.82647 L490.876091,2630.82647 L490.87972,2630.72562 C490.867456,2630.32748 490.540268,2630 490.13,2630 L486.619,2630 L486.62,2628.84 C486.609151,2628.69447 486.632327,2628.62426 486.680001,2628.57182 C486.727675,2628.51938 486.795368,2628.48964 486.86624,2628.49 L489.87,2628.49 C490.284214,2628.49 490.62,2628.15421 490.62,2627.74 L490.62,2623.74 C490.62,2623.32579 490.284214,2622.99 489.87,2622.99 L485.54,2622.99 Z M489.119,2624.49 L489.119,2626.99 L486.87,2626.99 C486.377657,2626.98752 485.903811,2627.19572 485.570091,2627.56281 C485.236371,2627.9299 485.074143,2628.42139 485.12376,2628.91501 L485.12,2630.75 L485.126847,2630.85177 C485.176509,2631.21785 485.490304,2631.5 485.87,2631.5 L489.298,2631.5 L489.042,2634 L485.87,2634 L485.768229,2634.00685 C485.402154,2634.05651 485.12,2634.3703 485.12,2634.75 L485.119,2645.5 L481.619,2645.5 L481.62,2634.75 L481.613153,2634.64823 C481.563491,2634.28215 481.249696,2634 480.87,2634 L478.619,2634 L478.619,2631.5 L480.87,2631.5 C481.284214,2631.5 481.62,2631.16421 481.62,2630.75 L481.62,2628.6 C481.62,2626.14505 482.759166,2624.49 485.54,2624.49 L489.119,2624.49 Z" id="facebook-copy-2"></path>
        </g>
    </g>
</svg>