<?xml version="1.0" encoding="UTF-8"?>
<svg width="14px" height="25px" viewBox="0 0 14 25" version="1.1" xmlns="http://www.w3.org/2000/svg" xmlns:xlink="http://www.w3.org/1999/xlink">
    <title>4178C478-63EF-41DF-A0E2-B94407CB0D1A</title>
    <g id="UI-kit" stroke="none" stroke-width="1" fill="none" fill-rule="evenodd">
        <g id="Earth-Dashboard-UI-kit" transform="translate(-322.000000, -2622.000000)" fill="#009A67" fill-rule="nonzero">
            <path d="M330.54,2622.99 L330.281457,2622.99391 C326.709145,2623.10298 325.12,2625.48425 325.12,2628.6 L325.119,2630 L322.87,2630 C322.455786,2630 322.12,2630.33579 322.12,2630.75 L322.12,2634.75 L322.126847,2634.85177 C322.176509,2635.21785 322.490304,2635.5 322.87,2635.5 L325.119,2635.5 L325.12,2646.25 C325.12,2646.66421 325.455786,2647 325.87,2647 L330.87,2647 L330.971771,2646.99315 C331.337846,2646.94349 331.62,2646.6297 331.62,2646.25 L331.619,2635.5 L334.72,2635.5 C335.104603,2635.5 335.426875,2635.20907 335.466091,2634.82647 L335.876091,2630.82647 L335.87972,2630.72562 C335.867456,2630.32748 335.540268,2630 335.13,2630 L331.619,2630 L331.62,2628.84 C331.609151,2628.69447 331.632327,2628.62426 331.680001,2628.57182 C331.727675,2628.51938 331.795368,2628.48964 331.86624,2628.49 L334.87,2628.49 C335.284214,2628.49 335.62,2628.15421 335.62,2627.74 L335.62,2623.74 C335.62,2623.32579 335.284214,2622.99 334.87,2622.99 L330.54,2622.99 Z M334.119,2624.49 L334.119,2626.99 L331.87,2626.99 C331.377657,2626.98752 330.903811,2627.19572 330.570091,2627.56281 C330.236371,2627.9299 330.074143,2628.42139 330.12376,2628.91501 L330.12,2630.75 L330.126847,2630.85177 C330.176509,2631.21785 330.490304,2631.5 330.87,2631.5 L334.298,2631.5 L334.042,2634 L330.87,2634 L330.768229,2634.00685 C330.402154,2634.05651 330.12,2634.3703 330.12,2634.75 L330.119,2645.5 L326.619,2645.5 L326.62,2634.75 L326.613153,2634.64823 C326.563491,2634.28215 326.249696,2634 325.87,2634 L323.619,2634 L323.619,2631.5 L325.87,2631.5 C326.284214,2631.5 326.62,2631.16421 326.62,2630.75 L326.62,2628.6 C326.62,2626.14505 327.759166,2624.49 330.54,2624.49 L334.119,2624.49 Z" id="facebook-copy"></path>
        </g>
    </g>
</svg>