<?xml version="1.0" encoding="UTF-8"?>
<svg width="14px" height="25px" viewBox="0 0 14 25" version="1.1" xmlns="http://www.w3.org/2000/svg" xmlns:xlink="http://www.w3.org/1999/xlink">
    <title>798674D7-FEA1-4D5A-AEA0-6BF9F5109631</title>
    <g id="UI-kit" stroke="none" stroke-width="1" fill="none" fill-rule="evenodd">
        <g id="Earth-Dashboard-UI-kit" transform="translate(-794.000000, -2572.000000)" fill="#FFFFFF" fill-rule="nonzero">
            <path d="M802.54,2572.99 L802.281457,2572.99391 C798.709145,2573.10298 797.12,2575.48425 797.12,2578.6 L797.119,2580 L794.87,2580 C794.455786,2580 794.12,2580.33579 794.12,2580.75 L794.12,2584.75 L794.126847,2584.85177 C794.176509,2585.21785 794.490304,2585.5 794.87,2585.5 L797.119,2585.5 L797.12,2596.25 C797.12,2596.66421 797.455786,2597 797.87,2597 L802.87,2597 L802.971771,2596.99315 C803.337846,2596.94349 803.62,2596.6297 803.62,2596.25 L803.619,2585.5 L806.72,2585.5 C807.104603,2585.5 807.426875,2585.20907 807.466091,2584.82647 L807.876091,2580.82647 L807.87972,2580.72562 C807.867456,2580.32748 807.540268,2580 807.13,2580 L803.619,2580 L803.62,2578.84 C803.609151,2578.69447 803.632327,2578.62426 803.680001,2578.57182 C803.727675,2578.51938 803.795368,2578.48964 803.86624,2578.49 L806.87,2578.49 C807.284214,2578.49 807.62,2578.15421 807.62,2577.74 L807.62,2573.74 C807.62,2573.32579 807.284214,2572.99 806.87,2572.99 L802.54,2572.99 Z M806.119,2574.49 L806.119,2576.99 L803.87,2576.99 C803.377657,2576.98752 802.903811,2577.19572 802.570091,2577.56281 C802.236371,2577.9299 802.074143,2578.42139 802.12376,2578.91501 L802.12,2580.75 L802.126847,2580.85177 C802.176509,2581.21785 802.490304,2581.5 802.87,2581.5 L806.298,2581.5 L806.042,2584 L802.87,2584 L802.768229,2584.00685 C802.402154,2584.05651 802.12,2584.3703 802.12,2584.75 L802.119,2595.5 L798.619,2595.5 L798.62,2584.75 L798.613153,2584.64823 C798.563491,2584.28215 798.249696,2584 797.87,2584 L795.619,2584 L795.619,2581.5 L797.87,2581.5 C798.284214,2581.5 798.62,2581.16421 798.62,2580.75 L798.62,2578.6 C798.62,2576.14505 799.759166,2574.49 802.54,2574.49 L806.119,2574.49 Z" id="facebook-copy-4"></path>
        </g>
    </g>
</svg>