<?xml version="1.0" encoding="UTF-8"?>
<svg width="14px" height="25px" viewBox="0 0 14 25" version="1.1" xmlns="http://www.w3.org/2000/svg" xmlns:xlink="http://www.w3.org/1999/xlink">
    <title>96B7E945-A126-4D23-B445-AA0686D5014A</title>
    <g id="UI-kit" stroke="none" stroke-width="1" fill="none" fill-rule="evenodd">
        <g id="Earth-Dashboard-UI-kit" transform="translate(-167.000000, -2622.000000)" fill="#F35600" fill-rule="nonzero">
            <path d="M175.54,2622.99 L175.281457,2622.99391 C171.709145,2623.10298 170.12,2625.48425 170.12,2628.6 L170.119,2630 L167.87,2630 C167.455786,2630 167.12,2630.33579 167.12,2630.75 L167.12,2634.75 L167.126847,2634.85177 C167.176509,2635.21785 167.490304,2635.5 167.87,2635.5 L170.119,2635.5 L170.12,2646.25 C170.12,2646.66421 170.455786,2647 170.87,2647 L175.87,2647 L175.971771,2646.99315 C176.337846,2646.94349 176.62,2646.6297 176.62,2646.25 L176.619,2635.5 L179.72,2635.5 C180.104603,2635.5 180.426875,2635.20907 180.466091,2634.82647 L180.876091,2630.82647 L180.87972,2630.72562 C180.867456,2630.32748 180.540268,2630 180.13,2630 L176.619,2630 L176.62,2628.84 C176.609151,2628.69447 176.632327,2628.62426 176.680001,2628.57182 C176.727675,2628.51938 176.795368,2628.48964 176.86624,2628.49 L179.87,2628.49 C180.284214,2628.49 180.62,2628.15421 180.62,2627.74 L180.62,2623.74 C180.62,2623.32579 180.284214,2622.99 179.87,2622.99 L175.54,2622.99 Z M179.119,2624.49 L179.119,2626.99 L176.87,2626.99 C176.377657,2626.98752 175.903811,2627.19572 175.570091,2627.56281 C175.236371,2627.9299 175.074143,2628.42139 175.12376,2628.91501 L175.12,2630.75 L175.126847,2630.85177 C175.176509,2631.21785 175.490304,2631.5 175.87,2631.5 L179.298,2631.5 L179.042,2634 L175.87,2634 L175.768229,2634.00685 C175.402154,2634.05651 175.12,2634.3703 175.12,2634.75 L175.119,2645.5 L171.619,2645.5 L171.62,2634.75 L171.613153,2634.64823 C171.563491,2634.28215 171.249696,2634 170.87,2634 L168.619,2634 L168.619,2631.5 L170.87,2631.5 C171.284214,2631.5 171.62,2631.16421 171.62,2630.75 L171.62,2628.6 C171.62,2626.14505 172.759166,2624.49 175.54,2624.49 L179.119,2624.49 Z" id="facebook"></path>
        </g>
    </g>
</svg>