<?xml version="1.0" encoding="UTF-8"?>
<svg width="14px" height="25px" viewBox="0 0 14 25" version="1.1" xmlns="http://www.w3.org/2000/svg" xmlns:xlink="http://www.w3.org/1999/xlink">
    <title>53475A5F-BF79-45D8-A6A6-05F1DA17777A</title>
    <g id="UI-kit" stroke="none" stroke-width="1" fill="none" fill-rule="evenodd">
        <g id="Earth-Dashboard-UI-kit" transform="translate(-632.000000, -2622.000000)" fill="#31A9BF" fill-rule="nonzero">
            <path d="M640.54,2622.99 L640.281457,2622.99391 C636.709145,2623.10298 635.12,2625.48425 635.12,2628.6 L635.119,2630 L632.87,2630 C632.455786,2630 632.12,2630.33579 632.12,2630.75 L632.12,2634.75 L632.126847,2634.85177 C632.176509,2635.21785 632.490304,2635.5 632.87,2635.5 L635.119,2635.5 L635.12,2646.25 C635.12,2646.66421 635.455786,2647 635.87,2647 L640.87,2647 L640.971771,2646.99315 C641.337846,2646.94349 641.62,2646.6297 641.62,2646.25 L641.619,2635.5 L644.72,2635.5 C645.104603,2635.5 645.426875,2635.20907 645.466091,2634.82647 L645.876091,2630.82647 L645.87972,2630.72562 C645.867456,2630.32748 645.540268,2630 645.13,2630 L641.619,2630 L641.62,2628.84 C641.609151,2628.69447 641.632327,2628.62426 641.680001,2628.57182 C641.727675,2628.51938 641.795368,2628.48964 641.86624,2628.49 L644.87,2628.49 C645.284214,2628.49 645.62,2628.15421 645.62,2627.74 L645.62,2623.74 C645.62,2623.32579 645.284214,2622.99 644.87,2622.99 L640.54,2622.99 Z M644.119,2624.49 L644.119,2626.99 L641.87,2626.99 C641.377657,2626.98752 640.903811,2627.19572 640.570091,2627.56281 C640.236371,2627.9299 640.074143,2628.42139 640.12376,2628.91501 L640.12,2630.75 L640.126847,2630.85177 C640.176509,2631.21785 640.490304,2631.5 640.87,2631.5 L644.298,2631.5 L644.042,2634 L640.87,2634 L640.768229,2634.00685 C640.402154,2634.05651 640.12,2634.3703 640.12,2634.75 L640.119,2645.5 L636.619,2645.5 L636.62,2634.75 L636.613153,2634.64823 C636.563491,2634.28215 636.249696,2634 635.87,2634 L633.619,2634 L633.619,2631.5 L635.87,2631.5 C636.284214,2631.5 636.62,2631.16421 636.62,2630.75 L636.62,2628.6 C636.62,2626.14505 637.759166,2624.49 640.54,2624.49 L644.119,2624.49 Z" id="facebook-copy-3"></path>
        </g>
    </g>
</svg>