<?xml version="1.0" encoding="UTF-8"?>
<svg width="24px" height="20px" viewBox="0 0 24 20" version="1.1" xmlns="http://www.w3.org/2000/svg" xmlns:xlink="http://www.w3.org/1999/xlink">
    <title>968566CA-E941-4C74-A8F3-E53426468788</title>
    <g id="UI-kit" stroke="none" stroke-width="1" fill="none" fill-rule="evenodd">
        <g id="Earth-Dashboard-UI-kit" transform="translate(-667.000000, -2628.000000)" fill="#31A9BF" fill-rule="nonzero">
            <path d="M683.618339,2628.31 L683.402204,2628.31484 C680.606585,2628.43406 678.376256,2630.73482 678.370002,2633.55834 L678.37,2633.92 L678.18341,2633.94017 C675.490592,2634.17041 672.908249,2632.69803 670.185917,2629.56782 C669.774393,2629.09464 668.998413,2629.30543 668.882846,2629.92178 L668.826882,2630.24203 C668.535694,2632.04177 668.685713,2633.58657 669.286667,2634.85123 L669.38,2635.036 L667.942688,2634.81851 C667.45254,2634.74402 667.026272,2635.15712 667.085343,2635.64936 L667.117987,2635.8792 C667.380297,2637.47633 668.347145,2638.82187 669.682484,2639.59954 L669.72,2639.62 L669.073693,2639.85515 C668.652407,2640.00835 668.458705,2640.49446 668.65918,2640.89541 L668.759879,2641.08915 C669.476266,2642.41427 670.44032,2643.09336 672.0551,2643.46763 L672.195407,2643.49926 C670.824968,2644.0645 669.344911,2644.34386 667.846851,2644.31019 C667.027626,2644.29178 666.776616,2645.41263 667.525446,2645.74538 C673.647647,2648.46583 679.086716,2648.25171 683.153471,2645.56448 L683.445708,2645.36523 C686.816534,2642.99474 688.83,2639.03298 688.83,2635.06 L688.83,2634.612 L690.619751,2633.31755 L690.701791,2633.24921 C691.079843,2632.88715 690.977484,2632.2358 690.475439,2632.02064 L689.081,2631.423 L689.861799,2629.72249 L689.898043,2629.6282 C690.074894,2629.06203 689.533093,2628.5025 688.943663,2628.69821 L686.783,2629.415 L686.735236,2629.37726 C685.919245,2628.75565 684.936252,2628.38706 683.909155,2628.32063 L683.618339,2628.31 Z M683.4226,2629.81562 L683.615,2629.809 C684.539587,2629.8199 685.430025,2630.17607 686.108608,2630.80861 L686.199544,2630.88108 C686.390647,2631.01049 686.633197,2631.04588 686.856337,2630.97179 L687.78,2630.664 L687.398201,2631.49751 L687.361511,2631.59455 C687.253145,2631.95414 687.429412,2632.34715 687.784561,2632.49936 L688.668,2632.878 L687.640249,2633.62245 C687.445385,2633.76349 687.33,2633.98945 687.33,2634.23 L687.33,2635.06 C687.33,2638.64925 685.447015,2642.25107 682.326529,2644.31302 L682.077889,2644.47259 C679.154061,2646.29444 675.426594,2646.71832 671.150056,2645.48401 L671.041,2645.451 L671.382619,2645.36255 C672.665406,2645.00507 673.889187,2644.43901 675.002603,2643.6796 C675.587719,2643.28052 675.344564,2642.36749 674.638464,2642.31228 L674.35105,2642.28855 C672.288475,2642.1086 671.209461,2641.79319 670.505472,2640.99375 L670.464,2640.945 L672.336307,2640.26485 C673.101729,2639.98651 672.937155,2638.8592 672.124108,2638.8113 L671.928787,2638.79478 C670.571263,2638.64495 669.4242,2637.78225 668.882034,2636.57792 L668.837,2636.471 L671.007312,2636.80149 C671.745624,2636.91369 672.17643,2635.99558 671.618273,2635.49944 L671.462339,2635.3538 C670.603818,2634.51092 670.172348,2633.36834 670.181785,2631.89024 L670.184,2631.768 L670.359204,2631.94167 C673.233345,2634.75391 676.136671,2635.94099 679.271474,2635.29454 C679.61997,2635.22268 679.87,2634.91583 679.87,2634.56 L679.87,2633.56 C679.874435,2631.5583 681.445124,2629.92318 683.4226,2629.81562 Z" id="twitter-copy-3"></path>
        </g>
    </g>
</svg>