<?xml version="1.0" encoding="UTF-8"?>
<svg width="24px" height="20px" viewBox="0 0 24 20" version="1.1" xmlns="http://www.w3.org/2000/svg" xmlns:xlink="http://www.w3.org/1999/xlink">
    <title>4D838D41-37A0-4E5E-B9B6-CA60032B5F60</title>
    <g id="UI-kit" stroke="none" stroke-width="1" fill="none" fill-rule="evenodd">
        <g id="Earth-Dashboard-UI-kit" transform="translate(-829.000000, -2578.000000)" fill="#FFFFFF" fill-rule="nonzero">
            <path d="M845.618339,2578.31 L845.402204,2578.31484 C842.606585,2578.43406 840.376256,2580.73482 840.370002,2583.55834 L840.37,2583.92 L840.18341,2583.94017 C837.490592,2584.17041 834.908249,2582.69803 832.185917,2579.56782 C831.774393,2579.09464 830.998413,2579.30543 830.882846,2579.92178 L830.826882,2580.24203 C830.535694,2582.04177 830.685713,2583.58657 831.286667,2584.85123 L831.38,2585.036 L829.942688,2584.81851 C829.45254,2584.74402 829.026272,2585.15712 829.085343,2585.64936 L829.117987,2585.8792 C829.380297,2587.47633 830.347145,2588.82187 831.682484,2589.59954 L831.72,2589.62 L831.073693,2589.85515 C830.652407,2590.00835 830.458705,2590.49446 830.65918,2590.89541 L830.759879,2591.08915 C831.476266,2592.41427 832.44032,2593.09336 834.0551,2593.46763 L834.195407,2593.49926 C832.824968,2594.0645 831.344911,2594.34386 829.846851,2594.31019 C829.027626,2594.29178 828.776616,2595.41263 829.525446,2595.74538 C835.647647,2598.46583 841.086716,2598.25171 845.153471,2595.56448 L845.445708,2595.36523 C848.816534,2592.99474 850.83,2589.03298 850.83,2585.06 L850.83,2584.612 L852.619751,2583.31755 L852.701791,2583.24921 C853.079843,2582.88715 852.977484,2582.2358 852.475439,2582.02064 L851.081,2581.423 L851.861799,2579.72249 L851.898043,2579.6282 C852.074894,2579.06203 851.533093,2578.5025 850.943663,2578.69821 L848.783,2579.415 L848.735236,2579.37726 C847.919245,2578.75565 846.936252,2578.38706 845.909155,2578.32063 L845.618339,2578.31 Z M845.4226,2579.81562 L845.615,2579.809 C846.539587,2579.8199 847.430025,2580.17607 848.108608,2580.80861 L848.199544,2580.88108 C848.390647,2581.01049 848.633197,2581.04588 848.856337,2580.97179 L849.78,2580.664 L849.398201,2581.49751 L849.361511,2581.59455 C849.253145,2581.95414 849.429412,2582.34715 849.784561,2582.49936 L850.668,2582.878 L849.640249,2583.62245 C849.445385,2583.76349 849.33,2583.98945 849.33,2584.23 L849.33,2585.06 C849.33,2588.64925 847.447015,2592.25107 844.326529,2594.31302 L844.077889,2594.47259 C841.154061,2596.29444 837.426594,2596.71832 833.150056,2595.48401 L833.041,2595.451 L833.382619,2595.36255 C834.665406,2595.00507 835.889187,2594.43901 837.002603,2593.6796 C837.587719,2593.28052 837.344564,2592.36749 836.638464,2592.31228 L836.35105,2592.28855 C834.288475,2592.1086 833.209461,2591.79319 832.505472,2590.99375 L832.464,2590.945 L834.336307,2590.26485 C835.101729,2589.98651 834.937155,2588.8592 834.124108,2588.8113 L833.928787,2588.79478 C832.571263,2588.64495 831.4242,2587.78225 830.882034,2586.57792 L830.837,2586.471 L833.007312,2586.80149 C833.745624,2586.91369 834.17643,2585.99558 833.618273,2585.49944 L833.462339,2585.3538 C832.603818,2584.51092 832.172348,2583.36834 832.181785,2581.89024 L832.184,2581.768 L832.359204,2581.94167 C835.233345,2584.75391 838.136671,2585.94099 841.271474,2585.29454 C841.61997,2585.22268 841.87,2584.91583 841.87,2584.56 L841.87,2583.56 C841.874435,2581.5583 843.445124,2579.92318 845.4226,2579.81562 Z" id="twitter-copy-4"></path>
        </g>
    </g>
</svg>