<?xml version="1.0" encoding="UTF-8"?>
<svg width="24px" height="20px" viewBox="0 0 24 20" version="1.1" xmlns="http://www.w3.org/2000/svg" xmlns:xlink="http://www.w3.org/1999/xlink">
    <title>9BDA961B-1C54-43CD-B18D-39C83C464096</title>
    <g id="UI-kit" stroke="none" stroke-width="1" fill="none" fill-rule="evenodd">
        <g id="Earth-Dashboard-UI-kit" transform="translate(-512.000000, -2628.000000)" fill="#1F88FF" fill-rule="nonzero">
            <path d="M528.618339,2628.31 L528.402204,2628.31484 C525.606585,2628.43406 523.376256,2630.73482 523.370002,2633.55834 L523.37,2633.92 L523.18341,2633.94017 C520.490592,2634.17041 517.908249,2632.69803 515.185917,2629.56782 C514.774393,2629.09464 513.998413,2629.30543 513.882846,2629.92178 L513.826882,2630.24203 C513.535694,2632.04177 513.685713,2633.58657 514.286667,2634.85123 L514.38,2635.036 L512.942688,2634.81851 C512.45254,2634.74402 512.026272,2635.15712 512.085343,2635.64936 L512.117987,2635.8792 C512.380297,2637.47633 513.347145,2638.82187 514.682484,2639.59954 L514.72,2639.62 L514.073693,2639.85515 C513.652407,2640.00835 513.458705,2640.49446 513.65918,2640.89541 L513.759879,2641.08915 C514.476266,2642.41427 515.44032,2643.09336 517.0551,2643.46763 L517.195407,2643.49926 C515.824968,2644.0645 514.344911,2644.34386 512.846851,2644.31019 C512.027626,2644.29178 511.776616,2645.41263 512.525446,2645.74538 C518.647647,2648.46583 524.086716,2648.25171 528.153471,2645.56448 L528.445708,2645.36523 C531.816534,2642.99474 533.83,2639.03298 533.83,2635.06 L533.83,2634.612 L535.619751,2633.31755 L535.701791,2633.24921 C536.079843,2632.88715 535.977484,2632.2358 535.475439,2632.02064 L534.081,2631.423 L534.861799,2629.72249 L534.898043,2629.6282 C535.074894,2629.06203 534.533093,2628.5025 533.943663,2628.69821 L531.783,2629.415 L531.735236,2629.37726 C530.919245,2628.75565 529.936252,2628.38706 528.909155,2628.32063 L528.618339,2628.31 Z M528.4226,2629.81562 L528.615,2629.809 C529.539587,2629.8199 530.430025,2630.17607 531.108608,2630.80861 L531.199544,2630.88108 C531.390647,2631.01049 531.633197,2631.04588 531.856337,2630.97179 L532.78,2630.664 L532.398201,2631.49751 L532.361511,2631.59455 C532.253145,2631.95414 532.429412,2632.34715 532.784561,2632.49936 L533.668,2632.878 L532.640249,2633.62245 C532.445385,2633.76349 532.33,2633.98945 532.33,2634.23 L532.33,2635.06 C532.33,2638.64925 530.447015,2642.25107 527.326529,2644.31302 L527.077889,2644.47259 C524.154061,2646.29444 520.426594,2646.71832 516.150056,2645.48401 L516.041,2645.451 L516.382619,2645.36255 C517.665406,2645.00507 518.889187,2644.43901 520.002603,2643.6796 C520.587719,2643.28052 520.344564,2642.36749 519.638464,2642.31228 L519.35105,2642.28855 C517.288475,2642.1086 516.209461,2641.79319 515.505472,2640.99375 L515.464,2640.945 L517.336307,2640.26485 C518.101729,2639.98651 517.937155,2638.8592 517.124108,2638.8113 L516.928787,2638.79478 C515.571263,2638.64495 514.4242,2637.78225 513.882034,2636.57792 L513.837,2636.471 L516.007312,2636.80149 C516.745624,2636.91369 517.17643,2635.99558 516.618273,2635.49944 L516.462339,2635.3538 C515.603818,2634.51092 515.172348,2633.36834 515.181785,2631.89024 L515.184,2631.768 L515.359204,2631.94167 C518.233345,2634.75391 521.136671,2635.94099 524.271474,2635.29454 C524.61997,2635.22268 524.87,2634.91583 524.87,2634.56 L524.87,2633.56 C524.874435,2631.5583 526.445124,2629.92318 528.4226,2629.81562 Z" id="twitter-copy-2"></path>
        </g>
    </g>
</svg>