<?xml version="1.0" encoding="UTF-8"?>
<svg width="24px" height="20px" viewBox="0 0 24 20" version="1.1" xmlns="http://www.w3.org/2000/svg" xmlns:xlink="http://www.w3.org/1999/xlink">
    <title>D7F1F483-05A4-4B79-B1C4-962364D1D922</title>
    <g id="UI-kit" stroke="none" stroke-width="1" fill="none" fill-rule="evenodd">
        <g id="Earth-Dashboard-UI-kit" transform="translate(-202.000000, -2628.000000)" fill="#F35600" fill-rule="nonzero">
            <path d="M218.618339,2628.31 L218.402204,2628.31484 C215.606585,2628.43406 213.376256,2630.73482 213.370002,2633.55834 L213.37,2633.92 L213.18341,2633.94017 C210.490592,2634.17041 207.908249,2632.69803 205.185917,2629.56782 C204.774393,2629.09464 203.998413,2629.30543 203.882846,2629.92178 L203.826882,2630.24203 C203.535694,2632.04177 203.685713,2633.58657 204.286667,2634.85123 L204.38,2635.036 L202.942688,2634.81851 C202.45254,2634.74402 202.026272,2635.15712 202.085343,2635.64936 L202.117987,2635.8792 C202.380297,2637.47633 203.347145,2638.82187 204.682484,2639.59954 L204.72,2639.62 L204.073693,2639.85515 C203.652407,2640.00835 203.458705,2640.49446 203.65918,2640.89541 L203.759879,2641.08915 C204.476266,2642.41427 205.44032,2643.09336 207.0551,2643.46763 L207.195407,2643.49926 C205.824968,2644.0645 204.344911,2644.34386 202.846851,2644.31019 C202.027626,2644.29178 201.776616,2645.41263 202.525446,2645.74538 C208.647647,2648.46583 214.086716,2648.25171 218.153471,2645.56448 L218.445708,2645.36523 C221.816534,2642.99474 223.83,2639.03298 223.83,2635.06 L223.83,2634.612 L225.619751,2633.31755 L225.701791,2633.24921 C226.079843,2632.88715 225.977484,2632.2358 225.475439,2632.02064 L224.081,2631.423 L224.861799,2629.72249 L224.898043,2629.6282 C225.074894,2629.06203 224.533093,2628.5025 223.943663,2628.69821 L221.783,2629.415 L221.735236,2629.37726 C220.919245,2628.75565 219.936252,2628.38706 218.909155,2628.32063 L218.618339,2628.31 Z M218.4226,2629.81562 L218.615,2629.809 C219.539587,2629.8199 220.430025,2630.17607 221.108608,2630.80861 L221.199544,2630.88108 C221.390647,2631.01049 221.633197,2631.04588 221.856337,2630.97179 L222.78,2630.664 L222.398201,2631.49751 L222.361511,2631.59455 C222.253145,2631.95414 222.429412,2632.34715 222.784561,2632.49936 L223.668,2632.878 L222.640249,2633.62245 C222.445385,2633.76349 222.33,2633.98945 222.33,2634.23 L222.33,2635.06 C222.33,2638.64925 220.447015,2642.25107 217.326529,2644.31302 L217.077889,2644.47259 C214.154061,2646.29444 210.426594,2646.71832 206.150056,2645.48401 L206.041,2645.451 L206.382619,2645.36255 C207.665406,2645.00507 208.889187,2644.43901 210.002603,2643.6796 C210.587719,2643.28052 210.344564,2642.36749 209.638464,2642.31228 L209.35105,2642.28855 C207.288475,2642.1086 206.209461,2641.79319 205.505472,2640.99375 L205.464,2640.945 L207.336307,2640.26485 C208.101729,2639.98651 207.937155,2638.8592 207.124108,2638.8113 L206.928787,2638.79478 C205.571263,2638.64495 204.4242,2637.78225 203.882034,2636.57792 L203.837,2636.471 L206.007312,2636.80149 C206.745624,2636.91369 207.17643,2635.99558 206.618273,2635.49944 L206.462339,2635.3538 C205.603818,2634.51092 205.172348,2633.36834 205.181785,2631.89024 L205.184,2631.768 L205.359204,2631.94167 C208.233345,2634.75391 211.136671,2635.94099 214.271474,2635.29454 C214.61997,2635.22268 214.87,2634.91583 214.87,2634.56 L214.87,2633.56 C214.874435,2631.5583 216.445124,2629.92318 218.4226,2629.81562 Z" id="twitter"></path>
        </g>
    </g>
</svg>