<?xml version="1.0" encoding="UTF-8"?>
<svg width="24px" height="20px" viewBox="0 0 24 20" version="1.1" xmlns="http://www.w3.org/2000/svg" xmlns:xlink="http://www.w3.org/1999/xlink">
    <title>0D70B28D-5E86-4F08-A28F-DFB2B2C5582F</title>
    <g id="UI-kit" stroke="none" stroke-width="1" fill="none" fill-rule="evenodd">
        <g id="Earth-Dashboard-UI-kit" transform="translate(-357.000000, -2628.000000)" fill="#009A67" fill-rule="nonzero">
            <path d="M373.618339,2628.31 L373.402204,2628.31484 C370.606585,2628.43406 368.376256,2630.73482 368.370002,2633.55834 L368.37,2633.92 L368.18341,2633.94017 C365.490592,2634.17041 362.908249,2632.69803 360.185917,2629.56782 C359.774393,2629.09464 358.998413,2629.30543 358.882846,2629.92178 L358.826882,2630.24203 C358.535694,2632.04177 358.685713,2633.58657 359.286667,2634.85123 L359.38,2635.036 L357.942688,2634.81851 C357.45254,2634.74402 357.026272,2635.15712 357.085343,2635.64936 L357.117987,2635.8792 C357.380297,2637.47633 358.347145,2638.82187 359.682484,2639.59954 L359.72,2639.62 L359.073693,2639.85515 C358.652407,2640.00835 358.458705,2640.49446 358.65918,2640.89541 L358.759879,2641.08915 C359.476266,2642.41427 360.44032,2643.09336 362.0551,2643.46763 L362.195407,2643.49926 C360.824968,2644.0645 359.344911,2644.34386 357.846851,2644.31019 C357.027626,2644.29178 356.776616,2645.41263 357.525446,2645.74538 C363.647647,2648.46583 369.086716,2648.25171 373.153471,2645.56448 L373.445708,2645.36523 C376.816534,2642.99474 378.83,2639.03298 378.83,2635.06 L378.83,2634.612 L380.619751,2633.31755 L380.701791,2633.24921 C381.079843,2632.88715 380.977484,2632.2358 380.475439,2632.02064 L379.081,2631.423 L379.861799,2629.72249 L379.898043,2629.6282 C380.074894,2629.06203 379.533093,2628.5025 378.943663,2628.69821 L376.783,2629.415 L376.735236,2629.37726 C375.919245,2628.75565 374.936252,2628.38706 373.909155,2628.32063 L373.618339,2628.31 Z M373.4226,2629.81562 L373.615,2629.809 C374.539587,2629.8199 375.430025,2630.17607 376.108608,2630.80861 L376.199544,2630.88108 C376.390647,2631.01049 376.633197,2631.04588 376.856337,2630.97179 L377.78,2630.664 L377.398201,2631.49751 L377.361511,2631.59455 C377.253145,2631.95414 377.429412,2632.34715 377.784561,2632.49936 L378.668,2632.878 L377.640249,2633.62245 C377.445385,2633.76349 377.33,2633.98945 377.33,2634.23 L377.33,2635.06 C377.33,2638.64925 375.447015,2642.25107 372.326529,2644.31302 L372.077889,2644.47259 C369.154061,2646.29444 365.426594,2646.71832 361.150056,2645.48401 L361.041,2645.451 L361.382619,2645.36255 C362.665406,2645.00507 363.889187,2644.43901 365.002603,2643.6796 C365.587719,2643.28052 365.344564,2642.36749 364.638464,2642.31228 L364.35105,2642.28855 C362.288475,2642.1086 361.209461,2641.79319 360.505472,2640.99375 L360.464,2640.945 L362.336307,2640.26485 C363.101729,2639.98651 362.937155,2638.8592 362.124108,2638.8113 L361.928787,2638.79478 C360.571263,2638.64495 359.4242,2637.78225 358.882034,2636.57792 L358.837,2636.471 L361.007312,2636.80149 C361.745624,2636.91369 362.17643,2635.99558 361.618273,2635.49944 L361.462339,2635.3538 C360.603818,2634.51092 360.172348,2633.36834 360.181785,2631.89024 L360.184,2631.768 L360.359204,2631.94167 C363.233345,2634.75391 366.136671,2635.94099 369.271474,2635.29454 C369.61997,2635.22268 369.87,2634.91583 369.87,2634.56 L369.87,2633.56 C369.874435,2631.5583 371.445124,2629.92318 373.4226,2629.81562 Z" id="twitter-copy"></path>
        </g>
    </g>
</svg>